<svg version="1.1" id="Layer_1" xmlns="http://www.w3.org/2000/svg" xmlns:xlink="http://www.w3.org/1999/xlink" x="0px" y="0px" viewBox="0 0 56.3 48.4" style="enable-background:new 0 0 56.3 48.4;" xml:space="preserve">
 <style type="text/css">
  .st0{fill:#CD001A;}
 </style>
 <g>
  <g>
   <path class="st0" d="M48.9,0l2.4,4.2l4.9-0.6l-2.6,3.9l2.2,5.1l-5.3-2.5l-4.5,2.5l0.8-4.5l-3.7-2.6l4.4-0.9L48.9,0z">
   </path>
   <path class="st0" d="M32.5,33.9c-0.5-0.7-2.1-3.3-2.5-7.3c-0.2-1.6-0.2-3.2-0.1-4.8c-1.4-1.3-3.5-2.2-6.1-2.5
			c3.6-3.4,5-7.5,4.1-10.8c-2-7.8-10.4-7.3-16.5-5.1C5.9,5.4,0,9,0,9l3.2,6.8L5.1,15l12.3,33.4c0,0,1.5-0.5,3.5-1.2
			c6-2.2,11.5-5.3,12.5-12.3C33,34.6,32.7,34.2,32.5,33.9z M14.8,20.2L12.2,12c0,0,1-0.5,2.6-1.2c2.1-0.8,3.9-0.6,4.7,1.1
			c1.3,3.2-0.3,6.5-3.6,7.8C15.5,20,14.8,20.2,14.8,20.2z M23.3,39.8c-0.5,0.4-2,1-2,1l-4.4-13.8l1.2-0.4c4.2-1.4,7.5,0.5,8.4,4.2
			C27.5,34.6,26.4,38.2,23.3,39.8z">
   </path>
   <path class="st0" d="M48.1,23.9L48.1,23.9c-1-6.5-4.4-9.9-9.5-9.5c-1.2,0.1-3.4,0.5-5.1,2.5c-1.8,2.1-2.5,5.5-2,9.9
			c0.3,3,1.4,5.4,2.3,6.7c1.9,2.7,4.1,4,6.7,4c0.2,0,0.3,0,0.5,0c1.6-0.1,3.9-0.4,5.5-2.4C48.2,32.9,48.8,29.2,48.1,23.9z
			 M36.9,25.5c-0.6-5.6,1.2-5.7,1.7-5.7c1.6-0.1,3.4,1.4,3.9,5.8c0.4,3.7-0.3,6.2-1.9,6.3C38.8,32,37.2,28.7,36.9,25.5L36.9,25.5z">
   </path>
  </g>
 </g>
</svg>