<svg width="86" height="54" viewBox="0 0 86 54" fill="none" xmlns="http://www.w3.org/2000/svg" xmlns:xlink="http://www.w3.org/1999/xlink">
 <path fill-rule="evenodd" clip-rule="evenodd" d="M42.9744 54C63.169 54 79.5407 41.9113 79.5407 27.0003C79.5407 12.0881 63.169 0 42.9744 0C22.7792 0 6.40802 12.0881 6.40802 27.0003C6.40802 41.9113 22.7792 54 42.9744 54Z" fill="white">
 </path>
 <path fill-rule="evenodd" clip-rule="evenodd" d="M79.4986 35.4973C79.4986 34.7203 80.1209 34.0828 80.9167 34.0828C81.652 34.0828 82.3336 34.7203 82.3336 35.4973C82.3336 36.2772 81.652 36.9136 80.9167 36.9136C80.1209 36.9136 79.4986 36.2772 79.4986 35.4973ZM82.1305 35.4973C82.1305 34.8452 81.5269 34.2854 80.9167 34.2854C80.2466 34.2854 79.7016 34.8494 79.7016 35.4973C79.7016 36.1517 80.2496 36.7109 80.9167 36.7109C81.5239 36.7109 82.1305 36.1517 82.1305 35.4973ZM80.2303 34.6884H80.9439C81.1674 34.6884 81.4726 34.7903 81.4726 35.0406C81.4726 35.2674 81.3269 35.4201 81.1674 35.4858L81.3783 35.8061C81.4883 35.9629 81.6055 36.1161 81.6798 36.1632V36.2024H81.3819C81.2532 36.2024 81.1946 35.9865 80.9203 35.5329H80.7161V35.9279C80.7161 36.0027 80.7161 36.0335 80.7239 36.0884C80.7318 36.1318 80.8103 36.136 80.9004 36.1475V36.2024H80.2303V36.1475C80.3209 36.136 80.3989 36.1318 80.4067 36.0884C80.4146 36.0335 80.4146 36.0027 80.4146 35.9279V34.9622C80.4146 34.8886 80.4146 34.8567 80.4067 34.8018C80.3989 34.7589 80.3209 34.7553 80.2303 34.7433V34.6884ZM80.791 35.4315C81.0097 35.4315 81.1783 35.3766 81.1783 35.1034C81.1783 34.8917 81.0647 34.7982 80.8647 34.7982H80.7831C80.7052 34.7982 80.7161 34.8886 80.7161 34.9435V35.4315H80.791Z" fill="#231F20">
 </path>
 <path fill-rule="evenodd" clip-rule="evenodd" d="M42.9743 52.2155C62.1864 52.2155 77.763 40.926 77.763 27C77.763 13.0752 62.1864 1.78638 42.9743 1.78638C23.7615 1.78638 8.18494 13.0752 8.18494 27C8.18494 40.926 23.7615 52.2155 42.9743 52.2155ZM19.2009 27.0036C19.2009 19.1397 29.8454 12.764 42.9749 12.764C56.1038 12.764 66.7482 19.1397 66.7482 27.0036C66.7482 34.8675 56.1038 41.2433 42.9749 41.2433C29.8454 41.2433 19.2009 34.8675 19.2009 27.0036Z" fill="#ED1B2E">
 </path>
 <path fill-rule="evenodd" clip-rule="evenodd" d="M42.9744 54C63.169 54 79.5407 41.9113 79.5407 27.0003C79.5407 12.0881 63.169 0 42.9744 0C22.7792 0 6.40802 12.0881 6.40802 27.0003C6.40802 41.9113 22.7792 54 42.9744 54ZM7.50104 27.0003C7.50104 12.6792 23.3834 1.07007 42.9744 1.07007C62.566 1.07007 78.4465 12.6792 78.4465 27.0003C78.4465 41.3214 62.566 52.9311 42.9744 52.9311C23.3834 52.9311 7.50104 41.3214 7.50104 27.0003Z" fill="#231F20">
 </path>
 <path fill-rule="evenodd" clip-rule="evenodd" d="M20.9867 27.0037C20.9867 20.1158 30.8311 14.5314 42.9746 14.5314C55.1181 14.5314 64.9619 20.1158 64.9619 27.0037C64.9619 33.8928 55.1181 39.4766 42.9746 39.4766C30.8311 39.4766 20.9867 33.8928 20.9867 27.0037ZM42.9746 40.5376C55.7066 40.5376 66.0301 34.4785 66.0301 27.0037C66.0301 19.5288 55.7066 13.4697 42.9746 13.4697C30.242 13.4697 19.9197 19.5288 19.9197 27.0037C19.9197 34.4785 30.242 40.5376 42.9746 40.5376Z" fill="#231F20">
 </path>
 <path fill-rule="evenodd" clip-rule="evenodd" d="M69.0024 35.4764C69.0024 34.6989 69.6259 34.0613 70.4205 34.0613C71.1564 34.0613 71.8386 34.6989 71.8386 35.4764C71.8386 36.2551 71.1564 36.8927 70.4205 36.8927C69.6259 36.8927 69.0024 36.2551 69.0024 35.4764ZM71.6343 35.4764C71.6343 34.8231 71.0319 34.2646 70.4205 34.2646C69.751 34.2646 69.206 34.8273 69.206 35.4764C69.206 36.1296 69.7546 36.6888 70.4205 36.6888C71.0277 36.6888 71.6343 36.1296 71.6343 35.4764ZM69.7347 34.6663H70.4477C70.6706 34.6663 70.9763 34.7688 70.9763 35.0186C70.9763 35.246 70.8313 35.398 70.6706 35.4643L70.8827 35.7858C70.9921 35.9414 71.1099 36.0941 71.1842 36.1411V36.1803H70.8863C70.757 36.1803 70.6984 35.9662 70.4241 35.512H70.2205V35.9065C70.2205 35.9813 70.2205 36.012 70.2283 36.0669C70.2368 36.1103 70.3147 36.114 70.4048 36.126V36.1803H69.7347V36.126C69.8253 36.114 69.9033 36.1103 69.9117 36.0669C69.919 36.012 69.919 35.9813 69.919 35.9065V34.9401C69.919 34.8665 69.919 34.8352 69.9117 34.7803C69.9033 34.7381 69.8253 34.7332 69.7347 34.7224V34.6663ZM70.2954 35.4106C70.5153 35.4106 70.6827 35.3551 70.6827 35.0813C70.6827 34.8702 70.5691 34.7761 70.3691 34.7761H70.2875C70.2084 34.7761 70.2205 34.8665 70.2205 34.9214V35.4106H70.2954Z" fill="#231F20">
 </path>
 <path fill-rule="evenodd" clip-rule="evenodd" d="M69.3426 40.6281L69.1439 40.3772C69.0701 40.2849 68.9747 40.2203 68.8708 40.1847C68.672 39.9616 68.3342 39.9211 68.0889 40.0979C67.9783 40.1781 67.8889 40.2372 67.8158 40.2819C67.3506 39.6949 66.1349 38.1622 65.5204 37.3877L65.6974 37.2502C66.1584 36.8961 66.3796 36.9263 66.9125 37.0047L67.124 37.0348C67.2799 37.0554 67.4327 37.0131 67.5584 36.9172L67.8279 36.7079C67.9711 36.5993 68.0557 36.4286 68.0557 36.2495C68.0569 36.0685 67.9753 35.8978 67.8333 35.7868L66.7856 34.9617L66.6448 34.8826L66.5331 34.7946C66.3216 34.6287 66.0249 34.6263 65.8134 34.7904L59.987 39.2757C59.7804 39.435 59.7073 39.7076 59.7979 39.9471C59.7357 39.888 59.6632 39.8439 59.5834 39.8174C59.4257 39.6388 59.1695 39.5671 58.9345 39.6563L53.1159 41.8821C52.9703 41.9376 52.8525 42.0486 52.7896 42.1922C52.76 42.2585 52.7449 42.3297 52.7401 42.4015L52.6579 42.3665C52.5322 42.2241 52.3407 42.1451 52.1383 42.1723L49.4483 42.539C49.2937 42.5595 49.1541 42.6398 49.0604 42.7646L49.0363 42.7996C48.9136 42.691 48.7456 42.6343 48.5692 42.6578L44.2757 43.2417C44.1216 43.2622 43.982 43.3455 43.8878 43.4673C43.7935 43.591 43.7536 43.7484 43.7742 43.9016L43.8189 44.2189C43.8503 44.4433 44.0074 44.6206 44.2098 44.69C44.3319 44.8281 44.5167 44.9066 44.7125 44.8861C44.7892 44.8782 44.8575 44.8722 44.9173 44.8686C45.0255 45.6431 45.4007 48.3213 45.449 48.6663C45.3548 48.6928 45.2201 48.7242 45.0303 48.7556C44.7681 48.7996 44.5772 49.0101 44.5457 49.261C44.1899 48.8877 43.776 48.5179 43.3373 48.1258C43.0068 47.8303 42.6721 47.5293 42.3658 47.2295C43.1645 46.8905 43.7005 46.2867 43.7603 45.5827C43.8038 45.0622 43.6551 44.5839 43.3301 44.2008C43.1718 44.0156 42.9718 43.8528 42.7349 43.714C42.2219 43.3268 41.4715 43.0831 40.5289 43.0071L35.569 42.6017C35.2463 42.5752 34.9641 42.8147 34.937 43.1356L34.9104 43.4541C34.8874 43.7261 35.0566 43.9722 35.3073 44.0561C35.4004 44.1616 35.5309 44.2346 35.6807 44.2509C35.74 44.2581 35.7943 44.2648 35.8433 44.272C35.7841 44.9747 35.5466 47.8037 35.5176 48.1481C35.4197 48.1536 35.2801 48.1554 35.085 48.1445C34.8427 48.1325 34.6282 48.2688 34.5285 48.4751L34.4935 48.3924C34.424 48.2579 34.3037 48.156 34.1605 48.1077C34.0935 48.0317 34.0071 47.9738 33.9092 47.9406C33.7624 47.7947 33.6331 47.5866 33.6089 47.4249C33.4464 46.3953 32.9962 43.1271 32.7817 42.1065C32.74 41.9026 32.5926 41.7392 32.3968 41.6734C32.3274 41.5938 32.2355 41.5329 32.1316 41.5003L31.276 41.2319C31.0664 41.1673 30.8368 41.2241 30.6827 41.3821C29.145 42.951 26.9481 44.801 26.5861 45.0942C26.2321 45.3849 25.8653 45.2998 25.7614 45.2679C25.5378 45.1979 25.3034 45.2685 25.1554 45.4307C25.1566 45.251 25.0756 45.0737 24.9209 44.9572C24.8013 44.8674 24.7149 44.795 24.6533 44.7401C24.8714 44.43 26.9928 41.437 27.0145 41.4153C27.0616 41.4334 27.1619 41.4798 27.3438 41.6065C27.6073 41.7892 27.9692 41.7277 28.1553 41.4665L28.342 41.2053C28.438 41.072 28.4725 40.9025 28.438 40.7415C28.403 40.581 28.3015 40.4429 28.1589 40.3609L28.0236 40.2819L27.9063 40.192L25.7209 38.9307C25.5638 38.8396 25.3735 38.8269 25.2055 38.8969L22.1379 40.1534L22.4171 36.9818C22.4352 36.7737 22.3403 36.5716 22.1681 36.451L19.8099 34.8127L19.741 34.7717L19.5567 34.6438C19.2939 34.4616 18.9326 34.5243 18.7465 34.7843L18.5604 35.0461C18.4691 35.1722 18.4329 35.3314 18.4595 35.4852C18.4861 35.6384 18.5737 35.7754 18.7018 35.8652C18.9326 36.0257 19.0437 36.2495 19.0395 36.5451C19.0395 36.5451 17.0148 39.3704 16.9592 39.4356C16.8994 39.4054 16.813 39.3553 16.6861 39.2721C16.4233 39.0996 16.0704 39.1653 15.8873 39.4199L15.7006 39.6811C15.52 39.9338 15.5689 40.2849 15.813 40.4785L17.6843 41.9636L17.8335 42.0498L17.9374 42.1325C18.0631 42.232 18.2238 42.276 18.3827 42.2537C18.474 42.241 18.5604 42.2055 18.6347 42.1536L18.625 42.2428C18.6039 42.4534 18.6987 42.6609 18.8734 42.7809L19.0993 42.9383L19.1694 42.98L19.3513 43.1066C19.5168 43.2206 19.7289 43.2429 19.9138 43.1657L20.2691 43.0155L20.2576 43.0324C20.1634 43.1627 20.1277 43.3268 20.1591 43.4842C20.1899 43.6423 20.2848 43.7804 20.4201 43.866L20.6032 43.9825L20.6733 44.0343L24.0708 46.1805C24.333 46.3452 24.6792 46.2788 24.8605 46.0267L24.9445 45.9079L24.9306 45.9513C24.8357 46.2457 24.9874 46.5617 25.2756 46.6739L25.3016 46.6848C25.3614 46.7523 25.4375 46.8072 25.5276 46.8422L27.6822 47.6813C27.832 47.7404 28.0006 47.735 28.1462 47.665C28.2918 47.5956 28.403 47.4695 28.4525 47.3157L28.5498 47.0123C28.5982 46.8639 28.5843 46.7023 28.5136 46.5641C28.4646 46.4731 28.3933 46.3953 28.3075 46.341L28.5371 46.0659L29.9298 46.502L29.9546 46.806C29.6972 46.794 29.4525 46.9544 29.3703 47.2114L29.2719 47.5148C29.2235 47.665 29.238 47.8285 29.3129 47.9678C29.3824 48.1005 29.5015 48.2 29.6428 48.2477C29.7153 48.3309 29.8102 48.3912 29.9184 48.4238L33.7122 49.5271C34.0167 49.6151 34.3364 49.4456 34.4336 49.1446L34.4463 49.1042C34.4687 49.3328 34.6246 49.5277 34.8421 49.6C34.9345 49.705 35.0657 49.7792 35.2161 49.7949L39.5253 50.2732C39.6824 50.2907 39.8395 50.2436 39.9616 50.1435C40.0836 50.0428 40.1598 49.8986 40.1737 49.7406L40.2003 49.4227L40.1966 49.3021C40.4564 49.5904 40.7048 49.8112 40.9543 49.9505C41.2105 50.1489 41.4631 50.2654 41.7271 50.2865L44.0696 50.4777C44.3766 50.5036 44.6467 50.2865 44.695 49.9885C44.7657 50.088 44.8678 50.1622 44.9838 50.202C45.1077 50.3438 45.2998 50.4228 45.5028 50.3957L49.7964 49.8112C49.9504 49.7907 50.09 49.7092 50.1837 49.585C50.2779 49.4613 50.3184 49.3051 50.2966 49.1513L50.2676 48.9426C50.3716 49.0312 50.4906 49.1205 50.6278 49.1983C50.9069 49.413 51.2773 49.6091 51.8283 49.5349L53.87 49.2568C54.0252 49.2357 54.1636 49.1549 54.2579 49.0318C54.3515 48.907 54.3926 48.7513 54.3715 48.5975L54.3364 48.3472C54.3159 48.2036 54.2422 48.0709 54.1298 47.9786C53.3866 47.3646 52.5715 46.7656 51.7842 46.1865C51.493 45.9706 51.1945 45.7528 50.9021 45.5345L51.8235 44.4674C52.3479 43.8636 52.5703 43.8178 52.5939 43.8142C52.7479 43.7943 52.8875 43.7122 52.9812 43.5886C53.0664 43.4764 53.108 43.337 53.0978 43.1983C53.1461 43.2321 53.1999 43.2592 53.2555 43.2797C53.4089 43.4529 53.6561 43.5252 53.8875 43.445C53.9781 43.4137 54.0573 43.3889 54.1249 43.3684L55.5158 46.8989C55.4319 46.9442 55.3122 47.0045 55.1406 47.0757C54.8476 47.1981 54.7068 47.5323 54.8228 47.8278L54.94 48.1258C55.0053 48.2923 55.1406 48.4123 55.2983 48.466C55.4548 48.6434 55.7122 48.7151 55.9466 48.6259L62.1163 46.2668C62.3761 46.1672 62.5301 45.9 62.4848 45.6274L62.2341 44.0826C62.2057 43.9089 62.1005 43.7581 61.9477 43.6694L61.845 43.6236C61.8021 43.5753 61.7525 43.5343 61.6963 43.5011C61.5429 43.4137 61.3586 43.3998 61.1948 43.4631L60.874 43.5856C60.7586 43.629 60.6625 43.7074 60.5955 43.8087C60.3725 43.2236 59.9828 42.2241 59.9828 42.2241L60.1024 42.1783C60.248 42.1222 60.3659 42.0106 60.4287 41.8677C60.4915 41.7253 60.4958 41.5636 60.4384 41.4189L60.213 40.8458L60.3713 41.186C60.4396 41.3332 60.564 41.443 60.7157 41.4937C60.7942 41.583 60.8976 41.6475 61.0154 41.6764C61.1888 41.7187 61.3719 41.6801 61.512 41.5715L61.7827 41.3634C61.9102 41.2651 61.9906 41.1251 62.0069 40.9665L62.0299 40.7415C62.0806 40.2312 62.1018 40.0195 62.5616 39.6654L62.6764 39.5767L64.9663 42.4648C64.8974 42.5318 64.7984 42.6247 64.654 42.7429C64.4068 42.945 64.367 43.3081 64.5651 43.5566L64.7651 43.8087C64.8382 43.901 64.9343 43.965 65.0382 44C65.2406 44.2304 65.5887 44.266 65.8346 44.0778L69.2411 41.4539C69.3662 41.3586 69.446 41.2174 69.4647 41.0624C69.4834 40.9074 69.4399 40.7505 69.3426 40.6281ZM18.5531 40.6993C18.5864 40.6438 18.7531 40.3977 18.8492 40.2601L18.793 40.9303C18.7169 40.8712 18.5912 40.733 18.5531 40.6993ZM21.976 42.2416L21.5488 42.8026C21.4721 42.7634 21.3301 42.6753 21.1972 42.5903L21.1827 42.5824L21.976 42.2416ZM39.8178 45.1521C39.7803 45.6805 39.5646 45.7547 39.4015 45.8023L39.4994 44.6641C39.5731 44.6695 39.703 44.6484 39.7966 44.6894C39.8849 44.6979 39.8335 44.9307 39.8178 45.1521ZM39.761 48.7779C39.6722 48.6946 39.5586 48.6398 39.4299 48.6253C39.3737 48.6192 39.2142 48.6126 39.1677 48.6054C39.1761 48.4986 39.1882 48.3424 39.2009 48.1711C39.3544 48.381 39.6528 48.6367 39.761 48.7779ZM59.9199 44.9964C59.7399 45.1599 59.5248 45.2902 59.2765 45.3855C59.1876 45.4199 59.0487 45.4736 58.923 45.514L58.5526 44.5736L58.8287 44.4674C58.9085 44.4373 58.9737 44.4222 59.0311 44.4186L59.0517 44.4626C59.1169 44.6303 59.2511 44.7503 59.4094 44.8022C59.5357 44.9458 59.7278 45.0194 59.9199 44.9964ZM57.5937 42.1373L58.1997 41.9051L58.2928 41.8731L58.2402 41.9732C58.1798 42.1264 58.1859 42.2971 58.2584 42.4437C58.2698 42.469 58.2964 42.5372 58.268 42.6108C58.2354 42.6898 58.1423 42.7634 58.0028 42.8165C58.0028 42.8165 57.9496 42.837 57.8801 42.8635L57.5937 42.1373ZM48.9867 47.8996L49.3801 48.1789C49.3118 48.1855 49.2036 48.2495 49.0435 48.2121L48.9867 47.8996ZM48.6961 44.9126L48.6224 44.3872C48.7172 44.3607 48.8635 44.3709 49.0417 44.2979C49.2109 44.2286 49.3082 44.1411 49.4362 44.0392L49.4677 44.0627C49.2242 44.3311 48.9184 44.6677 48.6961 44.9126Z" fill="#231F20">
 </path>
 <path fill-rule="evenodd" clip-rule="evenodd" d="M25.433 39.2797L21.2675 40.9879L21.6488 36.6473L19.2072 34.95L18.9449 35.3167L18.9993 35.3547C19.421 35.6472 19.6102 36.093 19.5479 36.6431C19.5479 36.6431 17.3794 39.6694 17.2308 39.8232C17.1099 39.9444 16.9788 40.0011 16.4 39.6223L16.3474 39.5867L16.0882 39.9486L18.0616 41.5151L18.3256 41.1478L18.2736 41.1092C17.7637 40.7346 17.7583 40.5211 17.8453 40.3437C17.9317 40.1525 19.2241 38.352 19.5842 37.8495L19.1431 42.2426L19.4259 42.4489L23.6578 40.6646L21.9382 43.0593C21.8657 43.1607 21.7835 43.2753 21.7074 43.3205C21.6687 43.3477 21.4639 43.3362 20.9346 42.9936L20.882 42.9592L20.6192 43.3271L24.1484 45.5216L24.4076 45.1585L24.3569 45.1217C23.8529 44.7453 23.772 44.5595 23.7835 44.5197C23.8028 44.4292 23.885 44.3146 23.9569 44.2138L26.2378 40.9849C26.5393 40.5621 26.7592 40.4909 27.3894 40.9282L27.442 40.9644L27.7072 40.5929L25.433 39.2797Z" fill="white">
 </path>
 <path fill-rule="evenodd" clip-rule="evenodd" d="M33.8035 48.3669L33.6657 48.7934L29.7468 47.6539L29.8858 47.2244L29.9474 47.2431C30.1631 47.3119 30.3238 47.3089 30.4108 47.2341C30.5051 47.1551 30.5063 47.0013 30.4894 46.8812L30.4133 45.9354L28.1082 45.214C27.9934 45.3521 27.5529 45.8787 27.5511 45.8805C27.4139 46.0313 27.3571 46.158 27.3837 46.2557C27.4127 46.3619 27.5396 46.4499 27.7602 46.5193L27.8224 46.538L27.6828 46.9711L25.408 46.0832L25.5439 45.6597L25.6049 45.6796C25.7729 45.7315 26.3614 45.8666 26.9137 45.4136C27.3004 45.1012 31.0827 41.6316 31.0827 41.6316L32.0126 41.9229C32.0126 41.9229 32.6839 46.2533 32.8416 47.2492C32.902 47.6539 33.3002 48.2089 33.7407 48.347L33.8035 48.3669ZM30.3003 45.2785L30.1426 43.3211L28.6139 44.7736L30.3003 45.2785Z" fill="white">
 </path>
 <path fill-rule="evenodd" clip-rule="evenodd" d="M43.9246 49.7131L41.518 49.5171C40.9386 49.47 40.2304 48.4814 39.5471 47.5265C39.3531 47.2551 39.17 47.0005 38.9984 46.7791L38.6281 46.749C38.6033 47.0675 38.4939 48.4687 38.4939 48.4687C38.4843 48.5911 38.4722 48.7305 38.5054 48.8179C38.5169 48.859 38.6951 48.9814 39.3718 49.0574L39.4347 49.0641L39.3972 49.5116L34.9587 49.02L34.9955 48.5767L35.0584 48.5797C35.723 48.6129 35.9417 48.5326 35.9671 48.4796C36.0112 48.4042 36.0227 48.2636 36.0336 48.1412L36.375 44.0714C36.3852 43.9489 36.3967 43.8102 36.3641 43.7233C36.349 43.6721 36.1472 43.5563 35.4868 43.4833L35.4239 43.4754L35.4614 43.0303L40.4866 43.4398C41.5241 43.5243 42.2829 43.8162 42.6799 44.2849C42.9174 44.5642 43.0207 44.902 42.9887 45.2862C42.9409 45.8599 42.3416 46.5354 41.1434 46.708C41.5869 47.2291 42.1706 47.7527 42.7385 48.2612C43.1736 48.6509 43.585 49.0188 43.9306 49.3807L43.9246 49.7131ZM38.6613 46.2049L39.1386 46.2477C39.8649 46.3068 40.2679 45.9256 40.3362 45.1113C40.3736 44.674 40.3138 44.3706 40.1537 44.183C40.0141 44.0165 39.7881 43.926 39.4468 43.8989L38.8589 43.8464L38.6613 46.2049Z" fill="white">
 </path>
 <path fill-rule="evenodd" clip-rule="evenodd" d="M53.5456 48.1266C52.8139 47.5216 52.0061 46.9275 51.223 46.352C50.7814 46.0275 50.3258 45.6915 49.8932 45.3616L51.1771 43.8765C51.6272 43.3578 51.9855 43.0875 52.2707 43.0483L52.3354 43.0393L52.2732 42.5935L49.4533 42.9783L49.5161 43.4223L49.5802 43.4133C49.9663 43.3614 50.2992 43.4247 50.3729 43.5634C50.4249 43.6618 50.336 43.7933 50.2539 43.8862L48.7808 45.5106C48.5832 45.7325 48.2521 45.858 48.092 45.899L47.8491 44.1685C47.8322 44.0472 47.8129 43.9091 47.8394 43.8252C47.8521 43.7685 48.0479 43.6431 48.7041 43.5321L48.7657 43.5224L48.7047 43.0803L44.2812 43.6811L44.3435 44.1244L44.4063 44.1172C45.0679 44.0484 45.2903 44.1172 45.315 44.1636C45.367 44.242 45.3869 44.3802 45.4039 44.502L45.97 48.5483C45.9869 48.6695 46.0063 48.8082 45.9803 48.8915C45.9664 48.9482 45.7718 49.0749 45.1157 49.1834L45.0528 49.1943L45.115 49.6376L49.5385 49.0356L49.4756 48.5923L49.4134 48.5995C48.7524 48.6689 48.5288 48.6001 48.5041 48.5531C48.4527 48.4747 48.4328 48.3365 48.4159 48.2141L48.1687 46.4534C48.1687 46.4534 50.4321 48.3106 50.4871 48.3601C50.7505 48.5923 51.023 48.8336 51.5046 48.7684L53.6121 48.4819L53.5456 48.1266Z" fill="white">
 </path>
 <path fill-rule="evenodd" clip-rule="evenodd" d="M61.4548 43.8351L61.0294 43.9979L61.0204 44.0299C60.792 44.8882 60.2675 45.4788 59.4621 45.787C58.7256 46.0675 58.4525 46.1278 58.2754 45.6784L57.6241 44.0233L58.3896 43.7313C59.1685 43.4333 59.4633 44.0058 59.5346 44.1879L59.5588 44.2476L60.0011 44.0793L59.1413 41.8976L58.6954 42.0683L58.7256 42.1328C58.8162 42.3162 58.8247 42.5303 58.7516 42.7167C58.664 42.9369 58.47 43.1106 58.189 43.2174L57.4223 43.5105L56.6652 41.5869L57.7607 41.1671C58.3425 40.9457 58.7945 41.0585 59.2736 41.5477L59.3044 41.5779L59.725 41.4174L59.1806 40.0349L53.2411 42.3066L53.4049 42.7228L53.4641 42.7016C54.0834 42.4869 54.3142 42.5056 54.3499 42.5442C54.4182 42.6088 54.4701 42.739 54.5148 42.8536L56.0139 46.661C56.0598 46.7768 56.1106 46.9059 56.1039 46.9934C56.1051 47.041 55.9692 47.2081 55.3426 47.4699L55.284 47.494L55.4489 47.9109L61.7285 45.5107L61.4548 43.8351Z" fill="white">
 </path>
 <path fill-rule="evenodd" clip-rule="evenodd" d="M68.4442 40.3988L68.3941 40.435C67.8636 40.8174 67.6382 40.8669 67.5923 40.8379C67.5077 40.7969 67.4195 40.6859 67.3427 40.5888L64.5325 37.0444L65.1277 36.5878C65.7627 36.0986 66.17 36.1559 66.7343 36.2385L66.9875 36.253L67.324 35.9942L66.1712 35.0864L60.2632 39.6351L60.8771 40.9573L61.2342 40.6823L61.2595 40.4386C61.3139 39.8897 61.3526 39.4928 61.9906 39.0018L62.5876 38.5421L65.3978 42.0889C65.4745 42.1861 65.5615 42.2958 65.5815 42.3809C65.599 42.437 65.4951 42.6409 64.9839 43.0607L64.935 43.1011L65.2135 43.4528L68.7234 40.7504L68.4442 40.3988Z" fill="white">
 </path>
 <path fill-rule="evenodd" clip-rule="evenodd" d="M69.6774 13.5822L69.6714 13.4483C69.6466 13.3223 69.5711 13.2119 69.4641 13.1413L66.7989 11.3757C66.5754 11.228 66.2739 11.2889 66.127 11.5121L65.9536 11.7726C65.8697 11.8975 65.8551 12.0465 65.895 12.1804C65.8316 12.3897 65.9053 12.6244 66.0956 12.7541C66.4122 12.9706 66.6032 13.1154 66.7198 13.2113C66.6745 13.2855 66.6285 13.3615 66.5705 13.4489C66.5705 13.4489 66.1548 14.0751 65.7814 14.636C65.4987 13.5919 65.2105 12.4549 64.9923 11.4885C64.909 11.1091 64.8383 10.7611 64.7863 10.4649L64.7561 10.3612C64.7452 10.3008 64.7337 10.2399 64.7235 10.1832C64.7011 10.0517 64.6256 9.93591 64.5138 9.86293L61.3985 7.79939C61.1749 7.651 60.8734 7.71193 60.7254 7.93511L60.552 8.19629C60.4807 8.30306 60.4553 8.43395 60.4807 8.56002L60.4964 8.59561C60.4281 8.81035 60.5042 9.05102 60.7006 9.18192C61.0535 9.41475 61.2946 9.71997 61.3985 10.0493L59.7296 12.561C59.6118 12.7384 59.5079 12.8771 59.4136 12.9857C59.3399 12.9567 59.1991 12.8886 58.9363 12.7221C58.7146 12.5809 58.4197 12.6449 58.2735 12.8632L58.0995 13.1244C58.0282 13.2318 58.0028 13.3621 58.0282 13.4881L58.0439 13.5249C57.9756 13.7391 58.0517 13.9797 58.2493 14.1106L60.9036 15.8684C61.0184 15.945 61.1592 15.9715 61.2927 15.945C61.4275 15.9172 61.5459 15.8376 61.6214 15.7236L61.7948 15.4624C61.9048 15.2965 61.9042 15.0908 61.8136 14.9274C61.8275 14.7603 61.755 14.592 61.6057 14.4901C61.3145 14.2904 61.1326 14.1529 61.013 14.0551L61.1133 13.9031L61.187 13.7928C61.187 13.7928 61.6728 13.0623 62.0963 12.4253C62.5809 14.2409 63.048 16.2942 63.1628 17.152C63.1827 17.2991 63.2649 17.4318 63.3888 17.5145L64.8721 18.4971C65.1108 18.6539 65.431 18.5894 65.5887 18.3517L68.0279 14.6807L68.1004 14.5715C68.1741 14.4587 68.2442 14.3513 68.3113 14.2723C68.3856 14.3025 68.5276 14.3724 68.7771 14.5293C69.014 14.6801 69.3294 14.6125 69.4853 14.3785L69.6587 14.1173C69.768 13.9514 69.7674 13.7451 69.6774 13.5822Z" fill="#231F20">
 </path>
 <path fill-rule="evenodd" clip-rule="evenodd" d="M60.0599 10.7693C60.3638 9.74684 60.0158 8.6828 59.1983 7.79911C58.5156 6.9655 57.4376 6.27845 56.176 5.90387C54.5012 5.40744 52.8964 5.47379 51.7454 5.98289L51.5701 5.07025C51.5339 4.87662 51.3883 4.73065 51.2046 4.67757C51.1224 4.57804 51.0076 4.50867 50.8729 4.49842L42.6332 3.84395C42.4151 3.82585 42.2133 3.95675 42.1384 4.16123L42.0266 4.46947C41.9668 4.22698 41.7619 4.03697 41.4834 3.99053L41.4345 3.9851H41.4302C41.3607 3.94589 41.2846 3.91452 41.197 3.89945L41.1505 3.89402C40.5463 3.85179 39.8013 3.91332 38.7947 4.02732C36.3053 4.30841 35.0407 5.04673 35.0274 6.22236C34.8274 6.05165 34.599 5.90266 34.3428 5.78021C33.744 5.4943 33.016 5.3628 32.2389 5.37728C31.448 5.34832 30.5925 5.4756 29.752 5.77177C26.9527 6.7592 25.2591 8.94157 25.8965 10.7415L25.9008 10.7524C25.6017 10.692 25.2651 10.7041 24.8984 10.7867C25.0911 10.1854 24.9274 9.7209 24.6809 9.38733C24.2253 8.77207 23.4344 8.66892 22.4543 9.05738C21.9281 9.20878 21.3341 9.51762 20.6985 9.9863L16.3929 13.1627C16.2895 13.2387 16.2201 13.3527 16.2013 13.48C16.182 13.6073 16.2152 13.737 16.2914 13.8395L16.4781 14.0917C16.6267 14.2931 16.9016 14.3438 17.1137 14.2189C17.2509 14.2485 17.3983 14.2262 17.5221 14.1399C17.6194 14.0718 17.7022 14.0187 17.7759 13.9722C18.1505 14.4783 20.0997 17.1119 20.0997 17.1119L20.1178 17.1372C20.0369 17.2235 19.8913 17.361 19.6327 17.5625C19.4254 17.7235 19.3849 18.0209 19.5408 18.2314L19.7281 18.4835C19.8774 18.685 20.1529 18.7357 20.3638 18.6102C20.5051 18.6422 20.6586 18.6162 20.7843 18.524L25.0398 15.3849C26.4452 14.3486 27.1853 13.2743 27.1865 12.3466C27.2705 12.3961 27.3575 12.4437 27.4488 12.4866C27.8046 12.6567 28.1798 12.7562 28.5545 12.8123C29.7611 13.0789 31.1121 12.84 31.9743 12.536C33.4576 12.013 34.8377 11.031 35.5234 9.84817L35.5978 10.5038C35.6256 10.7536 35.7996 10.9472 36.0407 11.0142C36.1252 11.095 36.2292 11.1565 36.353 11.1824L36.3893 11.1891C37.0799 11.285 37.8195 11.3097 39.3681 11.1348C41.9807 10.8398 43.3909 9.89824 43.2386 8.5513C43.1462 7.7394 42.5033 7.15188 41.1547 6.6464C40.7849 6.50405 40.4599 6.39004 40.1735 6.28931C39.6569 6.10835 39.0726 5.90266 39.0575 5.7772C39.0303 5.53893 39.4345 5.47439 39.4381 5.47379C39.6943 5.44484 39.904 5.48766 40.0901 5.57151C40.2448 5.68129 40.3855 5.8146 40.53 5.95092L40.6822 6.09207C40.7451 6.14997 40.8236 6.18616 40.9046 6.20426L40.942 6.23925C41.0526 6.33938 41.2006 6.38703 41.3481 6.37014L41.7299 6.32731C41.8598 6.31284 41.9783 6.24829 42.0628 6.14997C42.1408 6.20969 42.2344 6.2489 42.3347 6.25795L42.7178 6.2881C42.8453 6.29836 42.968 6.26398 43.0695 6.18616L43.2574 6.042C43.6972 5.7018 43.9178 5.53109 44.6507 5.5896C44.6507 5.5896 44.7298 5.59563 44.8404 5.60408L44.5389 9.38733L44.5359 9.4193C44.4193 9.43076 44.2193 9.4386 43.8906 9.42171C43.6284 9.40784 43.403 9.60388 43.3818 9.86627L43.3571 10.1787C43.3468 10.3072 43.3879 10.4339 43.4713 10.5316L43.6114 10.6426C43.6918 10.7952 43.8441 10.9032 44.0271 10.9188L48.8451 11.3013C48.9823 11.3121 49.1176 11.2681 49.2222 11.1788C49.3267 11.0902 49.3913 10.9641 49.4028 10.8272L49.427 10.5147C49.4463 10.2668 49.288 10.0472 49.0572 9.97967C48.9793 9.88557 48.8663 9.82043 48.7352 9.80595C48.592 9.79147 48.4772 9.77458 48.3805 9.7595C48.4216 9.25221 48.604 6.95162 48.688 5.9099L49.0868 5.94127C49.6524 5.98711 49.8971 6.12283 50.1587 6.37316L50.1955 6.41176L50.3484 6.57221L50.3684 6.58729L50.3998 6.61986L50.5526 6.78092L50.5967 6.81289C50.3859 7.06261 50.2245 7.34551 50.1303 7.66158C49.8886 8.4765 49.9647 9.25825 50.3581 9.98389L50.3768 10.0128C50.4106 10.0895 50.4463 10.1655 50.4874 10.2403C51.3762 11.8797 53.4891 12.5764 53.903 12.6995C55.1942 13.0831 57.208 13.2568 58.6328 12.486C59.347 12.0999 59.84 11.5064 60.0599 10.7693ZM53.8921 8.73226C54.2359 7.57533 54.7833 7.10001 55.5181 7.31897C55.8413 7.41427 56.1307 7.62539 56.3265 7.94509C56.4963 8.37456 56.5235 8.94277 56.3156 9.64309C55.7247 11.63 54.7845 11.3513 54.4305 11.247C54.2516 11.1933 54.0982 11.1004 53.9707 10.9768C53.6535 10.4779 53.6112 9.67204 53.8921 8.73226ZM37.0962 9.00068L37.0056 8.87582C36.9089 8.74432 36.7573 8.67435 36.5965 8.67314C36.5005 8.60076 36.3796 8.56698 36.2545 8.58086L35.9561 8.61464C35.999 8.26538 35.9694 7.90769 35.8685 7.54637C35.9935 7.63142 36.1313 7.71346 36.2817 7.79187C36.6944 8.04461 37.2201 8.2678 37.8436 8.44574C38.4213 8.608 38.7844 8.73467 39.0134 8.84023C39.1499 8.947 39.1608 9.03748 39.1717 9.13761C39.2013 9.39577 38.7771 9.6829 38.2817 9.73839C38.1101 9.75769 37.9633 9.74684 37.8285 9.72029C37.5035 9.56105 37.292 9.26971 37.0962 9.00068ZM32.0655 8.71477C32.758 10.6697 31.8335 10.9955 31.4855 11.1179C31.4112 11.145 31.335 11.1601 31.2601 11.1704C30.6191 11.063 30.004 10.3953 29.6288 9.33365C29.3859 8.64781 29.3502 8.09227 29.5254 7.72613C29.6348 7.49932 29.8318 7.33405 30.1121 7.23512C30.3024 7.16817 30.5073 7.14102 30.7163 7.16093C31.2414 7.33525 31.7489 7.81842 32.0655 8.71477ZM22.8302 13.5241C23.0175 13.5518 23.1776 13.6604 23.3208 13.854C23.4616 14.044 23.5177 14.237 23.4887 14.4288C23.4616 14.6146 23.351 14.7878 23.1806 14.9217C23.1347 14.874 23.0724 14.8028 22.9921 14.6943C22.9921 14.6943 22.603 14.1671 22.3129 13.7756L22.3552 13.7442C22.4912 13.6447 22.6308 13.5711 22.7655 13.5235L22.8302 13.5241ZM21.4066 11.7893C21.6429 12.1065 21.6501 12.3557 21.4284 12.5807L20.806 11.7386L20.8882 11.6789C20.9813 11.6089 21.058 11.5613 21.1293 11.5239C21.2308 11.5739 21.3329 11.6885 21.4066 11.7893Z" fill="#231F20">
 </path>
 <path fill-rule="evenodd" clip-rule="evenodd" d="M24.4116 15.0263C26.1288 13.7602 26.7729 12.4886 26.1343 11.6261C25.5941 10.8956 24.3941 11.0482 22.9265 12.0362L23.0135 12.0513L23.0038 12.038L22.9948 12.1231C24.0938 11.1477 24.4261 10.2966 23.9573 9.66265C23.4661 8.99913 22.3416 9.21568 20.9489 10.2435L16.6433 13.42L16.5925 13.4574L16.63 13.5086L16.8167 13.7608L16.8535 13.8102L16.9043 13.7746C17.5424 13.3301 17.7786 13.2891 17.8161 13.3114C17.9 13.3506 17.981 13.4598 18.0517 13.5569L20.4383 16.7804C20.5096 16.8769 20.5906 16.9867 20.6027 17.0735C20.6136 17.1206 20.5054 17.3335 19.8915 17.8124L19.8432 17.8504L19.8801 17.8999L20.0668 18.152L20.1042 18.2027L20.1556 18.1653L24.4116 15.0263ZM21.2691 13.724L21.7277 13.3868C21.9525 13.2203 22.4026 12.9537 22.8927 13.0267C23.1911 13.0719 23.4497 13.2384 23.6594 13.5231C23.866 13.8018 23.9506 14.1088 23.9053 14.4104C23.86 14.7156 23.683 14.9961 23.408 15.1988C23.1706 15.3731 23.0038 15.4859 22.8377 15.4606C22.6782 15.4371 22.5029 15.285 22.2691 14.969L21.2824 13.6353L21.2691 13.724ZM19.7616 11.6876L20.2601 11.3202C20.6057 11.0651 20.88 10.9625 21.1211 10.9993C21.338 11.0319 21.5422 11.1821 21.7465 11.4572C22.3277 12.2437 21.8069 12.7595 21.5549 12.9452L20.9966 13.3566L21.0861 13.3699L19.7749 11.5983L19.7616 11.6876Z" fill="white">
 </path>
 <path fill-rule="evenodd" clip-rule="evenodd" d="M31.4945 11.9904C32.683 11.5718 34.2975 10.6091 34.9367 9.27359C35.2382 8.64446 35.2799 8.01171 35.0612 7.39403C34.8576 6.81919 34.4286 6.36136 33.8189 6.07122C32.7863 5.57841 31.3187 5.58384 29.8922 6.0869C28.6281 6.53206 27.5641 7.24987 26.8959 8.1052C26.2584 8.92193 26.0385 9.80199 26.2929 10.5204C26.5382 11.2129 26.9877 11.719 27.6294 12.0254C28.8106 12.5894 30.4492 12.3595 31.4945 11.9904ZM31.6256 11.4336C30.5501 11.8124 29.4438 10.9818 28.8716 9.36588C28.213 7.50321 29.065 6.88916 29.6323 6.6901C30.5713 6.35895 31.8583 6.78239 32.4631 8.49366C33.0153 10.0535 32.7338 11.0428 31.6256 11.4336Z" fill="white">
 </path>
 <path fill-rule="evenodd" clip-rule="evenodd" d="M41.4535 5.60287L41.3164 4.38984C41.3085 4.32831 41.2559 4.25532 41.1272 4.23361C40.5484 4.1932 39.8246 4.25291 38.8421 4.3645C36.479 4.63112 35.3401 5.28679 35.4567 6.31283C35.5177 6.85209 36.3926 7.43779 37.6856 7.80514C39.34 8.27081 39.5364 8.52958 39.5907 9.00912C39.6548 9.57974 38.9998 9.99957 38.3291 10.0756C37.2699 10.1956 36.7745 9.51339 36.447 9.0616L36.36 8.94277L36.3389 8.91321L36.302 8.91743L35.9207 8.96147L35.8567 8.96871L35.8645 9.03144L36.0162 10.376C36.0265 10.4604 36.0784 10.5165 36.1654 10.5352C36.8422 10.6299 37.5267 10.6504 39.0355 10.4809C40.6167 10.3024 41.7562 9.86687 42.245 9.25462C42.4535 8.99464 42.5405 8.70632 42.5061 8.39748C42.4342 7.76895 41.8988 7.31052 40.7134 6.86596C40.346 6.72542 40.0239 6.61262 39.74 6.51249C38.8288 6.19219 38.372 6.03174 38.3255 5.62398C38.3056 5.44604 38.3479 5.2892 38.453 5.15771C38.6367 4.92729 38.9599 4.8362 39.1061 4.81992C39.9315 4.72582 40.4239 5.19028 40.8197 5.56366L40.9659 5.69998L40.9865 5.71928L41.0155 5.71566L41.3973 5.67284L41.4608 5.6656L41.4535 5.60287Z" fill="white">
 </path>
 <path fill-rule="evenodd" clip-rule="evenodd" d="M47.98 5.14996L48.8942 5.22234C49.7999 5.29533 50.0942 5.60839 50.5026 6.04209L50.6507 6.19831L50.6682 6.21641L50.6918 6.21822L51.0754 6.24898L51.1582 6.25441L51.1431 6.17298L50.8972 4.88817L50.8881 4.83992L50.8398 4.8363L42.5995 4.18122L42.5512 4.177L42.5343 4.22284L42.0884 5.45337L42.0606 5.53178L42.1434 5.53902L42.5264 5.56918L42.5506 5.57159L42.5693 5.55651L42.7518 5.41657C43.2152 5.05767 43.5512 4.79769 44.4593 4.87068L45.3729 4.94306L45.3149 4.8743L44.9584 9.33916C44.9499 9.4592 44.939 9.59431 44.8907 9.6679C44.8629 9.72038 44.6176 9.7994 43.8684 9.76019L43.8068 9.75657L43.8019 9.8187L43.7765 10.1318L43.7723 10.1945L43.8351 10.1993L48.6531 10.5824L48.7172 10.5878L48.722 10.5238L48.7468 10.212L48.7516 10.1499L48.6906 10.1438C47.9269 10.0618 47.7239 9.93814 47.71 9.89772C47.6725 9.81207 47.6828 9.67756 47.6924 9.55812L48.0483 5.09145L47.98 5.14996Z" fill="white">
 </path>
 <path fill-rule="evenodd" clip-rule="evenodd" d="M53.8758 11.9418C55.0842 12.3007 56.9585 12.469 58.26 11.7651C58.875 11.4327 59.2817 10.9459 59.4684 10.3174C59.643 9.73292 59.5645 9.11102 59.2424 8.51747C58.698 7.51315 57.5059 6.65661 56.0564 6.22593C54.7712 5.84531 53.4891 5.80007 52.4444 6.10046C51.4481 6.38698 50.7526 6.97027 50.5345 7.70014C50.3248 8.40407 50.3907 9.07784 50.7291 9.70215C51.3532 10.8512 52.8142 11.627 53.8758 11.9418ZM54.3102 11.5678C53.2172 11.2445 52.8112 9.92232 53.3 8.27981C53.8637 6.38578 54.9156 6.39 55.4909 6.5607C56.4455 6.84481 57.2376 7.94263 56.7192 9.68164C56.2461 11.2681 55.4365 11.9026 54.3102 11.5678Z" fill="white">
 </path>
 <path fill-rule="evenodd" clip-rule="evenodd" d="M65.1803 17.7326L67.6195 14.0622L67.689 13.9554C67.8002 13.7859 67.9053 13.6248 68.028 13.5084C68.1657 13.3715 68.3506 13.3757 68.9881 13.7781L69.0412 13.8118L69.0757 13.76L69.2491 13.4988L69.2847 13.4457L69.2303 13.4101L66.5658 11.6457L66.5126 11.6102L66.4769 11.6632L66.3035 11.9244L66.2691 11.9763L66.3205 12.0119C67.3035 12.6832 67.3325 12.8334 67.2642 13.0011C67.1905 13.1682 67.0781 13.3649 66.9216 13.6007L65.5567 15.6558L65.6437 15.6383L65.625 15.6244L65.651 15.66C65.1519 13.8987 64.5441 11.5191 64.3084 10.1739L64.3036 10.1474L64.2812 10.1329L61.1647 8.06879L61.1121 8.0332L61.0765 8.08628L60.9031 8.34747L60.8674 8.40055L60.9206 8.43614C61.5224 8.83365 61.8716 9.41392 61.8777 10.0268L61.8892 9.99058L60.0808 12.7128C59.9237 12.9493 59.7847 13.1284 59.659 13.2617C59.54 13.3811 59.4016 13.433 58.7122 12.9969L58.659 12.9631L58.624 13.015L58.4506 13.2762L58.4155 13.3287L58.4681 13.3643L61.1236 15.1232L61.1768 15.1582L61.2124 15.1051L61.3859 14.8439L61.4203 14.7914L61.3689 14.7558C60.3889 14.0863 60.3593 13.9301 60.4258 13.7672C60.485 13.6073 60.5925 13.4493 60.7055 13.2816L60.7786 13.1743L62.303 10.8791L62.2142 10.8966L62.2354 10.9098L62.2094 10.8743C62.7876 12.8889 63.442 15.6769 63.581 16.7241L63.5852 16.7518L63.6081 16.7681L65.0921 17.7507L65.1447 17.7857L65.1803 17.7326Z" fill="white">
 </path>
 <path fill-rule="evenodd" clip-rule="evenodd" d="M79.6171 32.9765C83.1246 32.9765 85.9716 30.1511 86 26.6562V26.5519C85.9716 23.0569 83.1246 20.2322 79.6171 20.2322H6.3823C2.85672 20.2322 0 23.0853 0 26.6037C0 30.1228 2.85672 32.9765 6.3823 32.9765H79.6171Z" fill="#231F20">
 </path>
 <path fill-rule="evenodd" clip-rule="evenodd" d="M6.38361 32.3088C3.23385 32.3088 0.671387 29.75 0.671387 26.6056C0.671387 23.4605 3.23385 20.9023 6.38361 20.9023H79.6045C82.7549 20.9023 85.3179 23.4605 85.3179 26.6056C85.3179 29.75 82.7549 32.3088 79.6045 32.3088H6.38361Z" fill="#ED1B2E">
 </path>
 <path fill-rule="evenodd" clip-rule="evenodd" d="M80.0405 29.1514C79.919 29.1514 79.8223 29.0543 79.8223 28.9336C79.8223 28.813 79.919 28.7159 80.0405 28.7159H83.9666C84.0796 28.4836 84.1775 28.2424 84.2518 27.9908H78.1402C78.02 27.9908 77.9233 27.8931 77.9233 27.7725C77.9233 27.653 78.02 27.5553 78.1402 27.5553H84.3618C84.4095 27.3201 84.4343 27.077 84.4458 26.8303H73.9923C73.872 26.8303 73.7748 26.7332 73.7748 26.6131C73.7748 26.4931 73.872 26.3954 73.9923 26.3954H84.4458C84.4349 26.1487 84.4101 25.9062 84.3642 25.6703H78.1402C78.02 25.6703 77.9233 25.5732 77.9233 25.4532C77.9233 25.3331 78.02 25.2354 78.1402 25.2354H84.256C84.1817 24.9839 84.0844 24.7432 83.9721 24.5104H80.0405C79.919 24.5104 79.8223 24.4127 79.8223 24.2926C79.8223 24.1726 79.919 24.0749 80.0405 24.0749H83.7334C82.8802 22.696 81.3576 21.7737 79.6145 21.7737H6.38513C4.64258 21.7737 3.11936 22.696 2.26682 24.0749H5.97729C6.09692 24.0749 6.1948 24.1726 6.1948 24.2926C6.1948 24.4127 6.09692 24.5104 5.97729 24.5104H2.02815C1.91577 24.7432 1.81849 24.9839 1.74478 25.2354H7.87633C7.99717 25.2354 8.09505 25.3331 8.09505 25.4532C8.09505 25.5732 7.99717 25.6703 7.87633 25.6703H1.63602C1.5901 25.9062 1.56533 26.1487 1.55505 26.3954H12.0248C12.1451 26.3954 12.243 26.4931 12.243 26.6131C12.243 26.7332 12.1451 26.8303 12.0248 26.8303H1.55505C1.56653 27.077 1.59131 27.3201 1.63843 27.5553H7.87633C7.99717 27.5553 8.09505 27.653 8.09505 27.7725C8.09505 27.8931 7.99717 27.9908 7.87633 27.9908H1.7478C1.82272 28.2424 1.9206 28.4836 2.03419 28.7159H5.97729C6.09692 28.7159 6.1948 28.813 6.1948 28.9336C6.1948 29.0543 6.09692 29.1514 5.97729 29.1514H2.27407C3.12842 30.5231 4.64802 31.4393 6.38513 31.4393H79.6145C81.3528 31.4393 82.8712 30.5231 83.7255 29.1514H80.0405Z" fill="#231F20">
 </path>
 <path fill-rule="evenodd" clip-rule="evenodd" d="M18.2801 26.6957L17.8928 28.1163L17.8747 28.2188C17.8747 28.2755 17.923 28.3147 18.0197 28.337C18.117 28.3587 18.1653 28.3943 18.1653 28.4426L18.1043 28.6543H16.4215L16.4759 28.4727C16.4959 28.4046 16.5647 28.3587 16.6814 28.337C16.7986 28.3147 16.8711 28.2471 16.8995 28.1344L17.7593 24.9428L17.7774 24.8403C17.7774 24.7794 17.7291 24.7396 17.6324 24.7191C17.5351 24.6991 17.4868 24.663 17.4868 24.6105C17.4868 24.6346 17.5073 24.5658 17.5478 24.4048H19.5882C19.8825 24.4048 20.1326 24.4591 20.3386 24.5683C20.6414 24.7251 20.793 24.9851 20.793 25.3476C20.793 25.7385 20.5973 26.0509 20.2057 26.2849C19.8704 26.4822 19.497 26.5829 19.0855 26.5872C19.2589 26.5908 19.3979 26.6517 19.503 26.7693C19.5761 26.8586 19.6462 27.0003 19.7151 27.1952L19.7816 27.3894L19.9634 27.9124C20.0239 28.0867 20.0945 28.2104 20.1755 28.2833C20.2118 28.3159 20.268 28.3425 20.3447 28.3624L20.4118 28.4534C20.4118 28.4251 20.3954 28.492 20.3628 28.6543H19.1459L18.5647 26.8773C18.5121 26.756 18.4378 26.6957 18.3405 26.6957H18.2801ZM18.8009 24.7432L18.3647 26.3573H18.613C18.8752 26.3573 19.1115 26.2825 19.3218 26.1335C19.6003 25.9363 19.7393 25.6462 19.7393 25.2631C19.7393 25.1546 19.7091 25.0496 19.6486 24.9489C19.5677 24.8119 19.4486 24.7432 19.2915 24.7432H18.8009Z" fill="white">
 </path>
 <path fill-rule="evenodd" clip-rule="evenodd" d="M22.6397 25.7288C23.027 25.7288 23.3539 25.8416 23.6209 26.0672C23.8989 26.309 24.0384 26.6197 24.0384 26.9979C24.0384 27.5058 23.8596 27.9256 23.5025 28.2586C23.1454 28.5909 22.7043 28.7568 22.1793 28.7568C21.792 28.7568 21.4651 28.6446 21.1986 28.4184C20.9201 28.1765 20.7811 27.8665 20.7811 27.4877C20.7811 26.984 20.9684 26.563 21.3443 26.2246C21.7074 25.894 22.1388 25.7288 22.6397 25.7288ZM22.7182 25.9767C22.456 25.9767 22.2198 26.2427 22.0101 26.7741C21.8403 27.2174 21.7557 27.5987 21.7557 27.9172C21.7557 28.3116 21.8705 28.5089 22.1007 28.5089C22.3714 28.5089 22.6095 28.2429 22.8155 27.7115C22.9805 27.2723 23.0638 26.8911 23.0638 26.569C23.0638 26.1739 22.9484 25.9767 22.7182 25.9767Z" fill="white">
 </path>
 <path fill-rule="evenodd" clip-rule="evenodd" d="M26.2059 25.1845L26.0362 25.8312H26.6295L26.5389 26.1696H25.9395L25.4609 27.9593C25.4331 28.0636 25.4186 28.1342 25.4186 28.1704C25.4186 28.2675 25.4694 28.3157 25.5703 28.3157C25.6627 28.3157 25.792 28.2572 25.9576 28.1402L26.0059 28.2307L26.0362 28.3097C26.0362 28.3779 25.9455 28.4665 25.7637 28.5757C25.5661 28.6964 25.3661 28.7567 25.1643 28.7567C24.983 28.7567 24.8314 28.7163 24.7105 28.636C24.5649 28.5395 24.4924 28.4062 24.4924 28.2367C24.4924 28.1203 24.5226 27.949 24.583 27.7234L25.0011 26.1696H24.6924L24.7407 25.9886C24.7528 25.944 24.8175 25.8915 24.9347 25.8312C25.0513 25.7709 25.1298 25.6683 25.1703 25.5229L25.2978 25.0512L26.0362 24.9728L26.0724 24.9668H26.1093C26.1975 24.9668 26.2422 24.9849 26.2422 25.0211C26.2422 25.0374 26.2301 25.0917 26.2059 25.1845Z" fill="white">
 </path>
 <path fill-rule="evenodd" clip-rule="evenodd" d="M28.034 28.1886L28.0944 28.2912L28.1252 28.3641C28.1252 28.4407 28.034 28.5252 27.8527 28.6175C27.6709 28.7104 27.495 28.7568 27.3259 28.7568C27.1319 28.7568 26.9742 28.7146 26.8534 28.6295C26.7162 28.5294 26.6473 28.3859 26.6473 28.2013C26.6473 28.1205 26.6715 27.989 26.7204 27.808L27.0896 26.4237L27.1077 26.3205C27.1077 26.2439 27.0691 26.1938 26.9923 26.1697C26.9162 26.1456 26.8775 26.1154 26.8775 26.0792C26.8775 26.075 26.8914 26.0105 26.9198 25.8856H27.1077C27.5113 25.8856 27.8346 25.8434 28.0763 25.7583C28.1331 25.7384 28.1693 25.7288 28.1856 25.7288L28.234 25.7891C28.234 25.8012 28.2195 25.8573 28.1917 25.958L27.6165 28.0131C27.5923 28.0981 27.5802 28.1645 27.5802 28.2127C27.5802 28.2936 27.6225 28.3334 27.7071 28.3334C27.8165 28.3334 27.9252 28.2851 28.034 28.1886ZM27.9373 24.3203C28.0866 24.3203 28.2128 24.3734 28.3156 24.4808C28.4183 24.5869 28.4702 24.7148 28.4702 24.8638C28.4702 25.0092 28.4195 25.1358 28.3186 25.245C28.2177 25.3536 28.0968 25.4079 27.9554 25.4079C27.7977 25.4079 27.6697 25.356 27.5712 25.251C27.4721 25.1461 27.4225 25.0152 27.4225 24.8584C27.4225 24.7208 27.4733 24.5972 27.5742 24.4862C27.6751 24.3752 27.7959 24.3203 27.9373 24.3203Z" fill="white">
 </path>
 <path fill-rule="evenodd" clip-rule="evenodd" d="M28.8939 26.7319C28.8939 26.4013 29.0474 26.1438 29.3537 25.9586C29.6124 25.8054 29.9193 25.7288 30.2746 25.7288C30.541 25.7288 30.773 25.7625 30.9706 25.8313C31.257 25.932 31.4008 26.0913 31.4008 26.3084C31.4008 26.4176 31.3585 26.5093 31.2733 26.5841C31.1887 26.6583 31.0915 26.6957 30.9827 26.6957C30.8939 26.6957 30.8075 26.6697 30.7223 26.6173C30.6256 26.5527 30.5773 26.4779 30.5773 26.3935L30.5954 26.3L30.6135 26.1999C30.6135 26.0708 30.4987 26.0068 30.2685 26.0068C30.1719 26.0068 30.0806 26.0328 29.996 26.0852C29.8994 26.1456 29.8504 26.2222 29.8504 26.3151C29.8504 26.4399 29.9616 26.5666 30.1833 26.6957C30.5549 26.905 30.7628 27.028 30.8075 27.0642C31.0292 27.2416 31.1404 27.4575 31.1404 27.7109C31.1404 28.0137 31.0171 28.261 30.7706 28.4546C30.5084 28.6561 30.1531 28.7568 29.7054 28.7568C29.4027 28.7568 29.1399 28.7104 28.9181 28.6181C28.6112 28.4932 28.4577 28.3014 28.4577 28.0432C28.4577 27.9226 28.5 27.8188 28.5852 27.732C28.6698 27.6457 28.7731 27.6023 28.8939 27.6023C29.0106 27.6023 29.1151 27.6397 29.2057 27.7139C29.2963 27.7887 29.3423 27.8822 29.3423 27.995C29.3423 28.0559 29.3247 28.1235 29.2903 28.1976C29.2559 28.2724 29.2389 28.3135 29.2389 28.3213C29.2389 28.4263 29.3622 28.4787 29.6087 28.4787C29.7417 28.4787 29.8607 28.4486 29.9652 28.3883C30.0903 28.3153 30.1531 28.217 30.1531 28.0921C30.1531 27.9509 30.0444 27.8098 29.8262 27.6686L29.2208 27.2941C29.0027 27.1252 28.8939 26.9376 28.8939 26.7319Z" fill="white">
 </path>
 <path fill-rule="evenodd" clip-rule="evenodd" d="M31.9215 26.7319C31.9215 26.4013 32.0749 26.1438 32.3813 25.9586C32.6399 25.8054 32.9468 25.7288 33.3021 25.7288C33.5686 25.7288 33.8006 25.7625 33.9982 25.8313C34.2845 25.932 34.4284 26.0913 34.4284 26.3084C34.4284 26.4176 34.3861 26.5093 34.3009 26.5841C34.2163 26.6583 34.119 26.6957 34.0102 26.6957C33.9214 26.6957 33.835 26.6697 33.7498 26.6173C33.6531 26.5527 33.6048 26.4779 33.6048 26.3935L33.6229 26.3L33.6411 26.1999C33.6411 26.0708 33.5263 26.0068 33.2961 26.0068C33.1994 26.0068 33.1081 26.0328 33.0236 26.0852C32.9269 26.1456 32.8779 26.2222 32.8779 26.3151C32.8779 26.4399 32.9891 26.5666 33.2109 26.6957C33.5825 26.905 33.7903 27.028 33.835 27.0642C34.0568 27.2416 34.1679 27.4575 34.1679 27.7109C34.1679 28.0137 34.0447 28.261 33.7982 28.4546C33.5359 28.6561 33.1813 28.7568 32.7329 28.7568C32.4302 28.7568 32.1674 28.7104 31.9456 28.6181C31.6387 28.4932 31.4858 28.3014 31.4858 28.0432C31.4858 27.9226 31.5275 27.8188 31.6127 27.732C31.6973 27.6457 31.8006 27.6023 31.9215 27.6023C32.0387 27.6023 32.1426 27.6397 32.2333 27.7139C32.3239 27.7887 32.3698 27.8822 32.3698 27.995C32.3698 28.0559 32.3523 28.1235 32.3178 28.1976C32.2834 28.2724 32.2665 28.3135 32.2665 28.3213C32.2665 28.4263 32.3897 28.4787 32.6363 28.4787C32.7692 28.4787 32.8882 28.4486 32.9927 28.3883C33.1178 28.3153 33.1813 28.217 33.1813 28.0921C33.1813 27.9509 33.0719 27.8098 32.8538 27.6686L32.2484 27.2941C32.0302 27.1252 31.9215 26.9376 31.9215 26.7319Z" fill="white">
 </path>
 <path fill-rule="evenodd" clip-rule="evenodd" d="M36.965 27.971L37.1468 28.1525C36.9976 28.3461 36.7982 28.4951 36.5499 28.5995C36.3021 28.7044 36.0484 28.7569 35.7904 28.7569C35.4351 28.7569 35.1445 28.664 34.9185 28.4788C34.6762 28.2774 34.5554 28.0011 34.5554 27.6507C34.5554 27.1271 34.759 26.6735 35.1668 26.2905C35.562 25.9159 36.026 25.7283 36.5595 25.7283C36.7855 25.7283 36.977 25.7765 37.1347 25.8736C37.3239 25.9907 37.4193 26.1596 37.4193 26.3815C37.4193 26.6874 37.2556 26.9395 36.9287 27.1367C36.5813 27.3503 36.1154 27.451 35.53 27.4389L35.5118 27.6748C35.4955 27.8883 35.536 28.0614 35.6327 28.1947C35.7378 28.3437 35.8973 28.4185 36.1112 28.4185C36.4097 28.4185 36.6943 28.2695 36.965 27.971ZM35.5783 27.1609C35.9777 27.1572 36.2888 27.0463 36.5106 26.8285C36.6882 26.6554 36.7771 26.4599 36.7771 26.2422C36.7771 26.0649 36.7045 25.9762 36.5595 25.9762C36.345 25.9762 36.1311 26.1234 35.9173 26.4177C35.7318 26.6759 35.6188 26.9232 35.5783 27.1609Z" fill="white">
 </path>
 <path fill-rule="evenodd" clip-rule="evenodd" d="M38.957 27.6023L38.612 28.6543H37.6857L37.9395 27.7169C38.0972 27.1366 38.1757 26.7379 38.1757 26.5202C38.1757 26.3953 38.1256 26.3289 38.0247 26.3211C37.9238 26.3127 37.867 26.2747 37.8549 26.2059L37.8247 26.043C38.1153 26.0189 38.38 25.9586 38.618 25.8615C38.844 25.7728 38.951 25.7288 38.9389 25.7288C39.0114 25.7288 39.0476 25.8657 39.0476 26.1395C39.0476 26.3615 39.0174 26.6034 38.957 26.8652H38.9812C39.163 26.5105 39.3038 26.2686 39.4053 26.1395C39.615 25.8657 39.841 25.7288 40.0832 25.7288C40.1962 25.7288 40.3002 25.7698 40.395 25.8524C40.4899 25.9351 40.5376 26.0328 40.5376 26.1456C40.5376 26.2825 40.4887 26.4019 40.392 26.5021C40.2953 26.6034 40.1781 26.6535 40.041 26.6535C39.9358 26.6535 39.8391 26.6173 39.7503 26.5449C39.6615 26.4719 39.6089 26.4357 39.5926 26.4357C39.5201 26.4357 39.4029 26.5992 39.2416 26.9255C39.1123 27.1915 39.0174 27.4171 38.957 27.6023Z" fill="white">
 </path>
 <path fill-rule="evenodd" clip-rule="evenodd" d="M42.0813 28.1886L42.1418 28.2912L42.172 28.3641C42.172 28.4407 42.0813 28.5252 41.8995 28.6175C41.7182 28.7104 41.5424 28.7568 41.3732 28.7568C41.1793 28.7568 41.0216 28.7146 40.9007 28.6295C40.7636 28.5294 40.6947 28.3859 40.6947 28.2013C40.6947 28.1205 40.7188 27.989 40.7678 27.808L41.137 26.4237L41.1551 26.3205C41.1551 26.2439 41.1164 26.1938 41.0397 26.1697C40.9629 26.1456 40.9249 26.1154 40.9249 26.0792C40.9249 26.075 40.9388 26.0105 40.9672 25.8856H41.1551C41.5587 25.8856 41.8813 25.8434 42.1236 25.7583C42.1804 25.7384 42.2167 25.7288 42.233 25.7288L42.2813 25.7891C42.2813 25.8012 42.2668 25.8573 42.239 25.958L41.6632 28.0131C41.6397 28.0981 41.627 28.1645 41.627 28.2127C41.627 28.2936 41.6699 28.3334 41.7545 28.3334C41.8632 28.3334 41.972 28.2851 42.0813 28.1886ZM41.9847 24.3203C42.1339 24.3203 42.2602 24.3734 42.3629 24.4808C42.4656 24.5869 42.517 24.7148 42.517 24.8638C42.517 25.0092 42.4668 25.1358 42.3659 25.245C42.265 25.3536 42.1436 25.4079 42.0028 25.4079C41.8451 25.4079 41.717 25.356 41.6185 25.251C41.5194 25.1461 41.4699 25.0152 41.4699 24.8584C41.4699 24.7208 41.52 24.5972 41.6215 24.4862C41.7224 24.3752 41.8433 24.3203 41.9847 24.3203Z" fill="white">
 </path>
 <path fill-rule="evenodd" clip-rule="evenodd" d="M45.0784 27.971L45.2603 28.1525C45.1105 28.3461 44.9117 28.4951 44.6633 28.5995C44.415 28.7044 44.1618 28.7569 43.9038 28.7569C43.5486 28.7569 43.2579 28.664 43.032 28.4788C42.7897 28.2774 42.6682 28.0011 42.6682 27.6507C42.6682 27.1271 42.8725 26.6735 43.2797 26.2905C43.6755 25.9159 44.1395 25.7283 44.6724 25.7283C44.8984 25.7283 45.0905 25.7765 45.2482 25.8736C45.4373 25.9907 45.5328 26.1596 45.5328 26.3815C45.5328 26.6874 45.3691 26.9395 45.0422 27.1367C44.6948 27.3503 44.2283 27.451 43.6434 27.4389L43.6253 27.6748C43.609 27.8883 43.6495 28.0614 43.7461 28.1947C43.8513 28.3437 44.0108 28.4185 44.2247 28.4185C44.5232 28.4185 44.8077 28.2695 45.0784 27.971ZM43.6918 27.1609C44.0912 27.1572 44.4023 27.0463 44.6241 26.8285C44.8017 26.6554 44.8905 26.4599 44.8905 26.2422C44.8905 26.0649 44.818 25.9762 44.6724 25.9762C44.4585 25.9762 44.2446 26.1234 44.0307 26.4177C43.8452 26.6759 43.7322 26.9232 43.6918 27.1609Z" fill="white">
 </path>
 <path fill-rule="evenodd" clip-rule="evenodd" d="M50.2675 24.4048L50.2131 24.5562C50.1847 24.6328 50.1122 24.6877 49.995 24.7221C49.8777 24.7564 49.795 24.8638 49.7466 25.0454L49.4016 26.3332L50.6608 25.2269C50.8789 25.0333 50.9883 24.9042 50.9883 24.8397C50.9883 24.7914 50.952 24.7462 50.8819 24.704C50.8113 24.6617 50.7762 24.6225 50.7762 24.5863C50.7762 24.5496 50.7901 24.4892 50.8185 24.4048H52.1804L52.1441 24.5562C52.1242 24.6364 52.0517 24.6931 51.9266 24.7251C51.7568 24.7733 51.6257 24.8379 51.5327 24.9187L50.2246 26.0913L51.1937 28.0861C51.2626 28.2272 51.3508 28.3153 51.4602 28.3521C51.549 28.3762 51.5937 28.4106 51.5937 28.4546C51.5937 28.4589 51.5774 28.5252 51.5448 28.6543H49.7829L49.8373 28.4727C49.8578 28.4046 49.914 28.3599 50.007 28.3394C50.1001 28.3195 50.146 28.2773 50.146 28.2128C50.146 28.1766 50.1122 28.0897 50.0433 27.9528L49.3472 26.5443L48.9231 28.1163L48.905 28.2188C48.905 28.2755 48.9545 28.3147 49.0536 28.3364C49.1521 28.3587 49.2016 28.3943 49.2016 28.4426C49.2016 28.451 49.1835 28.521 49.1472 28.6543H47.4337L47.482 28.4727C47.4984 28.4203 47.569 28.3762 47.6941 28.3394C47.8192 28.3038 47.8959 28.2309 47.9243 28.1223L48.7781 24.9428L48.7962 24.8397C48.7962 24.7794 48.7454 24.7402 48.6445 24.7221C48.5436 24.704 48.4935 24.6666 48.4935 24.6105C48.4935 24.5821 48.5158 24.5134 48.56 24.4048H50.2675Z" fill="white">
 </path>
 <path fill-rule="evenodd" clip-rule="evenodd" d="M53.4643 28.1886L53.5247 28.2912L53.5549 28.3641C53.5549 28.4407 53.4643 28.5252 53.2824 28.6175C53.1012 28.7104 52.9253 28.7568 52.7562 28.7568C52.5622 28.7568 52.4045 28.7146 52.2837 28.6295C52.1465 28.5294 52.0776 28.3859 52.0776 28.2013C52.0776 28.1205 52.1018 27.989 52.1501 27.808L52.5199 26.4237L52.538 26.3205C52.538 26.2439 52.4994 26.1938 52.4226 26.1697C52.3459 26.1456 52.3078 26.1154 52.3078 26.0792C52.3078 26.075 52.3217 26.0105 52.3501 25.8856H52.538C52.9411 25.8856 53.2643 25.8434 53.5066 25.7583C53.5634 25.7384 53.5996 25.7288 53.616 25.7288L53.6643 25.7891C53.6643 25.8012 53.6498 25.8573 53.622 25.958L53.0462 28.0131C53.022 28.0981 53.0099 28.1645 53.0099 28.2127C53.0099 28.2936 53.0528 28.3334 53.1374 28.3334C53.2462 28.3334 53.3555 28.2851 53.4643 28.1886ZM53.3676 24.3203C53.5169 24.3203 53.6425 24.3734 53.7459 24.4808C53.8486 24.5869 53.8999 24.7148 53.8999 24.8638C53.8999 25.0092 53.8498 25.1358 53.7489 25.245C53.648 25.3536 53.5265 25.4079 53.3858 25.4079C53.2281 25.4079 53.1 25.356 53.0015 25.251C52.9024 25.1461 52.8528 25.0152 52.8528 24.8584C52.8528 24.7208 52.903 24.5972 53.0039 24.4862C53.1054 24.3752 53.2262 24.3203 53.3676 24.3203Z" fill="white">
 </path>
 <path fill-rule="evenodd" clip-rule="evenodd" d="M55.8741 25.1845L55.7043 25.8312H56.2982L56.207 26.1696H55.6076L55.1297 27.9593C55.1013 28.0636 55.0874 28.1342 55.0874 28.1704C55.0874 28.2675 55.1375 28.3157 55.2384 28.3157C55.3309 28.3157 55.4602 28.2572 55.6257 28.1402L55.6741 28.2307L55.7043 28.3097C55.7043 28.3779 55.6136 28.4665 55.4318 28.5757C55.2342 28.6964 55.0342 28.7567 54.8324 28.7567C54.6511 28.7567 54.4995 28.7163 54.3786 28.636C54.233 28.5395 54.1605 28.4062 54.1605 28.2367C54.1605 28.1203 54.1907 27.949 54.2517 27.7234L54.6693 26.1696H54.3605L54.4088 25.9886C54.4209 25.944 54.4856 25.8915 54.6028 25.8312C54.7194 25.7709 54.7986 25.6683 54.839 25.5229L54.9659 25.0512L55.7043 24.9728L55.7405 24.9668H55.7774C55.8662 24.9668 55.9103 24.9849 55.9103 25.0211C55.9103 25.0374 55.8982 25.0917 55.8741 25.1845Z" fill="white">
 </path>
 <path fill-rule="evenodd" clip-rule="evenodd" d="M58.6166 27.9589L58.7985 28.1586C58.6408 28.3437 58.4444 28.4897 58.2082 28.5965C57.9719 28.7032 57.7327 28.7569 57.4904 28.7569C57.1351 28.7569 56.8445 28.6622 56.6185 28.4734C56.3762 28.2671 56.2547 27.9915 56.2547 27.6446C56.2547 27.1416 56.4487 26.6994 56.8366 26.3206C57.2402 25.9261 57.7308 25.7283 58.3079 25.7283C58.5054 25.7283 58.6795 25.7705 58.8287 25.8555C59.0063 25.9605 59.0951 26.1071 59.0951 26.2965C59.0951 26.4213 59.0492 26.5293 58.9586 26.6198C58.868 26.7109 58.758 26.7561 58.6287 26.7561C58.5157 26.7561 58.4166 26.7187 58.332 26.6439C58.2474 26.5697 58.2051 26.4762 58.2051 26.3628C58.2051 26.3025 58.2221 26.2422 58.2565 26.1819C58.2903 26.1216 58.3079 26.083 58.3079 26.0667L58.2293 26.0063C58.0432 26.0063 57.8414 26.1493 57.6239 26.4358C57.3611 26.7742 57.2299 27.1687 57.2299 27.6205C57.2299 27.834 57.2728 28.0096 57.3568 28.1465C57.4583 28.3075 57.6076 28.3878 57.8052 28.3878C58.0595 28.3878 58.3296 28.2448 58.6166 27.9589Z" fill="white">
 </path>
 <path fill-rule="evenodd" clip-rule="evenodd" d="M59.0768 28.6543L60.0756 24.9428L60.0937 24.8403C60.0937 24.7552 60.0556 24.7022 59.9789 24.6798C59.9022 24.6575 59.8635 24.6304 59.8635 24.5984C59.8635 24.5501 59.8798 24.4856 59.9124 24.4048L61.1958 24.3625L60.7354 26.0853C60.9855 25.9484 61.1438 25.8657 61.2079 25.8374C61.3813 25.765 61.5553 25.7288 61.7287 25.7288C61.9263 25.7288 62.0985 25.771 62.2435 25.8555C62.4127 25.9604 62.4979 26.1052 62.4979 26.291C62.4979 26.3555 62.4737 26.478 62.4248 26.6595L62.0616 28.0197C62.0296 28.1404 62.0133 28.217 62.0133 28.2489C62.0133 28.3183 62.0453 28.3521 62.11 28.3521C62.171 28.3521 62.2695 28.2936 62.4066 28.1766L62.4308 28.2188C62.4755 28.296 62.4979 28.3418 62.4979 28.3581C62.4979 28.4347 62.4248 28.5174 62.2797 28.606C62.1142 28.7068 61.9384 28.7568 61.7529 28.7568C61.5915 28.7568 61.4441 28.7128 61.3112 28.6241C61.1577 28.5234 61.081 28.3967 61.081 28.2429C61.081 28.1548 61.1033 28.0276 61.1475 27.8623L61.5166 26.4961C61.5414 26.408 61.5529 26.341 61.5529 26.297C61.5529 26.1842 61.4822 26.1275 61.3408 26.1275C61.1275 26.1275 60.8888 26.2445 60.6266 26.478L60.0454 28.6543H59.0768Z" fill="white">
 </path>
 <path fill-rule="evenodd" clip-rule="evenodd" d="M65.3013 27.971L65.4831 28.1525C65.3333 28.3461 65.1345 28.4951 64.8862 28.5995C64.6378 28.7044 64.3847 28.7569 64.1267 28.7569C63.7714 28.7569 63.4808 28.664 63.2548 28.4788C63.0125 28.2774 62.8917 28.0011 62.8917 27.6507C62.8917 27.1271 63.0953 26.6735 63.5031 26.2905C63.8983 25.9159 64.3629 25.7283 64.8958 25.7283C65.1212 25.7283 65.3133 25.7765 65.471 25.8736C65.6602 25.9907 65.755 26.1596 65.755 26.3815C65.755 26.6874 65.5919 26.9395 65.265 27.1367C64.9176 27.3503 64.4511 27.451 63.8663 27.4389L63.8481 27.6748C63.8318 27.8883 63.8723 28.0614 63.969 28.1947C64.0741 28.3437 64.2336 28.4185 64.4475 28.4185C64.746 28.4185 65.0306 28.2695 65.3013 27.971ZM63.9146 27.1609C64.314 27.1572 64.6252 27.0463 64.8469 26.8285C65.0245 26.6554 65.1134 26.4599 65.1134 26.2422C65.1134 26.0649 65.0408 25.9762 64.8958 25.9762C64.6813 25.9762 64.4674 26.1234 64.2536 26.4177C64.0681 26.6759 63.9551 26.9232 63.9146 27.1609Z" fill="white">
 </path>
 <path fill-rule="evenodd" clip-rule="evenodd" d="M66.0214 28.6543L66.6208 26.4236L66.6389 26.3151C66.6389 26.2385 66.5996 26.189 66.5211 26.1667C66.4425 26.145 66.4027 26.1154 66.4027 26.0792C66.4027 26.075 66.4172 26.0105 66.4456 25.8856H66.6087C67.0123 25.8856 67.335 25.8434 67.5779 25.7589C67.6341 25.7384 67.6703 25.7288 67.6866 25.7288L67.735 25.7891C67.735 25.8011 67.7205 25.8578 67.6927 25.9586L67.6625 26.0672C67.9863 25.8416 68.3102 25.7288 68.6346 25.7288C68.825 25.7288 68.9905 25.7788 69.1331 25.8796C69.2908 25.993 69.37 26.1395 69.37 26.3211C69.37 26.3935 69.3452 26.5202 69.2962 26.7017L68.9162 28.1162C68.8999 28.1765 68.8914 28.223 68.8914 28.255C68.8914 28.3237 68.9216 28.3581 68.9821 28.3581C69.0751 28.3581 69.176 28.296 69.2848 28.1705C69.3416 28.2833 69.37 28.3497 69.37 28.3702C69.37 28.451 69.2866 28.5354 69.1216 28.6241C68.9561 28.7128 68.7966 28.7568 68.6431 28.7568C68.4775 28.7568 68.3265 28.7188 68.1887 28.6422C68.0232 28.5493 67.941 28.4263 67.941 28.2736C67.941 28.1928 67.9688 28.0475 68.0256 27.8381L68.3766 26.5449C68.405 26.4399 68.4189 26.3712 68.4189 26.3392C68.4189 26.198 68.344 26.1275 68.1954 26.1275C67.9766 26.1275 67.7634 26.2445 67.5531 26.4779L66.9718 28.6543H66.0214Z" fill="white">
 </path>
</svg>