<?xml version="1.0" standalone="no"?>
<!DOCTYPE svg PUBLIC "-//W3C//DTD SVG 20010904//EN"
 "http://www.w3.org/TR/2001/REC-SVG-20010904/DTD/svg10.dtd">
<svg version="1.0" xmlns="http://www.w3.org/2000/svg"
 width="1174.000000pt" height="287.000000pt" viewBox="0 0 1174.000000 287.000000"
 preserveAspectRatio="xMidYMid meet">

<g transform="translate(0.000000,287.000000) scale(0.100000,-0.100000)"
fill="#000000" stroke="none">
<path d="M373 2746 c-106 -34 -204 -123 -245 -224 l-23 -57 0 -1035 0 -1035
31 -66 c41 -86 89 -138 166 -180 l63 -34 5482 -3 5482 -2 56 21 c90 33 153 92
200 183 l40 79 0 1036 0 1036 -23 57 c-33 81 -108 160 -190 200 l-67 33 -5465
2 c-4501 1 -5472 -1 -5507 -11z m1907 -341 c0 -96 -3 -115 -15 -115 -12 0 -15
19 -15 115 0 96 3 115 15 115 12 0 15 -19 15 -115z m270 100 c0 -10 -11 -15
-35 -15 l-35 0 0 -100 c0 -82 -3 -100 -15 -100 -12 0 -15 18 -15 100 l0 100
-35 0 c-24 0 -35 5 -35 15 0 12 16 15 85 15 69 0 85 -3 85 -15z m140 10 c0 -3
-7 -21 -14 -40 -17 -39 -41 -49 -31 -12 4 12 9 30 11 40 5 15 34 26 34 12z
m218 -14 c3 -10 -2 -12 -24 -8 -33 6 -64 -7 -64 -28 0 -8 19 -27 43 -41 23
-15 45 -32 49 -38 14 -21 8 -56 -13 -77 -26 -26 -102 -24 -107 4 -3 14 0 16
21 8 33 -13 65 -3 73 22 7 22 -7 38 -65 69 -63 35 -28 112 48 106 19 -2 37 -9
39 -17z m353 -68 l54 -87 3 87 c2 68 6 87 17 87 12 0 15 -21 15 -115 0 -149
-12 -152 -92 -23 l-58 93 0 -93 c0 -75 -3 -92 -15 -92 -12 0 -15 19 -15 115 0
105 2 115 19 115 12 0 36 -28 72 -87z m365 69 c63 -50 58 -164 -7 -198 -57
-29 -120 -11 -148 43 -26 52 -3 139 43 162 33 15 89 12 112 -7z m294 3 c0 -10
-11 -15 -35 -15 l-35 0 0 -100 c0 -82 -3 -100 -15 -100 -12 0 -15 18 -15 100
l0 100 -35 0 c-24 0 -35 5 -35 15 0 12 16 15 85 15 69 0 85 -3 85 -15z m377
-5 c37 -22 48 -53 40 -112 -8 -63 -42 -91 -117 -96 l-60 -4 0 116 0 116 53 0
c34 0 63 -7 84 -20z m283 5 c0 -11 -12 -15 -45 -15 -45 0 -45 0 -45 -35 0 -35
0 -35 45 -35 25 0 45 -4 45 -10 0 -5 -20 -10 -45 -10 l-45 0 0 -40 0 -40 50 0
c38 0 50 -4 50 -15 0 -12 -14 -15 -65 -15 l-65 0 0 115 0 115 60 0 c47 0 60
-3 60 -15z m150 -85 l0 -100 50 0 c38 0 50 -4 50 -15 0 -12 -14 -15 -65 -15
l-65 0 0 115 c0 96 3 115 15 115 12 0 15 -18 15 -100z m230 -15 c0 -96 -3
-115 -15 -115 -12 0 -15 19 -15 115 0 96 3 115 15 115 12 0 15 -19 15 -115z
m160 27 c15 -45 29 -84 31 -86 3 -3 18 35 34 85 22 68 33 89 47 89 15 0 13
-13 -22 -111 -22 -61 -40 -113 -40 -115 0 -2 -9 -4 -19 -4 -16 0 -25 19 -50
100 -17 55 -34 107 -38 116 -4 12 -1 15 13 12 13 -2 25 -26 44 -86z m350 73
c0 -11 -12 -15 -45 -15 -45 0 -45 0 -45 -35 0 -35 0 -35 45 -35 25 0 45 -4 45
-10 0 -5 -20 -10 -45 -10 l-45 0 0 -40 0 -40 50 0 c38 0 50 -4 50 -15 0 -12
-14 -15 -65 -15 l-65 0 0 115 0 115 60 0 c47 0 60 -3 60 -15z m238 -1 c26 -18
30 -65 7 -88 -11 -11 -13 -21 -7 -33 6 -10 14 -35 20 -55 9 -34 8 -38 -8 -38
-12 0 -20 10 -24 35 -8 40 -29 65 -57 65 -16 0 -19 -7 -19 -50 0 -38 -4 -50
-15 -50 -12 0 -15 19 -15 115 l0 115 48 0 c27 0 57 -7 70 -16z m174 -36 l25
-53 27 53 c14 28 33 52 41 52 21 0 20 -3 -20 -74 -26 -47 -35 -75 -35 -109 0
-35 -4 -47 -15 -47 -11 0 -15 12 -15 45 0 32 -10 64 -32 108 -18 34 -34 65
-36 70 -2 4 5 7 15 7 13 0 27 -17 45 -52z m498 -63 c0 -96 -3 -115 -15 -115
-12 0 -15 19 -15 115 0 96 3 115 15 115 12 0 15 -19 15 -115z m260 100 c0 -10
-11 -15 -35 -15 l-35 0 0 -100 c0 -82 -3 -100 -15 -100 -12 0 -15 18 -15 100
l0 100 -35 0 c-24 0 -35 5 -35 15 0 12 16 15 85 15 69 0 85 -3 85 -15z m150
10 c0 -3 -7 -21 -14 -40 -17 -39 -41 -49 -31 -12 4 12 9 30 11 40 5 15 34 26
34 12z m218 -14 c3 -10 -2 -12 -24 -8 -33 6 -64 -7 -64 -28 0 -8 19 -27 43
-41 23 -15 45 -32 49 -38 14 -21 8 -56 -13 -77 -26 -26 -102 -24 -107 4 -3 15
0 16 24 7 34 -13 61 -5 70 22 7 23 -7 38 -65 70 -63 35 -28 112 48 106 19 -2
37 -9 39 -17z m409 -1 c36 -21 50 -66 39 -123 -10 -54 -46 -80 -116 -85 l-60
-4 0 116 0 116 53 0 c34 0 63 -7 84 -20z m193 -95 c0 -96 -3 -115 -15 -115
-12 0 -15 19 -15 115 0 96 3 115 15 115 12 0 15 -19 15 -115z m278 98 c2 -9
-11 -13 -46 -13 -61 0 -90 -21 -99 -72 -10 -63 45 -118 104 -103 18 4 23 12
23 40 0 31 -3 35 -25 35 -14 0 -25 5 -25 10 0 6 18 10 40 10 l40 0 0 -54 c0
-60 -6 -66 -70 -66 -77 0 -120 41 -120 115 0 47 14 71 53 96 36 22 117 23 125
2z m162 -98 c0 -96 -3 -115 -15 -115 -12 0 -15 19 -15 115 0 96 3 115 15 115
12 0 15 -19 15 -115z m276 97 c63 -50 58 -164 -7 -198 -33 -16 -82 -18 -110
-4 -66 36 -63 176 5 209 33 15 89 12 112 -7z m272 2 c26 -18 30 -65 7 -88 -11
-11 -13 -21 -7 -33 6 -10 14 -35 20 -55 9 -34 8 -38 -8 -38 -14 0 -21 10 -26
35 -7 42 -27 65 -55 65 -16 0 -19 -7 -19 -50 0 -38 -4 -50 -15 -50 -12 0 -15
19 -15 115 l0 115 48 0 c27 0 57 -7 70 -16z m225 -71 l56 -88 1 88 c0 70 3 87
15 87 12 0 15 -19 15 -115 0 -149 -12 -152 -92 -23 l-58 93 0 -93 c0 -75 -3
-92 -15 -92 -12 0 -15 19 -15 115 0 106 2 115 19 115 12 0 37 -29 74 -87z
m353 69 c63 -50 58 -164 -7 -198 -57 -29 -120 -11 -148 43 -26 52 -3 139 43
162 33 15 89 12 112 -7z m262 -50 c4 -28 -24 -40 -45 -19 -21 21 -9 49 19 45
15 -2 24 -11 26 -26z m-3350 -139 c-2 -10 -10 -18 -18 -18 -8 0 -16 8 -18 18
-2 12 3 17 18 17 15 0 20 -5 18 -17z m3270 0 c-2 -10 -10 -18 -18 -18 -8 0
-16 8 -18 18 -2 12 3 17 18 17 15 0 20 -5 18 -17z m-5670 -252 c68 -20 180
-70 209 -93 9 -7 0 -42 -34 -141 -25 -73 -49 -135 -53 -140 -3 -4 -27 19 -52
50 -105 134 -289 193 -447 144 -203 -63 -333 -255 -365 -541 -9 -78 10 -275
35 -356 49 -159 141 -281 255 -339 54 -27 68 -30 160 -30 96 0 103 2 177 38
l77 38 0 242 c0 238 -1 243 -25 285 l-24 42 185 0 184 0 0 -309 0 -309 -57
-46 c-72 -57 -186 -117 -278 -146 -107 -34 -322 -40 -434 -12 -275 70 -477
281 -552 577 -33 128 -33 362 -1 480 84 305 295 514 587 581 94 21 359 13 453
-15z m2076 5 c245 -47 441 -206 546 -443 50 -113 64 -198 64 -373 -1 -187 -16
-266 -80 -400 -140 -297 -441 -462 -766 -420 -173 21 -292 77 -417 197 -133
125 -217 300 -242 503 -30 248 30 489 169 670 164 215 448 319 726 266z m4826
-16 c256 -73 445 -273 522 -555 31 -116 31 -374 0 -489 -107 -391 -438 -623
-819 -577 -182 22 -331 97 -450 224 -178 191 -257 480 -208 761 34 195 98 320
229 452 75 76 106 98 176 132 78 37 159 63 235 76 65 10 241 -3 315 -24z
m-9375 -25 c222 -55 392 -227 451 -455 23 -86 23 -243 0 -335 -56 -230 -231
-407 -456 -459 -50 -12 -129 -16 -342 -16 l-278 0 0 640 0 639 128 3 c233 5
435 -2 497 -17z m1073 -622 l2 -643 -160 0 -160 0 0 645 0 646 158 -3 157 -3
3 -642z m2302 -153 l0 -800 -160 0 -160 0 0 793 c0 437 3 797 7 800 3 4 75 7
160 7 l153 0 0 -800z m2763 785 c263 -47 445 -256 423 -487 -10 -110 -39 -173
-115 -248 -41 -41 -92 -79 -136 -101 l-71 -36 47 -26 c64 -35 105 -89 186
-247 39 -74 105 -201 147 -281 42 -81 76 -150 76 -153 0 -3 -78 -6 -174 -6
l-175 0 -39 72 c-21 40 -85 162 -142 271 -93 180 -106 200 -145 222 -50 30
-98 31 -200 7 l-70 -17 4 -278 3 -277 -161 0 -161 0 0 800 0 800 313 0 c222
-1 335 -5 390 -15z m1108 -122 c52 -76 243 -354 424 -617 l330 -479 3 617 2
616 70 0 70 0 0 -800 0 -800 -133 0 -134 0 -274 398 c-150 218 -334 485 -409
594 l-135 196 -3 -594 -2 -595 -70 3 -71 3 1 698 0 698 -65 91 c-36 50 -65 95
-65 100 0 4 82 8 183 8 l183 0 95 -137z m2790 -1312 c50 -50 33 -144 -30 -171
-107 -44 -202 90 -122 171 24 24 38 29 76 29 38 0 52 -5 76 -29z m-8961 -96
l0 -55 -850 0 -850 0 0 55 0 55 850 0 850 0 0 -55z"/>
<path d="M3525 2477 c-18 -15 -28 -36 -32 -64 -5 -37 -2 -45 25 -73 37 -36 52
-37 89 -6 23 20 28 32 28 71 0 39 -5 51 -28 71 -35 30 -49 30 -82 1z"/>
<path d="M4197 2494 c-4 -4 -7 -48 -7 -97 l0 -90 37 6 c48 8 73 35 80 84 4 32
1 45 -18 66 -24 27 -78 45 -92 31z"/>
<path d="M5627 2494 c-4 -4 -7 -25 -7 -46 0 -34 3 -38 24 -38 41 0 67 37 48
67 -9 14 -55 27 -65 17z"/>
<path d="M7317 2494 c-4 -4 -7 -48 -7 -97 l0 -90 37 6 c48 8 73 35 80 84 4 32
1 45 -18 66 -24 27 -78 45 -92 31z"/>
<path d="M8225 2477 c-18 -15 -28 -36 -32 -64 -5 -37 -2 -45 25 -73 37 -36 52
-37 89 -6 23 20 28 32 28 71 0 39 -5 51 -28 71 -35 30 -49 30 -82 1z"/>
<path d="M8517 2494 c-4 -4 -7 -25 -7 -46 0 -34 3 -38 24 -38 41 0 67 37 48
67 -9 14 -55 27 -65 17z"/>
<path d="M9073 2476 c-23 -20 -28 -32 -28 -71 0 -39 5 -51 28 -71 15 -13 34
-24 42 -24 8 0 27 11 42 24 23 20 28 32 28 71 0 39 -5 51 -28 71 -15 13 -34
24 -42 24 -8 0 -27 -11 -42 -24z"/>
<path d="M2983 1887 c-199 -147 -304 -394 -290 -682 13 -271 122 -475 327
-615 26 -17 18 -5 -31 46 -172 180 -252 411 -236 679 14 224 96 413 243 558
31 32 54 57 51 57 -2 0 -31 -20 -64 -43z"/>
<path d="M3740 1863 c25 -23 47 -39 49 -37 10 9 -11 31 -50 53 l-44 24 45 -40z"/>
<path d="M3718 925 c1 -146 6 -265 10 -265 4 0 17 8 30 18 22 17 22 18 20 262
l-3 245 -30 3 -30 3 3 -266z"/>
<path d="M5530 1931 c-150 -49 -261 -189 -317 -399 -23 -86 -26 -116 -27 -267
0 -101 5 -194 13 -230 19 -93 58 -205 90 -259 42 -71 126 -152 190 -184 48
-23 69 -27 141 -27 71 0 94 4 143 27 174 82 281 304 294 609 14 339 -89 598
-279 699 -54 29 -74 34 -143 37 -44 1 -91 -1 -105 -6z"/>
<path d="M5245 1894 c-95 -63 -193 -182 -243 -296 -110 -252 -84 -590 62 -811
41 -62 144 -161 197 -191 30 -17 26 -11 -27 45 -109 116 -168 223 -207 379
-30 122 -30 340 0 460 40 158 100 268 207 378 33 34 58 62 56 62 -3 0 -23 -12
-45 -26z"/>
<path d="M5941 1862 c121 -134 189 -356 189 -613 0 -257 -68 -477 -189 -612
l-45 -50 34 18 c56 29 136 117 173 191 76 152 102 295 93 504 -7 170 -28 268
-86 388 -42 88 -117 175 -180 207 l-34 18 45 -51z"/>
<path d="M10021 1907 c-145 -92 -251 -244 -302 -433 -31 -113 -31 -335 0 -449
38 -141 94 -239 191 -335 47 -47 104 -95 125 -107 35 -19 30 -11 -42 63 -68
69 -91 102 -133 186 -85 173 -115 356 -91 543 28 210 116 385 258 515 30 28
53 50 51 50 -2 0 -28 -15 -57 -33z"/>
<path d="M10290 1931 c-227 -74 -364 -358 -347 -720 9 -213 53 -367 138 -485
145 -202 404 -222 565 -43 55 61 117 186 145 292 19 67 22 110 23 270 1 169
-2 200 -22 280 -48 185 -148 328 -267 385 -54 25 -186 37 -235 21z"/>
<path d="M10697 1864 c82 -97 122 -180 165 -342 20 -76 23 -111 23 -272 0
-161 -3 -196 -23 -272 -42 -158 -95 -266 -179 -359 l-38 -43 43 24 c53 30 129
108 166 173 147 251 141 736 -13 976 -37 57 -114 131 -161 156 -33 17 -32 16
17 -41z"/>
<path d="M660 1405 l0 -575 35 0 35 0 0 575 0 575 -35 0 -35 0 0 -575z"/>
<path d="M910 1400 l0 -513 80 6 c242 16 389 211 389 517 1 287 -151 483 -386
498 l-83 5 0 -513z"/>
<path d="M1309 1829 c53 -66 83 -124 112 -219 20 -62 24 -97 24 -205 0 -183
-36 -303 -126 -422 -22 -29 -37 -53 -33 -53 4 0 31 18 59 39 123 93 185 266
172 481 -12 192 -88 342 -207 409 l-43 24 42 -54z"/>
<path d="M2040 1405 l0 -575 35 0 35 0 0 575 0 575 -35 0 -35 0 0 -575z"/>
<path d="M4345 1968 c-3 -7 -4 -335 -3 -728 l3 -715 33 -3 32 -3 0 730 0 731
-30 0 c-17 0 -33 -6 -35 -12z"/>
<path d="M6720 1250 l0 -731 33 3 32 3 0 725 0 725 -32 3 -33 3 0 -731z"/>
<path d="M6969 1908 c-3 -47 4 -754 7 -758 10 -10 142 32 222 70 145 69 229
177 253 322 27 162 -38 286 -178 338 -97 36 -302 55 -304 28z"/>
<path d="M7448 1844 c73 -91 98 -219 68 -347 -21 -90 -54 -152 -118 -222 -49
-54 -50 -57 -19 -39 67 38 140 114 172 179 87 178 49 366 -91 444 l-44 24 32
-39z"/>
<path d="M7342 1013 c8 -10 70 -125 137 -255 119 -231 123 -238 153 -238 l30
0 -120 233 c-93 181 -127 237 -152 255 -18 12 -40 22 -48 22 -13 0 -13 -2 0
-17z"/>
<path d="M8130 1975 c0 -3 85 -128 188 -277 104 -150 325 -471 492 -713 166
-242 308 -446 315 -453 7 -8 27 -12 49 -10 l37 3 -193 280 c-106 154 -218 316
-249 360 -30 44 -169 245 -309 448 l-253 367 -39 0 c-21 0 -38 -2 -38 -5z"/>
<path d="M11150 597 c-14 -7 -31 -24 -39 -39 -31 -55 23 -120 85 -103 20 6 24
9 12 12 -9 2 -20 13 -23 24 -8 25 -25 25 -25 -1 0 -11 -7 -20 -15 -20 -12 0
-15 13 -15 55 l0 55 44 0 c47 0 64 -17 47 -47 -10 -18 -3 -53 10 -53 14 0 23
51 13 78 -12 35 -62 55 -94 39z"/>
<path d="M11160 550 c0 -5 7 -10 15 -10 8 0 15 5 15 10 0 6 -7 10 -15 10 -8 0
-15 -4 -15 -10z"/>
</g>
</svg>
