<?xml version="1.0" encoding="UTF-8"?>
<svg id="Layer_2" data-name="Layer 2" xmlns="http://www.w3.org/2000/svg" viewBox="0 0 79.53 84.07">
  <defs>
    <style>
      .cls-1 {
        fill: #272526;
      }

      .cls-2 {
        fill: #f0c640;
      }
    </style>
  </defs>
  <g id="Layer_2-2" data-name="Layer 2">
    <rect class="cls-1" x="19.1" y="29.72" width="30.2" height="23.93" rx="11.97" ry="11.97"/>
  </g>
  <g id="Layer_1-2" data-name="Layer 1">
    <path class="cls-2" d="M79.26,40.4c-.3-.5-.9-.9-1.5-1-2.4-.7-4.9-1.5-7.3-2.2-.35-.14-.66-.23-.98-.31,0,0,0,0,0,0-2.79-.87-10.41-3.22-10.92-3.39-2.7-.8-5.4-1.6-8-2.4-.2-8.8-.4-17.5-.5-26.3-.1-1.2,0-2.5-.3-3.7-.1-.5-.5-.9-1-1.1h-1.1c-.4.2-.8.4-1.1.8-5.5,8-11.1,16.1-16.5,24.2-.9-.3-1.7-.5-2.6-.8-8.1-2.4-16.1-4.9-24.2-7.3-.5-.2-1-.3-1.5-.3-1.1-.1-2,1.1-1.7,2.1.1.4.2.8.5,1.1,5.6,7.5,11.1,15,16.7,22.5.1.2.5.4.3.7-5.2,7.6-10.5,15.2-15.7,22.8-.5.7-1,1.6-1,2.5-.1,1.1,1.2,1.9,2.2,1.5,8-2.8,16.1-5.6,24.1-8.4,1.2-.4,2.3-.8,3.5-1.2.6.7,1.1,1.4,1.6,2.1,2.8,3.8,5.7,7.7,8.6,11.5,2.4,3.1,4.6,6.3,7.1,9.3.3.3.5.7,1,.9.5.1,1,.1,1.5-.1.6-.3.9-1,1-1.7-.1-5.4-.2-10.9-.3-16.3-.07-.78-.05-7.29-.05-12.06,8.75-3.42,21.46-8.53,26.45-10.34.7-.2,1.4-.7,1.8-1.4.2-.5.3-1.2-.1-1.7ZM41.76,36.3c.8-.1,1.7-.1,2.4,0,1,.3,1.9.8,2.5,1.6.3.4.5.9.8,1.3.2.4.2.8,0,1.2-.4.4-.9.6-1.5.5-.6-.1-1.1-.5-1.5-1-.2-.2-.4-.5-.7-.6-.6-.2-1.2,0-1.8-.2-.5-.3-1.1-.6-1.2-1.2-.1-.7.2-1.6,1-1.6ZM38.56,41.9c.2.3.3.7.1,1-.3.4-.8.5-1.2.5-1.6-.1-3.2-.7-4.4-1.9-.2-.3-.6-.6-.5-1,.1-.4.5-.5.8-.6.6-.2,1.3,0,2,0,1.2.3,2.5.9,3.2,2ZM27.36,32.9c.6-.2,1.2-.6,1.9-.7,1.1-.2,2.4.1,3.3.7.5.3,1,.6,1.4,1.1.5.6.1,1.4-.4,1.8-.4.3-1,.2-1.5.1-.7-.1-1.2-1-2-.9-.7.2-1.5.5-2.3.2-.6-.2-1-.7-1.1-1.3,0-.5.3-.8.7-1ZM45.16,48.9c-.4.1-.6-.3-1-.3-.5.1-.8.4-1.2.6-1.6.9-3.2,1.9-5,2.4-2.3.7-4.9.4-7-.9-2.9-1.7-5-4.6-5.9-7.7-.4-.6-1.2-.3-1.7-.7-.2-.2,0-.6.1-.9.6-.4,1.3-.5,1.9-.8.4-.2.8-.6,1.2-.7.4-.1.5.5.8.5-.1.6-.7.8-.8,1.4-.1.2.1.5.2.7,1.4,2.9,4,5.2,7,6.1,3,.9,6.4.2,9.1-1.4.5-.3.3-1,.3-1.5,0-.4.6-.9,1-.5.3.2.4.5.5.8.1.4.3.8.5,1.1s.5.5.7.8c.2.5-.2,1-.7,1Z"/>
  </g>
</svg>