<?xml version="1.0" encoding="UTF-8"?>
<!-- Generator: Adobe Illustrator 13.0.0, SVG Export Plug-In . SVG Version: 6.00 Build 14948) -->
<!DOCTYPE svg PUBLIC "-//W3C//DTD SVG 1.0//EN" "http://www.w3.org/TR/2001/REC-SVG-20010904/DTD/svg10.dtd">
<svg version="1.0" id="Layer_1" xmlns:x="http://ns.adobe.com/Extensibility/1.0/" xmlns:i="http://ns.adobe.com/AdobeIllustrator/10.0/" xmlns:graph="http://ns.adobe.com/Graphs/1.0/" xmlns="http://www.w3.org/2000/svg" xmlns:xlink="http://www.w3.org/1999/xlink" x="0px" y="0px" width="300px" height="110px" viewBox="0 0 300 110" enable-background="new 0 0 300 110" xml:space="preserve">
<switch>
	<g>
		<path fill="#FFFFFF" d="M150.323,23.601C87.366,16.158,58.009,13.014,12.644,7.654c-1.537,0-2.908-0.251-2.686,2.267    C19.739,43.41,21.157,48.94,33.876,92.327c2.727,7.846,7.182,9.925,11.498,9.925c42.479,0,63.814,0,104.613,0.002    c40.796,0,62.105,0.002,104.587,0.002c4.312,0,8.771-2.081,11.498-9.925c12.72-43.389,14.137-48.918,23.918-82.406    c0.221-2.518-1.148-2.269-2.686-2.269C241.939,13.016,213.282,16.16,150.323,23.601"/>
		<path fill="none" stroke="#FFFFFF" stroke-width="2.018" stroke-miterlimit="3.864" d="M150.323,23.601    C87.366,16.158,58.009,13.014,12.644,7.654c-1.537,0-2.908-0.251-2.686,2.267C19.739,43.41,21.157,48.94,33.876,92.327    c2.727,7.846,7.182,9.925,11.498,9.925c42.479,0,63.814,0,104.613,0.002c40.796,0,62.105,0.002,104.587,0.002    c4.312,0,8.771-2.081,11.498-9.925c12.72-43.389,14.137-48.918,23.918-82.406c0.221-2.518-1.148-2.269-2.686-2.269    C241.939,13.016,213.282,16.16,150.323,23.601z"/>
		<path fill="#FFFFFF" d="M149.961,28.28c56.795-6.369,90.617-10.689,131.322-15.374c1.463-0.146,2.781-0.953,2.098,1.423    c-5.612,19.808-7.358,25.981-17.533,61.049c-1.979,6.371-4.879,5.578-9.405,5.599c-38.231,0-64.955-0.014-106.481-0.022    c-41.528,0.009-68.226,0.019-106.455,0.019c-4.526-0.021-7.429,0.772-9.405-5.595C23.924,40.306,22.178,34.134,16.565,14.327    c-0.681-2.375,0.637-1.572,2.102-1.425C59.368,17.589,93.165,21.909,149.961,28.28"/>
		<path fill="none" stroke="#FFFFFF" stroke-width="2.018" stroke-miterlimit="3.864" d="M149.961,28.28    c56.795-6.369,90.617-10.689,131.322-15.374c1.463-0.146,2.781-0.953,2.098,1.423c-5.612,19.808-7.358,25.981-17.533,61.049    c-1.979,6.371-4.879,5.578-9.405,5.599c-38.231,0-64.955-0.014-106.481-0.022c-41.528,0.009-68.226,0.019-106.455,0.019    c-4.526-0.021-7.429,0.772-9.405-5.595C23.924,40.306,22.178,34.134,16.565,14.327c-0.681-2.375,0.637-1.572,2.102-1.425    C59.368,17.589,93.165,21.909,149.961,28.28z"/>
		<path fill-rule="evenodd" clip-rule="evenodd" fill="#FFFFFF" d="M50.19,88.033h0.666c1.816,0,3.101,1.099,3.101,3.044    c0,2.122-1.444,3.044-3.131,3.044H50.19V88.033 M47.363,96.514h4.01c3.014,0,5.526-2.379,5.526-5.437    c0-3.056-2.496-5.437-5.523-5.437h-4.013V96.514z"/>
		<path fill="none" stroke="#FFFFFF" stroke-width="0.122" stroke-miterlimit="3.864" d="M50.19,88.033h0.666    c1.816,0,3.101,1.099,3.101,3.044c0,2.122-1.444,3.044-3.131,3.044H50.19V88.033z M47.363,96.514h4.01    c3.014,0,5.526-2.379,5.526-5.437c0-3.056-2.496-5.437-5.523-5.437h-4.013V96.514z"/>
		<path fill-rule="evenodd" clip-rule="evenodd" fill="#FFFFFF" d="M77.116,88.021c1.687,0,3.072,1.369,3.072,2.869    c0,1.875-1.385,3.244-3.072,3.244c-1.687,0-3.074-1.369-3.074-3.244C74.042,89.391,75.429,88.021,77.116,88.021 M77.116,85.28    c-3.131,0-6.015,2.308-6.015,5.595c0,3.521,2.524,5.999,6.015,5.999c3.491,0,6.013-2.478,6.013-5.999    C83.131,87.588,80.245,85.28,77.116,85.28z"/>
		<path fill="none" stroke="#FFFFFF" stroke-width="0.122" stroke-miterlimit="3.864" d="M77.116,88.021    c1.687,0,3.072,1.369,3.072,2.869c0,1.875-1.385,3.244-3.072,3.244c-1.687,0-3.074-1.369-3.074-3.244    C74.042,89.391,75.429,88.021,77.116,88.021z M77.116,85.28c-3.131,0-6.015,2.308-6.015,5.595c0,3.521,2.524,5.999,6.015,5.999    c3.491,0,6.013-2.478,6.013-5.999C83.131,87.588,80.245,85.28,77.116,85.28z"/>
		<path fill-rule="evenodd" clip-rule="evenodd" fill="#FFFFFF" d="M104.655,85.491v5.726c0,1.414-0.102,2.959-1.917,2.959    c-1.816,0-1.919-1.545-1.919-2.959v-5.726h-2.826v6.116c0,1.399,0.059,2.782,1.139,3.834c0.91,0.895,2.336,1.212,3.606,1.212    s2.696-0.317,3.606-1.21c1.08-1.054,1.139-2.437,1.139-3.836v-6.116H104.655"/>
		<path fill="none" stroke="#FFFFFF" stroke-width="0.122" stroke-miterlimit="3.864" d="M104.655,85.491v5.726    c0,1.414-0.102,2.959-1.917,2.959c-1.816,0-1.919-1.545-1.919-2.959v-5.726h-2.826v6.116c0,1.399,0.059,2.782,1.139,3.834    c0.91,0.895,2.336,1.212,3.606,1.212s2.696-0.317,3.606-1.21c1.08-1.054,1.139-2.437,1.139-3.836v-6.116H104.655z"/>
		<path fill="#FFFFFF" d="M128.282,90.444v2.221h2.053c-0.115,1.256-1.052,1.889-2.279,1.889c-1.859,0-2.87-1.715-2.87-3.403    c0-1.659,0.967-3.431,2.828-3.431c1.141,0,1.964,0.691,2.35,1.731l2.682-1.129c-0.937-2.034-2.666-3.042-4.903-3.042    c-3.503,0-5.897,2.322-5.897,5.855c0,3.418,2.378,5.738,5.796,5.738c1.818,0,3.42-0.647,4.486-2.132    c0.967-1.357,1.082-2.71,1.11-4.298H128.282"/>
		<path fill="none" stroke="#FFFFFF" stroke-width="0.122" stroke-miterlimit="3.864" d="M128.282,90.444v2.221h2.053    c-0.115,1.256-1.052,1.889-2.279,1.889c-1.859,0-2.87-1.715-2.87-3.403c0-1.659,0.967-3.431,2.828-3.431    c1.141,0,1.964,0.691,2.35,1.731l2.682-1.129c-0.937-2.034-2.666-3.042-4.903-3.042c-3.503,0-5.897,2.322-5.897,5.855    c0,3.418,2.378,5.738,5.796,5.738c1.818,0,3.42-0.647,4.486-2.132c0.967-1.357,1.082-2.71,1.11-4.298H128.282z"/>
		<polyline fill-rule="evenodd" clip-rule="evenodd" fill="#FFFFFF" points="151.285,89.837 151.285,85.641 148.458,85.641     148.458,96.518 151.285,96.518 151.285,92.061 155.365,92.061 155.365,96.518 158.192,96.518 158.192,85.641 155.365,85.641     155.365,89.837 151.285,89.837   "/>
		<polygon fill="none" stroke="#FFFFFF" stroke-width="0.122" stroke-miterlimit="3.864" points="151.285,89.837 151.285,85.641     148.458,85.641 148.458,96.518 151.285,96.518 151.285,92.061 155.365,92.061 155.365,96.518 158.192,96.518 158.192,85.641     155.365,85.641 155.365,89.837   "/>
		<polyline fill-rule="evenodd" clip-rule="evenodd" fill="#FFFFFF" points="173.562,96.518 176.388,96.518 176.388,89.855     176.418,89.855 181.596,96.518 184.423,96.518 184.423,85.641 181.596,85.641 181.596,92.291 181.565,92.291 176.388,85.641     173.562,85.641 173.562,96.518   "/>
		<polygon fill="none" stroke="#FFFFFF" stroke-width="0.122" stroke-miterlimit="3.864" points="173.562,96.518 176.388,96.518     176.388,89.855 176.418,89.855 181.596,96.518 184.423,96.518 184.423,85.641 181.596,85.641 181.596,92.291 181.565,92.291     176.388,85.641 173.562,85.641   "/>
		<path fill-rule="evenodd" clip-rule="evenodd" fill="#FFFFFF" d="M206.396,85.641v5.728c0,1.412-0.1,2.957-1.917,2.957    c-1.816,0-1.92-1.545-1.92-2.957v-5.728h-2.825v6.116c0,1.399,0.057,2.783,1.139,3.837c0.91,0.894,2.336,1.211,3.606,1.211    c1.27,0,2.695-0.317,3.605-1.211c1.08-1.054,1.139-2.438,1.139-3.837v-6.116H206.396"/>
		<path fill="none" stroke="#FFFFFF" stroke-width="0.122" stroke-miterlimit="3.864" d="M206.396,85.641v5.728    c0,1.412-0.1,2.957-1.917,2.957c-1.816,0-1.92-1.545-1.92-2.957v-5.728h-2.825v6.116c0,1.399,0.057,2.783,1.139,3.837    c0.91,0.894,2.336,1.211,3.606,1.211c1.27,0,2.695-0.317,3.605-1.211c1.08-1.054,1.139-2.438,1.139-3.837v-6.116H206.396z"/>
		<polyline fill="#FFFFFF" points="228.859,88.035 232.037,88.035 232.037,85.641 222.771,85.641 222.771,88.035 225.949,88.035     225.949,96.518 228.859,96.518 228.859,88.035   "/>
		<polygon fill="none" stroke="#FFFFFF" stroke-width="0.122" stroke-miterlimit="3.864" points="228.859,88.035 232.037,88.035     232.037,85.641 222.771,85.641 222.771,88.035 225.949,88.035 225.949,96.518 228.859,96.518   "/>
		<path fill-rule="evenodd" clip-rule="evenodd" fill="#FFFFFF" d="M252.837,86.247c-0.963-0.548-2.306-0.894-3.4-0.894    c-2.178,0-3.75,1.444-3.75,3.648c0,2.105,1.165,2.566,2.941,3.072c0.604,0.172,1.715,0.447,1.715,1.244    c0,0.76-0.708,1.092-1.369,1.092c-0.967,0-1.802-0.504-2.508-1.124l-1.212,2.277c1.108,0.78,2.451,1.241,3.821,1.241    c1.098,0,2.236-0.303,3.086-1.023c0.867-0.736,1.127-1.845,1.127-2.929c0-1.759-1.172-2.523-2.683-2.969l-0.722-0.219    c-0.491-0.159-1.256-0.404-1.256-1.037c0-0.606,0.691-0.908,1.211-0.908c0.692,0,1.355,0.287,1.873,0.72L252.837,86.247"/>
		<path fill="none" stroke="#FFFFFF" stroke-width="0.122" stroke-miterlimit="3.864" d="M252.837,86.247    c-0.963-0.548-2.306-0.894-3.4-0.894c-2.178,0-3.75,1.444-3.75,3.648c0,2.105,1.165,2.566,2.941,3.072    c0.604,0.172,1.715,0.447,1.715,1.244c0,0.76-0.708,1.092-1.369,1.092c-0.967,0-1.802-0.504-2.508-1.124l-1.212,2.277    c1.108,0.78,2.451,1.241,3.821,1.241c1.098,0,2.236-0.303,3.086-1.023c0.867-0.736,1.127-1.845,1.127-2.929    c0-1.759-1.172-2.523-2.683-2.969l-0.722-0.219c-0.491-0.159-1.256-0.404-1.256-1.037c0-0.606,0.691-0.908,1.211-0.908    c0.692,0,1.355,0.287,1.873,0.72L252.837,86.247z"/>
		<path fill="#FFFFFF" d="M98.14,33.104c21.655-0.004,48.017-0.006,49.151,0.007c3.43,0.032,4.986-1.523,5.611-2.08    c0.627-0.558,1.341-0.53,1.322,0.12c-0.006,0.28-3.713,8.875-8.847,8.863c-3.145-0.005-26.784-0.009-47.276-0.009    c0.787-0.939,1.26-2.152,1.26-3.471C99.362,35.234,98.904,34.037,98.14,33.104 M116.816,53.54c-0.4,0.802-3.523,8.559-3.523,8.559    c-0.839,2.144,0.39,3.233,1.292,3.462c2.019,0.515,3.964-0.975,6.063-6.496C123.98,50.297,117.831,51.511,116.816,53.54z     M94.754,60.715c2.989,1.331,1.788,5.485-0.301,5.989c-0.963,0.756,3.072,2.732,4.846-1.333c1.808-4.143-0.498-8.171-0.769-9.15    C97.804,56.823,96.544,58.381,94.754,60.715z M119.933,67.45c5.046-1.565,9.326-8.171,10.204-10.363    c1.942-5.187,3.596-9.209,3.596-9.209l6.039-0.015c0,0-4.318,10.333-6.177,15.577c-1.778,5.008,3.232,0.799,5.263-4.761    c1.776-4.785,4.049-10.631,4.049-10.631l6.262-0.011c0,0-7.267,18.148-8.016,19.721c2.34-0.636,5.273,1.165,4.988,2.038    c-1.025,3.123-1.652-1.545-5.96-0.198c-2.373,5.75-7.653,10.772-11.799,10.151c-5.37-0.801-2.237-8.124,6.818-10.774l0.787-2.188    c-4.654,3.866-9.136,1.521-8.076-3.03c-3.906,4.749-8.495,5.425-11.413,5.214c-2.195,0.328-4.069-0.616-5.044-2.066    c-1.486,3.896-3.515,8.898-3.515,8.898h-6l3.066-7.835c-2.571,1.515-5.097,1.809-7.064,1.735c-3.97,1.088-6.412-1.565-7.113-3.503    c-4.43,5.869-9.324,3.764-9.991,0.162c-1.891,1.964-3.962,3.439-5.839,3.369c-4.569-0.168-3.45-7.006-2.657-9.296    c2.067-5.961,4.308-8.346,0.119-8.478c-0.698-0.022-5.722,19.475-14.857,20.323c-8.464,0.78-5.204-5.959-3.8-9.813    c2.245-6.173,4.627-9.254,3.432-11.553c-0.926-1.787-6.062,1.909-7.637,5.849c-2.035,5.077-6.144,15.683-6.144,15.683l-7.922,0.17    c0,0,6.535-16.525,12.885-33.154c2.071-5.418-1.088-5.576-3.56-5.431c-2.037,0.121-1.236-1.684,0.257-1.798    c7.607-0.58,10.368-0.466,11.284,0.132c1.563,1.02,1.491,3.122,1.209,3.61c-1.397,3.639-3.968,10.084-4.314,11.099    c-1.11,3.256,1.191,0.13,1.867-0.717c0.676-0.844,5.471-6.237,6.424-7.513c0.993-1.327,5.39-5.735,8.336-5.735l19.831-0.002    c-0.763,0.933-1.222,2.128-1.222,3.428c0,1.321,0.475,2.531,1.26,3.471c-12.321,0.002-21.977,0.004-22.67,0.009    c-1.533,0.008-4.967,1.899-7.568,5.028c-2.239,2.703,0.68,1.723,0.68,1.723c4.366-0.42,8.432-1.402,1.462,13.84    c-6.666,14.583,3.285,7.755,9.105-9.89c0.21-0.642-1.495-1.478-1.551-2.687c-0.077-1.545-0.538-3.324,2.168-3.324    c2.707,0,1.813,2.745,4.102,3.444c4.635,1.419,7.156-0.035,4.723,5.859c-2.33,5.651-4.905,12.679-1.859,11.833    c1.462-0.406,2.306-1.477,2.848-2.461c3.216-8.76,5.971-15.532,5.971-15.532h5.982c0,0-2.223,5.611-6.529,16.475    c-1.509,3.803,1.499,1.667,3.731-0.776c0.259-2.005,1.754-2.759,2.205-2.832c2.369-3.422,9.965-14.161,9.965-14.161    s0.58,0.421,0.093,1.189c-0.651,1.022,0.56,6.089,1.092,7.696c0.843,2.562,2.198,8.884-1.355,11.788    c-0.714,0.585-1.4,1.063-2.053,1.442c2.128-0.398,3.89-1.282,5.335-2.385l7.21-18.422h5.946c0,0-0.257,0.563-0.595,1.432    c1.709-1.306,3.829-2.003,5.457-1.57c1.66,0.438,7.151,0.865,0.977,13.517C123.191,64.246,121.553,66.232,119.933,67.45z     M129.713,76.07c1.95-1.278,3.301-2.658,4.49-4.851c-1.454,0.31-3.942,1.673-5.236,2.887    C127.278,75.691,128.105,77.124,129.713,76.07z M90.691,36.535c0-1.798,1.457-3.251,3.252-3.251s3.252,1.455,3.252,3.251    c0,1.793-1.456,3.25-3.252,3.25S90.691,38.328,90.691,36.535z M200.638,59.042c3.05,0.065,6.721-1.785,7.521-3.166    c0.799-1.381,0.704-4.086-1.331-4.186C205.107,51.607,201.691,53.18,200.638,59.042z M261.287,64.17    c-5.904,7.984-14.627,6.978-16.696-0.387c-1.438,2.916-3.525,5.788-7.358,6.126c-4.601,0.404-5.074-4.144-4.566-6.68    c0.506-2.539,1.297-3.554,3.153-8.798c1.309-3.695-2.54-1.808-4.729,1.757c-1.576,4.252-5.142,13.741-5.142,13.741    s-1.843-0.138-5.954-0.19c0.508-2.536,3.905-9.987,5.766-15.23c1.329-3.75-2.657-1.753-4.825,1.916    c-0.067,0.12-0.138,0.233-0.208,0.34L215.41,69.93h-6.212l1.948-4.919c-0.621,0.678-1.333,1.327-2.17,1.918    c-7.965,5.63-11.757,1.557-12.995-2.436c-2.277,2.808-5.042,5.331-7.485,5.24c-4.566-0.17-3.446-7.006-2.655-9.293    c2.064-5.966,4.308-8.349,0.119-8.481c-0.698-0.022-5.724,19.473-14.857,20.321c-8.464,0.78-5.206-5.955-3.803-9.813    c2.245-6.169,4.63-9.254,3.435-11.553c-0.929-1.785-6.062,1.911-7.639,5.849c-2.033,5.077-6.145,15.688-6.145,15.688l-7.92,0.165    c0,0,6.535-16.523,12.887-33.152c2.071-5.42-1.088-5.575-3.56-5.431c-2.038,0.119-1.237-1.686,0.255-1.8    c7.608-0.578,10.369-0.464,11.284,0.132c1.561,1.021,1.49,3.124,1.209,3.612c-1.397,3.639-3.968,10.084-4.314,11.097    c-1.107,3.258,1.191,0.13,1.869-0.717c0.678-0.844,5.467-6.235,6.422-7.511c0.993-1.327,5.392-5.734,8.339-5.734    c2.587,0,75.47-0.02,77.375,0c3.427,0.034,4.983-1.521,5.61-2.078c0.625-0.557,1.34-0.532,1.323,0.12    c-0.006,0.278-3.716,8.873-8.849,8.863c-5.606-0.011-76.34-0.013-78.264,0c-1.528,0.008-4.967,1.899-7.566,5.028    c-2.242,2.703,0.678,1.721,0.678,1.721c4.367-0.418,8.43-1.399,1.465,13.84c-6.669,14.583,3.284,7.755,9.104-9.89    c0.212-0.642-1.493-1.478-1.552-2.685c-0.075-1.547-0.538-3.324,2.168-3.324c2.708,0,1.813,2.744,4.102,3.444    c4.638,1.418,7.158-0.036,4.725,5.859c-2.33,5.649-4.904,12.679-1.86,11.832c2.466-0.686,3.176-3.258,3.628-4.119    c-0.006-0.243-0.004-0.47,0.013-0.68c0.421-5.839,3.845-10.864,6.759-12.135c6.982-3.051,9.672,0.838,9.443,4.545    c-0.279,4.546-5.374,7.59-11.128,7.756c-0.103-0.081-0.119-0.021,0,0.847c0.902,6.519,8.325,2.968,12.287-1.426l5.101-12.86    l6.394-0.034l-1.554,3.851c4.723-5.658,9.821-4.07,9.389,0.772l0.184-0.245c5.415-7.104,11.596-4.385,9.474,2.032    c-0.312,0.942-3.388,9.689-3.388,9.689s-0.952,2.937,0.908,2.937c1.606,0,3.803-2.834,4.783-5.499l-0.014-0.23    c-0.291-5.799,3.299-10.803,6.196-12.065c6.948-3.032,9.915,0.835,9.895,4.519c-0.024,4.52-5.046,7.546-10.905,7.716    c-0.111-0.085-0.125-0.022,0.049,0.839c1.551,7.75,9.312,2.662,10.456,1.269C262.737,59.793,262.64,62.345,261.287,64.17z     M249.263,59.057c3.112,0.063,6.755-1.775,7.489-3.149c0.736-1.375,0.483-4.063-1.598-4.163    C253.396,51.664,249.999,53.228,249.263,59.057z"/>
		<path fill="none" stroke="#FFFFFF" stroke-width="2.018" stroke-miterlimit="3.864" d="M119.933,67.45    c5.046-1.565,9.326-8.171,10.204-10.363c1.942-5.187,3.596-9.209,3.596-9.209l6.039-0.015c0,0-4.318,10.333-6.177,15.577    c-1.778,5.008,3.232,0.799,5.263-4.761c1.776-4.785,4.049-10.631,4.049-10.631l6.262-0.011c0,0-7.267,18.148-8.016,19.721    c2.34-0.636,5.273,1.165,4.988,2.038c-1.025,3.123-1.652-1.545-5.96-0.198c-2.373,5.75-7.653,10.772-11.799,10.151    c-5.37-0.801-2.237-8.124,6.818-10.774l0.787-2.188c-4.654,3.866-9.136,1.521-8.076-3.03c-3.906,4.749-8.495,5.425-11.413,5.214    c-2.195,0.328-4.069-0.616-5.044-2.066c-1.486,3.896-3.515,8.898-3.515,8.898h-6l3.066-7.835    c-2.571,1.515-5.097,1.809-7.064,1.735c-3.97,1.088-6.412-1.565-7.113-3.503c-4.43,5.869-9.324,3.764-9.991,0.162    c-1.891,1.964-3.962,3.439-5.839,3.369c-4.569-0.168-3.45-7.006-2.657-9.296c2.067-5.961,4.308-8.346,0.119-8.478    c-0.698-0.022-5.722,19.475-14.857,20.323c-8.464,0.78-5.204-5.959-3.8-9.813c2.245-6.173,4.627-9.254,3.432-11.553    c-0.926-1.787-6.062,1.909-7.637,5.849c-2.035,5.077-6.144,15.683-6.144,15.683l-7.922,0.17c0,0,6.535-16.525,12.885-33.154    c2.071-5.418-1.088-5.576-3.56-5.431c-2.037,0.121-1.236-1.684,0.257-1.798c7.607-0.58,10.368-0.466,11.284,0.132    c1.563,1.02,1.491,3.122,1.209,3.61c-1.397,3.639-3.968,10.084-4.314,11.099c-1.11,3.256,1.191,0.13,1.867-0.717    c0.676-0.844,5.471-6.237,6.424-7.513c0.993-1.327,5.39-5.735,8.336-5.735l19.831-0.002c-0.763,0.933-1.222,2.128-1.222,3.428    c0,1.321,0.475,2.531,1.26,3.471c-12.321,0.002-21.977,0.004-22.67,0.009c-1.533,0.008-4.967,1.899-7.568,5.028    c-2.239,2.703,0.68,1.723,0.68,1.723c4.366-0.42,8.432-1.402,1.462,13.84c-6.666,14.583,3.285,7.755,9.105-9.89    c0.21-0.642-1.495-1.478-1.551-2.687c-0.077-1.545-0.538-3.324,2.168-3.324c2.707,0,1.813,2.745,4.102,3.444    c4.635,1.419,7.156-0.035,4.723,5.859c-2.33,5.651-4.905,12.679-1.859,11.833c1.462-0.406,2.306-1.477,2.848-2.461    c3.216-8.76,5.971-15.532,5.971-15.532h5.982c0,0-2.223,5.611-6.529,16.475c-1.509,3.803,1.499,1.667,3.731-0.776    c0.259-2.005,1.754-2.759,2.205-2.832c2.369-3.422,9.965-14.161,9.965-14.161s0.58,0.421,0.093,1.189    c-0.651,1.022,0.56,6.089,1.092,7.696c0.843,2.562,2.198,8.884-1.355,11.788c-0.714,0.585-1.4,1.063-2.053,1.442    c2.128-0.398,3.89-1.282,5.335-2.385l7.21-18.422h5.946c0,0-0.257,0.563-0.595,1.432c1.709-1.306,3.829-2.003,5.457-1.57    c1.66,0.438,7.151,0.865,0.977,13.517C123.191,64.246,121.553,66.232,119.933,67.45z M129.713,76.07    c1.95-1.278,3.301-2.658,4.49-4.851c-1.454,0.31-3.942,1.673-5.236,2.887C127.278,75.691,128.105,77.124,129.713,76.07z     M90.691,36.535c0-1.798,1.457-3.251,3.252-3.251s3.252,1.455,3.252,3.251c0,1.793-1.456,3.25-3.252,3.25    S90.691,38.328,90.691,36.535z M200.638,59.042c3.05,0.065,6.721-1.785,7.521-3.166c0.799-1.381,0.704-4.086-1.331-4.186    C205.107,51.607,201.691,53.18,200.638,59.042z M261.287,64.17c-5.904,7.984-14.627,6.978-16.696-0.387    c-1.438,2.916-3.525,5.788-7.358,6.126c-4.601,0.404-5.074-4.144-4.566-6.68c0.506-2.539,1.297-3.554,3.153-8.798    c1.309-3.695-2.54-1.808-4.729,1.757c-1.576,4.252-5.142,13.741-5.142,13.741s-1.843-0.138-5.954-0.19    c0.508-2.536,3.905-9.987,5.766-15.23c1.329-3.75-2.657-1.753-4.825,1.916c-0.067,0.12-0.138,0.233-0.208,0.34L215.41,69.93    h-6.212l1.948-4.919c-0.621,0.678-1.333,1.327-2.17,1.918c-7.965,5.63-11.757,1.557-12.995-2.436    c-2.277,2.808-5.042,5.331-7.485,5.24c-4.566-0.17-3.446-7.006-2.655-9.293c2.064-5.966,4.308-8.349,0.119-8.481    c-0.698-0.022-5.724,19.473-14.857,20.321c-8.464,0.78-5.206-5.955-3.803-9.813c2.245-6.169,4.63-9.254,3.435-11.553    c-0.929-1.785-6.062,1.911-7.639,5.849c-2.033,5.077-6.145,15.688-6.145,15.688l-7.92,0.165c0,0,6.535-16.523,12.887-33.152    c2.071-5.42-1.088-5.575-3.56-5.431c-2.038,0.119-1.237-1.686,0.255-1.8c7.608-0.578,10.369-0.464,11.284,0.132    c1.561,1.021,1.49,3.124,1.209,3.612c-1.397,3.639-3.968,10.084-4.314,11.097c-1.107,3.258,1.191,0.13,1.869-0.717    c0.678-0.844,5.467-6.235,6.422-7.511c0.993-1.327,5.392-5.734,8.339-5.734c2.587,0,75.47-0.02,77.375,0    c3.427,0.034,4.983-1.521,5.61-2.078c0.625-0.557,1.34-0.532,1.323,0.12c-0.006,0.278-3.716,8.873-8.849,8.863    c-5.606-0.011-76.34-0.013-78.264,0c-1.528,0.008-4.967,1.899-7.566,5.028c-2.242,2.703,0.678,1.721,0.678,1.721    c4.367-0.418,8.43-1.399,1.465,13.84c-6.669,14.583,3.284,7.755,9.104-9.89c0.212-0.642-1.493-1.478-1.552-2.685    c-0.075-1.547-0.538-3.324,2.168-3.324c2.708,0,1.813,2.744,4.102,3.444c4.638,1.418,7.158-0.036,4.725,5.859    c-2.33,5.649-4.904,12.679-1.86,11.832c2.466-0.686,3.176-3.258,3.628-4.119c-0.006-0.243-0.004-0.47,0.013-0.68    c0.421-5.839,3.845-10.864,6.759-12.135c6.982-3.051,9.672,0.838,9.443,4.545c-0.279,4.546-5.374,7.59-11.128,7.756    c-0.103-0.081-0.119-0.021,0,0.847c0.902,6.519,8.325,2.968,12.287-1.426l5.101-12.86l6.394-0.034l-1.554,3.851    c4.723-5.658,9.821-4.07,9.389,0.772l0.184-0.245c5.415-7.104,11.596-4.385,9.474,2.032c-0.312,0.942-3.388,9.689-3.388,9.689    s-0.952,2.937,0.908,2.937c1.606,0,3.803-2.834,4.783-5.499l-0.014-0.23c-0.291-5.799,3.299-10.803,6.196-12.065    c6.948-3.032,9.915,0.835,9.895,4.519c-0.024,4.52-5.046,7.546-10.905,7.716c-0.111-0.085-0.125-0.022,0.049,0.839    c1.551,7.75,9.312,2.662,10.456,1.269C262.737,59.793,262.64,62.345,261.287,64.17z M249.263,59.057    c3.112,0.063,6.755-1.775,7.489-3.149c0.736-1.375,0.483-4.063-1.598-4.163C253.396,51.664,249.999,53.228,249.263,59.057z"/>
		<path fill="none" stroke="#FFFFFF" stroke-width="2.018" stroke-miterlimit="3.864" d="M98.14,33.104    c21.655-0.004,48.017-0.006,49.151,0.007c3.43,0.032,4.986-1.523,5.611-2.08c0.627-0.558,1.341-0.53,1.322,0.12    c-0.006,0.28-3.713,8.875-8.847,8.863c-3.145-0.005-26.784-0.009-47.276-0.009c0.787-0.939,1.26-2.152,1.26-3.471    C99.362,35.234,98.904,34.037,98.14,33.104z M116.816,53.54c-0.4,0.802-3.523,8.559-3.523,8.559    c-0.839,2.144,0.39,3.233,1.292,3.462c2.019,0.515,3.964-0.975,6.063-6.496C123.98,50.297,117.831,51.511,116.816,53.54z     M94.754,60.715c2.989,1.331,1.788,5.485-0.301,5.989c-0.963,0.756,3.072,2.732,4.846-1.333c1.808-4.143-0.498-8.171-0.769-9.15    C97.804,56.823,96.544,58.381,94.754,60.715z"/>
		<path fill="#007550" d="M150.323,23.601C87.366,16.158,58.009,13.014,12.644,7.654c-1.537,0-2.908-0.251-2.686,2.267    C19.739,43.41,21.157,48.94,33.876,92.327c2.727,7.846,7.182,9.925,11.498,9.925c42.479,0,63.814,0,104.613,0.002    c40.796,0,62.105,0.002,104.587,0.002c4.312,0,8.771-2.081,11.498-9.925c12.72-43.389,14.137-48.918,23.918-82.406    c0.221-2.518-1.148-2.269-2.686-2.269C241.939,13.016,213.282,16.16,150.323,23.601"/>
		<path fill="#FFFFFF" d="M149.961,28.28c56.795-6.369,90.617-10.689,131.322-15.374c1.463-0.146,2.781-0.953,2.098,1.423    c-5.612,19.808-7.358,25.981-17.533,61.049c-1.979,6.371-4.879,5.578-9.405,5.599c-38.231,0-64.955-0.014-106.481-0.022    c-41.528,0.009-68.226,0.019-106.455,0.019c-4.526-0.021-7.429,0.772-9.405-5.595C23.924,40.306,22.178,34.134,16.565,14.327    c-0.681-2.375,0.637-1.572,2.102-1.425C59.368,17.589,93.165,21.909,149.961,28.28"/>
		<path fill="#CE1041" d="M98.14,33.104c21.655-0.004,48.017-0.006,49.151,0.007c3.43,0.032,4.986-1.523,5.611-2.08    c0.627-0.558,1.341-0.53,1.322,0.12c-0.006,0.28-3.713,8.875-8.847,8.863c-3.145-0.005-26.784-0.009-47.276-0.009    c0.787-0.939,1.26-2.152,1.26-3.471C99.362,35.234,98.904,34.037,98.14,33.104 M116.816,53.54c-0.4,0.802-3.523,8.559-3.523,8.559    c-0.839,2.144,0.39,3.233,1.292,3.462c2.019,0.515,3.964-0.975,6.063-6.496C123.98,50.297,117.831,51.511,116.816,53.54z     M94.754,60.715c2.989,1.331,1.788,5.485-0.301,5.989c-0.963,0.756,3.072,2.732,4.846-1.333c1.808-4.143-0.498-8.171-0.769-9.15    C97.804,56.823,96.544,58.381,94.754,60.715z M119.933,67.45c5.046-1.565,9.326-8.171,10.204-10.363    c1.942-5.187,3.596-9.209,3.596-9.209l6.039-0.015c0,0-4.318,10.333-6.177,15.577c-1.778,5.008,3.232,0.799,5.263-4.761    c1.776-4.785,4.049-10.631,4.049-10.631l6.262-0.011c0,0-7.267,18.148-8.016,19.721c2.34-0.636,5.273,1.165,4.988,2.038    c-1.025,3.123-1.652-1.545-5.96-0.198c-2.373,5.75-7.653,10.772-11.799,10.151c-5.37-0.801-2.237-8.124,6.818-10.774l0.787-2.188    c-4.654,3.866-9.136,1.521-8.076-3.03c-3.906,4.749-8.495,5.425-11.413,5.214c-2.195,0.328-4.069-0.616-5.044-2.066    c-1.486,3.896-3.515,8.898-3.515,8.898h-6l3.066-7.835c-2.571,1.515-5.097,1.809-7.064,1.735c-3.97,1.088-6.412-1.565-7.113-3.503    c-4.43,5.869-9.324,3.764-9.991,0.162c-1.891,1.964-3.962,3.439-5.839,3.369c-4.569-0.168-3.45-7.006-2.657-9.296    c2.067-5.961,4.308-8.346,0.119-8.478c-0.698-0.022-5.722,19.475-14.857,20.323c-8.464,0.78-5.204-5.959-3.8-9.813    c2.245-6.173,4.627-9.254,3.432-11.553c-0.926-1.787-6.062,1.909-7.637,5.849c-2.035,5.077-6.144,15.683-6.144,15.683l-7.922,0.17    c0,0,6.535-16.525,12.885-33.154c2.071-5.418-1.088-5.576-3.56-5.431c-2.037,0.121-1.236-1.684,0.257-1.798    c7.607-0.58,10.368-0.466,11.284,0.132c1.563,1.02,1.491,3.122,1.209,3.61c-1.397,3.639-3.968,10.084-4.314,11.099    c-1.11,3.256,1.191,0.13,1.867-0.717c0.676-0.844,5.471-6.237,6.424-7.513c0.993-1.327,5.39-5.735,8.336-5.735l19.831-0.002    c-0.763,0.933-1.222,2.128-1.222,3.428c0,1.321,0.475,2.531,1.26,3.471c-12.321,0.002-21.977,0.004-22.67,0.009    c-1.533,0.008-4.967,1.899-7.568,5.028c-2.239,2.703,0.68,1.723,0.68,1.723c4.366-0.42,8.432-1.402,1.462,13.84    c-6.666,14.583,3.285,7.755,9.105-9.89c0.21-0.642-1.495-1.478-1.551-2.687c-0.077-1.545-0.538-3.324,2.168-3.324    c2.707,0,1.813,2.745,4.102,3.444c4.635,1.419,7.156-0.035,4.723,5.859c-2.33,5.651-4.905,12.679-1.859,11.833    c1.462-0.406,2.306-1.477,2.848-2.461c3.216-8.76,5.971-15.532,5.971-15.532h5.982c0,0-2.223,5.611-6.529,16.475    c-1.509,3.803,1.499,1.667,3.731-0.776c0.259-2.005,1.754-2.759,2.205-2.832c2.369-3.422,9.965-14.161,9.965-14.161    s0.58,0.421,0.093,1.189c-0.651,1.022,0.56,6.089,1.092,7.696c0.843,2.562,2.198,8.884-1.355,11.788    c-0.714,0.585-1.4,1.063-2.053,1.442c2.128-0.398,3.89-1.282,5.335-2.385l7.21-18.422h5.946c0,0-0.257,0.563-0.595,1.432    c1.709-1.306,3.829-2.003,5.457-1.57c1.66,0.438,7.151,0.865,0.977,13.517C123.191,64.246,121.553,66.232,119.933,67.45z     M129.713,76.07c1.95-1.278,3.301-2.658,4.49-4.851c-1.454,0.31-3.942,1.673-5.236,2.887    C127.278,75.691,128.105,77.124,129.713,76.07z M90.691,36.535c0-1.798,1.457-3.251,3.252-3.251s3.252,1.455,3.252,3.251    c0,1.793-1.456,3.25-3.252,3.25S90.691,38.328,90.691,36.535z M200.638,59.042c3.05,0.065,6.721-1.785,7.521-3.166    c0.799-1.381,0.704-4.086-1.331-4.186C205.107,51.607,201.691,53.18,200.638,59.042z M261.287,64.17    c-5.904,7.984-14.627,6.978-16.696-0.387c-1.438,2.916-3.525,5.788-7.358,6.126c-4.601,0.404-5.074-4.144-4.566-6.68    c0.506-2.539,1.297-3.554,3.153-8.798c1.309-3.695-2.54-1.808-4.729,1.757c-1.576,4.252-5.142,13.741-5.142,13.741    s-1.843-0.138-5.954-0.19c0.508-2.536,3.905-9.987,5.766-15.23c1.329-3.75-2.657-1.753-4.825,1.916    c-0.067,0.12-0.138,0.233-0.208,0.34L215.41,69.93h-6.212l1.948-4.919c-0.621,0.678-1.333,1.327-2.17,1.918    c-7.965,5.63-11.757,1.557-12.995-2.436c-2.277,2.808-5.042,5.331-7.485,5.24c-4.566-0.17-3.446-7.006-2.655-9.293    c2.064-5.966,4.308-8.349,0.119-8.481c-0.698-0.022-5.724,19.473-14.857,20.321c-8.464,0.78-5.206-5.955-3.803-9.813    c2.245-6.169,4.63-9.254,3.435-11.553c-0.929-1.785-6.062,1.911-7.639,5.849c-2.033,5.077-6.145,15.688-6.145,15.688l-7.92,0.165    c0,0,6.535-16.523,12.887-33.152c2.071-5.42-1.088-5.575-3.56-5.431c-2.038,0.119-1.237-1.686,0.255-1.8    c7.608-0.578,10.369-0.464,11.284,0.132c1.561,1.021,1.49,3.124,1.209,3.612c-1.397,3.639-3.968,10.084-4.314,11.097    c-1.107,3.258,1.191,0.13,1.869-0.717c0.678-0.844,5.467-6.235,6.422-7.511c0.993-1.327,5.392-5.734,8.339-5.734    c2.587,0,75.47-0.02,77.375,0c3.427,0.034,4.983-1.521,5.61-2.078c0.625-0.557,1.34-0.532,1.323,0.12    c-0.006,0.278-3.716,8.873-8.849,8.863c-5.606-0.011-76.34-0.013-78.264,0c-1.528,0.008-4.967,1.899-7.566,5.028    c-2.242,2.703,0.678,1.721,0.678,1.721c4.367-0.418,8.43-1.399,1.465,13.84c-6.669,14.583,3.284,7.755,9.104-9.89    c0.212-0.642-1.493-1.478-1.552-2.685c-0.075-1.547-0.538-3.324,2.168-3.324c2.708,0,1.813,2.744,4.102,3.444    c4.638,1.418,7.158-0.036,4.725,5.859c-2.33,5.649-4.904,12.679-1.86,11.832c2.466-0.686,3.176-3.258,3.628-4.119    c-0.006-0.243-0.004-0.47,0.013-0.68c0.421-5.839,3.845-10.864,6.759-12.135c6.982-3.051,9.672,0.838,9.443,4.545    c-0.279,4.546-5.374,7.59-11.128,7.756c-0.103-0.081-0.119-0.021,0,0.847c0.902,6.519,8.325,2.968,12.287-1.426l5.101-12.86    l6.394-0.034l-1.554,3.851c4.723-5.658,9.821-4.07,9.389,0.772l0.184-0.245c5.415-7.104,11.596-4.385,9.474,2.032    c-0.312,0.942-3.388,9.689-3.388,9.689s-0.952,2.937,0.908,2.937c1.606,0,3.803-2.834,4.783-5.499l-0.014-0.23    c-0.291-5.799,3.299-10.803,6.196-12.065c6.948-3.032,9.915,0.835,9.895,4.519c-0.024,4.52-5.046,7.546-10.905,7.716    c-0.111-0.085-0.125-0.022,0.049,0.839c1.551,7.75,9.312,2.662,10.456,1.269C262.737,59.793,262.64,62.345,261.287,64.17z     M249.263,59.057c3.112,0.063,6.755-1.775,7.489-3.149c0.736-1.375,0.483-4.063-1.598-4.163    C253.396,51.664,249.999,53.228,249.263,59.057z"/>
		<path fill-rule="evenodd" clip-rule="evenodd" fill="#FFFFFF" d="M259.272,87.465c0.437,0,0.756,0.045,0.959,0.128    c0.363,0.153,0.546,0.45,0.546,0.892c0.002,0.313-0.113,0.542-0.344,0.691c-0.12,0.077-0.29,0.136-0.508,0.17    c0.276,0.043,0.478,0.158,0.606,0.344c0.128,0.187,0.192,0.368,0.192,0.546v0.255c0,0.081,0.004,0.17,0.008,0.264    c0.006,0.093,0.017,0.153,0.03,0.182l0.024,0.045h-0.578c-0.004-0.015-0.007-0.024-0.011-0.037    c-0.004-0.012-0.006-0.024-0.008-0.036l-0.014-0.115l-0.002-0.279c0-0.406-0.109-0.676-0.33-0.807    c-0.134-0.077-0.362-0.115-0.689-0.115h-0.487l0.002,1.385h-0.619l-0.006-3.511H259.272 M259.936,88.02    c-0.153-0.088-0.4-0.13-0.744-0.13l-0.526-0.004l0.003,1.274h0.556c0.261,0,0.459-0.024,0.587-0.077    c0.242-0.095,0.361-0.279,0.361-0.548C260.17,88.278,260.096,88.108,259.936,88.02z M261.606,91.506    c-0.623,0.627-1.38,0.938-2.264,0.938c-0.89-0.004-1.642-0.319-2.263-0.946c-0.621-0.625-0.931-1.384-0.933-2.271    c0-0.88,0.31-1.632,0.935-2.257c0.621-0.621,1.369-0.931,2.251-0.929c0.886,0,1.643,0.313,2.268,0.935    c0.625,0.623,0.936,1.377,0.938,2.259C262.541,90.122,262.228,90.877,261.606,91.506z M257.39,87.279    c-0.53,0.537-0.797,1.187-0.797,1.947c0,0.767,0.267,1.422,0.799,1.964c0.536,0.54,1.185,0.811,1.951,0.811    c0.763,0.003,1.41-0.269,1.944-0.807c0.535-0.538,0.801-1.193,0.801-1.96c-0.002-0.763-0.271-1.411-0.806-1.947    c-0.54-0.544-1.187-0.813-1.947-0.815S257.928,86.741,257.39,87.279z"/>
		<path fill="none" stroke="#FFFFFF" stroke-width="0" stroke-miterlimit="3.864" d="M259.272,87.465    c0.437,0,0.756,0.045,0.959,0.128c0.363,0.153,0.546,0.45,0.546,0.892c0.002,0.313-0.113,0.542-0.344,0.691    c-0.12,0.077-0.29,0.136-0.508,0.17c0.276,0.043,0.478,0.158,0.606,0.344c0.128,0.187,0.192,0.368,0.192,0.546v0.255    c0,0.081,0.004,0.17,0.008,0.264c0.006,0.093,0.017,0.153,0.03,0.182l0.024,0.045h-0.578c-0.004-0.015-0.007-0.024-0.011-0.037    c-0.004-0.012-0.006-0.024-0.008-0.036l-0.014-0.115l-0.002-0.279c0-0.406-0.109-0.676-0.33-0.807    c-0.134-0.077-0.362-0.115-0.689-0.115h-0.487l0.002,1.385h-0.619l-0.006-3.511H259.272z M259.936,88.02    c-0.153-0.088-0.4-0.13-0.744-0.13l-0.526-0.004l0.003,1.274h0.556c0.261,0,0.459-0.024,0.587-0.077    c0.242-0.095,0.361-0.279,0.361-0.548C260.17,88.278,260.096,88.108,259.936,88.02z M261.606,91.506    c-0.623,0.627-1.38,0.938-2.264,0.938c-0.89-0.004-1.642-0.319-2.263-0.946c-0.621-0.625-0.931-1.384-0.933-2.271    c0-0.88,0.31-1.632,0.935-2.257c0.621-0.621,1.369-0.931,2.251-0.929c0.886,0,1.643,0.313,2.268,0.935    c0.625,0.623,0.936,1.377,0.938,2.259C262.541,90.122,262.228,90.877,261.606,91.506z M257.39,87.279    c-0.53,0.537-0.797,1.187-0.797,1.947c0,0.767,0.267,1.422,0.799,1.964c0.536,0.54,1.185,0.811,1.951,0.811    c0.763,0.003,1.41-0.269,1.944-0.807c0.535-0.538,0.801-1.193,0.801-1.96c-0.002-0.763-0.271-1.411-0.806-1.947    c-0.54-0.544-1.187-0.813-1.947-0.815S257.928,86.741,257.39,87.279z"/>
		<path fill="#FFFFFF" d="M128.282,90.444v2.221h2.053c-0.115,1.256-1.052,1.889-2.279,1.889c-1.859,0-2.87-1.715-2.87-3.403    c0-1.659,0.967-3.431,2.828-3.431c1.141,0,1.964,0.691,2.35,1.731l2.682-1.129c-0.937-2.034-2.666-3.042-4.903-3.042    c-3.503,0-5.897,2.322-5.897,5.855c0,3.418,2.378,5.738,5.796,5.738c1.818,0,3.42-0.647,4.486-2.132    c0.967-1.357,1.082-2.71,1.11-4.298H128.282"/>
		<path fill="none" stroke="#FFFFFF" stroke-width="0.122" stroke-miterlimit="3.864" d="M128.282,90.444v2.221h2.053    c-0.115,1.256-1.052,1.889-2.279,1.889c-1.859,0-2.87-1.715-2.87-3.403c0-1.659,0.967-3.431,2.828-3.431    c1.141,0,1.964,0.691,2.35,1.731l2.682-1.129c-0.937-2.034-2.666-3.042-4.903-3.042c-3.503,0-5.897,2.322-5.897,5.855    c0,3.418,2.378,5.738,5.796,5.738c1.818,0,3.42-0.647,4.486-2.132c0.967-1.357,1.082-2.71,1.11-4.298H128.282z"/>
		<polyline fill="#FFFFFF" points="228.859,88.035 232.037,88.035 232.037,85.641 222.771,85.641 222.771,88.035 225.949,88.035     225.949,96.518 228.859,96.518 228.859,88.035 "/>
		<polygon fill="none" stroke="#FFFFFF" stroke-width="0.122" stroke-miterlimit="3.864" points="228.859,88.035 232.037,88.035     232.037,85.641 222.771,85.641 222.771,88.035 225.949,88.035 225.949,96.518 228.859,96.518   "/>
		<path fill-rule="evenodd" clip-rule="evenodd" fill="#FFFFFF" d="M50.19,88.033h0.666c1.816,0,3.101,1.099,3.101,3.044    c0,2.122-1.444,3.044-3.131,3.044H50.19V88.033 M47.363,96.514h4.01c3.014,0,5.526-2.379,5.526-5.437    c0-3.056-2.496-5.437-5.523-5.437h-4.013V96.514z"/>
		<path fill="none" stroke="#FFFFFF" stroke-width="0.122" stroke-miterlimit="3.864" d="M50.19,88.033h0.666    c1.816,0,3.101,1.099,3.101,3.044c0,2.122-1.444,3.044-3.131,3.044H50.19V88.033z M47.363,96.514h4.01    c3.014,0,5.526-2.379,5.526-5.437c0-3.056-2.496-5.437-5.523-5.437h-4.013V96.514z"/>
		<path fill-rule="evenodd" clip-rule="evenodd" fill="#FFFFFF" d="M77.116,88.021c1.687,0,3.072,1.369,3.072,2.869    c0,1.875-1.385,3.244-3.072,3.244c-1.687,0-3.074-1.369-3.074-3.244C74.042,89.391,75.429,88.021,77.116,88.021 M77.116,85.28    c-3.131,0-6.015,2.308-6.015,5.595c0,3.521,2.524,5.999,6.015,5.999c3.491,0,6.013-2.478,6.013-5.999    C83.131,87.588,80.245,85.28,77.116,85.28z"/>
		<path fill="none" stroke="#FFFFFF" stroke-width="0.122" stroke-miterlimit="3.864" d="M77.116,88.021    c1.687,0,3.072,1.369,3.072,2.869c0,1.875-1.385,3.244-3.072,3.244c-1.687,0-3.074-1.369-3.074-3.244    C74.042,89.391,75.429,88.021,77.116,88.021z M77.116,85.28c-3.131,0-6.015,2.308-6.015,5.595c0,3.521,2.524,5.999,6.015,5.999    c3.491,0,6.013-2.478,6.013-5.999C83.131,87.588,80.245,85.28,77.116,85.28z"/>
		<path fill-rule="evenodd" clip-rule="evenodd" fill="#FFFFFF" d="M104.655,85.491v5.726c0,1.414-0.102,2.959-1.917,2.959    c-1.816,0-1.919-1.545-1.919-2.959v-5.726h-2.826v6.116c0,1.399,0.059,2.782,1.139,3.834c0.91,0.895,2.336,1.212,3.606,1.212    s2.696-0.317,3.606-1.21c1.08-1.054,1.139-2.437,1.139-3.836v-6.116H104.655"/>
		<path fill="none" stroke="#FFFFFF" stroke-width="0.122" stroke-miterlimit="3.864" d="M104.655,85.491v5.726    c0,1.414-0.102,2.959-1.917,2.959c-1.816,0-1.919-1.545-1.919-2.959v-5.726h-2.826v6.116c0,1.399,0.059,2.782,1.139,3.834    c0.91,0.895,2.336,1.212,3.606,1.212s2.696-0.317,3.606-1.21c1.08-1.054,1.139-2.437,1.139-3.836v-6.116H104.655z"/>
		<polyline fill-rule="evenodd" clip-rule="evenodd" fill="#FFFFFF" points="151.285,89.837 151.285,85.641 148.458,85.641     148.458,96.518 151.285,96.518 151.285,92.061 155.365,92.061 155.365,96.518 158.192,96.518 158.192,85.641 155.365,85.641     155.365,89.837 151.285,89.837"/>
		<polygon fill="none" stroke="#FFFFFF" stroke-width="0.122" stroke-miterlimit="3.864" points="151.285,89.837 151.285,85.641     148.458,85.641 148.458,96.518 151.285,96.518 151.285,92.061 155.365,92.061 155.365,96.518 158.192,96.518 158.192,85.641     155.365,85.641 155.365,89.837"/>
		<polyline fill-rule="evenodd" clip-rule="evenodd" fill="#FFFFFF" points="173.562,96.518 176.388,96.518 176.388,89.855     176.418,89.855 181.596,96.518 184.423,96.518 184.423,85.641 181.596,85.641 181.596,92.291 181.565,92.291 176.388,85.641     173.562,85.641 173.562,96.518"/>
		<polygon fill="none" stroke="#FFFFFF" stroke-width="0.122" stroke-miterlimit="3.864" points="173.562,96.518 176.388,96.518     176.388,89.855 176.418,89.855 181.596,96.518 184.423,96.518 184.423,85.641 181.596,85.641 181.596,92.291 181.565,92.291     176.388,85.641 173.562,85.641"/>
		<path fill-rule="evenodd" clip-rule="evenodd" fill="#FFFFFF" d="M206.396,85.641v5.728c0,1.412-0.1,2.957-1.917,2.957    c-1.816,0-1.92-1.545-1.92-2.957v-5.728h-2.825v6.116c0,1.399,0.057,2.783,1.139,3.837c0.91,0.894,2.336,1.211,3.606,1.211    c1.27,0,2.695-0.317,3.605-1.211c1.08-1.054,1.139-2.438,1.139-3.837v-6.116H206.396"/>
		<path fill="none" stroke="#FFFFFF" stroke-width="0.122" stroke-miterlimit="3.864" d="M206.396,85.641v5.728    c0,1.412-0.1,2.957-1.917,2.957c-1.816,0-1.92-1.545-1.92-2.957v-5.728h-2.825v6.116c0,1.399,0.057,2.783,1.139,3.837    c0.91,0.894,2.336,1.211,3.606,1.211c1.27,0,2.695-0.317,3.605-1.211c1.08-1.054,1.139-2.438,1.139-3.837v-6.116H206.396z"/>
		<path fill-rule="evenodd" clip-rule="evenodd" fill="#FFFFFF" d="M252.837,86.247c-0.963-0.548-2.306-0.894-3.4-0.894    c-2.178,0-3.75,1.444-3.75,3.648c0,2.105,1.165,2.566,2.941,3.072c0.604,0.172,1.715,0.447,1.715,1.244    c0,0.76-0.708,1.092-1.369,1.092c-0.967,0-1.802-0.504-2.508-1.124l-1.212,2.277c1.108,0.78,2.451,1.241,3.821,1.241    c1.098,0,2.236-0.303,3.086-1.023c0.867-0.736,1.127-1.845,1.127-2.929c0-1.759-1.172-2.523-2.683-2.969l-0.722-0.219    c-0.491-0.159-1.256-0.404-1.256-1.037c0-0.606,0.691-0.908,1.211-0.908c0.692,0,1.355,0.287,1.873,0.72L252.837,86.247"/>
		<path fill="none" stroke="#FFFFFF" stroke-width="0.122" stroke-miterlimit="3.864" d="M252.837,86.247    c-0.963-0.548-2.306-0.894-3.4-0.894c-2.178,0-3.75,1.444-3.75,3.648c0,2.105,1.165,2.566,2.941,3.072    c0.604,0.172,1.715,0.447,1.715,1.244c0,0.76-0.708,1.092-1.369,1.092c-0.967,0-1.802-0.504-2.508-1.124l-1.212,2.277    c1.108,0.78,2.451,1.241,3.821,1.241c1.098,0,2.236-0.303,3.086-1.023c0.867-0.736,1.127-1.845,1.127-2.929    c0-1.759-1.172-2.523-2.683-2.969l-0.722-0.219c-0.491-0.159-1.256-0.404-1.256-1.037c0-0.606,0.691-0.908,1.211-0.908    c0.692,0,1.355,0.287,1.873,0.72L252.837,86.247z"/>
		<polyline fill="#007550" points="269.836,91.285 270.485,91.285 270.938,88.76 272.142,91.479 273.375,88.768 273.777,91.285     274.419,91.285 273.632,86.791 272.147,90.037 270.71,86.791 269.836,91.285"/>
		<path fill-rule="evenodd" clip-rule="evenodd" fill="#007550" d="M278.397,87.331c-0.391-0.227-0.68-0.307-1.123-0.307    c-1.179,0-2.176,0.988-2.176,2.159c0,1.23,0.952,2.185,2.176,2.185c0.387,0,0.751-0.101,1.123-0.315v-0.756    c-0.402,0.34-0.723,0.475-1.11,0.475c-0.882,0-1.554-0.678-1.554-1.567c0-0.882,0.678-1.586,1.525-1.586    c0.423,0,0.742,0.134,1.139,0.458V87.331"/>
	</g>
</switch>
</svg>