<?xml version="1.0" encoding="UTF-8"?>
<svg id="Layer_2" data-name="Layer 2" xmlns="http://www.w3.org/2000/svg" viewBox="0 0 163.67 182.39">
  <defs>
    <style>
      .cls-1 {
        fill: #fff;
      }

      .cls-2 {
        fill: #ff6000;
      }
    </style>
  </defs>
  <g id="Layer_1-2" data-name="Layer 1">
    <g>
      <path d="M162.35,33.36c-1.87-1.12-4.48,1.07-5.64,3.36.65-4.06,1.03-9.75-1.73-10.26-2.94-.56-5.13,6.29-5.32,8.81,0,0-2.98-8.63-6.11-7.6s-2.33,5.74-.23,11.84c-7.46-3.87-12.92,5.18-12.31,9.47-2.66,1.63-9.65,5.13-25.37,9.51-.09.05-.37.09-.37.09,0,0,.09.23.19.37.42.75,2.14,5.22,19.68,6.76,3.68.33,7.37.28,10.96-.05-.19.51-.23,1.07-.19,1.59.14,1.17.65,2.14,1.54,2.8.7.56,1.91.89,2.84.79.28-.05.51-.09.75-.19.05,0,.23-.09.28-.14,0,0-1.21,6.29-2.61,10.21-.84.19-1.4.61-18.37,2.61l-.89-3.4c-1.12-3.45-3.17-12.03-3.17-12.03-20.33.84-28.49-15.71-28.54-15.76.23.05,3.96.98,11.47,1.77,2.98.33,6.11.61,9.14.42,1.26-.09,3.03-.47,2.84-2.05-.14-1.03-2.1-5.41-2.66-6.53,3.12-1.12,6.29-2.01,9.23-3.45,5.22-2.56,20.24-11.38,20.24-19.12,0-3.5-3.22-4.85-5.78-5.55-8.77-2.47-29.42-2.7-45.42,2.8-.33.09-.65.23-.93.33.09-.37.09-.75.09-1.12-.05-.79-.33-1.26-.84-1.35-.33-.09-1.31-.28-4.06,4.43-.37.14-.7.33-1.07.47.51-1.54.37-2.28.05-2.56-.37-.37-.93-.37-1.63,0-1.87.98-2.28,2.8-2.14,4.48-.33.19-.65.37-.98.56-.14-.7-.37-1.03-.65-1.17-.47-.23-.98-.05-1.54.51-.79.84-1.12,1.77-1.12,2.7-13.38,9.14-17.49,21.45-17.49,31.29,0,.98.05,1.91.09,2.8-.33-.28-.61-.28-.7-.28-.51.05-.84.42-1.03,1.21-.37,1.73.28,3.4,1.87,4.9-.09.05-.19.05-.19.05-.75,0-1.4.56-1.45,1.31-.05.79.56,1.45,1.31,1.49h.09c.19,0,.56-.05,1.07-.19,1.91,9.47,5.88,15.57,8.07,18.51-.23.23-5.41,5.83-9.05,8.63-1.4-1.87-2.47-3.36-3.36-4.71-1.68-2.7-2.94-5.32-4.01-7.83.05-.19.28-2.05.47-3.4.33-2.05.65-4.8.65-6.95,0-.51.33-8.49-5.5-8.49-1.21,0-2.47.42-3.68,1.12v-1.21c.09-5.08,0-15.85,0-15.85,1.59-.98,2.61-2.7,2.61-4.66,0-.84-.19-1.68-.56-2.38.47-.05,1.31-.14,1.91-.23.51-.09.93-.47,1.07-.98l.47-1.91c.09-.47-.09-.98-.56-1.21l-2.24-1.21v-.14c.56-.19,1.21-.33,1.77-.51,1.91-.61,3.78-1.31,5.6-2.05,2.47-1.03,4.9-2.14,7.23-3.4,2.47-1.4,4.9-2.94,7.04-4.8,2.05-1.77,3.92-3.82,5.18-6.2.37-.7.65-1.4.93-2.14.28-.84.89-3.64.65-3.87-.23-.19-8.63,2.7-14.13,2.7-2.75,0-4.8-.42-4.8-.42,2.14-5.64,10.26-13.2,10.07-13.62-.19-.51-9.93-.14-23.08,5.08l-.84-5.97c-.56-2.94-1.63-2.84-2.24,0-.23,1.03-.75,4.29-1.35,7.88-.14.05-.28.14-.42.19-.89.51-11.94,6.95-17.25,11.66-5.46,4.8-7.69,7.51-11.42,13.85-3.17,5.36-6.02,13.85-4.24,20.1,2.24,8.07,7.74,10.26,14.22,6.62,2.61-1.49,5.08-3.45,6.99-5.78,3.17-3.82,5.88-7.69,9-11.1.05,1.77.98,3.36,2.38,4.34.05.14.09.28.09.47l.09,17.16v.65c-.09,0-.23.05-.33.05-.79.14-1.59.28-2.38.75-.42.23-.79.51-1.17.98-.33.42-.61,1.03-.65,1.59-.05.28-.05.56,0,.84s.09.61.23.89.28.56.51.79c-.19.14-.42.28-.61.47-.37.33-.7.84-.89,1.35s-.23,1.03-.19,1.49.09.98.33,1.45c.19.47.51.84.89,1.17-.05.05-.09.09-.09.09-.61.61-.75,1.45-.75,2.24,0,1.21.28,2.01,1.26,2.75.09.05.19.14.23.19-.09.14-.19.28-.28.42-.23.56-.28,1.07-.28,1.54s.05.98.28,1.59c.23.56.98,1.12,1.54,1.35s1.12.28,1.59.28c.28,0,.51-.05.79-.05v.51l-.05,91.49h5.83v-86.5c3.64,6.16,9.47,15.99,11.38,18.79.47.7,1.17,1.68,2.05,1.82.93.19,1.87-.42,2.61-.89.65-.37,1.26-.79,1.87-1.26,1.35-.98,2.61-2.05,3.87-3.12.42-.37.84-.7,1.31-1.07.09-.05.79-.7.79-.7l-.37,41.41,14.55-.84,2.66,16.13-2.19.7s-1.35-1.26-2.38-.98h-.05c-1.03.33-1.35,2.24-1.35,2.24l-3.59,1.35s-1.54-1.07-2.66-.56c-1.12.47-1.21,2.28-1.21,2.28l-3.17,1.54s-1.59-1.07-2.42-.61c-.89.42-1.03,2.52-1.03,2.52-9,3.78-13.29,7.69-8.16,7.74h73.63c5.18,0,.84-3.92-8.16-7.74,0,0-.14-2.1-1.03-2.52s-2.42.61-2.42.61l-3.17-1.54s-.09-1.82-1.21-2.28-2.66.56-2.66.56l-3.59-1.35s-.33-1.91-1.35-2.24-2.42.98-2.42.98l-2.19-.7,2.89-17.63,32.73-2.1-8.91-48.82,24.67-6.9c.65-.19,1.17-.75,1.31-1.4,1.12-5.83,4.99-31.47,4.99-31.47,9.56-17.02,10.21-22.89,7.6-24.48ZM141.83,59.2c-1.03-4.15-2.42-9.28-3.08-11.47,2.47-.7,5.22-.89,6.34,1.82,1.59,3.87-1.68,7.79-3.26,9.65Z"/>
      <path class="cls-2" d="M113.95,112.21c-1.21,1.26-1.96,1.49-2.28.14-.23-1.03.28-2.1.75-3.03,3.82-7.32,7.13-12.36,4.9-24.81-.09-.37-.14-.75-.23-1.12-2.47,11.1-8.49,20.28-17.21,32.78-1.17,1.59-2.42,3.03-3.68,4.52-.37.47-.79.93-1.17,1.35-.33.37-.65.7-1.07.98-.23.19-.65.33-.93.19-.42-.19-.37-.84-.33-1.21.14-.79.51-1.49.93-2.14,6.06-9.05,19.02-25.6,21.26-39.63l-3.31,4.52c-9.37,13.01-20.7,22.66-29.14,26.67-6.16,2.89-10.12,3.92-15.39,3.36l-.28,32.03,61.13-4.01-7.6-43.6c-1.21,4.76-3.36,9.19-6.34,13.01h0ZM80.47,131.14l.14,2.24-4.1.28.19,2.61,4.1-.28.14,2.24-6.34.42-.47-7.09,6.34-.42ZM70.35,143.27l-.75-11.42,2.24-.14.61,9.14,8.63-.56.14,2.24-10.86.75ZM94.55,130.26l.14,2.24-4.1.28.19,2.61,4.1-.28.14,2.24-6.34.42-.47-7.09,6.34-.42ZM84.38,142.33l-.75-11.42,2.24-.14.61,9.19,8.63-.56.14,2.24-10.86.7ZM108.58,129.33l.14,2.24-4.1.28.19,2.61,4.1-.28.14,2.24-6.34.42-.47-7.09,6.34-.42ZM98.42,141.45l-.75-11.42,2.24-.14.61,9.19,8.63-.56.14,2.24-10.86.7ZM123.37,139.82l-10.86.7-.75-11.42,2.24-.14.61,9.19,8.63-.56.14,2.24ZM122.76,130.63l-4.1.28.19,2.61,4.1-.28.14,2.24-6.34.42-.47-7.09,6.34-.42.14,2.24Z"/>
      <path class="cls-2" d="M46.85,18.77c2.19-7.18,7.13-11.66,7.13-11.66,0,0-6.34.89-15.2,4.71l1.03,7.55c.37.05.65.14.93.23.65.23.93.84.89,1.4-.05.61-.51.98-1.07,1.12-.61.14-2.24.19-3.78.61-2.05.51-3.64,1.59-4.9,2.47-.33.23-.98.23-1.35-.23-.33-.37-.37-.84-.19-1.21.33-.65.93-1.45,1.77-2.19.09-1.07.51-3.87,1.03-7.04-4.85,2.61-10.17,6.06-15.43,10.63-8.63,7.6-13.1,17.72-13.9,24.11-.61,5.18.89,11.42,6.95,10.49,7.41-1.17,10.35-9.51,14.78-14.5,4.71-5.36,10.77-9.61,17.3-12.36,7.97-3.36,18.28-5.41,22.99-14.55-4.94,1.12-12.5,2.94-18.98.42ZM9.5,45.91c-2.66-.79-.75-4.85.75-5.83.51-.33,1.17-.47,1.73-.28.42.14.75.47.98.89,0,.05.05.09.05.09.65,1.49-.23,3.64-1.4,4.62-.56.47-1.35.7-2.1.51ZM13.28,55.28c-.42.14-.89.23-1.31.09-3.78-.89-.28-7.37,2.52-7.23,1.17.05,1.77.56,2.01,1.31.61,1.91-1.45,5.27-3.22,5.83ZM15.47,34.72c-.23.09-.51.19-.79.19-.42-.05-.75-.33-.93-.65-1.07-1.87,1.35-4.85,3.22-5.13.23-.05.42-.05.65.05.51.19.75.65.75,1.17.05.65-.23,1.4-.42,1.87-.51,1.07-1.4,2.05-2.47,2.52ZM19.01,42.83c-.98-.14-1.45-1.07-1.49-1.96-.05-1.31.7-2.52,1.59-3.4.61-.61,2.1-1.73,3.03-1.31.84.37,1.21.89,1.31,1.49.23,1.87-2.19,5.46-4.43,5.18ZM23.53,29.17c-.42.09-.84.14-1.21-.09-.33-.19-.51-.56-.56-.93-.37-1.96,2.14-4.01,3.87-4.15.47-.05.98.09,1.26.47.23.33.33.65.33,1.03-.05,1.63-2.52,3.4-3.68,3.68ZM33.23,31.96c-.47,1.82-2.8,4.06-4.8,3.73-1.45-.23-1.35-1.68-.93-2.75.61-1.54,2.8-3.64,4.62-3.03.98.33,1.35,1.21,1.12,2.05ZM42.14,28.79c-.98.56-3.22,1.21-4.1.14-.89-1.12.56-2.19,1.45-2.75.84-.51,2.94-1.31,4.01-.65.23.14.42.33.51.61.47,1.12-.98,2.28-1.87,2.66ZM46.57,14.2c-.7,1.17-1.96,1.87-3.08,2.05-.84.14-1.45-.19-1.91-.65-.28-.37-.14-1.12.28-1.68.84-1.03,2.1-1.59,3.17-1.59.89-.09,2.42.47,1.54,1.87ZM54.03,25.58c-.7,1.03-2.24,1.45-3.4,1.26-.65-.09-1.31-.42-1.63-1.03-1.21-2.28,2.42-3.92,4.15-3.12.28.14.56.33.7.56.56.65.65,1.63.19,2.33Z"/>
      <path class="cls-2" d="M138.99,61.71c-.37-1.87-2.01-9.33-2.98-11.84-1.91.75-6.76,3.17-12.36,5.46.47.23.93.56,1.21.93.37.47.56,1.12.42,1.73-.28,1.07-1.45,1.77-2.47,1.96-1.31.23-2.94-.19-3.68-1.35-.28-.42-.37-.93-.37-1.45-2.89.98-5.83,1.82-8.53,2.24,3.73,2.75,10.86,3.5,17.16,3.54-.05-.28-.05-.56-.05-.79.14-1.4,2.05-2.01,3.26-1.87.75.09,1.68.47,2.28,1.07.37.37.61.89.61,1.4,2.33-.14,4.2-.37,5.18-.56.14.05.42-.09.33-.47ZM133.58,57.47c-.93.47-2.14.65-3.03,0-1.07-.75-1.45-2.14-.42-3.08.65-.61,1.49-.98,2.38-1.03.61-.05,1.26.09,1.82.42.37.23.7.56.84,1.03.37,1.17-.7,2.19-1.59,2.66Z"/>
      <g>
        <path class="cls-1" d="M59.62,54.91c.56.14,1.31,1.07,1.77,4.38.51-1.17,1.07-2.52,1.59-4.06-1.63-1.21-3.54-3.54-2.19-6.16.37-.75.84-1.07,1.35-.98.56.09,1.31.93,1.87,3.92.42-1.35.79-2.75,1.17-4.34-1.35-.84-2.89-2.28-2.98-4.15-2.24,4.1-3.45,8.25-3.87,12.08.42-.56.84-.79,1.31-.7Z"/>
        <path class="cls-1" d="M71.37,32.57c-1.03.89-2.01,1.77-2.94,2.66.14.51.23,1.21.28,2.1.89-1.77,1.77-3.36,2.66-4.76Z"/>
        <path class="cls-1" d="M160.62,36.02c-.61-.47-2.01,1.45-3.68,4.1-1.17,1.82-2.19,3.54-2.94,3.26-.37-.14-.33-.56-.14-1.68s2.1-11.24.23-11.66c-2.01-.47-3.08,11.84-4.06,11.89-.7.05-1.12-2.84-2.14-5.46-1.21-2.98-2.66-5.64-3.82-5.13-1.54.7,3.78,11.24,1.59,11.24-.47,0-1.12-.28-1.54-.51-6.16-3.17-10.58,3.22-10.72,5.08,0,.19,0,.42.09.56.14.19.33.51,1.77-.56,4.15-3.12,11.56-4.01,13.06,1.31,1.49,5.36-3.78,11.7-5.69,13.71.28,1.31-.56,2.52-1.91,2.75-.56.09-1.17.19-1.82.28-.28.65-.33,1.35.19,1.96,1.4,1.54,3.96-.05,5.22-1.12.89-.75.47,1.03.28,1.91-.89,4.8-3.03,14.78-3.22,15.06-.28.28-13.52,2.75-20.1,4.01l1.82,6.95c18.88-4.85,23.59-6.2,23.59-6.2,0,0,5.08-28.91,5.46-30.45.14-.7.51-1.4.89-2.05,3.45-6.02,9.51-17.72,7.6-19.26Z"/>
        <path class="cls-1" d="M58.46,64.42c.51-.7,1.03-1.49,1.59-2.47-.7-.56-1.4-1.4-1.87-2.33,0,1.4.09,2.8.23,4.2,0,.23,0,.42.05.61Z"/>
        <path class="cls-1" d="M66.06,44.55c.37-1.35.84-2.61,1.26-3.78-.61-.61-1.26-1.4-1.68-2.33-.65.84-1.31,1.68-1.87,2.56.61.09,1.35.89,2.28,3.54Z"/>
        <path class="cls-1" d="M80.93,149.84c.09.75,1.49,13.99,1.49,14.64,0,1.03,3.96,2.38,4.29,1.54.09-4.76.05-11.8-.09-16.55l-5.69.37Z"/>
        <path class="cls-1" d="M78.79,169.52s2.75,3.17,3.87,9.51c.7,0,3.12,0,4.1-.09v-9.51c-.89,0-4.06-.79-4.06-.79,0,0-3.96.7-3.92.89h0Z"/>
        <path class="cls-1" d="M106.25,179.36l4.06.23c.19-1.07.7-3.36,1.77-4.48,0,0-2.05-1.03-3.03-1.31-1.68,1.35-2.7,4.43-2.8,5.55Z"/>
        <path class="cls-1" d="M71.51,172.22c1.87,2.19,2.8,5.22,2.89,6.95,1.07.05,4.01-.14,4.01-.14,0,0-.33-5.08-3.45-8.16l-3.45,1.35Z"/>
        <path class="cls-1" d="M98.28,179.03s2.89.14,4.01.14c.05-1.73.98-4.76,2.89-6.95l-3.4-1.35c-3.17,3.12-3.5,8.16-3.5,8.16Z"/>
        <path class="cls-1" d="M33.7,73.04c.37-.89,1.73-2.75,2.38-3.4-1.35.14-3.87.75-4.62,1.77-.19.23-.23.79,0,.98.61.47,1.91.61,2.24.65Z"/>
        <path class="cls-1" d="M94.04,168.68s-3.17.79-4.06.79l-.09,9.51c.98.09,3.5.09,4.2.09,1.12-6.39,3.87-9.51,3.87-9.51,0-.23-3.92-.89-3.92-.89h0Z"/>
        <path class="cls-1" d="M94.27,164.48c0-.7,1.54-15.53,1.54-15.53-1.4.05-4.38.19-5.74.33-.14,4.8-.19,11.94-.09,16.74.33.84,4.29-.51,4.29-1.54h0Z"/>
        <path class="cls-1" d="M67.64,173.81c-.98.28-3.03,1.31-3.03,1.31,1.07,1.12,1.59,3.4,1.77,4.48l4.06-.23c-.09-1.12-1.17-4.2-2.8-5.55Z"/>
        <path class="cls-1" d="M33.56,86.19s-1.45-.09-1.73.09c-.14.09-.79.23-.79,1.03,0,.84.61.89.75.98.28.14,1.73,0,1.73,0,0,0,2.89-.09,2.89-1.17-.05-1.07-2.84-.93-2.84-.93Z"/>
        <path class="cls-1" d="M35.98,81.58c-.37-.14-.79-.23-1.21-.33-.23-.05-.42-.09-.65-.09l-.7-.09c-.47-.05-.93-.09-1.35-.14-.65-.05-1.26,0-1.59.65-.37.7-.33,1.82.51,2.14.28.09.65.14,1.12.14.42,0,.89,0,1.35-.05l.75-.05c.23,0,.47,0,.7-.05.42-.05.84-.09,1.21-.19s.7-.23.84-.42c.14-.14.19-.28.23-.56,0-.19-.05-.33-.28-.51-.19-.14-.56-.33-.93-.47Z"/>
        <path class="cls-1" d="M54.54,179.59c-.33.23-.05.51.33.51.05,0,7.37-.23,7.37-.23,0,0-.37-1.77-1.63-3.17-.09-.09-5.5,2.47-6.06,2.89h0Z"/>
        <path class="cls-1" d="M30.62,78.13c.28.19.79.37,1.4.42.28.05.56.05.89.05-.79-.89-.51-2.28-.09-3.45-.33.05-.7.14-.98.23-.61.19-1.12.47-1.35.75-.14.14-.19.28-.23.42s-.05.37-.05.61.09.47.14.61c.05.19.14.28.28.37Z"/>
        <path class="cls-1" d="M122.15,179.59c-.56-.42-6.02-2.98-6.06-2.94-1.26,1.4-1.63,3.17-1.63,3.17,0,0,7.32.23,7.37.23.37.05.65-.23.33-.47Z"/>
        <path class="cls-1" d="M113.57,71.32c-.37-.05-.79-.05-.84-.05-3.17-.42-17.21.09-28.02-17.35-.23.7-.47,1.4-.7,2.14-.19.65-.33,1.35-.47,2.01s-.28,1.4-.37,2.05v.09c-.09.56-.65.93-1.17.79-.42-.09-.7-.37-.79-.75-.19-.84-.28-1.59-.33-2.38s0-1.59.09-2.38c.19-1.59.56-3.17,1.21-4.66s1.59-2.94,2.8-4.06c.28-.28.61-.56.93-.84.33-.23.65-.47,1.03-.7.7-.42,1.45-.75,2.24-.98.56-.14,1.12.14,1.26.7.09.37,0,.79-.28,1.03l-.05.05c-1.03.93-1.91,1.87-2.66,2.84,4.71,1.03,14.18,2.42,18.98,1.87l-2.05-4.8c-1.17-2.47.65-2.89,2.94-3.59,10.82-2.98,27.42-13.48,27.42-19.21,0-1.73-3.96-4.01-16.69-3.96-16.23.05-28.44,2.98-37.4,7.46-.56.42-1.4,1.07-2.38,2.01,2.75-1.73,3.36-1.26,3.59-1.12.42.28.47.84.19,1.59-.61,1.68-2.1,2.7-4.24,3.08-.61.09-1.17.14-1.68.14-.47,0-.79-.05-1.03-.05-1.03,1.4-2.05,3.03-3.08,4.99,3.82-3.54,4.66-3.08,4.99-2.94.42.23.56.75.37,1.54-.37,1.73-1.73,2.98-3.82,3.64-1.26.37-2.42.42-2.8.42-.56,1.26-1.07,2.66-1.54,4.1,3.03-3.4,3.87-3.08,4.15-2.94.47.19.65.7.56,1.49-.19,1.77-1.35,3.17-3.36,4.01-.89.37-1.73.56-2.28.7-.05.19-.09.33-.14.51-.37,1.54-.75,2.94-1.12,4.24,2.42-3.12,3.26-2.89,3.54-2.8.47.14.7.65.7,1.45-.05,1.77-1.12,3.26-3.08,4.29-.93.51-1.87.79-2.38.89-.42,1.12-.79,2.19-1.21,3.17,2.61-2.94,3.4-2.61,3.68-2.52.47.19.65.7.61,1.49-.19,1.77-1.31,3.17-3.31,4.06-1.21.56-2.38.75-2.75.79-.61,1.12-1.21,2.1-1.82,2.94,3.17-1.82,3.78-1.31,4.01-1.12.37.33.42.84.09,1.59-.7,1.63-2.24,2.61-4.38,2.84-.37.05-.75.05-1.12.05h-.33c.19,1.03.42,2.01.7,3.03.33,1.17,2.7,8.86,6.76,13.99.14-.05.23-.14.37-.19.33-.14.61-.19.98-.28.33-.05.65-.09.93-.09.56-.05,1.12,0,1.68,0,1.07.05,2.05.23,3.12.75.79.37,1.12,1.35.75,2.14-.28.61-.93.93-1.54.89h-.19c-.75-.05-1.45-.14-2.24-.14-.42,0-.79,0-1.17.05-.19,0-.37.05-.51.09-.09.05-.28.05-.37.09-1.82,1.59-9.98,9.56-10.91,10.35-.75.61-2.61,2.42-2.98,2.47-.14.05-.79-.79-1.59-1.96-1.31-1.82-3.12-4.48-3.82-5.64-2.28-3.78-4.76-9.23-4.76-9.23,0,0,.47-3.87.61-4.62.51-4.43.93-12.08-2.05-12.08-1.77,0-3.73.89-4.9,2.1-1.03,1.07-5.36,6.43-2.14,7.41,1.87.56,2.19-1.17,3.26-3.17,1.35-2.56,2.01-2.42,2.47-2.1.14.09.23.19.33.33.14.19.23.37.28.61.05.14.09.28.05.42-.05.09-1.54,2.61-1.82,4.94-.65,4.76,1.03,5.97.51,6.85-.33.56-1.03.75-1.59.47-.05,0-.09-.05-.14-.09l-.05,2.52v.28c3.54,7.13,9.79,16.69,14.13,23.22,5.04-2.56,11.7-9.84,15.53-14.45.89-1.07,2.1-.37,2.38.09.84,1.4-3.22,6.29-3.96,7.18v5.83s17.77,5.5,47.56-35.86l-1.4-4.06ZM96.41,30.05c.37-.09.75.05.98.33.33.42.65.79,1.07,1.17.37.33.84.61,1.26.84.89.42,1.91.65,2.8.42.42-.09.84-.23,1.17-.51s.61-.61.84-1.03c.42-.84.61-1.91.61-2.98,0-.51.42-.93.93-.93.42,0,.75.23.89.61l.09.23c.23.65.37,1.35.42,2.05,0,.37,0,.75-.09,1.12,0,.19-.09.37-.14.56s-.14.37-.19.56c-.28.79-.84,1.54-1.49,2.14-.7.56-1.59.98-2.42,1.12-1.73.33-3.4-.14-4.66-.98s-2.24-2.05-2.61-3.45l-.05-.19c-.14-.47.14-.93.61-1.07ZM83.4,33.74c.37-.14.79.05.98.33.28.42.65.84,1.03,1.17s.79.61,1.26.84c.89.42,1.91.56,2.75.28.84-.23,1.54-.84,1.91-1.73s.51-1.96.47-3.03c0-.51.42-.98.93-.98.42,0,.79.28.93.65l.05.19c.42,1.26.56,2.75.05,4.24-.23.75-.7,1.49-1.31,2.1s-1.4,1.07-2.24,1.31-1.68.23-2.52.14c-.79-.14-1.54-.42-2.19-.84-1.31-.79-2.24-2.01-2.66-3.36l-.05-.19c-.14-.51.14-.98.61-1.12Z"/>
      </g>
    </g>
  </g>
</svg>