<?xml version="1.0" encoding="UTF-8" standalone="no"?>
<!-- Created with Inkscape (http://www.inkscape.org/) -->
<svg xmlns:dc="http://purl.org/dc/elements/1.1/" xmlns:cc="http://creativecommons.org/ns#" xmlns:rdf="http://www.w3.org/1999/02/22-rdf-syntax-ns#" xmlns:svg="http://www.w3.org/2000/svg" xmlns="http://www.w3.org/2000/svg" xmlns:sodipodi="http://sodipodi.sourceforge.net/DTD/sodipodi-0.dtd" xmlns:inkscape="http://www.inkscape.org/namespaces/inkscape" width="141.62869mm" height="48.947926mm" viewBox="0 0 141.62869 48.947926" version="1.1" id="svg8" inkscape:version="0.92.5 (2060ec1f9f, 2020-04-08)" sodipodi:docname="wingstop logo wiki.svg">
  <defs id="defs2"/>
  <sodipodi:namedview id="base" pagecolor="#ffffff" bordercolor="#666666" borderopacity="1.0" inkscape:pageopacity="0.0" inkscape:pageshadow="2" inkscape:zoom="1.6821407" inkscape:cx="328.40523" inkscape:cy="79.609894" inkscape:document-units="mm" inkscape:current-layer="layer1" showgrid="false" fit-margin-top="0" fit-margin-left="0" fit-margin-right="0" fit-margin-bottom="0" inkscape:window-width="1920" inkscape:window-height="1017" inkscape:window-x="1912" inkscape:window-y="70" inkscape:window-maximized="1"/>
  <metadata id="metadata5">
    <rdf:RDF>
      <cc:Work rdf:about="">
        <dc:format>image/svg+xml</dc:format>
        <dc:type rdf:resource="http://purl.org/dc/dcmitype/StillImage"/>
        <dc:title/>
      </cc:Work>
    </rdf:RDF>
  </metadata>
  <g inkscape:label="Layer 1" inkscape:groupmode="layer" id="layer1" transform="translate(550.75276,-80.985815)">
    <g id="g895" transform="matrix(0.00531016,0,0,-0.00531016,-550.78698,129.94549)" style="fill:#146a34;fill-opacity:1;stroke:none">
      <path id="path817" d="m 12485,9201 c -47,-21 -57,-33 -284,-341 -96,-129 -185,-248 -200,-264 -36,-40 -117,-76 -171,-76 -24,0 -203,37 -396,81 -264,62 -360,80 -387,75 -42,-8 -91,-46 -112,-85 -7,-15 -57,-173 -110,-351 -53,-178 -105,-340 -115,-360 -22,-43 -80,-97 -126,-116 -17,-7 -133,-25 -255,-39 -455,-52 -494,-57 -531,-76 -41,-21 -72,-70 -83,-132 -15,-77 7,-120 223,-449 114,-173 216,-327 228,-342 l 20,-28 71,98 c 488,684 1184,1184 1995,1434 253,78 590,139 866,156 l 112,7 v 228 228 l -293,170 c -275,160 -356,201 -396,201 -9,0 -34,-9 -56,-19 z" inkscape:connector-curvature="0" style="fill:#146a34;fill-opacity:1"/>
      <path id="path819" d="m 14109,9210 c -14,-4 -163,-87 -332,-185 l -307,-177 v -223 -223 l 38,-6 c 20,-3 71,-8 112,-11 760,-63 1477,-337 2045,-780 284,-222 565,-511 785,-808 35,-48 67,-87 71,-87 10,0 449,657 466,697 32,79 1,184 -68,230 -42,28 -120,41 -540,87 -122,14 -233,32 -255,41 -48,20 -109,78 -135,128 -11,21 -38,102 -60,180 -75,265 -151,500 -172,533 -31,47 -73,68 -132,67 -45,-1 -330,-63 -585,-128 -130,-33 -200,-33 -268,1 -62,31 -78,49 -269,310 -221,302 -239,323 -286,345 -45,20 -67,22 -108,9 z" inkscape:connector-curvature="0" style="fill:#146a34;fill-opacity:1"/>
      <path id="path821" d="m 13230,8204 c -882,-46 -1612,-343 -2260,-919 -302,-268 -602,-660 -784,-1023 -50,-99 -126,-276 -126,-291 0,-17 27,-14 253,29 396,74 763,129 1204,180 277,32 295,37 382,114 328,292 755,477 1208,526 164,18 486,8 633,-19 300,-57 577,-168 822,-332 88,-58 132,-93 266,-205 33,-29 76,-57 94,-63 18,-5 98,-17 178,-26 388,-43 888,-122 1325,-209 149,-30 271,-53 273,-52 5,6 -81,203 -145,330 -423,848 -1167,1489 -2073,1786 -228,75 -530,137 -770,159 -124,12 -388,20 -480,15 z m 231,-406 c 4,-6 10,-64 14,-129 11,-193 15,-195 61,-23 l 41,149 64,-3 c 35,-2 67,-7 71,-10 3,-4 14,-81 24,-171 16,-140 20,-159 27,-125 10,49 57,253 64,278 5,17 12,18 81,12 42,-4 78,-8 79,-10 3,-3 -163,-586 -168,-589 -2,-1 -38,-1 -80,1 l -77,4 -12,116 c -23,230 -21,229 -64,50 l -38,-156 -76,5 c -42,3 -79,7 -81,9 -2,1 -21,128 -42,281 -21,153 -41,291 -44,307 l -5,29 77,-7 c 43,-4 81,-12 84,-18 z m -925,-194 c 5,-21 0,-26 -56,-50 -57,-25 -61,-29 -55,-53 10,-40 19,-44 75,-31 29,7 55,9 59,4 11,-12 41,-91 41,-107 0,-6 -19,-20 -43,-30 -70,-29 -70,-29 -53,-71 8,-20 17,-36 19,-36 2,0 27,7 56,16 29,8 58,13 65,11 16,-6 51,-116 40,-126 -12,-12 -272,-96 -277,-91 -11,12 -196,564 -191,569 3,3 67,27 142,52 l 137,46 18,-40 c 9,-22 20,-50 23,-63 z m 1852,40 c 102,-29 102,1 -3,-315 -52,-155 -96,-284 -99,-286 -4,-4 -147,35 -155,42 -3,3 176,550 186,568 6,10 6,9 71,-9 z m 507,-211 c 52,-30 64,-41 60,-57 -3,-12 -12,-64 -20,-116 -8,-52 -18,-105 -20,-117 -4,-16 -1,-23 9,-23 8,0 41,47 73,105 32,58 61,105 65,105 4,0 34,-16 68,-36 46,-27 60,-40 55,-52 -9,-24 -276,-485 -289,-499 -8,-10 -25,-4 -73,23 -35,19 -63,42 -63,50 0,16 37,261 46,304 3,14 -6,3 -21,-25 -22,-41 -122,-211 -131,-223 -2,-3 -122,63 -132,73 -2,2 56,106 128,232 161,278 170,293 176,293 3,0 34,-17 69,-37 z m -2885,-228 c 79,-126 150,-240 158,-252 13,-20 10,-24 -44,-58 -32,-20 -63,-39 -70,-42 -8,-3 -38,34 -78,96 l -65,100 -31,-17 c -16,-9 -30,-20 -30,-24 0,-4 27,-51 61,-105 l 61,-97 -23,-19 c -13,-10 -43,-30 -67,-44 -37,-22 -45,-24 -56,-12 -19,21 -306,482 -307,494 -1,6 28,29 64,52 l 65,42 57,-90 c 31,-49 59,-89 61,-89 3,0 17,8 32,17 15,9 28,18 30,19 1,0 -23,43 -55,94 -31,52 -53,95 -48,97 6,2 37,21 70,43 33,22 62,36 66,32 3,-4 70,-110 149,-237 z m -725,-269 36,-45 -22,-31 -23,-31 157,-157 157,-157 -53,-53 c -29,-28 -57,-52 -62,-52 -5,0 -78,68 -162,152 l -152,151 -34,-26 -34,-26 -47,48 -47,48 118,111 c 65,62 121,112 125,112 4,0 23,-20 43,-44 z m 4337,-27 c 67,-34 118,-118 118,-196 0,-27 -18,-93 -25,-93 -1,0 -33,14 -69,31 -60,28 -66,34 -66,61 0,37 -16,68 -36,68 -21,0 -83,-35 -121,-67 -44,-38 -103,-130 -103,-159 0,-32 39,-48 76,-32 24,11 26,18 11,58 -4,9 9,32 33,59 l 40,44 67,-73 c 96,-103 95,-96 35,-151 -142,-130 -293,-132 -379,-5 -29,43 -33,56 -33,115 0,82 29,146 101,225 117,129 242,169 351,115 z" inkscape:connector-curvature="0" style="fill:#146a34;fill-opacity:1"/>
      <path id="path823" d="m 17952,7898 c -154,-11 -363,-70 -457,-128 -42,-26 -87,-82 -109,-135 -10,-22 -22,-91 -27,-153 -12,-132 -36,-234 -80,-334 -69,-158 -190,-306 -332,-406 -43,-30 -81,-60 -83,-66 -9,-26 -19,-228 -11,-241 12,-22 62,-45 96,-45 30,0 128,25 316,82 328,98 551,340 689,748 55,162 18,150 444,150 196,0 1586,-7 3087,-16 3052,-17 3788,-16 4020,10 203,22 316,42 470,81 255,66 418,135 545,233 69,54 167,159 157,169 -3,2 -1858,15 -4124,28 -2265,14 -4203,26 -4308,27 -104,2 -236,0 -293,-4 z" inkscape:connector-curvature="0" style="fill:#146a34;fill-opacity:1"/>
      <path id="path825" d="m 6375,7889 c -539,-4 -2190,-15 -3670,-24 -1479,-9 -2693,-19 -2698,-24 -4,-4 14,-34 40,-65 187,-220 606,-363 1233,-422 204,-18 1238,-18 4160,1 1213,8 2429,15 2703,15 h 499 l 20,-23 c 11,-13 38,-72 59,-131 107,-302 273,-530 467,-645 89,-53 136,-71 352,-133 190,-54 224,-56 267,-16 25,23 25,25 18,133 -4,72 -11,114 -19,120 -77,60 -258,234 -297,285 -67,87 -145,247 -169,345 -11,44 -22,127 -26,185 -7,118 -27,176 -77,228 -54,57 -189,118 -342,154 -87,21 -111,22 -815,23 -399,1 -1166,-1 -1705,-6 z" inkscape:connector-curvature="0" style="fill:#146a34;fill-opacity:1"/>
      <path id="path827" d="m 965,7099 c 12,-39 90,-150 155,-221 164,-180 381,-289 716,-362 315,-69 737,-75 1374,-21 236,20 280,25 280,34 0,3 -14,15 -31,25 -51,30 -177,155 -225,223 -47,65 -103,179 -125,252 l -13,44 -670,-8 c -459,-5 -742,-3 -896,5 -214,10 -482,33 -543,46 -27,6 -28,4 -22,-17 z" inkscape:connector-curvature="0" style="fill:#146a34;fill-opacity:1"/>
      <path id="path829" d="m 25600,7109 c -280,-37 -408,-42 -1213,-46 -741,-5 -809,-6 -814,-21 -26,-77 -63,-158 -97,-216 -49,-82 -165,-210 -235,-257 -28,-19 -51,-37 -51,-41 0,-9 36,-13 360,-40 222,-19 346,-23 645,-23 404,0 465,6 706,66 330,82 532,195 690,386 51,61 129,179 129,196 0,8 -32,7 -120,-4 z" inkscape:connector-curvature="0" style="fill:#146a34;fill-opacity:1"/>
      <path id="path831" d="m 5725,7089 c -1283,-11 -2389,-29 -2399,-39 -14,-14 52,-115 119,-184 113,-115 288,-214 503,-286 260,-87 499,-133 789,-152 433,-28 1546,51 3197,227 181,19 333,32 337,29 5,-3 9,-10 9,-15 0,-24 114,-248 164,-324 31,-45 96,-125 147,-178 144,-153 298,-243 484,-282 44,-9 111,-26 150,-37 90,-26 170,-27 220,-2 35,17 41,26 57,84 10,36 18,70 18,75 0,6 -37,23 -83,38 -418,145 -692,439 -867,935 l -43,122 -966,-2 c -531,-1 -1357,-5 -1836,-9 z" inkscape:connector-curvature="0" style="fill:#146a34;fill-opacity:1"/>
      <path id="path833" d="m 18145,7088 c -3,-7 -21,-60 -41,-118 -72,-208 -226,-477 -352,-611 -114,-122 -318,-247 -522,-319 -36,-13 -68,-26 -72,-29 -4,-4 3,-40 15,-81 l 23,-74 59,-19 c 65,-20 86,-18 205,13 41,11 113,29 159,40 227,54 403,175 562,386 81,108 126,186 181,309 22,50 43,94 47,98 5,4 226,-15 492,-42 870,-91 1485,-145 2274,-203 358,-25 790,-15 1085,28 299,43 652,164 831,284 97,66 214,187 245,254 14,32 24,59 22,61 -5,5 -4145,35 -4781,35 -333,0 -429,-3 -432,-12 z" inkscape:connector-curvature="0" style="fill:#146a34;fill-opacity:1"/>
      <path id="path835" d="m 13090,6629 c -202,-23 -448,-93 -604,-170 -93,-47 -232,-137 -261,-169 l -20,-22 105,6 c 553,32 1449,28 2095,-9 l 99,-6 -19,21 c -33,37 -206,147 -289,185 -181,82 -399,141 -608,164 -112,13 -389,12 -498,0 z" inkscape:connector-curvature="0" style="fill:#146a34;fill-opacity:1"/>
      <path id="path837" d="m 18394,6211 -142,-216 26,-8 c 22,-6 896,-108 2727,-319 123,-14 557,-14 685,1 519,58 851,237 1030,554 27,48 30,61 19,68 -20,14 -87,6 -239,-29 -310,-71 -654,-99 -1018,-82 -304,14 -641,35 -1022,65 -345,27 -497,41 -1250,115 -278,28 -543,54 -589,58 l -84,8 z" inkscape:connector-curvature="0" style="fill:#146a34;fill-opacity:1"/>
      <path id="path839" d="M 7535,6370 C 5954,6207 5067,6153 4650,6194 c -190,18 -358,45 -515,83 -110,27 -187,34 -201,20 -12,-12 28,-85 95,-174 119,-158 278,-271 489,-347 248,-89 609,-134 920,-116 240,15 632,57 2140,230 384,45 725,83 759,87 34,3 67,9 73,13 9,5 -30,72 -126,219 l -139,211 -70,-1 c -38,-1 -281,-23 -540,-49 z" inkscape:connector-curvature="0" style="fill:#146a34;fill-opacity:1"/>
      <path id="path841" d="m 3120,6243 c -403,-30 -472,-33 -725,-29 -247,5 -408,17 -539,42 -46,8 -46,-2 1,-80 46,-75 178,-214 258,-271 274,-196 753,-291 1290,-256 186,12 492,42 626,62 l 77,11 -62,56 c -135,123 -222,240 -303,407 l -46,95 -66,-1 c -36,-1 -266,-17 -511,-36 z" inkscape:connector-curvature="0" style="fill:#146a34;fill-opacity:1"/>
      <path id="path843" d="m 22927,6174 c -71,-141 -147,-247 -259,-361 l -91,-92 34,-5 c 50,-9 508,-53 694,-67 440,-33 892,43 1159,196 149,85 251,182 356,339 l 53,79 -49,-6 c -27,-3 -96,-14 -154,-24 -164,-27 -595,-23 -1095,10 -220,15 -444,30 -497,33 l -96,7 z" inkscape:connector-curvature="0" style="fill:#146a34;fill-opacity:1"/>
      <path id="path845" d="m 13490,5909 v -146 l 273,-6 c 1359,-34 2767,-251 4002,-617 1305,-387 2579,-963 3755,-1698 222,-139 661,-431 693,-461 17,-16 3,-37 -294,-440 -171,-232 -307,-426 -303,-431 5,-4 54,-47 109,-94 78,-68 102,-83 111,-73 7,6 190,254 408,551 l 396,538 -23,18 c -56,43 -355,252 -515,359 -1026,685 -2072,1216 -3257,1653 -1656,611 -3489,958 -5233,991 l -122,2 z" inkscape:connector-curvature="0" style="fill:#146a34;fill-opacity:1"/>
      <path id="path847" d="M 12685,6043 C 11663,6004 10778,5894 9825,5689 7985,5292 6252,4586 4730,3611 c -277,-178 -690,-461 -690,-474 0,-30 704,-1003 769,-1061 24,-22 17,-27 139,84 45,41 80,80 78,86 -4,10 -547,772 -578,811 -11,14 109,101 367,265 1242,792 2510,1373 3890,1782 1327,393 2834,632 4115,652 184,2 363,7 398,10 l 62,6 v 123 c 0,68 -3,130 -6,139 -5,14 -37,16 -263,14 -141,-1 -287,-3 -326,-5 z" inkscape:connector-curvature="0" style="fill:#146a34;fill-opacity:1"/>
      <path id="path849" d="M 7790,5679 C 6566,5527 5654,5420 5515,5411 c -164,-10 -433,0 -628,24 -195,23 -193,24 -114,-61 183,-197 467,-308 942,-369 363,-47 637,-22 893,82 48,19 485,174 971,344 486,170 891,314 900,319 29,17 -36,10 -689,-71 z" inkscape:connector-curvature="0" style="fill:#146a34;fill-opacity:1"/>
      <path id="path851" d="m 18224,5745 c 10,-8 190,-71 400,-141 386,-128 916,-310 1436,-492 357,-125 340,-120 434,-133 117,-16 571,17 756,56 257,53 506,177 637,318 62,67 91,107 76,107 -4,0 -44,-7 -89,-15 -141,-25 -285,-35 -485,-36 -261,0 -708,47 -2318,246 -962,118 -870,109 -847,90 z" inkscape:connector-curvature="0" style="fill:#146a34;fill-opacity:1"/>
      <path id="path853" d="m 4170,5479 c -473,-59 -615,-71 -920,-76 -162,-3 -334,-1 -382,4 -49,5 -88,6 -88,2 0,-15 90,-127 137,-170 166,-154 338,-236 598,-284 348,-63 665,-58 1189,21 55,8 102,17 105,19 2,3 -43,53 -100,112 -112,115 -174,201 -235,326 -30,60 -43,77 -59,76 -11,-1 -121,-14 -245,-30 z" inkscape:connector-curvature="0" style="fill:#146a34;fill-opacity:1"/>
      <path id="path855" d="m 22199,5429 c -64,-128 -134,-225 -236,-328 -51,-52 -93,-98 -93,-103 0,-10 17,-13 200,-38 486,-64 735,-66 1073,-9 273,46 469,140 632,303 64,64 115,129 115,146 0,3 -114,3 -252,2 -178,-3 -310,1 -443,12 -250,22 -881,85 -922,92 -31,6 -32,5 -74,-77 z" inkscape:connector-curvature="0" style="fill:#146a34;fill-opacity:1"/>
      <path id="path857" d="m 11680,5485 c -178,-29 -362,-95 -487,-177 -288,-188 -414,-499 -343,-846 36,-178 96,-296 214,-420 140,-147 292,-225 506,-257 298,-46 734,17 1007,145 112,52 233,136 233,162 0,4 -14,24 -32,43 -30,34 -32,43 -40,148 -5,62 -7,157 -6,212 l 3,100 40,21 c 22,11 41,27 42,35 7,40 2,40 -421,15 -276,-17 -416,-22 -434,-15 -16,5 -36,23 -46,39 -19,33 -25,35 -49,18 -16,-12 -16,-25 4,-208 11,-107 22,-197 25,-199 11,-12 54,21 54,41 1,30 20,55 52,67 38,14 416,37 428,25 5,-5 10,-67 12,-138 l 3,-129 -60,-24 c -95,-37 -248,-81 -343,-98 -112,-19 -300,-19 -394,0 -267,55 -437,263 -455,556 -11,182 33,308 147,419 113,111 271,177 481,200 150,17 351,-7 504,-60 72,-25 103,-52 111,-99 7,-39 18,-51 49,-51 17,0 34,35 105,208 47,114 85,211 85,217 0,15 -44,18 -60,5 -19,-16 -83,-15 -190,4 -312,54 -571,68 -745,41 z" inkscape:connector-curvature="0" style="fill:#146a34;fill-opacity:1"/>
      <path id="path859" d="m 14485,5489 c -149,-22 -317,-96 -411,-182 -176,-160 -179,-444 -7,-608 118,-113 236,-150 805,-249 243,-42 394,-96 432,-155 41,-63 24,-146 -38,-184 -75,-46 -154,-64 -316,-69 -236,-7 -408,26 -607,119 -111,50 -164,90 -214,160 l -43,58 -104,-191 c -117,-214 -118,-219 -24,-210 40,3 59,-1 118,-31 256,-128 609,-196 959,-184 188,7 307,33 443,98 104,50 168,111 210,200 67,142 67,271 2,399 -31,61 -116,136 -208,183 -133,69 -313,118 -687,186 -188,35 -243,50 -326,92 -117,58 -141,142 -63,216 53,50 143,73 304,80 263,10 479,-51 713,-201 62,-39 80,-62 105,-132 10,-26 22,-49 28,-51 7,-2 69,60 140,139 70,79 141,157 157,175 40,42 26,59 -51,65 -46,3 -89,19 -207,75 -239,113 -421,170 -632,198 -122,16 -379,18 -478,4 z" inkscape:connector-curvature="0" style="fill:#146a34;fill-opacity:1"/>
      <path id="path861" d="m 16050,5405 c 0,-3 -25,-99 -55,-214 -30,-115 -55,-212 -55,-215 0,-15 59,-4 75,14 27,30 69,26 298,-30 113,-27 213,-50 221,-50 10,0 16,-9 16,-24 0,-28 -266,-1212 -280,-1244 -5,-12 -21,-27 -34,-33 -21,-10 -42,-47 -32,-57 2,-2 105,-27 228,-56 l 223,-52 3,22 c 2,13 -7,37 -20,54 l -23,31 120,472 c 136,539 200,785 206,791 9,9 470,-132 489,-149 11,-10 20,-26 20,-35 0,-28 25,-53 46,-46 15,5 32,48 78,204 32,108 61,203 63,210 8,21 -55,14 -87,-10 -35,-25 -3,-31 -375,67 -115,30 -388,98 -605,151 -217,52 -406,102 -418,110 -13,9 -30,30 -37,49 -13,30 -32,45 -56,45 -5,0 -9,-2 -9,-5 z" inkscape:connector-curvature="0" style="fill:#146a34;fill-opacity:1"/>
      <path id="path863" d="m 10277,5227 c -245,-49 -247,-50 -234,-71 8,-11 29,-25 47,-30 17,-5 39,-20 47,-32 14,-21 68,-267 166,-754 20,-96 38,-194 42,-218 l 7,-42 -394,251 c -216,138 -484,310 -595,383 l -203,131 v 53 c 0,46 -2,53 -17,48 -10,-3 -130,-35 -267,-70 -137,-36 -250,-67 -253,-70 -10,-10 23,-45 49,-50 19,-4 33,-16 43,-38 31,-66 445,-1383 445,-1414 0,-18 -4,-36 -10,-39 -5,-3 -10,-20 -10,-36 0,-24 4,-29 18,-25 9,3 107,33 217,67 110,33 202,62 204,65 8,8 -24,36 -56,49 -18,8 -37,24 -43,37 -12,28 -275,929 -285,977 -6,30 -5,33 11,27 29,-11 1146,-733 1177,-761 27,-24 27,-26 12,-54 -15,-31 -11,-61 9,-61 6,0 114,20 240,45 127,25 231,45 233,45 10,0 -29,58 -42,63 -8,4 -22,21 -30,39 -18,38 -295,1358 -295,1403 0,17 9,41 20,55 23,29 25,53 8,67 -9,7 -96,-7 -261,-40 z" inkscape:connector-curvature="0" style="fill:#146a34;fill-opacity:1"/>
      <path id="path865" d="m 13317,5009 c -89,-22 -160,-79 -196,-159 -53,-117 2,-256 126,-317 107,-52 243,-32 322,48 46,45 81,123 81,179 0,56 -36,134 -81,177 -64,60 -173,92 -252,72 z" inkscape:connector-curvature="0" style="fill:#146a34;fill-opacity:1"/>
      <path id="path867" d="m 4995,4803 c -16,-2 -109,-24 -206,-48 -390,-98 -580,-120 -1057,-120 -204,0 -372,-3 -372,-6 0,-22 122,-157 190,-212 100,-80 211,-135 362,-181 455,-138 758,-125 1233,51 272,101 658,300 790,407 l 30,24 -26,10 c -14,6 -131,18 -260,27 -129,9 -303,25 -387,36 -144,18 -227,21 -297,12 z" inkscape:connector-curvature="0" style="fill:#146a34;fill-opacity:1"/>
      <path id="path869" d="m 21260,4780 c -124,-16 -291,-32 -373,-36 -196,-9 -202,-15 -101,-86 356,-250 988,-500 1304,-515 143,-7 346,10 510,43 261,53 420,129 581,281 72,68 146,160 136,169 -3,3 -97,0 -209,-6 -406,-25 -752,10 -1206,121 -269,66 -333,69 -642,29 z" inkscape:connector-curvature="0" style="fill:#146a34;fill-opacity:1"/>
      <path id="path871" d="m 8173,4678 c -246,-86 -261,-92 -254,-112 6,-15 18,-22 42,-24 70,-5 77,-10 97,-65 84,-224 472,-1363 472,-1384 0,-15 -11,-39 -26,-54 -19,-20 -24,-33 -19,-49 4,-11 10,-20 14,-18 4,2 116,45 248,97 228,89 240,94 235,117 -4,20 -10,24 -42,24 -22,0 -43,7 -53,18 -20,22 -487,1376 -487,1413 0,26 32,69 52,69 13,0 9,36 -4,48 -9,7 -89,-16 -275,-80 z" inkscape:connector-curvature="0" style="fill:#146a34;fill-opacity:1"/>
      <path id="path873" d="m 18065,4693 c -318,-31 -573,-216 -685,-496 -51,-129 -64,-198 -63,-347 0,-116 4,-147 27,-223 66,-221 201,-395 400,-518 266,-164 576,-208 851,-122 221,70 399,218 498,418 80,159 116,380 87,527 -30,154 -111,301 -238,431 -169,173 -355,270 -595,311 -95,16 -225,25 -282,19 z m 361,-341 c 151,-55 278,-160 357,-293 57,-96 72,-157 71,-279 0,-125 -20,-190 -90,-292 -98,-144 -263,-232 -457,-244 -189,-12 -355,52 -493,190 -123,123 -184,261 -184,416 0,148 53,274 160,380 118,117 244,162 440,156 97,-3 127,-8 196,-34 z" inkscape:connector-curvature="0" style="fill:#146a34;fill-opacity:1"/>
      <path id="path875" d="m 7695,4489 c -82,-39 -178,-83 -213,-99 -58,-27 -62,-31 -50,-49 7,-11 25,-26 41,-32 50,-21 45,5 97,-554 22,-236 42,-452 45,-479 6,-46 5,-48 -11,-35 -16,13 -534,564 -657,697 -55,61 -57,66 -56,113 1,27 -2,54 -7,58 -5,5 -109,-41 -231,-101 -217,-107 -222,-110 -211,-133 6,-13 21,-26 34,-29 13,-4 31,-20 39,-36 9,-17 51,-239 94,-493 95,-562 92,-539 82,-535 -11,4 -634,571 -720,655 -61,59 -63,64 -59,101 3,21 1,46 -4,55 -8,16 -12,15 -51,-5 -129,-65 -381,-240 -375,-260 2,-5 25,-18 50,-28 58,-22 31,0 474,-390 581,-510 713,-629 730,-655 13,-19 14,-31 6,-54 -8,-22 -7,-34 2,-47 12,-16 28,-9 200,91 103,59 189,112 192,116 3,5 -15,28 -40,52 -27,27 -48,59 -55,83 -23,81 -171,978 -171,1035 0,10 6,19 13,18 11,-1 216,-210 635,-650 l 144,-150 -7,-59 c -5,-39 -3,-60 5,-65 6,-4 101,37 209,90 163,80 198,101 194,115 -3,10 -18,24 -35,31 -16,7 -36,22 -44,34 -33,50 -142,1377 -129,1568 4,53 3,97 -1,96 -5,0 -76,-32 -159,-70 z" inkscape:connector-curvature="0" style="fill:#146a34;fill-opacity:1"/>
      <path id="path877" d="m 19485,4183 c -5,-13 6,-28 39,-57 25,-21 46,-46 46,-56 0,-23 -610,-1323 -633,-1351 -16,-18 -25,-20 -69,-14 -49,7 -67,-1 -68,-28 0,-9 482,-247 499,-247 5,0 13,9 16,20 5,15 -2,28 -24,49 -17,16 -31,36 -31,45 0,9 59,133 130,277 l 131,260 122,-64 c 67,-35 199,-105 293,-156 272,-145 483,-232 594,-245 177,-21 365,86 447,254 42,88 57,161 51,261 -6,124 -45,202 -152,308 -107,106 -144,133 -323,235 -330,188 -1003,526 -1046,526 -8,0 -18,-8 -22,-17 z m 448,-514 c 106,-54 339,-178 462,-247 120,-66 216,-140 246,-188 44,-72 3,-205 -81,-262 -31,-21 -43,-23 -105,-18 -57,4 -87,14 -175,58 -213,107 -609,323 -614,336 -6,15 164,362 178,362 5,0 45,-18 89,-41 z" inkscape:connector-curvature="0" style="fill:#146a34;fill-opacity:1"/>
      <path id="path879" d="m 12886,3599 c -2437,-91 -4725,-845 -6926,-2284 -85,-55 -160,-104 -167,-108 -7,-5 -119,142 -311,410 -166,230 -307,426 -314,436 -13,17 -21,11 -118,-74 -58,-52 -105,-98 -104,-104 1,-9 738,-1040 763,-1068 4,-4 96,53 205,127 1423,972 2944,1662 4471,2031 879,212 1697,319 2688,351 l 207,6 v 144 144 l -97,-2 c -54,0 -188,-5 -297,-9 z" inkscape:connector-curvature="0" style="fill:#146a34;fill-opacity:1"/>
      <path id="path881" d="m 13492,3458 3,-143 200,-7 c 2121,-71 4198,-703 6135,-1866 258,-155 664,-421 923,-606 98,-70 180,-126 182,-124 55,64 765,1044 762,1052 -6,15 -206,190 -211,185 -2,-2 -140,-188 -306,-414 -166,-225 -306,-411 -310,-413 -5,-2 -122,73 -262,166 -565,377 -999,630 -1588,925 -1300,651 -2646,1077 -4015,1271 -448,64 -1080,116 -1396,116 h -120 z" inkscape:connector-curvature="0" style="fill:#146a34;fill-opacity:1"/>
      <path id="path883" d="m 12785,3053 c -241,-8 -561,-37 -578,-52 -8,-8 111,-95 208,-153 603,-358 1437,-325 1981,80 l 89,66 -75,12 c -266,41 -1092,65 -1625,47 z" inkscape:connector-curvature="0" style="fill:#146a34;fill-opacity:1"/>
      <path id="path885" d="m 11511,2930 c -421,-62 -689,-112 -1098,-202 -29,-7 -53,-16 -53,-21 0,-5 34,-59 77,-121 483,-704 1222,-1215 2060,-1425 312,-78 543,-105 878,-105 260,0 430,16 660,60 908,175 1704,685 2241,1438 65,91 82,121 71,127 -17,10 -279,70 -502,115 -353,71 -871,154 -965,154 -67,0 -84,-8 -197,-93 -242,-184 -504,-311 -791,-383 -190,-48 -336,-65 -552,-66 -500,0 -958,158 -1357,469 -90,69 -137,93 -180,92 -15,0 -147,-18 -292,-39 z m 187,-206 c 59,-52 107,-99 107,-103 0,-5 -19,-29 -43,-55 l -43,-46 -59,45 -58,45 -22,-36 -22,-35 21,-16 c 12,-8 33,-25 46,-36 l 25,-22 -49,-54 -48,-55 -47,39 -47,38 -34,-33 -34,-33 54,-45 55,-44 -19,-27 c -11,-14 -33,-39 -50,-55 l -30,-29 -108,99 c -59,54 -108,103 -108,108 0,12 387,445 398,446 5,0 56,-43 115,-96 z m 3439,-77 51,-62 -50,-10 c -57,-11 -80,-34 -62,-62 9,-14 30,-19 95,-24 95,-7 132,-22 177,-73 95,-109 48,-261 -102,-328 -28,-12 -30,-11 -73,37 -70,80 -70,81 -12,95 38,9 53,19 62,37 18,40 -18,63 -97,63 -129,1 -209,73 -218,195 -4,53 4,78 37,114 33,36 107,82 130,80 6,0 33,-28 62,-62 z m -3059,-208 75,-42 -6,-53 c -3,-30 -3,-54 0,-54 3,0 23,14 45,32 l 40,31 81,-40 81,-40 -115,-86 c -63,-47 -121,-93 -129,-102 -11,-13 -28,-164 -40,-348 0,-5 -36,11 -80,34 -57,31 -79,47 -76,58 3,9 8,43 12,75 l 7,59 -61,-47 -60,-48 -74,39 c -40,21 -71,43 -69,48 2,6 59,51 125,100 143,107 143,106 152,298 3,70 8,127 11,127 3,0 39,-19 81,-41 z m 2621,-81 c 28,-50 31,-62 19,-69 -8,-5 -26,-17 -39,-28 l -24,-20 98,-195 c 53,-108 97,-201 97,-206 0,-5 -31,-26 -70,-45 l -69,-35 -102,201 -102,201 -34,-7 c -19,-3 -40,-8 -46,-11 -8,-2 -26,23 -45,61 l -32,65 148,74 c 81,41 152,75 157,75 6,1 25,-27 44,-61 z m -2027,-178 c 106,-27 196,-62 222,-87 70,-65 80,-147 30,-250 -36,-75 -74,-95 -177,-97 l -81,-1 -24,-85 c -14,-47 -26,-87 -28,-89 -4,-5 -131,21 -145,30 -8,4 9,89 56,285 81,340 74,317 90,310 8,-3 33,-10 57,-16 z m 1418,-30 c 106,-29 167,-193 105,-284 -14,-20 -25,-40 -25,-43 0,-4 36,-51 81,-105 45,-55 79,-101 76,-104 -5,-5 -142,-44 -154,-44 -5,0 -37,43 -72,95 -36,52 -66,93 -69,91 -2,-3 5,-45 17,-94 12,-49 21,-96 21,-103 0,-9 -27,-20 -77,-31 -42,-10 -77,-17 -78,-15 -1,1 -34,134 -72,295 -49,203 -67,295 -59,298 21,8 230,52 251,53 11,1 36,-4 55,-9 z m -562,-141 3,-66 -38,-7 c -21,-3 -53,-6 -71,-6 -32,0 -33,-1 -30,-37 3,-35 5,-38 38,-41 80,-6 80,-6 80,-76 v -64 l -59,-7 c -59,-7 -59,-7 -63,-43 -3,-21 0,-40 6,-44 6,-4 37,-8 69,-8 h 57 v -70 -70 h -144 -144 l -7,148 c -7,139 0,436 11,454 3,5 69,7 147,6 l 142,-3 z" inkscape:connector-curvature="0" style="fill:#146a34;fill-opacity:1"/>
      <path id="path887" d="m 12721,1983 c -23,-93 -23,-93 -1,-93 29,0 70,44 70,74 0,27 -23,56 -45,56 -8,0 -18,-17 -24,-37 z" inkscape:connector-curvature="0" style="fill:#146a34;fill-opacity:1"/>
      <path id="path889" d="m 13978,2014 c -6,-5 19,-124 27,-132 2,-3 16,3 30,12 18,12 25,25 25,49 0,38 -7,50 -37,66 -24,12 -37,14 -45,5 z" inkscape:connector-curvature="0" style="fill:#146a34;fill-opacity:1"/>
      <path id="path891" d="m 16463,2442 c -60,-88 -243,-306 -369,-440 C 15449,1321 14601,921 13618,834 l -78,-6 V 594 360 l 118,-78 c 231,-156 398,-259 436,-272 45,-14 107,-9 140,14 13,8 123,148 244,310 232,310 258,336 344,355 56,13 54,13 458,-83 173,-42 326,-76 340,-76 43,1 106,36 128,71 11,19 66,184 121,368 56,184 112,354 127,378 26,45 76,85 129,103 39,13 628,80 706,80 100,0 1038,-161 1400,-240 374,-83 847,-209 1429,-383 282,-84 271,-82 303,-57 38,30 37,80 0,110 -86,68 -583,344 -953,529 -491,245 -844,397 -1410,608 -371,138 -1081,393 -1094,393 -6,0 -26,-22 -43,-48 z" inkscape:connector-curvature="0" style="fill:#146a34;fill-opacity:1"/>
      <path id="path893" d="m 10047,2420 c -87,-33 -271,-94 -410,-135 -773,-228 -1443,-490 -2123,-826 -346,-172 -788,-413 -814,-444 -7,-8 -14,-32 -17,-54 -5,-38 -4,-41 31,-58 l 37,-17 306,88 c 934,269 1617,417 2533,547 258,36 236,37 732,-25 239,-30 271,-36 312,-60 58,-34 102,-93 122,-165 9,-31 56,-191 105,-355 92,-310 101,-331 163,-363 44,-23 103,-14 461,72 353,84 387,87 472,44 55,-29 66,-42 306,-368 98,-132 194,-253 213,-267 48,-37 106,-41 166,-12 26,13 166,102 312,198 l 266,175 v 216 216 l -92,7 c -279,21 -654,94 -917,177 -757,241 -1410,712 -1920,1387 -34,45 -67,82 -74,81 -7,0 -83,-27 -170,-59 z" inkscape:connector-curvature="0" style="fill:#146a34;fill-opacity:1"/>
    </g>
  </g>
</svg>