<?xml version="1.0" encoding="UTF-8"?>
<svg id="Layer_2" data-name="Layer 2" xmlns="http://www.w3.org/2000/svg" viewBox="0 0 1408.77 1408.77">
  <defs>
    <style>
      .cls-1 {
        fill: #a6192e;
      }

      .cls-2, .cls-3 {
        fill: #fff;
      }

      .cls-3 {
        fill-rule: evenodd;
      }
    </style>
  </defs>
  <g id="Layer_1-2" data-name="Layer 1">
    <g>
      <circle class="cls-1" cx="704.38" cy="704.38" r="704.38"/>
      <path class="cls-3" d="M636.69,178.92c-1.61,0-4.84,1.61-6.45,4.84v3.22l1.61,1.61c6.45,6.45,9.67,11.28,11.28,16.12l-3.22-1.61c-12.89-8.06-29.01-17.73-46.74-20.95-40.3-8.06-74.15,4.84-99.94,37.07l-11.28,14.51,17.73-4.84c24.18-6.45,41.91-1.61,51.58,3.22-17.73-1.61-40.3,1.61-54.8,16.12-14.51,12.89-19.34,32.24-14.51,58.03l1.61,11.28,8.06-8.06c30.63-33.85,59.64-24.18,64.47-20.95,6.45,4.84,12.89,11.28,12.89,19.34v4.84c-1.61,6.45-4.84,16.12-9.67,25.79-54.8,3.22-114.44,41.91-130.56,109.61,6.45-12.89,25.79-16.12,37.07-17.73,17.73-1.61,32.24,4.84,48.36,11.28,9.67,4.84,20.95,8.06,32.24,11.28-17.73,29.01-35.46,46.74-64.47,72.53,0,0-9.67,8.06-11.28,9.67-1.61-1.61-1.61-3.22-1.61-3.22,0,0-14.51,17.73-16.12,19.34-1.61,0-20.95,16.12-20.95,16.12l-16.12,41.91,11.28-1.61c-19.34,33.85-30.63,72.53-29.01,111.22,0,4.84,0,11.28,1.61,16.12,11.28,111.22,85.43,199.87,198.26,238.56,0,4.84,1.61,14.51,1.61,14.51l1.61,1.61c4.84,4.84,6.45,9.67,6.45,14.51,0,8.06,3.22,14.51,14.51,19.34-8.06,35.46-40.3,53.19-101.55,53.19-9.67,0-17.73-1.61-27.4-4.84-8.06-1.61-17.73-4.84-27.4-4.84l-3.22-1.61c-9.67-3.22-12.89-3.22-19.34-1.61h-6.45c-12.89,0-20.95,1.61-29.01,9.67-24.18,1.61-30.63,30.63-32.24,40.3l-1.61,9.67,11.28-3.22h1.61l6.45,1.61s1.61,0,3.22-1.61v19.34l6.45-1.61c8.06-1.61,12.89-6.45,17.73-9.67,0,0,1.61,0,1.61-1.61,6.45,9.67,19.34,17.73,33.85,16.12,16.12,0,25.79-6.45,33.85-11.28,8.06-4.84,14.51-8.06,27.4-9.67,8.06,0,14.51,1.61,20.95,3.22s14.51,3.22,24.18,3.22c20.95,0,38.68-8.06,54.8-14.51,9.67-3.22,19.34-8.06,27.4-9.67v1.61l3.22,3.22,3.22-1.61c3.22-1.61,4.84-1.61,6.45-3.22,3.22,1.61,4.84,3.22,8.06,6.45s6.45,6.45,11.28,8.06c-3.22,8.06-4.84,16.12-4.84,24.18,0,16.12,9.67,29.01,24.18,37.07,1.61,8.06,3.22,14.51,9.67,19.34l1.61,1.61c1.61,3.22,3.22,8.06,9.67,6.45,8.06,0,9.67-8.06,9.67-11.28v-3.22l1.61-4.84s1.61-3.22,1.61-6.45c9.67-3.22,17.73-9.67,24.18-12.89,9.67,9.67,29.01,16.12,40.3,17.73,4.84,8.06,14.51,12.89,22.57,17.73l8.06,3.22v-27.4c9.67-4.84,16.12-12.89,19.34-20.95,1.61-3.22,1.61-6.45,1.61-11.28,0-3.22-1.61-6.45-1.61-9.67,11.28,4.84,24.18,8.06,38.68,8.06,11.28,0,20.95-3.22,29.01-8.06,3.22,1.61,6.45,1.61,9.67,1.61h12.89c1.61,0,22.57,4.84,22.57,4.84v-8.06c0-14.51-9.67-29.01-27.4-32.24-1.61-16.12-19.34-25.79-33.85-24.18l-17.73,1.61c-8.06,0-14.51,1.61-27.4,0-29.01-4.84-56.42-11.28-75.76-45.13,3.22-3.22,8.06-9.67,9.67-9.67,27.4-8.06,88.65-32.24,109.61-99.94,3.22-1.61,27.4-8.06,27.4-8.06,40.3-6.45,109.61-87.04,127.34-137.01l4.84-12.89-12.89,4.84c-1.61,0-3.22,1.61-4.84,1.61,29.01-33.85,48.36-93.49,48.36-133.78,0-12.89-3.22-24.18-6.45-30.63l-4.84-8.06s-9.67,14.51-12.89,17.73c3.22-11.28,6.45-22.57,6.45-35.46,0-14.51-4.84-30.63-17.73-46.74l-8.06-9.67-1.61,12.89c-3.22,20.95-11.28,35.46-27.4,59.64-37.07,51.58-99.94,49.97-159.57,49.97-24.18,0-48.36,0-67.7,3.22-29.01,6.45-41.91-12.89-61.25-45.13l-1.61-1.61,6.45,3.22-29.01-59.64c-3.22-12.89-4.84-20.95-4.84-40.3v-1.61c0-8.06,0-20.95,1.61-35.46,4.84-38.68,8.06-61.25,27.4-78.98,8.06-8.06,11.28-8.06,25.79-11.28,8.06-1.61,16.12-4.84,17.73-9.67l6.45-12.89-14.51,4.84c-3.22-3.22-4.84-3.22-8.06-3.22h-3.22c-3.22,0-6.45-1.61-9.67-1.61,9.67-6.45,17.73-16.12,19.34-22.57l1.61-9.67-9.67,3.22c3.22-4.84,4.84-9.67,6.45-16.12l3.22-17.73-11.28,8.06c-1.61,1.61-3.22,1.61-3.22,3.22,3.22-6.45,4.84-11.28,4.84-19.34v-19.34l-11.28,16.12c0,1.61-1.61,1.61-1.61,3.22-4.84-46.74-37.07-80.59-40.3-85.43-29.01-32.24-53.19-29.01-59.64-25.79M675.37,1020.31v-6.45l1.61,1.61c8.06,8.06,19.34,8.06,30.63,6.45,1.61,6.45,6.45,12.89,16.12,20.95l1.61,1.61h6.45c-1.61,4.84-4.84,9.67-8.06,14.51-3.22,0-8.06,1.61-8.06,1.61-6.45,1.61-14.51,3.22-22.57,3.22-14.51,0-25.79-11.28-25.79-24.18,0-4.84,1.61-8.06,3.22-12.89,3.22-3.22,4.84-6.45,4.84-6.45"/>
      <path class="cls-2" d="M1017.09,1068.67c0,14.51-11.28,25.79-25.79,25.79s-25.79-11.28-25.79-25.79,11.28-25.79,25.79-25.79,25.79,12.89,25.79,25.79ZM1012.25,1068.67c0-11.28-8.06-19.34-19.34-19.34s-19.34,8.06-19.34,19.34,8.06,19.34,19.34,19.34,19.34-6.45,19.34-19.34ZM996.13,1073.5l6.45,8.06h-8.06l-6.45-8.06v8.06h-6.45v-25.79h11.28c6.45,0,9.67,3.22,9.67,8.06s-3.22,8.06-6.45,9.67h0ZM989.68,1068.67h1.61c1.61,0,3.22-1.61,3.22-3.22s-1.61-3.22-3.22-3.22h-1.61v6.45Z"/>
    </g>
  </g>
</svg>