<?xml version="1.0" encoding="UTF-8"?>
<svg id="Layer_2" data-name="Layer 2" xmlns="http://www.w3.org/2000/svg" viewBox="0 0 115.08 115.08">
  <defs>
    <style>
      .cls-1 {
        fill: #fac008;
      }

      .cls-2 {
        fill: #fefefe;
      }

      .cls-3 {
        fill: #32292a;
      }
    </style>
  </defs>
  <g id="Layer_1-2" data-name="Layer 1">
    <path class="cls-3" d="M57.44,0h0C25.66.06-.06,25.86,0,57.64c.06,31.78,25.86,57.5,57.64,57.44,31.74-.06,57.44-25.8,57.44-57.54C115.09,25.77,89.33,0,57.56,0c-.04,0-.08,0-.12,0Z"/>
    <path class="cls-1" d="M57.44,5.54h0c-28.66.06-51.86,23.34-51.8,52,.06,28.66,23.34,51.86,52,51.8,28.59-.06,51.74-23.21,51.8-51.8,0-28.72-23.28-52-52-52Z"/>
    <path class="cls-3" d="M90.44,76.88h0c.18-.58-.11-1.2-.66-1.44-2.28-.66-4-3.6-3.3-7.44s2-10.19-.6-13.37c0,0-10.2-5-19.68-9.65-2.12.04-4.23-.16-6.3-.6.81,2,1.35,4.1,1.62,6.24-3.84.18-12-2.64-14.94-6.3,1.17-2.44,1.55-5.19,1.08-7.86-6.48-1.26-14.76,1.68-16.38,8.76-3.66-2.64-12-2.88-15.36,3.3-2.76,5-1,14-.42,16.37s1,3.84,1.8,4.74,2.4,1.32,4,1.5c1,4.68,5.94,4.56,4.56,8.75,2.34-.9,3.12-4.2,2.1-6.36,1.38.25,2.3,1.57,2.05,2.95-.01.08-.03.16-.05.23,2.76-.6,1.92-4.74,3.54-5.34.84,6.24,7,8.28,5.22,12.59,1.38,0,3-.9,3.06-2.34,0,0,2.4,3.84,1.62,5.82l-2.88,4.26h7.92l.9-3.66s-1.86-5.1-1.74-8c1.23,0,2.24.99,2.28,2.22,2.76-2.1-1.74-6-.6-9.23.54,2.88,3.24,3.48,3.48,5.82,6.9-1.56,14.28-7.2,19.2-7.2,2.31,4.42,6.83,7.24,11.82,7.38,1.5,2.58,2.41,7.14,2,8l-2.76,4.68h7.56l1.08-3.36c-1.36-3.01-2.22-7.8-1.22-11.46Z"/>
    <path class="cls-2" d="M58.56,14.99h0c-7.2,3.72-7.5,9.41-7.5,9.41,2.35-.84,4.82-1.3,7.32-1.38-1.38,1.98-3.04,3.74-4.94,5.22,2.79-.02,5.57.43,8.22,1.32-2.16,1.92-6,2.46-6,2.46,0,0,1.32,1.2,2.52,4.68-2.01.01-4-.42-5.82-1.26.13,3.06-.42,6.12-1.62,8.94,1.81-1.69,2.96-3.96,3.24-6.42,2.52,1.2,6.84.48,6.84.48-.32-1.74-.95-3.41-1.86-4.92,3.72-.6,8.16-4.56,8.16-4.56-2.58-1.45-5.45-2.29-8.4-2.46,1.92-1.56,4-5.63,4-5.63,0,0-5-.54-8,.66,5.34-7.08,18.12-4.2,21-2.41-2.7.24-7.08,2.22-8.28,3.6,10.2-.9,20.1,8.15,23.22,14.57-5.34-2-15.54,2.4-23.88,1.44,2.38,1.3,4.34,3.26,5.64,5.64-3.42.72-9.24.9-12.42,0,.81,2,1.35,4.1,1.62,6.24-3.84.18-12-2.64-14.94-6.3,4.38-10.37-3.66-13.31-4-18.65-.24-3.59,4.76-9.23,15.88-10.67Z"/>
    <path class="cls-2" d="M26.94,46.06h0c2.7,3.9-.18,5.82-2.58,6.72-.73.23-1.22.91-1.2,1.68,0,1.02.84,1.85,1.86,1.86.34-.02.68-.08,1-.18,7.04-2.29,4.64-9.72.92-10.08Z"/>
    <path class="cls-2" d="M18.06,58.89h0c.54-1.27,2.01-1.86,3.28-1.32.15.07.3.15.44.24-.67,1.31-2.27,1.83-3.58,1.16-.05-.02-.09-.05-.14-.08Z"/>
  </g>
</svg>