<svg id="Layer_1" xmlns="http://www.w3.org/2000/svg" viewBox="0 0 6598.8 1712" style="enable-background:new 0 0 6598.8 1712"><style>.st0{fill:#FFDE17;} .st1{fill-rule:evenodd;clip-rule:evenodd;fill:#818285;} .st2{fill-rule:evenodd;clip-rule:evenodd;fill:#D32628;}</style><path d="M6496.4 236.6H6433v-63.2H5758.4V237.3h-18.2c-.2-14.6-.4-29.2-.7-43.9l-.3-19.4h-264.7V826.9h-110.1l-.2-570v-19.7h-79V174h-266.5v250.6c-5.5-20.1-12-39.8-19.5-59.1-9.4-24.3-21.9-47.1-36.6-67.7-5.9-8-12.5-15.3-19.3-22.2-3.8-4.1-7.9-7.7-12.3-10.8-8.5-5.2-17.3-9.7-26.4-13.5-4.7-8-9.8-15.7-15.2-23.3l-.1-.1c-5.5-7.5-12.1-15.1-20.1-23.1-4.3-4.6-8.8-8.6-13.5-11.8l-.4-.3c-25.4-15.4-53.1-25.1-82.4-28.7l-.4-.1-272.9.5c-5-.3-10.1-.5-15.1-.5-31.5 0-62.1 6.6-90.9 19.6-13.7 5.5-25.8 13.4-36.1 23.7-9.2 8.9-17.8 19.1-25.5 30.4l-.1.1c-14.3 21.7-25.7 44.6-34 68.1-9.9 27.4-17.8 56.7-23.3 87.2l-.1.4c-8.4 55.6-14.4 112.9-18 170.5l-.3 6.8c-2.7 85-4.3 170.5-4.8 256.1h-432.3l274.4-576.7h-99L4028 177h-254.9l-140.2 324.9V250.4h-71.2v-73.1h-250.6V482c-6.9-39.9-17.6-78.9-32.2-116.2-9.4-24.3-21.9-47.1-36.6-67.7-5.9-8-12.5-15.3-19.4-22.2-3.8-4.1-7.9-7.7-12.3-10.8-8.5-5.2-17.3-9.7-26.4-13.5-4.7-7.9-9.7-15.7-15.2-23.3l-.1-.1c-5.6-7.6-12.2-15.2-20.1-23.1-4.2-4.5-8.7-8.5-13.4-11.8l-.4-.3c-25.3-15.4-53.1-25.1-82.4-28.7l-.4-.1-272.8.5c-5-.3-10.1-.5-15.1-.5-31.5 0-62.1 6.6-90.9 19.6-13.6 5.4-25.8 13.4-36.1 23.6-9.3 9-17.9 19.2-25.6 30.4l-.1.1c-14.3 21.8-25.8 44.7-34 68.1-9.9 27.4-17.8 56.7-23.3 87.2l-.1.4c-4.3 28.2-7.9 56.9-10.9 85.9-6.9-39.1-17.4-77.3-31.8-113.8-9.4-24.3-21.9-47.1-36.6-67.7-5.9-8-12.5-15.3-19.3-22.2-3.7-4.1-7.9-7.7-12.3-10.8-8.5-5.2-17.3-9.7-26.4-13.5-4.7-7.9-9.8-15.7-15.2-23.3l-.1-.1c-5.6-7.6-11.9-14.9-20.1-23.1-4.2-4.5-8.7-8.5-13.4-11.8l-.4-.3c-25.4-15.4-53.1-25.1-82.4-28.7l-.4-.1-272.8.5c-5-.3-10.1-.5-15.1-.5-31.5 0-62.1 6.6-90.8 19.6-13.7 5.4-25.9 13.4-36.2 23.7-9.2 8.8-17.8 19.1-25.5 30.4l-.1.2c-14.3 21.7-25.7 44.7-33.9 68.1-10 27.6-17.8 57-23.3 87.3l-.1.3c-.4 2.5-.7 4.9-1.1 7.4-3.5-14.9-8.1-29.7-14-44.3-10.1-25.3-23.7-49.6-40.4-72.2l-.1-.2-.1-.2c-6.2-8.1-13.3-15.9-21.6-23.9-4.7-4.9-9.7-9.2-15-12.7l-.4-.3-.4-.2c-11.2-6.6-22.9-12.2-35-16.7-2.1-3-4.2-6.1-6.4-9.1l-.1-.2-.1-.1c-6.1-7.9-13.1-15.7-21.6-23.9-4.8-4.9-9.9-9.2-15.1-12.8l-.4-.2-.4-.2c-26.9-15.9-56.5-25.8-87.7-29.5l-.8-.1h-.8l-281.8.5c-5.2-.3-10.6-.5-15.8-.5-33.4 0-65.9 6.7-96.4 20-14.9 5.8-28.2 14.2-39.6 25.1-10.1 9.4-19.3 20.1-27.5 31.7l-.1.1-.1.1c-15.4 22.6-27.6 46.3-36.3 70.4-10.5 27.8-18.8 57.8-24.8 89.1l-.1.4-.1.4c-8.8 56.4-15.1 114.1-18.7 171.6v.2l-.3 6.4v.4c-2.8 85.1-4.4 170.8-4.9 256.5h-73.4c-4.3-16.5-8.4-33.9-12.7-52.8.8 0 1.6.1 2.5.1.8 0 1.7 0 2.5-.1h.8c3.3 0 6.9-.5 11.1-1.6.3-.1.7-.2 1-.3l1.3-.5c.3-.1.6-.2.8-.4 1.7-.9 3.4-2 4.8-3.3 1.9-1.6 3.4-3.6 4.4-5.6 1.6-2.4 2.2-4.7 2.5-6 8.3-28 14.2-57.4 17.3-87.2l.9-9.2c11.3-79.6 9.1-159.8-6.6-238.4-11-50.9-28.3-100.3-51.5-146.8-15.3-31.7-35.4-61-59.8-87.1-.1 0-.1-.1-.2-.1-4.5-4.5-9.9-9.9-16-15l-3.2-2.7c-.9-.7-1.9-1.2-3-1.6-4.2-4.2-9.1-9-14.5-13.6l-3.2-2.7c-1.5-1.3-3.6-2-5.6-2-1.3 0-2.7.3-3.9.9L772 153c-3.4 1.6-6.4 3.8-8.9 6.3-.4.3-.8.7-1.1 1.1l-.4.4-2.4 2.2c-2 1.8-2.8 4.3-2 6.7l2.4 7.3c3.3 11.3 5.2 23.4 5.4 35.8 0 7.4-.5 14.7-1.6 22-13.3-22.7-28.1-44.4-44.1-65-18-23.3-38.7-44.3-61.7-62.7-13.8-12.8-28.5-24.5-44.2-35.1-1.4-1-2.9-1.9-4.4-2.8-.7-.4-1.3-.8-1.9-1.1l-6.3-4.1c-1.4-.9-3.1-1.4-4.8-1.4-.7 0-1.4.1-2.2.2-2.4.6-4.3 2.1-5.3 4l-2.9 6-.1.1c-.5.7-1.1 1.8-1.6 3.1 0 .1 0 .1-.1.2-1 3-1.6 5.9-1.6 9.1v2c0 .6.1 1.2.3 1.9l.2.7c.8 2.6 2.1 4.8 3 6.5l.7 1.1c4.2 7.6 8.1 15.4 11.5 23.1 11.1 25.2 18.4 51.5 21.8 78.3.7 5 1.2 10 1.7 15-1.6-3.8-3.3-7.6-5-11.3-10.7-23.5-23.9-46-39.4-67.2-.1-.2-.3-.5-.5-.8l-.1-.2c-.3-.4-.5-.9-.6-1.2-.5-1.2-1.1-2.7-2.1-4.4-.3-1.2-1-2.4-2-3.3l-1.6-1.5c-1.2-1.1-2.4-2-3.6-2.8-.1-.1-.2-.1-.3-.2l-.5-.3c-.1-.1-.2-.1-.3-.2-1.1-.6-4.1-2.1-8.5-2.3-.2-.3-.4-.5-.6-.8-.1-.2-.3-.5-.5-.8l-.1-.2c-.3-.5-.5-.9-.6-1.2-.5-1.2-1.1-2.7-2.2-4.4-.3-1.2-1-2.4-2-3.3l-1.6-1.5c-1.2-1.1-2.4-2-3.6-2.8-.1-.1-.2-.1-.3-.2l-.5-.3c-.1-.1-.2-.1-.3-.2-1.1-.6-4.4-2.3-9.1-2.3-.7 0-1.4 0-2.1.1-1.6.1-3.3.4-4.8 1-2.6.9-4.4 2.1-5.5 2.9-.1.1-.2.2-.3.2l-.5.4-.3.3c-1.9 1.6-2.9 3.3-3.4 4.2-.1 0-.1.1-.1.2-.1.1-.1.2-.2.3l-.7 1.2c-.5.8-1.1 1.8-1.6 3l-.4.8c-.3.7-.5 1.5-.5 2.3V134c.8 39.6-2.1 79.2-8.4 118.2-7.7-20.4-16.3-40.4-25.8-60-12.5-25.7-27.7-50.7-45.2-74.4-.7-1-1.5-2-2.4-3l-.2-.2c-.3-.3-.5-.6-.8-.9l-1-1.4c-.9-1.2-2.2-2.1-3.7-2.6l-1.8-.6c-1.6-.5-3.3-.8-5-.9-1.9-2.7-3.9-5.5-5.9-8.2-.7-1-1.6-2-2.4-3l-.2-.2c-.3-.3-.5-.6-.8-.9l-1-1.4c-.9-1.2-2.2-2.1-3.8-2.6l-1.8-.6c-2-.7-4-1-6.1-1-2.8 0-5.5.6-8.2 1.8l-.6.3-.9.5c-.2.1-.4.2-.5.3-1.4.9-2.5 1.9-3.1 2.6l-.3.3-.4.4-.3.3c-3.4 4.3-6 8.6-7.5 12.8l-.1.2-.7 1.4c0 .1-.1.2-.1.2l-.2.4c-.1.1-.1.2-.1.3-1 3.2-2.1 6.6-2.6 10.3-34.7 152.9-81.8 305.4-140 453.4-44.6 101-86.9 206.6-125.8 313.7 0 .1 0 .1-.1.2l-.3.9c-.5 1.5-.9 2.9-1.3 4.1-1 2.5-1.8 5-2.4 7.5-7 23.2-13.2 47.8-18.7 73.2-12.6 56.4-18.7 113.6-18.1 170 1.6 73.3 13 145.3 34.1 214 11.1 36.2 26.4 70.9 45.2 103.2 7.9 13.2 17.3 25 28.2 35 3.8 3.5 8 6.7 12.4 9.5 2.7 2.9 5.5 5.7 8.4 8.4 8.4 7.7 18.2 13.7 29.1 17.9 8.6 3.2 17.1 4 24.6 4.7 1.4.1 2.8.3 4.3.4 3.5.4 14.8 1.1 27.4 1.1 13.5 0 24.9-.8 33.9-2.3 62.2-10.7 121.3-32.9 175.7-66 7.5-4.4 15.4-9.4 24-15.1.2-.1.4-.2.5-.4l80-62.9c.1-.1.2-.1.3-.2 14.8-12.7 31.4-22.3 49.5-28.4 10.6-3.5 21.6-5.2 32.8-5.2 5.4 0 10.9.4 16.2 1.3.1 0 .3 0 .5.1l.7.1h.5c10.4.6 20.7 3.6 29.8 8.9 2.2 1.3 4.4 2.7 6.5 4.1 1.3 1.4 2.6 2.9 3.8 4.4l3.2 3.8c1.6 1.8 3.5 3.4 5.5 4.6.1 0 .2.1.2.1l.4.2c.1 0 .1.1.2.1 1.5.8 3.1 1.4 4.8 1.9 2.2 2.3 4.3 4.6 6.3 7.1l3.3 3.8c1.6 1.8 3.5 3.4 5.5 4.6.1 0 .1.1.2.1l.4.2c.1 0 .2.1.2.1 3.2 1.7 6.8 2.6 10.4 2.6h1.3c4.3-.1 8.1-1.3 11.3-3.5 1.9-1.2 3.1-2.4 3.7-3 .9-1 1.7-1.9 2.4-2.9.3-.4.6-.8.9-1.1l.2-.2.3-.3.2-.2c4.4-6.2 8.1-12 11.4-17.8 1-1.5 1.8-2.9 2.3-3.9.1-.1.1-.3.2-.4l.6-1.4c.1-.3.3-.6.3-.9.7-2.4.7-4.7.7-6.1 0-1.7 0-4.7-1.7-8-.3-.8-.7-1.5-1.2-2.3l-.1-.2c-.2-.4-.4-.7-.5-1-.1-.1-.1-.3-.2-.4l-.3-.6c-.1-.1-.1-.3-.2-.4-9.6-16.8-21.8-31.8-36-44.7-3.8-3.4-7.8-6.6-12.2-9.6-2.8-2.8-5.6-5.6-8.6-8.3-10.7-9.8-24.1-17.8-38.7-22.9-.1 0-.2 0-.3-.1-13.5-4.3-30.2-4.4-41.2-4.4H663c-33.1 0-63.2 6.8-89.6 20.3-26.2 13.3-49.3 30.8-68.8 52.1-2.9 2.9-5.5 5.8-7.7 8.4l-1.4 1.6c-.5.6-1.1 1.1-1.7 1.8l-1 1-6.5 4.5c-.1.1-.2.1-.2.2-41.7 31.3-88 55.5-137.6 72.1-34.8 11.4-71.2 17.7-108.3 18.7-6.8-.1-13.8-2.1-20.1-5.7-8.6-10.4-15.8-21.7-21.5-33.7l-2-4.6c-22.7-61.7-38-126.1-45.4-191.4l-1.6-14.2-.9-6.8c-3.3-69.3 3.7-138.3 21-204.9 5.3-20.9 11.7-40.1 19.4-58.8 0-.1.1-.2.1-.4.5-1.3.9-2.7 1.4-4.1l.4-1.3c.9-2.4 1.6-4.5 1.9-6.3l.3-1.2c3-10.4 5.9-20.2 9.3-30.1 0-.1 0-.1.1-.2.3-.8.5-1.5.9-2.3l.1-.2c.4-1 .8-2 1.2-3.2 0-.1.1-.2.1-.3.4-1.2 1-2.6 1.8-4.2C283 703 348.5 530.5 402.3 356c9.3-29.8 18.7-61.2 28.9-97.1 7.3 19.3 13.3 39.1 17.9 59.2 13.4 55.6 20.1 112.6 20.1 169.6v9.5l1.7 26.7c.1 1.6.8 3.1 2.1 4.3l2 1.9c.5.5 1.1 1 1.7 1.6.2.2.5.4.7.5l1.2.8c.1.1.3.1.3.2.7.5 2.5 1.6 5.2 2.3.2 0 .4.1.6.1l.9.2c.2 0 .4.1.6.1.9.1 1.7.2 2.6.2.8 0 1.6-.1 2.4-.1l.4 5.9c.1 1.6.8 3.1 2.1 4.3l2 1.9c.5.5 1.1 1 1.7 1.6.2.2.5.4.7.5l1.2.8c.1.1.2.2.3.2.8.5 2.5 1.6 5.2 2.3.2 0 .4.1.6.1l.9.2c.2 0 .4.1.6.1.9.1 1.8.2 2.7.2 2.4 0 4.8-.4 7-1.1l1.1-.3c.9-.3 1.8-.8 2.6-1.4l.6-.4c.4-.3.9-.5 1.3-.8.2-.1.3-.2.5-.4l.9-.7c.4-.4.8-.7 1.2-1.2l.5-.7c.8-1 2-2.5 2.8-4.4 1-2.3 1.8-4.6 2.4-6.5l.2-.7c19.4-60.6 35.3-122.9 47.3-186 3.9 17 6.9 34.2 9.2 51.3 5.1 34.1 7.9 69.6 8.6 105.7v1.3c0 1.2.4 2.3 1 3.3l.8 1.1c.2.3.5.7.7 1.2.7 1.7 1.7 3.3 3.1 4.6 1.6 1.7 3.3 3.1 5.2 4.4.2.1.3.2.5.3l.7.4c.2.1.3.2.5.2 1.9.9 4.8 2 8.3 2.3v.1c0 1.2.4 2.3 1 3.3l.8 1.1c.2.3.5.7.7 1.1.7 1.7 1.7 3.3 3.1 4.6 1.6 1.7 3.3 3.1 5.2 4.4.2.1.3.2.5.3l.7.4c.2.1.3.1.5.2 2.4 1.1 6.3 2.5 10.8 2.5 4.1 0 8-1 11.5-3 2.6-1.3 5-3.2 6.9-5.3l1.3-1.3c.7-.7 1.2-1.6 1.6-2.5l.5-1.3c23.7-67.1 39.4-137 46.6-207.8.9-9.5 1.8-18.8 2.5-27.9.2.8.5 1.7.7 2.5 1.2 5 2.1 10 2.9 14.4l.8 8.6c.4 3.8.7 7.5 1.1 11.3 5.4 67.9 1.1 136.2-12.8 202.9v.3c-.1.3-.4 1.2-.7 1.8-1.4 2.6-2.3 5.2-2.7 8l-.1.4c-.3 2-.8 4.8-.4 8 .1 2.1.4 4.2 1 6.3 0 .9.2 1.8.6 2.6l.5 1c.7 1.4 1.4 2.7 2.3 4.1 0 .1.1.1.1.2.9 1.4 1.8 2.3 2.5 2.9l.2.2.2.2c3 3 6.6 4.2 8.1 4.7 1.8.6 3.8.9 6 .9.1.3.2.7.2 1 0 .9.2 1.8.7 2.6l.5 1c.7 1.4 1.4 2.7 2.3 4.1 0 .1.1.1.1.2.9 1.4 1.8 2.3 2.5 3l.2.2.2.2c3 3 6.6 4.2 8.1 4.7 1.9.6 3.9.9 6.1.9 2.6 0 5.2-.5 7.6-1.4 2.1-.7 3.5-1.7 4.1-2.1 2.1-1.3 3.7-3 4.9-5 1.2-1.6 2.1-3.2 2.7-4.8l.4-1 .1-.3c0-.1.1-.3.1-.4.1-.2.2-.4.2-.6l.3-1c.1-.2.1-.4.2-.7.1-.2.1-.5.2-.8l2.7-4c18.6-27.4 33.1-56.7 43.1-86.9C821.3 447.1 830.1 408 835 368l.9 1.8c13.4 28.7 22.7 59.2 27.5 90.8 8.4 50.9 8.3 103.2-.3 155.4-.1.9-.3 1.8-.5 2.7-.3 1.4-.6 2.9-.8 4.7-.1 1.3-.3 2.4-.5 3.6v.4l-.4 3.5c-2.1 16.7-4.4 33.7-7.1 51.1-6.4-5.4-13.4-9.8-20.7-12.9-5.8-11.8-13.5-22.2-22.9-30.8-15.1-13.7-33.2-21.3-52.3-22h-1.6l-344.3.4h-5c-1.4 0-2.9 0-4.8.2-16.1 1.5-31.8 7.7-45.4 18-13.8 10.4-25.3 24.7-33.3 41.4l-.6 1.4-.3 1.1c0 .1-.1.2-.1.3-.2.6-.5 1.2-.8 2.1-48.4 112.9-95.2 225.7-139.1 335.3l-.1.3-.1.3c-.4 1-.8 2.1-1.2 3.3-1 2.6-2.2 5.5-3.2 8.9-.7 2.1-1.4 4.5-2 6.6l-.2.6-.1.6c-5 21-5.5 42-1.5 62.4 3.9 21.1 12.9 40.5 26 56.1 12.9 15.3 29.1 26.2 46.9 31.5l.2.1.2.1.2.1c1.3.3 2.9.8 5.1 1l.8.2c.1.1.2.2.3.4 12.1 14.4 27.3 24.6 44 29.5h.2l.3.1c1.2.3 2.7.7 4.5.9l4.5.8h.2c2 .3 4.5.6 7.4.6h445.5c39.1 0 74.7-24.5 93.1-63.9v-.2l52.6-118.4c3.7-8.2 5.6-17.2 5.6-26.2v-8.1h68.5c.8 61.2 2.2 122.2 4.2 183.1 1.1 48.4 5.7 96.7 13.9 143.6 7.1 47.1 19.7 93 37.4 136.6 11.1 27 25.1 51.6 41.8 73.4 11.1 14.8 24.3 27.6 39.4 38 9.8 6.8 20.7 11.9 32.2 15.1 2.4 3.4 4.9 6.8 7.4 10.1 11.1 14.8 24.4 27.6 39.4 38 13.9 9.7 30.1 15.9 47 18 1.1.2 2 .2 2.7.3h.7l.7.1h.7l370.3.4c2.1.1 4.3.2 6.4.2 19.6 0 39.2-5.1 56.7-14.7 12.9-7.1 24.8-15.8 35.4-25.9 12.6-11.3 23.8-24.8 33.2-40.2l.1-.1.1-.1c12.4-20.4 22.3-42 29.5-64.2l.1-.3.1-.3c10.4-34.9 16.4-70.5 20.3-106 5.2 18.2 11.2 36 18.1 53.4 10.3 26.1 23.5 50 39.2 71.1 10.2 14.1 22.4 26.3 36.3 36.2 12.6 9.1 27.4 14.9 42.7 16.9.8.1 1.6.2 2.2.3.3 0 .5 0 .8.1H1939.9c.7 1 1.5 2 2.2 3 9.6 13.4 21.2 24.9 34.4 34.3 11.9 8.6 25.6 13.9 39.7 15.7.9.2 1.9.2 2.8.3l358 .4c18.8 1.1 37.6-3.2 54.4-12.9 11.4-6.4 22-14.4 31.3-23.7 11.3-10.4 21-22.7 29.2-36.4 10.9-18.6 20-38.7 26.6-59.7 15.6-54.2 26.9-109.9 33.5-166.3 7 41.7 18.2 82.3 33.3 120.6 10.3 26.1 23.5 50 39.1 71.1 10.2 14.2 22.4 26.3 36.3 36.2 12.5 9.1 27.3 14.9 42.7 16.9.8.1 1.6.2 2.2.3.3 0 .5 0 .8.1H2707c.7 1 1.5 2 2.2 3 9.6 13.4 21.2 24.9 34.4 34.3 11.9 8.6 25.6 13.9 39.7 15.7.9.2 1.9.2 2.8.3l358 .4c18.8 1.1 37.6-3.2 54.4-12.9 11.4-6.4 22-14.4 31.3-23.7 11.3-10.4 21-22.7 29.2-36.4 10.9-18.6 20-38.7 26.6-59.7 10.7-37.2 19.4-75.1 25.9-113.5v187.2h86.9v53.3h234.8v-410.9l168 357.5h58.4l25.1 53.3H4169l-331.7-631h414.9c.8 61.1 2.1 122 4.1 182.7.9 47.3 5.4 95 13.2 141.9 6.8 46.5 18.7 91.6 35.4 134.1 10.3 26.1 23.5 50 39.2 71.1 10.2 14.1 22.4 26.3 36.3 36.2 12.5 9.1 27.3 14.9 42.7 16.9.8.1 1.6.2 2.3.2.3 0 .5 0 .8.1H4426.8c.7 1 1.5 2 2.2 3 9.6 13.4 21.2 24.9 34.4 34.3 11.9 8.6 25.6 13.9 39.7 15.7.9.2 1.8.2 2.8.3l358 .4c18.8 1.1 37.6-3.2 54.4-12.9 11.3-6.4 22-14.4 31.3-23.7 11.3-10.4 21-22.7 29.2-36.4 10.9-18.6 20-38.7 26.6-59.7 16.8-58.4 28.6-118.5 35-179.3 4.3 36.6 12.2 73.1 23.5 108.9 8.8 28.1 21.4 54.4 37.3 78.1 18.2 27.2 42.5 50.1 70.2 66.3 5.4 3.1 11 5.8 16.7 7.9 17.1 22.4 38.4 41.3 62.4 55.3 12.9 7.5 27.6 12.4 42.5 14.4l.5.1h.5l119.9 6.6h.4c21.4.4 43.1.5 64.6.5 38 0 76.8-.6 115.2-1.7 19.9 0 39.7-4.3 57.3-12.2 45.5-20.9 83-58.4 105.6-105.8 8-15.1 15-31.5 20.8-48.8 12.4-35.1 22.3-72.9 29.5-112.3l.1-.8.1-.8c5.9-51.6 9.3-102.2 10.1-150.4 1.4-76.4 2.5-153.2 3.3-230.2h141.2V1591.9h79v63.2h266.2V635.2H6512V236.8h-15.6zM1600.1 753.1l-.7 20.6h165.4c-.2 17.8-.3 35.6-.4 53.4H1325c.8-28.7 2.3-57.1 4.6-84.9v-.6c1.5-23.6 5.4-47.8 11.6-71.9v-.4c2.2-9.3 5.5-18 9.8-26 1.5-2.8 3.7-5.8 6.5-9 6.8-6.8 14.6-12.5 22.8-16.3 5.4-2.4 11.4-3.9 17.5-4.2l24.4.1h.2c14.5-.2 26.5-.2 38.9-.2 8.3 0 15.9 0 24.7.1 6.9 0 14.3.1 23 .1 5.1 17.4 13 45.4 11.9 76l-.7 20.6h76.2c2.5 12.9 4.2 27.4 3.7 42.6M5821.9 572h15.5V635.1H5962v192h-140c.4-84.9.3-170-.1-255.1m-1237 625.5c-6.3-42-10-84.7-11.3-127.2l-.5-66.3h157.4c-.4 16.6-.9 33.3-1.5 49.9-.7 20.9-2.6 41.1-5.8 60.1l-.1.4c-2.6 19.7-8 39.2-15.8 57.9l-.1.3c-3.2 8.2-7.7 16.4-13.4 24.4l-.1.2c-3.3 4.9-7.2 9.2-11.4 12.9-3.2 2.8-6.7 4.7-10.5 5.8-1 .2-2 .4-3.4.6l-78.7-.3c-1.9-6.1-3.5-12.3-4.8-18.7M4715 595.2h-2 2c1.1 2.9 2 5.8 2.9 8.8 4.4 16 7.4 32.7 8.9 49.7 2.2 44.6 3.8 89.3 4.7 132.6.2 13.6.4 27.2.5 40.9h-157.9c.8-28.6 2.2-57.3 4.6-85.9 1.6-25.9 5.7-51.5 11.9-76.4 2.5-10.9 6.3-21.5 11.3-31.3 2.5-4.8 5.6-9.1 9.1-13.1 7.9-8.2 16.9-15 26.6-19.8 6.9-3.2 14.4-5.1 21.9-5.4l42.1.1c5.3-.1 9-.1 11.5-.1-.1-.1.9-.2 1.9-.1 0-.1 0-.1 0 0m649.5 408.8h110.1v2.4l-.1 7c-.3 14.4-.6 29.3-1.1 43.8-.4 3.7-.6 7.2-.7 10.3-.1 1.6-.1 3.1-.2 4.6v1.4c-.2 16.6-1.7 33.5-4.5 50.2v.4c-3.3 21.6-10.6 42.8-21.5 63-3.4 5.9-6.3 9.6-9.8 12.5-3.8 3.2-15.7 6.7-32.9 6.7-2.1 0-3.4-.1-3.4-.1h-.6c-9.7-.1-16.5-.1-20.5-.1H5374.1c-6-26.6-9.4-54.6-9.9-83.6l.6-62.1v-.2l-.3-56.2zM2865 1197.5c-6.2-42-10-84.7-11.3-127.2l-.6-66.3h157.4c-.4 16.6-.9 33.3-1.5 50-.6 20.7-2.6 40.9-5.8 60.1l-.1.4c-2.6 19.7-7.9 39.2-15.8 57.9l-.1.3c-3.2 8.3-7.8 16.6-13.5 24.4l-.2.3c-3.2 4.8-7 9.1-11.4 12.8-3.2 2.8-6.7 4.7-10.5 5.8-1 .2-2 .4-3.4.6l-78.7-.3c-1.6-6.2-3.2-12.4-4.5-18.8m-767.3 0c-6.2-42-10-84.7-11.2-127.2l-.6-66.3h157.4c-.4 16.6-.9 33.3-1.5 49.9-.7 20.9-2.6 41.1-5.8 60.1l-.1.4c-2.7 19.7-8 39.2-15.8 57.9l-.1.3c-3.2 8.2-7.7 16.4-13.5 24.4l-.2.2c-3.3 4.8-7.1 9.1-11.4 12.8-3.2 2.8-6.7 4.7-10.6 5.8-1 .2-2 .4-3.4.6l-78.7-.3c-1.6-6-3.2-12.2-4.5-18.6m130.2-602.3h-2 2c1.1 2.9 2 5.8 2.9 8.8 4.4 16.1 7.4 32.9 8.9 49.7 2.2 44.6 3.8 89.3 4.7 132.6.2 13.6.4 27.2.5 40.9H2087c.8-28.6 2.3-57.3 4.6-85.9 1.5-25.9 5.7-51.5 11.9-76.4 2.5-10.9 6.3-21.5 11.3-31.3 2.4-4.8 5.6-9.1 9-13.1 7.9-8.2 16.9-15 26.6-19.8 6.9-3.2 14.3-5.1 21.9-5.4l42.2.1c5.3-.1 9-.1 11.5-.1-.2-.1.8-.2 1.9-.1 0-.1 0-.1 0 0m767.2 0h-2 2c1.1 2.9 2 5.8 2.9 8.8 4.4 16 7.4 32.7 8.9 49.7 2.2 44.2 3.8 88.9 4.7 132.6.2 13.5.4 27.2.5 40.9h-158c.8-28.6 2.3-57.3 4.6-85.9 1.6-25.9 5.7-51.5 11.9-76.4 2.5-10.9 6.3-21.5 11.3-31.3 2.4-4.8 5.6-9.1 9-13.1 7.9-8.2 16.9-15 26.6-19.8 6.8-3.2 14.3-5.1 21.9-5.4l42.2.1c5.2-.1 8.9-.1 11.5-.1 0-.1 1-.2 2-.1 0-.1 0-.1 0 0m-1267 443l-.2-18.1-14.4-1.3-2.4-.2h-177.2l-4.4 10.5-.2.5-1.7 4-.1 4.5c-.3 10.4-4.8 28-8.7 43.6-2.7 10.6-5.2 20.6-6.7 29.1l-.1.4-.1.4c-2.6 18.8-7.8 37.3-15.4 54.9l-.1.2-.1.2c-3.1 7.7-7.4 15.2-12.7 22.2l-.2.2-.2.3c-2.9 4.1-6.3 7.8-10.2 11.2-2.6 2.1-5.3 3.6-8.4 4.4-.7.1-1.5.3-2.5.4l-123-.3c-1.3-4.5-2.4-8.9-3.4-13.2-6.2-40.7-10-82.2-11.3-123.3l-.5-64.8H1765c.3 25.9.8 51.8 1.3 77.7h-37.7c-.2-13.7-.3-28.2-.5-43.5M526 112.6z"/><path class="st0" d="M525.7 113l-.8 1.2c-.4.6-.8 1.3-1.1 2.1l-.4.8V134c1.2 59.8-5.8 119.4-20.7 177.6-12.2-46.4-28.8-91.5-49.5-134.5-12.3-25.3-27.3-50-44.6-73.3l-2.1-2.7c-.4-.5-.8-.9-1.1-1.3l-1-1.4-1.8-.6c-1-.3-2.1-.5-3.2-.5-1.5 0-3 .3-4.6 1l-.9.5c-.7.5-1.4 1.1-1.8 1.5l-.4.4c-3.1 3.9-5.3 7.7-6.6 11.3l-.2.5-.6 1.2-.2.4c-1 3-1.9 6.1-2.4 9.5-34.8 153.3-82 306.4-140.4 454.7-44.6 100.9-86.8 206.3-125.6 313.4l-.3.9c-.5 1.6-1 3.1-1.4 4.4-.9 2.3-1.7 4.6-2.3 7-6.9 23-13.2 47.6-18.6 72.9-12.6 56-18.6 112.7-18 168.7 1.5 72.7 12.9 144.2 33.8 212.4 11 35.7 26 69.9 44.6 101.8 7.5 12.6 16.5 23.8 26.8 33.4 7.7 7 16.5 12.5 26.4 16.2 7.5 2.8 15 3.5 22.3 4.2 1.4.1 2.9.3 4.4.4 3.3.3 14.1 1 26.4 1 13 0 23.8-.7 32.3-2.2 61-10.5 119.2-32.4 172.7-64.9 7.5-4.4 15.2-9.3 23.7-14.9l80-62.9c15.6-13.4 33.2-23.5 52.3-30 11.5-3.8 23.6-5.7 35.7-5.7 5.9 0 11.8.4 17.6 1.3l.7.1c11.8.6 23.5 4.1 33.8 10 13 7.6 24.1 17.1 33.1 28.1l3.1 3.7c1 1.1 2.3 2.3 3.7 3.1l.4.2c1.9 1 4 1.5 6.2 1.5h.9c2.7-.1 5-.8 7-2.2 1.2-.6 1.9-1.4 2.3-1.8.7-.7 1.3-1.5 2-2.3.3-.4.6-.9 1-1.3l.3-.3c4.4-6.2 8.1-11.9 11.2-17.6.9-1.2 1.6-2.5 2.1-3.4l.6-1.4c.5-1.7.5-3.3.5-4.5 0-1.4 0-3.3-1.1-5.3-.3-.7-.7-1.4-1-2.1-.4-.6-.7-1.3-1-1.9l-.3-.6c-9.3-16.1-21-30.6-34.7-43-10-9.2-22.4-16.5-35.9-21.3-12.2-3.9-28-3.9-38.4-4H663.5c-31.6 0-60.3 6.5-85.5 19.3-25.3 12.9-47.8 29.9-66.6 50.6-2.8 2.7-5.2 5.5-7.5 8.2l-1.4 1.6c-.7.8-1.4 1.5-2.1 2.2l-1.3 1.3-7.1 4.9c-42.4 31.8-89.5 56.4-139.9 73.3-35.7 11.7-73.2 18.2-111.2 19.2-8.7-.1-17.5-2.7-25.3-7.3-8.6-5.3-16-11.8-22.1-19.2-8.9-10.8-16.5-22.8-22.4-35.2l-2.1-4.8c-22.9-62.2-38.3-127.1-45.8-192.9l-1.5-14.3-.9-6.9c-3.4-70 3.7-139.6 21.2-207 5.4-21.2 11.8-40.6 19.6-59.6.4-1.3.9-2.7 1.3-4l.5-1.4c.9-2.3 1.4-4.1 1.7-5.7l.4-1.4c3-10.5 5.9-20.4 9.4-30.4.3-1 .7-2 1.1-2.9.4-.9.7-1.8 1.1-3 .5-1.6 1.3-3.3 2.2-5.2 75.4-165.6 140.8-337.9 194.4-512.1 11.9-37.9 23.8-78.5 37.6-127.6 1-2.3 1.6-4.7 2.2-6.8.1-.1.1-.3.2-.4 19.4 36.4 33.9 75.1 43.2 115.3 13.5 56 20.3 113.5 20.3 170.9v9.1l1.7 26.7 2 1.9 1.4 1.4 1.2.8c.5.3 1.5.9 2.9 1.3l.9.2c.5 0 1 .1 1.6.1 1.4 0 2.8-.2 4.2-.7l1.1-.3.8-.7c.2-.1.4-.2.5-.3l.9-.6 1-.7.5-.7c.7-.8 1.4-1.8 2-3 .9-2 1.6-4 2.1-5.8l.2-.7c26.1-81.2 45.6-165.4 58.2-250.5 17 43.8 28.7 89 34.7 134.7 5.1 34.2 8 70 8.6 106.4v1.3l.7 1.2c.4.6.9 1.3 1.3 2.1.3 1 .9 1.9 1.7 2.6 1.2 1.3 2.5 2.4 3.9 3.3l.7.4c1.6.7 4.1 1.7 7 1.7 2.6 0 5-.7 7.2-2 1.9-.9 3.6-2.2 5-3.8l1.4-1.5.5-1.3c23.5-66.7 39.1-136.1 46.2-206.4 2.5-24.9 4.2-48.2 5.4-71.2.4.3.7.5.9.8l.5.5c1.2 1 2.2 2.1 3.3 3.2l1.3 1.3c5.6 5.6 10.2 11.7 13.6 18.4 6.2 11.3 11.1 24.3 14.7 38.6 1.2 5.2 2.2 10.5 3 15l.8 8.8c.3 3.8.7 7.5 1.1 11.2 5.5 68.6 1.1 137.4-13 204.7-.2 1-.6 2.2-1.2 3.5-1.1 2-1.8 4.1-2.2 6.4l-.1.4c-.3 1.9-.7 4.1-.3 6.6 0 2 .3 4 .9 6v.7l.5 1c.6 1.3 1.3 2.4 2 3.7.5.8 1 1.3 1.6 1.8l.4.4c1.7 1.7 3.8 2.4 4.8 2.6 1 .3 2.1.5 3.3.5 1.5 0 3-.3 4.4-.8 1.2-.4 2-.9 2.5-1.2 1.5-1 2.3-2.1 2.9-3 .9-1.2 1.6-2.4 2.1-3.5l.3-.9c.1-.4.3-.8.4-1.1l.3-1c.2-.8.4-1.6.6-2.3l3.3-4.9c18.2-26.9 32.5-55.6 42.2-85.3 16.6-49.3 26.6-101 29.7-154.1 12.3 15.9 22.7 33.1 30.9 51.3l2.4 5c13.7 29.3 23.1 60.4 28.1 92.5 8.5 51.5 8.4 104.4-.3 157.2-.2 1-.3 1.9-.5 2.9-.3 1.4-.5 2.8-.7 4.3-.2 1.3-.3 2.6-.5 3.9l-.4 3.5c-3.6 29.2-8 58.9-13.7 91.1-.6 4.6-.6 9.4.1 14.1.4 1.9 1.2 3.9 2.3 5.7.4.9.9 1.6 1.4 2.2l.6.8c.8.9 1.8 1.6 3.2 2.2l.8.3c3.9 1.1 7.8 1.7 11.9 1.7.8 0 1.6 0 2.5-.1h.9c2.5 0 5.4-.4 8.8-1.3l1.3-.5c1.1-.6 2.2-1.4 3-2.1 1.4-1.1 2.4-2.5 3.1-3.9 1.2-1.7 1.6-3.3 1.9-4.6 8.3-27.8 14-56.7 17.2-86.2l.8-9.3c11.3-78.9 9.1-158.5-6.5-236.5-10.9-50.4-28-99.2-50.9-145.2-15-31.1-34.8-59.8-58.7-85.5-4.4-4.4-9.7-9.6-15.5-14.6l-3.2-2.7-3.9 1.9c-2.6 1.2-4.9 2.9-6.8 4.9-.4.3-.7.7-1.1 1l-.6.6-2.5 2.1 2.5 7.4c3.5 11.9 5.4 24.5 5.7 37.5 0 15.9-2.3 31.6-6.9 46.7-1.1 3.4-2.4 6.9-4.2 10.5-19.2-40.6-42.7-79-69.9-114.2-23.5-30.4-51.7-56.8-83.6-78.4-1.2-.9-2.6-1.7-4-2.6-.7-.4-1.4-.9-2.1-1.3l-6.2-4-3 6.2c-.1.2-.2.3-.3.5-.4.7-.8 1.3-1 2.1-.8 2.3-1.2 4.6-1.2 7.1v2l.2.7c.7 1.9 1.6 3.7 2.5 5.3l.7 1.2c4.3 7.7 8.3 15.7 11.8 23.6 11.4 25.8 18.8 52.7 22.2 80 4.6 34.7 4.4 69.2-.5 102.8-9.1-38.6-22.2-76.7-38.9-113.8-10.5-23.1-23.6-45.5-38.9-66.3l-.6-.9c-.4-.7-.9-1.4-1.2-2.3-.6-1.4-1.2-3-2.4-4.6v-.7l-1.6-1.5c-.9-.8-1.7-1.5-2.6-2.1l-.5-.3c-1-.6-2.7-1.3-4.9-1.3-.4 0-.8 0-1.3.1-.6 0-1.6.1-2.6.5-1.4.5-2.5 1.2-3.4 1.8l-.5.5c-1 .9-1.6 1.9-2 2.5v.1c-.1.1-.1.3-.3.4"/><path class="st1" d="M5821.5 847c-.2 35.4-.4 70.8-.7 106.1h140.8V847h-140.1zM2244.5 847H2086c-.2 15.2-.2 30.5 0 45.7l-.4 60.4h158.3c.6-35.6.8-71 .6-106.1M3011.8 847h-158.5c-.2 15.2-.2 30.5 0 45.7l-.4 60.4h158.3c.5-35.6.7-71 .6-106.1M1763.7 847h-439.6c-.2 14.7-.2 29.5 0 44.3v.4l-.4 61.3H1764c-.3-35.2-.4-70.6-.3-106M4250.9 847h-441.6l-26.1 54.9 26.9 51.2h441.1c-.4-35.3-.4-70.7-.3-106.1M978.9 847H852.2v-29c0-4.4-.7-8.7-1.6-12.7-9.4-35.3-17.6-71-25.1-106.8-8.5-35.6-36.4-61-68.9-62.2h-1.2l-344.3.4h-5c-1.2 0-2.2 0-3.5.2-27.9 2.6-53 21.4-66.4 49.7-.3 1.1-1 2.3-1.3 3.3-47.6 111.2-94.1 223-139.2 335.5-1.3 3.5-2.9 7.2-4 11-.7 2.1-1.3 4.4-2 6.5-4.1 17-4.7 34.7-1.2 52 6.6 35.4 30.4 63.8 61.2 72.9 1.2.3 2.5.7 4 .8l4.7.9c2.2.4 4.1.6 6.3.6h445.6c35.6 0 68.2-22.3 84.8-58l52.6-118.4c2.9-6.3 4.4-13.3 4.4-20.3v-20.1H979c-.2-35.5-.3-70.9-.1-106.3m-455-67.4c1.1-2.8 2.3-5.4 4.2-7.6.8-1.6 2.3-2.7 4.2-3.9 1.5-1 3.5-1.5 5.4-1.5h81.4c.5-.1 1.1-.1 1.6-.1 1.4 0 2.8.3 4.2.8 1.5.7 3 1.8 4.2 3.1 1.9 1.6 3.1 3.6 4.2 5.7 2 4.4 2.7 9.1 2.7 13.7 0 4-.7 7.9-1.9 11.7-1.1 2.6-2.2 5-4.2 7.1-1.1 1.4-2.7 2.5-4.2 3.3-1.5.8-3.1 1.2-4.8 1.2-.6 0-1.2 0-1.7-.1h-81.4c-1.9 0-3.9-.6-5.4-1.4-1.6-1.1-3.1-2.3-4.2-3.7-1.6-2.3-3.1-4.5-3.8-7.1-2.4-7-2.4-14.3-.5-21.2m-156.9 0c1.2-2.8 2.3-5.4 4.2-7.6 1.2-1.6 2.3-2.7 4.2-3.9 1.6-1 3.4-1.5 5.4-1.5h81.5c.5-.1 1-.1 1.6-.1 1.4 0 2.8.3 4.2.8 1.4.7 2.9 1.8 4.2 3.1 1.9 1.6 3.1 3.6 4.2 5.7 1.9 4.4 2.7 9.1 2.7 13.7 0 4-.8 7.9-1.9 11.7-1.2 2.6-2.3 5-4.2 7.1-1.1 1.4-2.7 2.5-4.2 3.3-1.5.8-3.1 1.2-4.8 1.2-.6 0-1.1 0-1.7-.1h-81.5c-2 0-3.8-.6-5.4-1.4-1.5-1.1-3-2.3-4.2-3.7-1.5-2.3-3-4.5-3.8-7.1-2.4-7-2.4-14.3-.5-21.2m20.3 240c0 4-.3 8-1.9 11.6-.7 2.6-2.3 5.1-4.1 7.2-1.2 1.3-2.7 2.4-4.3 3.3-1.5.8-3.1 1.1-4.7 1.1-.5 0-1 0-1.4-.1h-82c-1.9 0-3.8-.5-5.3-1.4-1.5-1-3.1-2.3-4.2-3.6-1.6-2.1-2.6-4.6-3.8-7.2-2.3-7-2.3-14.3 0-21.2.8-2.8 1.9-5.4 3.8-7.7 1.1-1.5 2.7-2.8 4.2-3.8 1.6-1.1 3.5-1.6 5.3-1.6h82c.5-.1.9-.1 1.4-.1 1.3 0 2.5.3 3.9.9 1.6.7 3.1 1.7 4.6 3.1 1.6 1.7 2.7 3.6 3.9 5.8 1.9 4.3 2.9 9 2.6 13.7M425.5 913c-1.1 2.6-2.3 4.9-4.2 7-1.1 1.4-2.7 2.6-4.2 3.5-1.5.7-3.3 1.1-5.2 1.1-.4 0-.9 0-1.3-.1h-81.5c-1.9-.1-3.8-.5-5.3-1.6-1.6-.9-3.1-2.1-4.2-3.5-1.6-2.3-3.1-4.7-3.9-7.3-2.3-6.8-2.3-14.3-.3-21.2.7-2.6 2.2-5.2 3.8-7.6 1.5-1.4 2.7-2.8 4.6-3.7 1.5-1 3.4-1.6 5.3-1.6h81.5c.6-.1 1.3-.2 1.9-.2 1.3 0 2.6.2 4 .7 1.5.9 3 1.9 4.2 3.1 1.5 1.7 3 3.7 4.1 5.8 2 4.3 2.7 9 2.7 13.7 0 4-.8 8.1-2 11.9m116.8 118.2c-1.2 2.6-2.4 5.1-4.3 7.2-1.1 1.3-2.6 2.4-4.2 3.3-1.4.8-3.1 1.1-4.7 1.1-.5 0-1 0-1.4-.1h-82c-1.9 0-3.8-.5-5.3-1.4-1.5-1-3.1-2.3-4.2-3.6-1.6-2.1-3.1-4.6-3.9-7.2-2.3-7-2.3-14.3-.4-21.2 1.2-2.8 2.3-5.4 4.2-7.7 1.1-1.5 2.3-2.8 4.2-3.8 1.5-1.1 3.4-1.6 5.3-1.6h82c.4-.1.8-.1 1.3-.1 1.3 0 2.7.3 4.1.9 1.5.7 3.1 1.7 4.6 3.1 1.5 1.7 2.6 3.6 3.8 5.8 1.9 4.3 2.7 9 2.7 13.7.1 4-.7 8-1.8 11.6M582.4 913c-1 2.6-2.6 4.9-4.2 7-1.2 1.4-2.6 2.6-4.2 3.5-1.5.7-3.4 1.1-5.2 1.1-.4 0-.9 0-1.3-.1H486c-2-.1-3.9-.5-5.5-1.6-1.5-.9-3.1-2.1-4.2-3.5-1.9-2.3-3.1-4.7-3.8-7.3-2.3-6.8-2.7-14.3-.4-21.2.8-2.6 2.3-5.2 3.8-7.6 1.2-1.4 2.7-2.8 4.2-3.7 1.9-1 3.8-1.6 5.8-1.6h81.5c.6-.1 1.2-.2 1.8-.2 1.3 0 2.6.2 4 .7 1.4.9 3 1.9 4.2 3.1 1.5 1.7 3.1 3.7 3.8 5.8 1.9 4.3 3.1 9 3.1 13.7.1 4-.7 8.1-1.9 11.9m116.8 118.2c-1.2 2.6-2.3 5.1-4.3 7.2-1.2 1.3-2.6 2.4-4.1 3.3-1.5.8-3.2 1.1-4.9 1.1-.5 0-1.1 0-1.6-.1h-81.6c-1.8 0-3.8-.5-5.3-1.4-1.5-1-3-2.3-4.2-3.6-1.5-2.1-3-4.6-3.8-7.2-2.3-7-2.3-14.3-.4-21.2 1.2-2.8 2.3-5.4 4.2-7.7 1.2-1.5 2.3-2.8 4.2-3.8 1.5-1.1 3.4-1.6 5.3-1.6h81.6c.5-.1 1-.1 1.5-.1 1.4 0 2.9.3 4.3.9 1.5.7 3 1.7 4.2 3.1 1.9 1.7 3 3.6 4.2 5.8 1.9 4.3 2.7 9 2.7 13.7 0 4-.9 8-2 11.6M739 913c-.8 2.6-2.3 4.9-4.1 7-1.2 1.4-2.3 2.6-4.3 3.5-1.2.7-3 1.1-4.8 1.1-.4 0-.9 0-1.3-.1H643c-1.9-.1-3.9-.5-5.3-1.6-1.6-.9-3.1-2.1-4.3-3.5-1.9-2.3-3-4.7-3.8-7.3-2.3-6.8-2.7-14.3-.4-21.2.8-2.6 2.3-5.2 3.8-7.6 1.1-1.4 2.6-2.8 4.2-3.7 1.9-1 3.4-1.6 5.7-1.6h81.5c.6-.1 1.2-.2 1.8-.2 1.3 0 2.5.2 3.6.7 1.8.9 3.4 1.9 4.5 3.1 1.6 1.7 3.1 3.7 3.8 5.8 1.9 4.3 3.1 9 3.1 13.7.1 4-.7 8.1-2.2 11.9m52.1-111.5c-1.2 2.6-2.4 5-4.2 7.1-1.2 1.4-2.7 2.5-4.3 3.3-1.4.8-3 1.2-4.8 1.2-.6 0-1.2 0-1.8-.1h-81.5c-1.9 0-3.8-.6-5.4-1.4-1.5-1.1-3.1-2.3-4.1-3.7-1.6-2.3-3.1-4.5-3.8-7.1-2.3-7-2.3-14.3-.4-21.2.8-2.8 2.3-5.4 3.8-7.6 1.1-1.6 2.6-2.7 4.5-3.9 1.6-1 3.5-1.5 5.4-1.5H776c.5-.1 1.1-.1 1.6-.1 1.4 0 2.8.3 4.2.8 1.6.7 3.1 1.8 4.2 3.1 1.5 1.6 3.1 3.6 3.9 5.7 2.2 4.4 3 9.1 3 13.7 0 4-.7 7.9-1.8 11.7M5363.9 847v106.1H5474V847zM4731.7 847h-158.5c-.2 15.2-.2 30.5 0 45.7l-.4 60.4h158.3c.6-35.6.8-71 .6-106.1"/><path class="st2" d="M3810.1 1562.4h253.4L3694.9 864 4001 197.1h-218.3l-216.9 502.4h-19.6V197.1h-219.1v1365.3h219.1v-528.2h15.7zM4398.8 202.5l-.3.1c-11.9 4.7-22.4 11.6-31.3 20.4l-.1.1c-8.4 8-16.1 17.3-23.2 27.6-13.4 20.3-24 41.7-31.7 63.5v.1c-9.5 26.1-17 54.1-22.3 83.3-8.2 54.7-14.2 111.3-17.7 168l-.2 6.3c-6.5 203.6-6.5 410.3 0 614.1v.2c.9 46.1 5.2 92.7 12.9 138.5v.3c6.5 44.7 18 88.1 34.1 129 9.7 24.4 22 46.8 36.6 66.4l.1.1c9 12.6 19.9 23.5 32.4 32.4 10.7 7.8 23.4 12.8 36.6 14.4l.4.1c.2 0 .6.1 1 .1.3 0 .6 0 1 .1l357.9.4h.2c17.5 1.1 35.3-3.1 50.7-12 10.9-6.1 20.8-13.7 29.7-22.4l.2-.2c10.3-9.5 19.6-21 27.5-34.3 10.8-18.4 19.4-37.7 25.5-57.2 20.6-71.6 33.4-145.1 38-218.4l1-15.8c10.4-185.9 12.1-372.3 5-554l-4.4-96.2c-1.2-39.8-4.9-79.6-11-118.2v-.2c-6.6-46.4-18.2-90.8-34.4-132-8.9-22.9-20.8-44.9-35.4-65.4-5-6.8-11-13.7-18.4-21.1l-.2-.2c-3.5-3.7-7.1-6.9-10.8-9.5-23.5-14.3-49.2-23.2-76.5-26.6l-272.5.5h-.2c-4.8-.3-9.7-.5-14.4-.5-29.8-.3-58.7 5.9-85.8 18.2m87.4 726.3l.6-99.3c-.6-51.8 1.1-103.1 5-152.4 1.5-25.6 5.6-51.9 12.2-78.3 2.8-12.1 6.9-23.5 12.3-33.9 2.7-5.2 6.2-10.2 10.3-15l.3-.3c8.7-9.1 18.4-16.3 28.8-21.4 7.7-3.6 16.1-5.7 24.4-6.1h.1l42.3.1c5.1-.1 8.8-.1 11.3-.1h.6c.5 0 1 0 1.4-.1h2.8c.5 0 1.1.1 1.6.2h12.1c29.6 0 39.1 9.4 43.6 13.9l.8.8c4.4 4 9.9 8.8 14.5 14.9 1.8 2.2 3.6 4.6 5.2 7.3 6.7 11.3 12.2 24.2 16.4 38.1l.1.2c4.8 17.5 8.1 35.8 9.8 54.4v.5c2.2 44.9 3.8 89.9 4.7 133.6 1.5 87.9.7 178.4-2.5 269-.7 21.8-2.7 43.1-6.1 63.2-2.9 21.7-8.7 43-17.3 63.5-3.8 9.8-9.1 19.5-15.8 28.8-4.2 6.1-9.1 11.6-14.4 16.2-4.9 4.3-10.2 7.2-16.1 8.8h-.2c-2.1.5-4.1.8-5.6 1h-.3l-102.6-.4-.5-.1c-7.5-1.2-14.7-4.3-20.8-8.9-6.8-5-12.7-11-18-18.5l-.4-.6c-.6-.8-1.4-1.8-2.1-2.8-7.3-11.2-12.9-22.9-16.8-34.8-4.2-11.4-7.4-22.6-9.5-33.5l-.1-.6c-6.3-42.3-10.1-85.6-11.4-128.6v-.3l-.7-78.5zM2678.9 202.5l-.3.1c-11.9 4.7-22.4 11.6-31.4 20.4-8.5 8.2-16.3 17.5-23.2 27.7-13.4 20.4-24.1 41.8-31.7 63.5v.1c-9.5 26.1-17 54.1-22.3 83.3-8.3 54.8-14.2 111.3-17.7 168l-.3 6.3c-6.5 203.7-6.5 410.3 0 614.1v.1c.9 46.2 5.3 92.8 13 138.5v.3c6.5 44.7 18 88.1 34.1 129 9.6 24.4 21.9 46.7 36.6 66.5l.1.1c9.1 12.6 20 23.5 32.5 32.4 10.7 7.8 23.4 12.8 36.7 14.4l.4.1c.2 0 .6.1.9.1.3 0 .6 0 .9.1l357.9.4h.2c17.6 1.1 35.3-3.1 50.8-12 11-6.2 21-13.7 29.7-22.4l.2-.2c10.4-9.6 19.6-21.1 27.5-34.3 10.7-18.2 19.3-37.5 25.5-57.2 20.6-71.5 33.4-145 38-218.4l1-15.8c10.4-185.9 12.1-372.3 5-554l-4.4-96.2c-1.2-39.8-4.9-79.5-11-118.2v-.2c-6.6-46.4-18.2-90.8-34.4-132-8.8-22.8-20.7-44.8-35.4-65.5-5.1-6.9-11.1-13.8-18.4-21.1l-.3-.3c-3.3-3.6-6.9-6.8-10.7-9.5-23.5-14.3-49.2-23.2-76.5-26.6l-272.5.5h-.2c-4.8-.3-9.7-.5-14.5-.5-29.8-.1-58.7 6.1-85.8 18.4m87.3 726.3l.6-99.3c-.6-51.5 1.1-102.8 5-152.4 1.5-25.6 5.6-52 12.2-78.3 2.7-12.1 6.9-23.5 12.3-33.9 2.6-5 6-10 10.3-15l.3-.3c8.6-9 18.5-16.4 28.8-21.4 7.7-3.6 16.1-5.7 24.4-6.1h.1l42.3.1c5.1-.1 8.8-.1 11.3-.1h.5c.5 0 1 0 1.4-.1h2.8c.5 0 1.1.1 1.6.2h12.1c29.6 0 39 9.4 43.5 13.9l.8.8.1.1c4.4 3.9 9.8 8.8 14.5 14.8 1.6 2.1 3.5 4.5 5.1 7.3 6.7 11.3 12.2 24.2 16.4 38.1l.1.2c4.8 17.5 8.1 35.8 9.8 54.4v.5c2.2 44.6 3.8 89.5 4.7 133.6 1.5 87.6.6 178-2.5 269-.7 21.7-2.7 42.9-6.1 63.2-2.9 21.6-8.7 43-17.3 63.5-3.9 9.9-9.2 19.6-15.8 28.8-4.1 6.1-8.9 11.5-14.4 16.2-4.9 4.3-10.2 7.2-16.1 8.8h-.2c-2.1.5-4.1.8-5.6 1h-.3l-102.6-.4-.5-.1c-7.5-1.2-14.7-4.3-20.8-8.9-6.7-4.9-12.7-11-18.1-18.6-.2-.3-.4-.5-.6-.8-.5-.7-1.2-1.5-1.8-2.5-7.3-11.4-13-23.1-16.8-34.8-4.1-11.2-7.3-22.4-9.5-33.4l-.1-.6c-6.3-42.3-10.1-85.6-11.4-128.6v-.3l-.5-78.6zM1911.7 202.5l-.3.1c-11.9 4.7-22.5 11.6-31.4 20.4l-.1.1c-8.3 8-16.1 17.3-23.2 27.6-13.4 20.3-24 41.7-31.7 63.5-9.6 26.4-17.1 54.5-22.3 83.4-8.2 54.5-14.2 111-17.7 168l-.3 6.2c-6.5 203.7-6.5 410.3 0 614.2v.1c.9 46.3 5.3 92.9 12.9 138.5v.3c6.5 44.6 18 88 34.1 129 9.7 24.4 22 46.8 36.6 66.4l.1.1c9 12.6 20 23.5 32.5 32.4 10.8 7.8 23.4 12.8 36.7 14.4l.4.1c.2 0 .6.1.9.1.3 0 .6 0 .9.1l357.9.4h.2c17.6 1.1 35.3-3.1 50.8-12 10.9-6.2 20.9-13.7 29.7-22.4l.2-.2c10.4-9.6 19.7-21.2 27.5-34.3 10.8-18.4 19.4-37.6 25.5-57.3 20.6-71.6 33.4-145 38-218.4l.9-15.8c10.4-185.8 12.1-372.2 5.1-554l-4.4-96.2c-1.2-39.8-4.9-79.6-11-118.2v-.2c-6.7-46.3-18.2-90.8-34.4-132.1-8.9-22.9-20.8-44.9-35.4-65.4-5-6.8-10.9-13.5-18.4-21.1l-.2-.2c-3.4-3.6-7-6.8-10.8-9.5-23.5-14.3-49.2-23.2-76.5-26.6l-272.5.5h-.2c-4.8-.3-9.7-.5-14.4-.5-29.8 0-58.6 6.2-85.7 18.5m87.3 726.3l.7-99.3c-.7-51.4 1-102.7 5-152.4 1.5-25.6 5.7-52 12.2-78.3 2.8-12.1 6.9-23.5 12.3-33.9 2.6-5 6-10.1 10.3-15l.3-.3c8.8-9.1 18.5-16.3 28.9-21.4 7.6-3.6 16-5.7 24.4-6.1h.1l42.3.1c5.1-.1 8.8-.1 11.3-.1h.6c.5 0 1 0 1.4-.1h2.8c.5 0 1.1.1 1.6.2h12.1c29.6 0 39 9.4 43.6 13.9l.8.8c4.4 4 9.9 8.8 14.5 14.9 1.8 2.2 3.6 4.6 5.2 7.3 6.7 11.3 12.2 24.1 16.4 38.1l.1.3c4.9 17.6 8.1 35.9 9.8 54.3v.5c2.2 44.9 3.8 89.9 4.7 133.6 1.5 87.9.7 178.3-2.5 269-.7 21.9-2.7 43.2-6.1 63.2-2.9 21.7-8.8 43-17.3 63.5-3.8 9.8-9.1 19.5-15.8 28.8-4.1 6.1-9 11.5-14.3 16.2-4.9 4.2-10.3 7.2-16.1 8.8h-.2c-2.1.5-4.1.8-5.6 1h-.4l-102.6-.4-.5-.1c-7.5-1.2-14.7-4.3-20.8-8.9-6.8-5-12.7-11.1-18-18.5-.2-.2-.3-.4-.5-.7-.6-.8-1.3-1.7-2-2.8-7.3-11.3-12.9-23-16.8-34.8-4.1-11.3-7.3-22.5-9.5-33.5l-.1-.6c-6.3-42.1-10.1-85.3-11.4-128.6v-.3l-.9-78.4zM6212.6 1572.2v-1020h204.7v-359h-643.2v359h203.7v1020zM5269.4 193.9h-235.1v614.6c-1.3 95.7-1 191.4 1.5 287.1 3.1 73.1 9.1 145.9 18.8 218.5 3.8 39.8 11.9 78.7 23.8 116.5 8.1 25.9 19.7 50.3 34.7 72.7 16.9 25.2 39.1 46 64.8 61.1 11.6 6.7 24.4 10.9 37.5 12.6l119.9 6.6c21.5.4 42.9.5 64.4.5 38.3 0 76.7-.6 115-1.7 18.1 0 36-3.8 52.2-11.1 42.6-19.5 77-54.1 97.7-97.8 7.9-14.8 14.4-30.4 19.7-46.1 12.5-35.4 21.9-71.8 28.5-108.8 5.6-49.1 9.1-98.5 10-148 6-325.5 6.2-651.1 1-976.7h-233.6v812.7c-.3 17.5-.6 35-1.3 52.5-.6 4.9-.6 9.8-1 14.6-.2 18-1.9 36.2-4.9 54-3.8 24.8-12.2 48.8-24.1 70.6-3.8 6.6-8 12.6-13.8 17.5-10.7 9.1-32.7 10.1-41.8 10.1-2.5 0-4-.1-4-.1-10.5-.1-16.8-.1-20.4-.1-12.1 0 4.7.3-3.5.3-3.5 0-11.3-.1-27.5-.2-7.9-.1-12-2.4-18.8-6.3-20.7-12-36-23.6-43.3-47-10.9-36.8-16.2-74.9-16.8-113.2l.7-62.5-.3-802.9zM1076.6 244.3c-13.9 20.5-25.6 42.6-34 65.9-10.4 27.6-18.2 56.2-23.7 85.4-8.7 56.1-14.9 112.7-18.4 169.4l-.3 6.4c-6.8 204.9-6.8 410 0 615 1 47.1 5.5 94 13.6 140.3 6.8 45.3 18.8 89.4 36 131.6 10.1 24.6 23 47.7 39.2 68.8 10 13.4 22 24.9 35.6 34.3 12.3 8.6 26.6 13.9 41.2 15.7 1 .2 1.9.2 2.9.3l370.6.4c2 .1 4.1.2 6.1.2 17.4 0 34.6-4.4 50.3-13.1 11.7-6.4 22.7-14.4 32.4-23.7 11.6-10.4 21.7-22.7 30.2-36.4 11.3-18.6 20.7-38.7 27.5-59.7 21.4-71.8 23.2-146.7 28.1-221.7 0 0 0-72.1-1.3-185l-2.4-.2h-166.5l-.2.5c-.7 20.7-12.2 55.7-15.8 76.2-2.9 21-8.7 41.6-17.1 60.9-3.9 9.5-9.1 18.5-15.3 26.7-3.9 5.5-8.4 10.4-13.3 14.6-4.2 3.4-8.7 5.9-13.9 7.3-1.6.4-3.2.6-4.9.8l-124.3-.3-34-.1c-6.5-1-13-3.6-18.4-7.6-6.6-4.6-12-10.2-16.9-16.7-.7-.9-1.6-1.9-2.3-3-6.8-10.2-12.4-20.9-16.3-32.5-3.8-10.3-7.1-21-9.4-31.9-6.5-42.1-10.4-84.7-11.6-127.2l-.7-78.2.7-99.4c-.7-50.5 1-101.1 5.2-151.5 1.6-25.8 5.9-51.4 12.3-76.4 2.6-10.9 6.5-21.5 11.7-31.3 2.5-4.8 5.8-9.1 9.4-13.1 8.1-8.2 17.5-15.1 27.5-19.8 7.1-3.2 14.9-5.1 22.7-5.4l24.7.1c16-.2 28-.2 39.1-.2 18.7 0 34.8.2 63.7.2 31.1 0 37.7 9.9 41.3 12.9 4.8 4.1 9.7 8.4 13.9 13.7 1.6 1.9 3.2 4 4.5 6.2 6.8 11.1 12 23.1 15.9 35.8 4.8 17 16.5 51.5 15.1 91.2h169.5l.3-.9c5.1-60.8 2.3-196.6-2-252.9-3.5-46.7-7.9-91.3-25.4-134.4-9.7-24.3-22.7-47.1-37.9-67.7-6.2-8-13-15.3-20.1-22.2-3.9-4.1-8.1-7.7-12.7-10.8-25.3-14.9-53.4-24.3-82.5-27.8l-282.2.5c-5.1-.3-10.3-.5-15.4-.5-31.4 0-62.5 6.4-91.5 19-13 5-25 12.4-35 22.1-9.6 8.9-18.1 18.7-25.5 29.2"/></svg>