<svg version="1.1" id="Layer_1" xmlns="http://www.w3.org/2000/svg" xmlns:xlink="http://www.w3.org/1999/xlink" x="0px" y="0px" viewBox="0 0 65.1 78.4" style="enable-background:new 0 0 65.1 78.4;" xml:space="preserve">
 <style type="text/css">
  .st0{filter:url(#Adobe_OpacityMaskFilter);}
	.st1{fill-rule:evenodd;clip-rule:evenodd;fill:#FFFFFF;}
	.st2{mask:url(#prefix__b_1_);fill-rule:evenodd;clip-rule:evenodd;fill:#FFE104;}
	.st3{filter:url(#Adobe_OpacityMaskFilter_1_);}
	.st4{mask:url(#prefix__d_1_);fill-rule:evenodd;clip-rule:evenodd;fill:#231F20;}
 </style>
 <g>
  <defs>
   <filter id="Adobe_OpacityMaskFilter" filterUnits="userSpaceOnUse" x="0" y="0" width="65.1" height="62.8">
    <feColorMatrix type="matrix" values="1 0 0 0 0  0 1 0 0 0  0 0 1 0 0  0 0 0 1 0">
    </feColorMatrix>
   </filter>
  </defs>
  <mask maskUnits="userSpaceOnUse" x="0" y="0" width="65.1" height="62.8" id="prefix__b_1_">
   <g class="st0">
    <path id="prefix__a_1_" class="st1" d="M0,0h236v62.8H0V0z">
    </path>
   </g>
  </mask>
  <path class="st2" d="M65.1,31.8l-33,31L0,31L33,0L65.1,31.8z">
  </path>
  <g>
   <defs>
    <filter id="Adobe_OpacityMaskFilter_1_" filterUnits="userSpaceOnUse" x="17.8" y="13.9" width="26.9" height="64.5">
     <feColorMatrix type="matrix" values="1 0 0 0 0  0 1 0 0 0  0 0 1 0 0  0 0 0 1 0">
     </feColorMatrix>
    </filter>
   </defs>
   <mask maskUnits="userSpaceOnUse" x="17.8" y="13.9" width="26.9" height="64.5" id="prefix__d_1_">
    <g class="st3">
     <path id="prefix__c_1_" class="st1" d="M32.9,0L0,31l32,31.8l32.9-31">
     </path>
    </g>
   </mask>
   <path class="st4" d="M34.1,20.8c0,0,1.4-1.5,3-2c2.5-0.7,4.9-0.1,6.2,1c1.4,1.1,1.5,2.6,1.5,2.6s-0.5-0.9-2.2-1.1
			c-0.9-0.1-1.7,0.2-1.7,0.2s0.6,0.5,0.9,1c0.3,0.5,0.2,1,0.2,1c-0.8-0.5-1.6-0.7-2.6,0c-0.7,0.5-0.7,0.9-0.7,0.9
			c0.7-0.2,2.5-0.4,4,0.8c1.4,1.1,1.6,2.7,1.6,2.7c-1.4-1.2-1.8,0.6-3-0.1c0,0,0.8,1.1,1,2c0.4,2.2-1.9,3.1-1.9,3.1
			c0.1-0.9-0.5-2.6-2.8-2.8C36.2,30,35.4,31,35.4,31c-0.1,4.7-1.6,5.9-1.6,5.9S33,55.8,32.9,64.3c-0.1,4.4,0,7.1,0.3,14.1l-1.3-0.8
			l-1.4,0.8c0.4-7,0.6-9.7,0.6-14.1c0-8.5,0.2-27.4,0.2-27.4s-1.5-1.2-1.4-6c0,0-0.8-1.1-2.4-0.9c-2.6,0.3-2.5,2.7-2.5,2.7
			s-1.5-0.6-1.6-1.7c-0.1-1.1,0.5-1.5,0.5-1.5c-0.9,1.1-2.4,0.6-3.1,2.8c0,0-1.8-2,0.3-4.7c1.6-2,4-1.9,4-1.9
			c-0.5-0.9-2.1-1.4-3.3-1c-0.6,0.2-1.5,0.9-1.5,0.9s0.1-0.6,0.4-1.1c0.6-1,1-1.1,1-1.1c-1.2-0.9-2.9-0.2-3.9,0.9c0,0-0.1-1,0.9-2.2
			c2.1-2.6,6.2-2.7,8.8-0.9c1.1,0.8,1.5,1.6,1.5,1.6c-1.4-3.6-0.1-6.4,1.9-7.6c2.4-1.5,5.2-1.1,5.2-1.1c-1.7,0.8-0.6,1.6-1.8,2.4
			c0,0,1.1-0.2,2-0.2c0.7,0,1,0.4,1,0.4C35.9,16.9,34.1,19.5,34.1,20.8">
   </path>
  </g>
 </g>
</svg>