<svg xmlns="http://www.w3.org/2000/svg" height="800" width="1200" viewBox="-43.20345 -36.36275 374.4299 218.1765"><path d="M268.231 112.623l16.391-75.43L144.074 3.4 3.401 37.193l16.453 75.431 124.22 29.426z" fill="#ffde23"/><path fill="none" stroke="#fec02e" stroke-width="6.803" stroke-linecap="round" stroke-linejoin="round" d="M268.231 112.623L144.074 142.05l-124.22-29.426-16.453-75.43L144.074 3.401l140.547 33.792-16.39 75.43"/><path d="M109.713 86.362c1.14-3.354 1.582-7.213 1.392-11.58L97.627 76.05c.063 1.012-.064 2.088-.317 3.163l-.57 2.025c-.252.95-.696 1.52-1.266 1.71-.695.125-1.265-.254-1.835-1.33-.759-1.646-1.266-4.114-1.582-7.34l19.174-1.709c-.316-6.138-1.012-11.138-2.15-15.125-.95-3.29-2.343-6.265-4.115-8.732-1.266-1.772-3.1-3.292-5.378-4.303-2.215-1.076-4.683-1.582-7.15-1.582-5.949 0-10.379 2.848-13.29 8.353-2.658 5.19-3.607 12.213-2.784 21.2.443 5.378 1.52 9.998 2.974 13.795 1.582 3.86 3.544 6.833 6.012 8.86 2.911 2.403 6.328 3.478 10.251 3.226 3.734-.189 6.898-1.582 9.43-4.05 2.15-2.026 3.67-4.62 4.682-7.848zM96.107 62.76l-5.505.443c0-1.899.19-3.607.76-5.316.57-1.519 1.011-2.34 1.518-2.404 1.33-.064 2.468 2.341 3.227 7.277zM230.643 37.7c-1.646 1.708-2.532 3.86-2.532 6.391 0 1.772.443 3.354 1.393 4.683.948 1.33 2.341 2.341 4.24 3.101l-3.354 6.771c-.38.95-.253 1.708.505 2.341.761.57 1.582.57 2.468-.126l5.063-4.937c3.733-3.986 5.822-7.277 6.138-9.682l.127-2.152c0-2.72-.949-4.936-2.658-6.644-1.582-1.583-3.543-2.342-5.885-2.278-2.089.001-3.923.823-5.505 2.532z" fill="#d5ac62"/><path d="M128.317 45.99l-4.493-2.785-15.757.633 4.493 7.214 1.456 37.842-3.86 7.593 20.06-.759-1.266-32.273c-.063-2.152.316-3.164 1.012-3.038.822.126 1.203 1.14 1.266 3.038l1.203 32.21 18.921-.317-3.037-6.645-1.267-32.462c-.253-5.759-1.708-9.873-4.43-12.213-1.834-1.519-3.923-2.215-6.39-2.15-3.228.125-5.886 1.516-7.91 4.112zm124.537 18.983c.507-.696 1.14-.949 2.088-.823 1.013.253 2.28.95 3.861 2.151 2.025 1.582 3.924 3.607 5.76 6.14l3.226-15.758c-3.1-2.342-5.822-3.987-8.163-4.936-2.404-.949-4.873-1.392-7.468-1.392-4.746 0-8.73 1.582-11.833 4.746-2.91 2.911-4.429 6.455-4.429 10.568 0 2.785.76 5.633 2.403 8.354l7.721 11.074c.633.948.633 1.771.063 2.531-.632.696-1.454.95-2.53.76-1.077-.254-2.468-1.077-4.24-2.596-2.215-1.834-4.366-4.113-6.454-6.896l-3.733 18.224c4.05 4.43 9.491 6.582 16.326 6.582 5 0 9.238-1.836 12.655-5.632 3.228-3.48 4.81-7.467 4.81-11.834 0-2.658-.633-5.188-1.835-7.656-1.013-1.962-2.72-4.43-5.126-7.34l-2.594-3.166c-.888-1.329-1.078-2.34-.508-3.1zM20.487 44.85l6.328 7.594 7.847 45.563-3.607 9.238 22.021-3.733c8.1-1.328 13.921-5.126 17.655-11.2 3.797-6.266 4.81-14.427 3.165-24.427-1.835-10.505-5.315-17.782-10.378-22.022-5.696-4.619-13.922-5.948-24.68-4.177zM45.61 56.684l1.14-.19c4.112-.696 7.086 3.986 8.795 14.175.696 4.176.95 7.657.57 10.314-.443 3.48-1.773 5.38-4.05 5.822l-1.33.19zm181.931-1.899l5.063-7.088-24.3-1.96 3.101 7.276-4.493 18.035-1.519-20.503 2.911-4.809-25.123-2.278 4.81 8.036 7.91 40.88-1.898 7.53-6.392 7.974 20.187 1.834z" fill="#d5ac62"/><path d="M168.121 63.645c.063-1.898.507-2.784 1.265-2.722.76.064 1.077 1.013.95 2.848l-.95 32.4 21.517 1.076-5.189-9.937.948-29.488c.127-4.683-.63-8.353-2.403-11.01-1.709-2.595-4.24-3.987-7.404-4.05-3.228-.128-6.012 1.075-8.226 3.542l-3.672-3.038-16.325-.442 3.986 7.404-1.14 38.032-3.859 7.151 19.554.695z" fill="#d5ac62"/><path d="M107.12 84.148c1.074-3.29 1.581-7.088 1.391-11.328l-13.479 1.267c.063.948-.127 1.962-.316 2.974l-.633 1.962c-.253.95-.696 1.518-1.266 1.71-.696.125-1.266-.254-1.772-1.33-.759-1.582-1.329-3.985-1.583-7.15l19.05-1.774c-.255-6.139-1.014-11.2-2.089-15.188-.949-3.354-2.342-6.328-4.113-8.795-1.266-1.772-3.038-3.228-5.316-4.303-2.278-1.076-4.683-1.583-7.214-1.583-6.012.063-10.44 2.848-13.29 8.354-2.657 5.19-3.606 12.213-2.784 21.2.506 5.38 1.52 9.997 3.038 13.795 1.52 3.86 3.543 6.833 5.948 8.86 2.974 2.402 6.391 3.48 10.251 3.225 3.797-.188 6.961-1.58 9.492-4.049 2.09-2.026 3.608-4.62 4.684-7.847zm-14.62-27.4c.38 1.012.696 2.277.95 3.86l-4.936.442c-.063-1.835.19-3.354.57-4.556.378-1.012.76-1.519 1.328-1.583.823-.062 1.52.571 2.088 1.836zm147.634-22.086c-1.582-1.582-3.543-2.34-5.885-2.34-2.088.062-3.924.885-5.505 2.53-1.646 1.708-2.53 3.86-2.53 6.392 0 1.898.441 3.48 1.327 4.81.886 1.265 2.152 2.214 3.861 2.847l-2.91 6.96c-.382.95-.254 1.772.504 2.342.761.57 1.583.57 2.468-.126l5.633-4.493c3.164-3.164 5.063-6.58 5.57-10.125l.125-2.215c0-2.659-.948-4.81-2.658-6.582z" fill="#fff"/><path d="M125.787 43.711l-.19-3.038-20.06.823 4.493 7.151 1.456 37.905-3.86 7.594 20.06-.696-1.266-32.336c-.063-2.152.316-3.1 1.013-3.038.822.126 1.203 1.14 1.266 3.038l1.202 32.21 18.921-.317-3.038-6.645-1.266-32.462c-.252-5.758-1.708-9.809-4.429-12.213-1.835-1.582-3.923-2.278-6.392-2.15-3.228.124-5.886 1.516-7.91 4.174zm125.674 21.452c-.885-1.265-1.075-2.342-.505-3.1.505-.697 1.14-.95 2.087-.76 1.014.19 2.28.886 3.861 2.152 2.024 1.52 3.924 3.607 5.758 6.138l3.228-15.757c-3.102-2.34-5.822-3.986-8.163-4.936-2.404-1.012-4.873-1.455-7.468-1.455-4.746 0-8.732 1.582-11.833 4.746-2.91 2.975-4.429 6.518-4.429 10.568 0 2.911.695 5.76 2.024 8.417.76 1.582 2.468 4.05 4.936 7.593l2.47 3.608c.694.948.821 1.771.441 2.468-.442.632-1.202.886-2.216.632-1.075-.252-2.468-1.075-4.239-2.594-2.215-1.772-4.365-4.114-6.454-6.834l-3.67 17.592c2.531 2.847 5.505 4.872 8.732 6.075 2.53 1.012 5.188 1.52 8.036 1.52 5.57-.064 10-2.09 13.163-6.202 2.721-3.418 4.112-7.277 4.112-11.708 0-2.657-.695-5.188-1.96-7.594-1.014-1.897-2.786-4.366-5.316-7.403zm-180.413.76C69.213 55.42 65.795 48.078 60.67 43.838c-5.63-4.556-13.858-5.949-24.616-4.113L17.64 42.826l6.391 7.594 7.847 45.563-3.67 9.301 22.084-3.733c8.607-1.519 14.745-5.25 18.226-11.2 3.417-5.95 4.302-14.113 2.53-24.428zM42.761 54.658l1.14-.126c4.176-.759 7.087 3.924 8.86 14.112.695 4.24.885 7.72.568 10.314-.443 3.48-1.835 5.442-4.05 5.822l-1.329.19zm182.755-2.467l6.392-7.087-25.312-1.96L180.84 40.8l4.873 8.037 7.91 40.943-1.898 7.468-6.455 8.035 20.503 1.773zm-23.098-2.405l3.86-6.075 2.848 6.708-4.745 18.857z" fill="#fff"/><path d="M165.78 61.114c0-1.898.442-2.784 1.201-2.722.823.127 1.14 1.076 1.012 2.848l-.948 32.4 20.25 1.075-3.986-7.087.95-32.274c.187-4.682-.635-8.416-2.343-11.01-1.77-2.658-4.176-3.987-7.466-4.05-3.165-.19-5.949 1.013-8.228 3.544l.126-2.91-20.059-.634 3.923 7.467-1.076 37.97-3.228 7.275 18.857.634z" fill="#fff"/><path d="M106.865 69.024l-.317-3.544c-1.456-16.326-7.53-23.983-18.098-23.034-4.873.443-8.48 3.038-10.758 7.91-2.34 4.81-3.1 11.391-2.34 19.68.76 8.29 2.72 14.554 5.821 18.731 3.101 4.24 7.15 6.076 12.086 5.633 4.303-.443 7.594-2.342 10-5.949 2.403-3.544 3.606-8.227 3.542-14.112l-10.314.95c-.063 1.961-.443 3.607-1.076 4.872-.696 1.392-1.519 2.09-2.468 2.216-2.784.252-4.492-3.038-5.125-9.746l-.19-1.835zm-19.3-13.1c.57-1.645 1.52-2.53 2.658-2.657 2.785-.253 4.493 2.657 5.063 8.86l-8.353.695c-.255-2.848-.065-5.125.632-6.898zm142.508.949l.378-.126 6.457-4.936c2.276-2.278 3.67-5.189 4.176-8.669.316-2.405 0-4.494-1.139-6.202-1.076-1.645-2.659-2.594-4.62-2.91-1.835-.254-3.544.252-5 1.518-1.265 1.203-2.087 2.658-2.342 4.43-.188 1.075-.062 2.215.381 3.417.57 1.836 1.71 3.165 3.48 3.861l1.835.76-3.606 8.416c-.064.252-.064.441 0 .441zm31.703 9.05l2.278-11.39c-3.544-2.722-7.024-4.367-10.315-5.063-4.43-.887-8.227-.316-11.58 1.835-3.29 2.025-5.378 5.126-6.2 9.175-.57 2.911-.255 5.76.95 8.607.82 1.898 2.593 4.81 5.44 8.732l2.468 3.606c.823 1.267 1.076 2.28.95 3.037-.255.95-.76 1.71-1.52 2.216-.822.443-1.835.632-2.91.443-1.204-.254-2.659-1.077-4.368-2.342a32.25 32.25 0 01-5.126-5.063l-2.783 13.416c3.354 3.165 6.897 5.19 10.567 5.948 4.936 1.013 9.238.381 12.846-1.834 3.544-2.215 5.822-5.759 6.772-10.505.632-3.228.442-6.265-.76-9.05-.887-1.962-2.785-4.746-5.696-8.29l-2.72-3.29c-1.204-1.773-1.393-3.418-.569-4.874.758-1.393 2.088-1.96 3.86-1.583 1.138.253 2.467.95 3.986 2.152 1.583 1.08 3.04 2.535 4.43 4.117zM128.254 43.394c-1.519 1.33-2.784 3.48-3.923 6.392l-.317-7.34-15.567.633 3.228 5.126 1.518 38.727-2.848 5.506 15.567-.632-1.139-30.439c-.063-1.455.19-2.657.76-3.606.505-.823 1.138-1.329 1.898-1.329.886 0 1.582.316 2.025 1.012.506.823.822 1.9.822 3.418l1.202 30.754 14.81-.253-2.153-4.557-1.266-32.842c-.189-4.24-1.012-7.467-2.658-9.682-1.582-2.152-3.733-3.228-6.455-3.1-2.15.061-3.985.821-5.504 2.212zm-107.451.634l4.746 5.695 8.037 46.447-2.72 6.962 19.173-3.29c16.263-2.723 22.654-13.985 19.364-33.666-1.646-9.682-4.683-16.453-9.112-20.44-5.316-4.747-13.29-6.202-23.984-4.43zm20.06 9.302l2.785-.443c5.252-.886 8.795 4.24 10.694 15.504 1.898 11.138.316 17.148-4.809 18.035l-2.974.505zm183.135-1.962l4.366-4.81-19.744-1.582 2.215 5.315-7.213 28.604-2.91-29.488 3.036-4.937-19.808-1.708 3.354 5.505 8.037 41.575-2.088 8.228-4.747 5.82 16.136 1.456zm-43.347-5.948c-1.456-2.278-3.48-3.418-6.2-3.544-2.217 0-4.115.57-5.697 1.898-1.582 1.266-3.037 3.227-4.304 6.011l.19-7.277-15.63-.506 2.847 5.378-1.075 38.792-2.405 5.252 14.808.441.886-30.437c.064-1.455.38-2.658 1.013-3.48.57-.886 1.266-1.266 2.025-1.266.885.063 1.52.443 1.963 1.14.441.822.632 2.024.57 3.48l-.888 30.754 15.63.822-2.72-4.809 1.012-32.78c.126-4.237-.569-7.528-2.025-9.87z" fill="#ee3338"/><path d="M95.285 62.126l-5.126.443.127 3.038 8.29-.76c-.507-5.822-2.088-8.732-4.62-8.796.632 1.455 1.076 3.481 1.33 6.075zm11.453 15.315c.063-1.013.127-2.024.063-3.103l-10.314.95c-.063 1.961-.443 3.607-1.076 4.872-.696 1.392-1.519 2.09-2.468 2.216h-.316c.886 1.961 2.088 2.91 3.607 2.721 1.013-.064 1.772-.822 2.468-2.15.633-1.33 1.076-2.976 1.14-4.875z" fill="#b32e30"/><path d="M91.741 45.166c3.354-.316 6.265.253 8.733 1.708-3.038-3.417-6.96-4.936-12.023-4.429-4.873.443-8.48 3.038-10.758 7.91-2.34 4.81-3.1 11.391-2.34 19.68.505 5.821 1.707 10.695 3.416 14.554 1.708 3.797 3.987 6.52 6.708 8.101-3.67-4.113-5.949-10.758-6.835-19.934-.759-8.29.063-14.808 2.341-19.68 2.342-4.809 5.885-7.403 10.758-7.91zm138.584-9.618c-1.265 1.203-2.087 2.658-2.342 4.43-.126.822-.062 1.834.255 2.911.315 1.582 1.075 2.785 2.213 3.544a8.536 8.536 0 01-.126-2.848c.317-1.708 1.077-3.228 2.342-4.43 1.456-1.266 3.164-1.77 5.063-1.519 1.14.19 2.216.633 3.102 1.393-.38-1.393-1.077-2.53-2.025-3.417-1.013-.823-2.15-1.329-3.48-1.582-1.837-.254-3.546.252-5.002 1.518zm2.469 14.618l-2.848 6.581.063.126.316-.063c1.646-.949 3.798-2.594 6.456-4.872-2.406-1.013-3.797-1.582-3.987-1.772zm30.881 6.075l.38-1.709c-3.544-2.72-7.024-4.366-10.315-5.062-4.43-.887-8.227-.316-11.58 1.835-3.29 2.025-5.378 5.126-6.2 9.175-.57 2.595-.317 5.252.632 7.784.695 1.961 2.215 4.555 4.43 7.657-1.267-2.088-2.15-3.987-2.595-5.759-.506-1.962-.506-3.986-.063-6.075.821-4.113 2.847-7.15 6.2-9.238 3.291-2.088 7.152-2.658 11.518-1.772 2.467.506 4.998 1.518 7.593 3.164zM245.324 82.25c.38.885.505 1.582.442 2.213-.254.95-.76 1.71-1.519 2.216-.822.443-1.835.632-2.91.443-1.204-.254-2.659-1.077-4.368-2.342a32.25 32.25 0 01-5.126-5.063l-2.783 13.416 2.657 2.28 2.531-12.089c1.646 1.962 3.354 3.671 5.063 5 1.772 1.33 3.163 2.152 4.367 2.341 1.14.254 2.088.126 2.911-.38.821-.569 1.328-1.265 1.52-2.214.187-.76-.064-1.584-.698-2.658zM127.495 52.634c1.14-2.848 2.405-4.937 3.923-6.329 1.52-1.329 3.354-2.088 5.506-2.215 1.328 0 2.594.19 3.67.696-1.646-2.53-3.923-3.734-6.834-3.606-2.975.126-5.379 1.52-7.277 4.176h.696zm-3.481-10.188l-15.567.633 3.228 5.126 1.518 38.727-2.848 5.506 4.81-.253 1.202-2.342-1.519-38.727-3.228-5.125 12.53-.506zm6.581 16.896l-.442.063.126 1.456 1.202 30.754 3.101-.063-1.139-27.78c0-1.457-.316-2.596-.822-3.418-.444-.696-1.14-1.075-2.026-1.012zm36.766-6.392c1.328-2.784 2.784-4.809 4.365-6.075 1.647-1.266 3.48-1.898 5.634-1.834 1.393 0 2.594.316 3.606.95-1.455-2.596-3.606-3.988-6.517-4.114-3.038-.064-5.507 1.202-7.532 3.733l.697.064zm-2.847-7.404l.127-3.038-15.63-.506 2.847 5.378-1.075 38.792-2.405 5.252h4.113l1.203-2.152 1.201-38.79-2.847-5.316zm7.468 15.441c-.443-.76-1.078-1.14-1.963-1.14l-.443.063.064 1.392-.887 30.755 3.037.126.76-27.78c.063-1.454-.126-2.594-.568-3.416zM49.596 86.362l.507 3.037 2.974-.505c5.063-.822 6.708-6.835 4.745-18.036-1.519-9.239-4.176-14.427-7.973-15.376 1.961 2.531 3.48 6.771 4.493 12.91 1.898 11.137.316 17.147-4.746 17.97z" fill="#b32e30"/><path d="M20.803 44.028l4.746 5.695 8.037 46.447-2.72 6.962 4.935-.886 1.266-3.544-7.974-46.448-4.81-5.758 15.566-2.658c8.543-1.519 15.441-.823 20.503 1.962-5.378-4.81-13.352-6.265-24.046-4.493zm190.665 4.239l14.365 1.14 2.531-2.849-19.744-1.582 2.215 5.315-5.315 20.44 1.013 11.39 7.214-28.54zm-24.68-2.214l15.19 1.393 1.77-2.975-19.808-1.708 3.354 5.505 8.037 41.575-2.088 8.228-4.747 5.82 5.125.508 2.468-3.037 2.09-8.228-8.038-41.575z" fill="#b32e30"/><g fill="#ee3338"><path d="M225.264 100.917c-.76-.823-1.646-1.139-2.72-1.139-1.077 0-2.026.315-2.786 1.14a3.78 3.78 0 00-1.139 2.72c0 1.076.38 2.025 1.14 2.784.76.76 1.708 1.14 2.784 1.14 1.074 0 1.961-.38 2.721-1.14.76-.759 1.202-1.708 1.202-2.784 0-1.012-.442-1.962-1.202-2.72zm-.697.697c.506.57.822 1.202.822 2.024 0 .821-.316 1.52-.822 2.088-.569.57-1.266.823-2.024.823-.76 0-1.456-.253-2.025-.823-.569-.569-.823-1.267-.823-2.088 0-.822.254-1.455.823-2.024.57-.57 1.265-.823 2.025-.823s1.455.252 2.024.823z"/><path d="M221.782 103.954h.635l.948 1.71h1.076l-1.076-1.71c.822-.064 1.202-.507 1.202-1.202 0-.569-.126-.887-.507-1.139l-1.139-.19h-2.024v4.24h.885zm1.647-.885l-.443.063h-1.203v-.949h.95c.57 0 .885.126.885.443z"/></g></svg>