<svg version="1.1" id="Layer_1" xmlns="http://www.w3.org/2000/svg" xmlns:xlink="http://www.w3.org/1999/xlink" x="0px" y="0px" viewBox="0 0 246.6 247.8" style="enable-background:new 0 0 246.6 247.8;" xml:space="preserve">
 <style type="text/css">
  .st0{fill:#FFFFFF;}
	.st1{fill-rule:evenodd;clip-rule:evenodd;fill:#FFFFFF;}
	.st2{fill-rule:evenodd;clip-rule:evenodd;fill:url(#SVGID_1_);}
	.st3{fill:#EA0029;}
	.st4{fill:#393839;}
	.st5{fill-rule:evenodd;clip-rule:evenodd;fill:url(#SVGID_2_);}
	.st6{fill:url(#SVGID_3_);}
	.st7{fill-rule:evenodd;clip-rule:evenodd;fill:#EA0029;}
 </style>
 <g>
  <g id="Layer_2_1_">
   <g id="Layer_1-2">
    <circle class="st0" cx="123.3" cy="124.5" r="123.3">
    </circle>
    <path class="st1" d="M123.3,224.4C67.7,224.5,22.6,179.5,22.5,124S67.4,23.2,122.9,23.1S223.6,68,223.7,123.5c0,0.1,0,0.1,0,0.2
				C223.8,179.3,178.8,224.3,123.3,224.4L123.3,224.4z">
    </path>
    <radialGradient id="SVGID_1_" cx="123.3" cy="43.7578" r="83.3264" gradientTransform="matrix(1 0 0 1 0 80)" gradientUnits="userSpaceOnUse">
     <stop offset="0.52" style="stop-color:#FFF100">
     </stop>
     <stop offset="0.79" style="stop-color:#FFEF00">
     </stop>
     <stop offset="0.89" style="stop-color:#FFE800">
     </stop>
     <stop offset="0.96" style="stop-color:#FFDD00">
     </stop>
     <stop offset="1" style="stop-color:#FFD000">
     </stop>
    </radialGradient>
    <path class="st2" d="M123.3,206.6c-46.3,0-83.8-37.1-83.8-82.8s37.6-82.9,83.8-82.9s83.8,37.1,83.8,82.8S169.6,206.6,123.3,206.6
				z">
    </path>
    <path class="st3" d="M101.1,182.4c0.2-1.3-1.2-2-0.9-3.6c-14.7-5.1-27.8,0.8-39.4,17.7c6.4,4.8,13.5,8.8,20.9,11.9l34.8,12.4
				c12,4.2,47.2-7.5,48.5-8.1c1.7-0.8-0.8-9.8,2.2-12.1c-4.3-2.6-20.4-23.1-40.1-21.8c-1,2.2-1.8,4.4-2.4,6.7
				C115.5,193.8,103.5,186.6,101.1,182.4z">
    </path>
    <path class="st4" d="M199.6,48.3C157.3,6.6,89.3,6.6,47,48.3c-41.7,41-42.3,108.1-1.2,149.8c0.4,0.4,0.8,0.8,1.2,1.2
				c42.3,41.7,110.3,41.7,152.6,0c41.7-41,42.2-108.1,1.2-149.8C200.4,49.1,200,48.7,199.6,48.3z M123.3,216.2
				c-24.8,0-48.6-9.7-66.2-27.1C21,153.7,20.4,95.8,55.8,59.7c0.4-0.4,0.9-0.9,1.3-1.3c36.7-36.2,95.7-36.2,132.4,0
				c36.1,35.4,36.7,93.3,1.3,129.4c-0.4,0.4-0.9,0.9-1.3,1.3C171.9,206.5,148.1,216.3,123.3,216.2z">
    </path>
    <radialGradient id="SVGID_2_" cx="150.5025" cy="-4.3737" r="80.2291" gradientTransform="matrix(0.9946 -0.1037 0.1037 0.9946 -22.8939 117.1705)" gradientUnits="userSpaceOnUse">
     <stop offset="0.33" style="stop-color:#FFDCAB">
     </stop>
     <stop offset="0.48" style="stop-color:#FDD2A1">
     </stop>
     <stop offset="0.72" style="stop-color:#F8B887">
     </stop>
     <stop offset="0.84" style="stop-color:#F5A978">
     </stop>
    </radialGradient>
    <path class="st5" d="M157.6,13.3l7.6,26l-0.3,10.8l3.3,4.6l3.5,9l-1.1,7.3l-1.1,4.6l-3.8,6.4l8.2-1.6l6.6,2.8l3.6,10.3l8.1,4.3
				l1.7,16.2l-9.5,13.6l-8.6,11.6l-12.1,25.1l-12.5,7.1l-18.1,1l-4.1,7.9l-5.5,8.7l-8.8,2.6l-8.2-5l-4.3-6.3l-4.6-19.1l-7.4-14.4
				l-11.9-2.3l-4.4-1.6l-7.7-11.6l-3.1-9.5l0.7-11l2.8-9.2l9-7.9c0,0,7.3-1.7,8-1.5s11.1,6.1,11.1,6.1l7.3,12.5l0.5-6.3l-3-12.8
				l-2.4-22.6l0.9-6.9l-7.3-0.9l7.4-9.9c0,0,10.6-7.9,11-8.8s18.7-11,18.7-11l21.8-30l32.9,22.1L160.7,25">
    </path>
    <polygon class="st1" points="170,73.5 171.5,70.4 171.2,64.6 168.9,56.2 165.3,50.9 162.6,49.6 158.1,55.7 156.9,62.3 
				157.6,68.5 163.5,65.6 167.7,73.6 			">
    </polygon>
    <polyline class="st1" points="149,85.1 149.3,74.5 144.3,61.8 138.4,56.6 135.4,57.8 132,63 130.6,73.9 134,81.7 136.9,78.2 
				143.8,80 147.6,86.9 149.9,84.5 			">
    </polyline>
    <radialGradient id="SVGID_3_" cx="140.5866" cy="-19.901" r="75.2433" gradientTransform="matrix(0.9946 -0.1037 0.1037 0.9946 -22.8939 117.1705)" gradientUnits="userSpaceOnUse">
     <stop offset="0.58" style="stop-color:#FFF100">
     </stop>
     <stop offset="1" style="stop-color:#FFC90A">
     </stop>
    </radialGradient>
    <path class="st6" d="M96.5,161l-27.6-5.3l-12.1-9l-11.7-22.4l-4-29.7l2.5-27.3l-5.5-10.4l-2.2-16.1l6.2,3.8l4.8-7.5l9,10.5
				l25.9-20.3l15.9-10.6l29.6-11.5l26.5-1.4l15.8,6l9.5,7.7l5.1,10.9l-9.1-2.3l-21,0.1l-32.3,7.6l-18.7,11.3l-9,10.3
				c0,0-7.7,10.6-8.4,10.7s10.6-3.4,10.6-3.4l1.5,7.3l2.3,26.6l2.1,11.4L92,97.6l-11.9-6.7l-9.5,5.2l-9,18.4l6.6,25.2l12.9,7.7
				l9-0.7L96.5,161z">
    </path>
    <path class="st4" d="M185.3,92.1c2.7-7.7-5.8-16.5-15.6-12.7c-0.5,0.2-1,0.4-1.5,0.6l0.1-0.1c7.1-8.7,3.6-22.7-1.1-28.4
				c-0.4-1.9-0.1-3.9,0.8-5.6l0.2,0.1c4.1-1,1.6-6.2-0.2-6.6c-0.6-0.1-1.3-0.2-1.9-0.3c-1.7-3.1-2.2-8.9-2.4-11
				c11.2,0.3,19.6,2.9,22.4,5.5c-1.2-20.2-28.5-45.3-72.5-27.6C78.9,19.8,57.3,43.5,56.1,44.2c-0.4-0.5-6.8-6.9-6.8-12.9L42,40.6
				l-8-4.9c-2.5,14.1,6.7,32.8,6.8,32.9c-4.3,21.1-3.2,38.3,1.1,53.3c6.8,23.6,27.2,41.2,51.8,42.9c0.7,0.1,1.5,0.1,2.2,0.1L96,165
				c0.7,2.8,1.6,6.4,2.6,10.1c-14.4-2.2-28.5,4.7-41.3,18.7c0.6,0.6,1.3,1.2,2,1.7c1,0.9,2.2,1.8,3.3,2.7c11-16,23.4-22.1,37.1-18.4
				c0.3,1.3,0.6,2.5,0.8,3.8c4.2,10.5,21.1,17.4,29.7,0.2c1.8-0.5,11.1,0.6,21.1,6.4c6.8,4,11,15.5,13.3,22c2.3,6.7,7.9-3.5,7.9-3.5
				s-6.9-16.1-19.6-23c-6.5-3.7-13.6-6.2-20.9-7.4c0.6-1.4,1.5-2.7,2.4-3.9c20.2,6.2,29.6-4.7,31.8-8.7c4.4-8.9,9.7-23.9,16.4-30.6
				c7.2-7.3,12.8-17.8,13.9-25.5C197.5,102,193.6,91.7,185.3,92.1z M170.1,71.8c-0.7-11.5-8.9-13.6-11.7-6.3
				c-0.1-4.2,1.1-13.4,4.3-14.5C165.5,50.2,171.4,61.2,170.1,71.8L170.1,71.8z M48.8,65.8c0.2-0.3-10.2-7.5-11-21.8
				c2.4,3.2,4.8,6.2,6.7,7.5c0.2-4.7,2.7-9.4,2.8-10.3c1.4,4.8,4.6,10.1,8,12c0.6-1,17.1-22.7,51.9-37.8c50.1-19.3,69-1.6,73.7,10.1
				c-12.2-3.5-39.5-2.6-64.8,10.5C93.3,47.7,77.7,71.3,73.9,77c5-3.7,13.1-6.8,21.5-9.5c-2,16.6,2.9,31.2,5.1,37.8
				c-2-6-9.2-17.7-23.9-14.3c-2.3,0.5-12.1,5.8-15.1,18.6c-3.4,14.8,3.1,26.7,7,31.7c7.8,10.3,17.3,8.4,19.8,9.1l4.5,8.2
				C42.4,153.6,37.7,103.4,48.8,65.8L48.8,65.8z M192.2,109.3c-1.4,6.5-7.1,14.4-16.9,27.2c-4.5,9.7-7.5,15.8-8.8,18.5
				s-2.2,4.3-2.5,4.8c-6.7,10.4-19.5,13.8-38.9,8.4c0,0,0,1.8,4.9,4.3c-2.7,3.5-4.4,7.8-4.8,12.2c-6.4,6.5-17.8,4.2-20.3-3.1
				c-0.2-4.6-0.4-5.7-0.5-10.3c0.2-2.9,2-2.6,4.2-3.4c1.3-0.7,2.6-1.5,3.7-2.5c-13.8-3.8-19-12-21.5-21.4
				c-4.5,3.5-17.6,0.4-24.2-19.1c-3.8-11.9,4-30.3,14.1-29.9c12.7,0.9,17.2,11.7,19.2,18.1c2.6,0,4.2,0.4,6.8-1.9
				c-4.4-10.8-5.9-21.8-7-31.5c-1.1-8.8,1.7-17.5,4.9-24c-3.2,0.9-6.3,2.2-9.3,3.7C111,39.9,134.7,28.3,159.8,28
				c0.5,2.5,1.9,8.6,3,11.1c-7.5,1.3-9.2,9.4-9.3,10.7c1.7-1,4.8-4.5,10.6-4.5c0.1,1.2,0.1,2.5,0,3.7c-0.8-0.2-1.7,0-2.3,0.5
				c-10.5,8.6-6,26.2-2.3,30.4c0.8,0.9,1.8,1.6,2.9,1.9c-1.4,0.6-2.8,1.4-4,2.3c-2,1.2-0.8,3.7,0.6,4.9c2.8-1.9,5.7-3.6,8.8-5.1
				c4.3-2,9.5-2.9,11.8,2.7c1.6,3.8-1.3,7.9-4.1,9.8c-5.8,3.7-9.6,6-9.6,6s0.2,1.8,4.3,1.6l3.1-1.6l6,9.1
				c-21.2,18.5-39.8,20.6-56.9,14.3c0.1-2.7,3.6-5.1,2.6-5.4s-2.1,0.1-3.6,1.3c-1.6,1.3-2.9,3.1-3.7,5c-0.9,1.9-1.3,3.9-1.1,6
				c0.6,2.2,4.5-1.7,4.8-3.4c6.1,3.9,9.7,25.9,27.5,27.2c4.4,0.1,9.7-3,12.7-10.3c2.8-6.8,10.8-26.9,21.8-35.2l-6.6-11l5.3-3.2
				c0.1-0.1,0.3-0.1,0.4-0.1c3.7-0.7,6.4,0,8.3,2.9C192.2,101.6,193,105.7,192.2,109.3L192.2,109.3z M136.3,94.9
				c3.3,1.7,11.3,1.6,12.8,0c6-13.6-3.1-44.1-14.3-37.7C125,65.4,129.2,88.3,136.3,94.9z M136.7,58.7c5-0.2,11.1,10,11.6,24.4
				c-2.4-13.1-11.8-13.6-14.8-6.3C132.1,69.9,132.8,60,136.7,58.7L136.7,58.7z M89.5,80.9l0.6-6.5c-8.1,2-15.7,5.7-22.3,10.8
				C81.9,79.9,89.5,80.9,89.5,80.9z M79.5,106.8c-4.4,3.3-4.3,15.2-2.3,23.7c2.5-2.1,0.3-8.7,4-10.1c0.2,0.6,4.1,5.9,5,5.1
				C84.5,120.1,84.6,108.4,79.5,106.8L79.5,106.8z M86.9,195.5c-2.5,2-7.7,12.9-6,15.2s9.7,11.4,16,6.6
				C88.7,211.8,86.6,201.3,86.9,195.5L86.9,195.5z">
    </path>
    <g id="tongue_teeth">
     <path class="st7" d="M131.9,140.1c0,0,6.5-0.7,10.7,0.8c3.1,1.1,7.7,4.2,8.8,7.2c0.7-3.4-5.5-7-5.5-7s9.9,0.5,10.9,4.1
					c0.8,3-3.8,8.2-10.6,6.3C135.2,148.1,131.9,140.1,131.9,140.1z">
     </path>
     <path class="st0" d="M162.4,132.9l2.6-5.9c-7.6,4.2-20.3,5.7-32.6,4.3l3.5,2.5C146.2,136.6,155.5,136.1,162.4,132.9z">
     </path>
    </g>
    <path class="st1" d="M133.6,11.8c14.8-1.6,24.4-1.6,37.4,6.7c-23.3-2.9-42.9,3.5-52,10.9c-5.9-0.6-11.1-0.2-22.1,3.8
				c9.9-9.4,25.7-13,25.7-13s-2.8-2.3-16.4,0.4C107.7,19.1,119.2,13.4,133.6,11.8z">
    </path>
    <path class="st1" d="M64.1,144.8C62,144.3,36.7,118.6,51.4,79c-1.3,5.7-0.7,15.7-0.7,15.7l6.2-0.4
				C51.5,111.3,54.1,129.9,64.1,144.8z">
    </path>
    <path class="st4" d="M140.4,46c-1.3-1-2.9-1.5-4.5-1.5c-4,0-8.7,2.8-11.8,6.9c-1.9,3-2.3,6.7-1,10l0.6,1.3l0.5-1.3
				c0,0,2.2-5.6,8-6.8c5.2-0.8,8.7-2.8,9.4-5.3C141.9,48,141.4,46.7,140.4,46z">
    </path>
    <path class="st4" d="M143.6,83.6c0.4,3.9-1.2,7.3-3.6,7.5s-4.6-2.8-4.9-6.7s1.2-7.3,3.6-7.5S143.3,79.7,143.6,83.6z">
    </path>
    <path class="st4" d="M166.1,72.3c0.4,3.8-1,7.1-3.2,7.3s-4.1-2.7-4.5-6.6s1-7.1,3.2-7.3S165.7,68.5,166.1,72.3z">
    </path>
    <g id="l_eye">
     <path class="st0" d="M137.4,82.1c-0.2,1-0.2,2.1,0,3.1s0.5,2.1,0.9,3c0.4,0.8,0.8,1.2,1.2,1.1s0.7-0.5,0.8-1.4
					c0.2-1.1,0.1-2.1-0.1-3.2c-0.1-1-0.4-2.1-0.9-3c-0.4-0.8-0.8-1.1-1.2-1.1S137.6,81.2,137.4,82.1z">
     </path>
    </g>
    <g id="r_eye">
     <path class="st0" d="M161.1,71.4c-0.1,0.8-0.1,1.6,0,2.5s0.4,1.7,0.8,2.4c0.3,0.6,0.6,1,1,0.8s0.5-0.4,0.7-1.1
					c0.1-0.8,0.1-1.7-0.1-2.5c-0.1-0.8-0.4-1.6-0.7-2.4c-0.4-0.6-0.6-1-1-0.8S161.2,70.6,161.1,71.4z">
     </path>
    </g>
    <path class="st4" d="M144.2,85.3c0.4,3.9-1.2,7.3-3.6,7.5s-4.6-2.8-4.9-6.7s1.2-7.3,3.6-7.5S143.8,81.4,144.2,85.3z">
    </path>
    <path class="st4" d="M166.6,74c0.4,3.8-1.1,7.1-3.2,7.3s-4.1-2.7-4.5-6.6s1.1-7.1,3.2-7.3S166.3,70.2,166.6,74z">
    </path>
    <g id="l_eye-2">
     <path class="st0" d="M138,83.8c-0.2,1-0.2,2.1,0,3.1s0.5,2,0.9,3c0.4,0.8,0.9,1.2,1.3,1.1s0.7-0.6,0.8-1.4
					c0.2-1,0.1-2.1-0.1-3.1c-0.1-1-0.4-2.1-0.9-3c-0.4-0.8-0.8-1.1-1.2-1.1S138.1,82.9,138,83.8z">
     </path>
    </g>
    <g id="r_eye-2">
     <path class="st0" d="M161.7,73.1c-0.1,0.8-0.1,1.6,0,2.5c0.1,0.8,0.4,1.7,0.8,2.4c0.3,0.6,0.6,1,1,0.9s0.5-0.4,0.7-1.2
					c0.1-0.8,0.1-1.7-0.1-2.5c-0.1-0.8-0.4-1.6-0.7-2.4c-0.4-0.6-0.6-1-1-0.9S161.8,72.4,161.7,73.1z">
     </path>
    </g>
   </g>
  </g>
 </g>
</svg>