<?xml version="1.0" encoding="UTF-8"?>
<!-- Generator: Adobe Illustrator 24.1.0, SVG Export Plug-In . SVG Version: 6.00 Build 0)  -->
<svg version="1.1" id="Layer_1" xmlns="http://www.w3.org/2000/svg" xmlns:xlink="http://www.w3.org/1999/xlink" x="0px" y="0px" viewBox="0 0 89.901001 89.8999634" enable-background="new 0 0 89.901001 89.8999634" xml:space="preserve">
<g>
	<path fill="#FFFFFF" d="M89.901001,44.9499512c0,24.8250122-20.125,44.9500122-44.9500122,44.9500122   C20.125,89.8999634,0,69.7749634,0,44.9499512C0,20.125,20.125,0,44.9509888,0C69.776001,0,89.901001,20.125,89.901001,44.9499512"/>
	<path d="M87.37677,44.9499512c0,23.4310303-18.9940186,42.4260254-42.4260254,42.4260254   c-23.4310303,0-42.4259949-18.9949951-42.4259949-42.4260254c0-23.4309692,18.9949646-42.4259644,42.4259949-42.4259644   C68.3827515,2.5239868,87.37677,21.5189819,87.37677,44.9499512"/>
	<path d="M76.7570801,85.9605103c-1.15802,0-2.0169678-0.8899536-2.0169678-2.0169678   c0-1.1170044,0.8589478-2.0170288,2.0169678-2.0170288c1.1589966,0,2.0180054,0.9000244,2.0180054,2.0170288   C78.7750854,85.0705566,77.9160767,85.9605103,76.7570801,85.9605103 M76.7570801,82.2375488   c-0.9869995,0-1.6849976,0.7509766-1.6849976,1.7059937c0,0.9439697,0.697998,1.7059937,1.6849976,1.7059937   c0.9979858,0,1.6740112-0.7620239,1.6740112-1.7059937C78.4310913,82.9885254,77.7550659,82.2375488,76.7570801,82.2375488    M77.368103,84.9515381c-0.1920166,0-0.2999878-0.1290283-0.2999878-0.3220215v-0.2030029   c0-0.1289673-0.0750122-0.2469482-0.2460327-0.2469482h-0.3540039v0.7619629H75.920105v-1.9749756h1.0189819   c0.4509888,0,0.6560059,0.2470093,0.6560059,0.5579834v0.0219727c0,0.2040405-0.0759888,0.375-0.3330078,0.4400024   c0.2789917,0.0310059,0.3330078,0.2250366,0.3330078,0.4400024v0.1820068c0,0.0859985,0.0419922,0.1500244,0.1489868,0.1929932   v0.1500244H77.368103z M77.0471191,83.5675049c0-0.1279907-0.0860596-0.2039795-0.2470093-0.2039795h-0.3320313v0.4730225   h0.3220215c0.1610107,0,0.257019-0.0540161,0.257019-0.2150269V83.5675049z"/>
	<path fill="#FFFFFF" d="M47.5825195,37.5113525h3.5449829v13.382019c0,3.1340332-0.842041,3.2709961-1.4580078,3.3699951   c-0.1040039,0.0170288-0.2260132,0.0250244-0.3640137,0.0250244c-0.8850098,0-1.9500122-0.3320313-1.960022-0.3359985   l-1.6039429-0.5090332l-0.0010376,9.4020386l0.7650146,0.3129883c0.1489868,0.0609741,3.7059937,1.4979858,7.0219727,1.4979858   c3.6780396,0,5.6470337-0.7260132,7.8010254-2.8809814c2.6489868-2.6489868,3.0059814-6.3729858,3.0059814-9.6660156V27.5893555   H47.5825195V37.5113525z"/>
	<path fill="#FFFFFF" d="M27.5067139,37.5113525h3.5449829v13.382019c0,3.1340332-0.8430176,3.2709961-1.4580078,3.3699951   c-0.1040039,0.0170288-0.2260132,0.0250244-0.3640137,0.0250244c-0.7399902,0-1.6859741-0.2490234-1.960022-0.3359985   l-1.6049805-0.5130005v9.4060059l0.7650146,0.3120117c0.1489868,0.0619507,3.7000122,1.4989624,7.0219727,1.4989624   c3.6780396,0,5.6470337-0.7260132,7.8010254-2.8809814c2.6489868-2.6489868,3.0059814-6.3729858,3.0059814-9.6660156V27.5893555   H27.5067139V37.5113525z"/>
	<path fill="#FFFFFF" d="M57.8589478,11.0172729c-2.335022-0.8599854-4.1610107,0.3339844-4.8170166,2.0740356   c-0.6129761,1.6279907,0.0490112,3.5829468,2.3850098,4.4449463c2.3280029,0.8790283,4.0800171-0.1759644,4.7120361-1.7959595   C60.8099365,14.0213013,60.1879272,11.8972778,57.8589478,11.0172729 M55.9589844,16.1092529   c-0.7130127-0.2639771-0.6050415-0.980957-0.1710205-2.1429443c0.4329834-1.15802,0.8250122-1.7860107,1.5390015-1.5220337   c0.7119751,0.2680054,0.5979614,0.9990234,0.164978,2.1589966C57.0579834,15.7642822,56.6709595,16.3772583,55.9589844,16.1092529"/>
	<path fill="#FFFFFF" d="M73.3839111,37.1172485c0.3779907,1.1890259,1.4159546,1.8310547,2.5079956,1.467041   c0.6040039-0.2020264,1.0379639-0.6730347,1.2219849-1.0159912c0.3319702-0.6140137,0.4420166-1.4130249,0.5130005-2.0490112   c0.0449829-0.3980103,0.0750122-0.7120361,0.151001-0.8670044c0.0469971-0.0969849,0.1519775-0.1859741,0.2609863-0.2219849   c0.2630005-0.0880127,0.4940186,0.0490112,0.5980225,0.3579712c0.1459961,0.434021,0.0180054,0.8030396-0.3909912,1.1569824   c-0.0200195,0.0150146-0.0400391,0.0300293-0.0600586,0.0450439c0.1420288,0.4679565,0.2740479,0.9400024,0.3960571,1.4140015   c0.5869751-0.1960449,1.1999512-0.3920288,1.7869873-0.5889893c-0.1210327-0.4710083-0.2670288-0.934021-0.4200439-1.4040527   l-0.3659668,0.1220093c-0.0209961,0.007019-0.0419922,0.0140381-0.0629883,0.0209961   c0.0089722-0.0209961,0.0169678-0.0419922,0.0249634-0.0620117c0.1920166-0.4759521,0.2000122-1.0339966,0.0120239-1.565979   c-0.4169922-1.1779785-1.5079956-1.6969604-2.6210327-1.3250122c-0.506958,0.1690063-0.848999,0.4850464-1.0869751,1.0010376   c-0.2310181,0.5029907-0.2579956,1.0939941-0.2940063,1.6189575c-0.0280151,0.4160156-0.05896,0.7780151-0.18396,1.026001   c-0.0820313,0.1620483-0.1680298,0.243042-0.3060303,0.2900391c-0.2700195,0.0899658-0.5109863-0.0650024-0.6220093-0.3930054   c-0.164978-0.4899902-0.0029907-0.8939819,0.5029907-1.2869873c-0.1709595-0.4590454-0.3349609-0.9050293-0.492981-1.3699951   c-0.664978,0.2219849-1.3120117,0.4359741-1.9780273,0.657959c0.1930542,0.4570313,0.3870239,0.8980103,0.5550537,1.3510132   c0.131958-0.0440063,0.1629639-0.0579834,0.2949829-0.1019897c0.0200195-0.0059814,0.0390015-0.0130005,0.059021-0.0200195   c-0.0060425,0.0200195-0.0120239,0.0390015-0.0180054,0.059021C73.2078857,35.9602661,73.2158813,36.5892944,73.3839111,37.1172485   "/>
	<path fill="#FFFFFF" d="M76.2401733,31.3814087c0.6239624-0.2949829,1.2799683-0.6029663,1.9039917-0.8989868   c-0.3650513-0.8150024-0.7410278-1.572998-1.1260376-2.3129883c-0.5559692,0.2630005-1.0839844,0.5130005-1.6409912,0.776001   c0.1569824,0.302002,0.4390259,0.901001,0.4490356,0.9210205c-0.0210571,0.0109863-0.0410156,0.0209961-0.0620117,0.0310059   c-0.40802,0.1939697-0.5650024,0.1529541-0.7360229,0.0960083c-0.2160034-0.0710449-0.3779907-0.2840576-0.5750122-0.6120605   c-0.282959,0.1340332-0.565979,0.2680054-0.848999,0.401001c0.0430298,0.0910034,0.1149902,0.2320557,0.2020264,0.3950195   C74.4411621,31.3734131,75.2471313,31.8504639,76.2401733,31.3814087"/>
	<path fill="#FFFFFF" d="M55.2415161,75.4417114c-0.0270386-0.0959473-0.0550537-0.2059937-0.0830078-0.3019409   c0.3449707-0.1130371,0.6879883-0.2320557,1.0289917-0.3560181c0.1499634,0.5289917,0.302002,1.072998,0.4530029,1.6029663   c-0.3530273,0.1300049-0.7090454,0.2530518-1.0670166,0.3690186c-0.2520142-0.3740234-0.5800171-0.5059814-0.9190063-0.4049683   c-0.4860229,0.1429443-0.5869751,0.6159668-0.3610229,1.4119873c0.2410278,0.8449707,0.5780029,1.1779785,1.0840454,1.0289917   c0.43396-0.1290283,0.5939941-0.5200195,0.5249634-1.2260132c0.4100342,0.0130005,0.8179932,0.0189819,1.2230225,0.0170288   c0.0549927,1.2099609-0.5230103,1.9559937-1.6820068,2.2940063c-1.559021,0.4449463-2.6989746-0.375-3.0750122-1.6950073   c-0.367981-1.2910156,0.3250122-2.4070435,1.53302-2.7449951C54.3834839,75.3017578,54.8594971,75.2937622,55.2415161,75.4417114"/>
	<path fill="#FFFFFF" d="M69.7440186,65.3118286c-0.0710449-0.0639648-0.1790161-0.1629639-0.25-0.2269897   c0.2229614-0.2649536,0.4399414-0.5359497,0.6509399-0.8119507c0.3280029,0.2909546,0.6920166,0.617981,1.019043,0.907959   c-0.2109985,0.2750244-0.4280396,0.5460205-0.6520386,0.8120117c-0.3139648-0.1329956-0.6129761-0.1160278-0.8429565,0.1439819   c-0.1409912,0.1570435-0.1470337,0.3240356-0.019043,0.4370117c0.2030029,0.1799927,0.4060059,0.0239868,0.8990479-0.1849976   c0.1189575-0.0499878,0.2359619-0.0999756,0.3519897-0.1519775c0.6719971-0.2950439,1.3049927-0.3770142,1.8449707,0.1009521   c0.5790405,0.5140381,0.6680298,1.4450073,0.0950317,2.1100464c-0.2479858,0.289978-0.6390381,0.5059814-1.0180054,0.5799561   c0.0759888,0.0680542,0.1519775,0.1370239,0.2290039,0.2060547c-0.2290039,0.2539673-0.4559937,0.5169678-0.7020264,0.7679443   c-0.3699951-0.3279419-0.7709961-0.6869507-1.1400146-1.0139771c0.25-0.2420044,0.4940186-0.4879761,0.7330322-0.7399902   c0.4179688,0.1790161,0.7000122,0.1380005,0.9309692-0.1199951c0.1500244-0.1680298,0.1610107-0.3480225,0.019043-0.4750366   c-0.1380005-0.1219482-0.3500366-0.1009521-0.7709961,0.0900269c-0.1030273,0.0479736-0.2080078,0.0939941-0.3130493,0.1400146   c-0.7599487,0.3359985-1.4589844,0.3880005-1.9919434-0.085022c-0.6119995-0.5419922-0.5900269-1.3120117-0.0100098-1.9439697   C69.0780029,65.5578613,69.401001,65.3708496,69.7440186,65.3118286"/>
	<path fill="#FFFFFF" d="M20.9873047,66.2575073c0.0739746-0.0599976,0.1899414-0.1509399,0.2629395-0.2109985   c0.2270508,0.2620239,0.460022,0.5200195,0.6990356,0.7730103c-0.3389893,0.2770386-0.7200317,0.5840454-1.059021,0.8610229   c-0.2379761-0.2529907-0.4710083-0.5100098-0.697998-0.7730103c0.1820068-0.2890015,0.2120361-0.5859985-0.006958-0.8549805   c-0.1330566-0.1640015-0.2980347-0.1970215-0.4290161-0.0889893c-0.210022,0.1709595-0.0880127,0.3979492,0.0390015,0.9169922   c0.0310059,0.125,0.0620117,0.2489624,0.0939941,0.3709717c0.184021,0.7109985,0.164978,1.348999-0.3930054,1.8060303   c-0.598999,0.4899902-1.53302,0.4299927-2.0980225-0.2420044c-0.2470093-0.2910156-0.3980103-0.7109985-0.4099731-1.0969849   c-0.0789795,0.0639648-0.1610107,0.1279907-0.2390137,0.1929932c-0.2160034-0.2660522-0.4400024-0.5320435-0.6480103-0.8150024   c0.382019-0.3130493,0.8010254-0.651001,1.1830444-0.9640503c0.1989746,0.2850342,0.4029541,0.5650024,0.6139526,0.8410034   c-0.2439575,0.3850098-0.2489624,0.6690063-0.0299683,0.9390259c0.1409912,0.1740112,0.3179932,0.2139893,0.4649658,0.0939941   c0.1430054-0.1170044,0.1560059-0.3300171,0.0339966-0.7749634c-0.0299683-0.1100464-0.05896-0.2210083-0.0879517-0.3320313   c-0.2109985-0.8040161-0.1500244-1.5020142,0.401001-1.9530029c0.6329956-0.5169678,1.3889771-0.3740234,1.9209595,0.2990112   C20.8502808,65.5615234,20.9832764,65.9095459,20.9873047,66.2575073"/>
	<path fill="#FFFFFF" d="M23.427063,68.4230347c-0.2340088,0.276001-0.4450073,0.5239868-0.6799927,0.8010254   c0.0889893,0.0829468,0.1920166,0.1749878,0.2819824,0.2579956c-0.71698,0.4049683-1.5299683,0.8509521-2.2420044,1.25   c-0.0849609-0.0780029-0.1489868-0.144043-0.2229614-0.223999c-0.2340088,0.276001-0.4169922,0.5009766-0.651001,0.7769775   c0.4190063,0.4140015,0.8540039,0.8049927,1.2849731,1.1859741l0.6110229-0.7259521c0,0-0.092041-0.0840454-0.1420288-0.1300049   c-0.052002-0.0490112-0.1350098-0.1280518-0.1350098-0.1280518l0.5079956-0.2889404l0.9880371,0.8309937l-0.2330322,0.5440063   c0,0-0.2399902-0.1950073-0.3099976-0.257019c-0.0939941,0.1099854-0.5039673,0.5999756-0.6109619,0.7269897l-0.0010376,0.0009766   c0.592041,0.4869995,1.197998,0.9570313,1.8210449,1.4070435c0.2339478-0.276001,0.4219971-0.5029907,0.6560059-0.7800293   c-0.0950317-0.0650024-0.1670532-0.1190186-0.257019-0.1849976c0.2739868-0.7700195,0.5780029-1.6190186,0.8579712-2.3939819   c0.0960083,0.0750122,0.2090454,0.1610107,0.3060303,0.2349854c0.2340088-0.276001,0.447998-0.5269775,0.6820068-0.8029785   C25.0750732,69.8640137,24.2190552,69.1690063,23.427063,68.4230347 M23.2510986,71.4869995l-0.7180176-0.6069946   l1.2219849-0.7439575l0.0640259,0.0559692L23.2510986,71.4869995z"/>
	<path fill="#FFFFFF" d="M29.5177002,72.8425293c0.1039429,0.9620361,0.2129517,1.9110107,0.3289795,2.8500366   c0.0039673,0.0009766,0.0079956,0.0029907,0.0119629,0.0050049c0.2030029-0.375,0.4200439-0.7650146,0.625-1.1400146   c-0.117981-0.0540161-0.2589722-0.1190186-0.3759766-0.1859741c0.1719971-0.3190308,0.3389893-0.6140137,0.5139771-0.9330444   c0.5410156,0.2700195,1.0380249,0.5090332,1.6540527,0.7810059c-0.1730347,0.3179932-0.342041,0.6190186-0.5170288,0.9360352   c-0.125-0.0510254-0.2349854-0.0960083-0.3549805-0.151001c-0.56604,1.026001-1.1050415,2.006958-1.6710205,3.0349731   c-0.4660034-0.2089844-0.9500122-0.427002-1.3380127-0.6419678c-0.1269531-1.0960083-0.2379761-2.1430054-0.3479614-3.2700195   c-0.0040283-0.0020142-0.0150146-0.0090332-0.019043-0.0109863c-0.2559814,0.4660034-0.5419922,0.9829712-0.7989502,1.447998   c0.117981,0.0679932,0.2399902,0.1350098,0.3609619,0.2009888c-0.1749878,0.3170166-0.3129883,0.5689697-0.4890137,0.8870239   c-0.5469971-0.302002-1.1019897-0.6210327-1.6229858-0.9580078c0.2139893-0.3890381,0.3259888-0.5910034,0.492981-0.8959961   c0.1140137,0.0739746,0.2400513,0.1589966,0.3540039,0.2279663c0.3780518-0.6870117,0.802002-1.4530029,1.1730347-2.1289673   c-0.1130371-0.0700073-0.242981-0.1500244-0.3549805-0.2220459c0.1759644-0.3219604,0.3439941-0.6269531,0.5189819-0.9450073   C28.2677002,72.1245728,28.883667,72.4975586,29.5177002,72.8425293"/>
	<path fill="#FFFFFF" d="M36.057373,75.5998535c1.1810303,0.3829956,2.276001,1.2880249,1.7839966,2.8290405   c-0.4379883,1.3719482-1.5449829,1.9660034-3.0669556,1.4899902c-0.8450317-0.2579956-1.7140503-0.5419922-2.5490112-0.8699951   c0.1099854-0.3450317,0.2080078-0.6500244,0.3179932-0.9949951c0.1110229,0.0439453,0.2199707,0.0869751,0.3300171,0.1299438   c0.2389526-0.7489624,0.4969482-1.5429688,0.7359619-2.2919922c-0.1099854-0.0440063-0.2210083-0.0889893-0.3299561-0.1329956   c0.1099854-0.3429565,0.2139893-0.6629639,0.3239746-1.0059814C34.4063721,75.0808716,35.2484131,75.3498535,36.057373,75.5998535    M35.5424194,76.5458374c-0.0900269-0.0289917-0.177002-0.05896-0.2670288-0.0889893   c-0.2490234,0.7800293-0.4949951,1.5360107-0.7440186,2.3150024c0.0900269,0.0310059,0.1810303,0.0610352,0.2709961,0.0900269   c0.5289917,0.1729736,0.9640503,0.0050049,1.2449951-0.8770142C36.333374,77.0898438,36.1193848,76.7328491,35.5424194,76.5458374"/>
	<path fill="#FFFFFF" d="M41.5841675,76.6602173c-0.0240479,0.3610229-0.0460205,0.6890259-0.0700073,1.0500488   c-0.1110229-0.0110474-0.2260132-0.026001-0.3359985-0.0380249c0.131958,0.664978,0.2630005,1.3289795,0.3949585,1.992981   l0.0130005,0.0010376c0.2670288-0.6270142,0.5250244-1.2380371,0.7930298-1.868042   c-0.1140137-0.0089722-0.2180176-0.0199585-0.3300171-0.0309448c0.0239868-0.3619995,0.0469971-0.6930542,0.0709839-1.0540161   c0.6560059,0.0540161,1.3130493,0.0949707,1.9710083,0.1209717c-0.0239868,0.3610229-0.0469971,0.6880493-0.0709839,1.0500488   c-0.1110229-0.0030518-0.2290039-0.0050049-0.3410034-0.0120239c0.1809692,0.65802,0.3690186,1.302002,0.5499878,1.9559937   c0.0050049,0.0009766,0.0090332,0.0009766,0.0130005,0.0009766c0.2219849-0.6419678,0.4440308-1.2909546,0.6650391-1.93396   c-0.1080322-0.0020142-0.217041,0.0029907-0.3260498,0c0.0240479-0.3619995,0.0460205-0.6879883,0.0710449-1.0499878   c0.6900024,0.0039673,1.2229614-0.0270386,1.8319702-0.0460205c-0.0239868,0.3619995-0.0469971,0.6929932-0.0709839,1.0549927   c-0.1010132,0.007019-0.1879883,0.0109863-0.2940063,0.0130005c-0.5090332,1.1599731-1.0310059,2.3439941-1.5390015,3.4920044   c-0.4719849-0.0029907-0.9400024-0.0170288-1.4060059-0.0419922c-0.1630249-0.592041-0.3270264-1.184021-0.4899902-1.7780151   c-0.0040283-0.0009766-0.0090332-0.0009766-0.0130005-0.0009766c-0.2410278,0.5669556-0.4819946,1.1329956-0.7219849,1.6969604   c-0.4770508-0.0379639-0.9620361-0.0929565-1.434021-0.157959c-0.3449707-1.2040405-0.697998-2.447998-1.0419922-3.6640015   c-0.1090088-0.0170288-0.1870117-0.03302-0.2919922-0.0540161c0.0239868-0.3619995,0.0469971-0.6940308,0.0709839-1.0560303   C40.0321655,76.4452515,40.7441406,76.5682373,41.5841675,76.6602173"/>
	<path fill="#FFFFFF" d="M50.5012207,76.3445435c0.0499878,0.3630371,0.0939941,0.6730347,0.1419678,1.0460205   c-0.1370239,0.0300293-0.2719727,0.0449829-0.4119873,0.0679932c0.1049805,0.7770386,0.21698,1.6370239,0.3209839,2.4140015   c0.1400146-0.0239868,0.2720337-0.0459595,0.414978-0.072998c0.0480347,0.3590088,0.0910034,0.6749878,0.1390381,1.0350342   c-0.8610229,0.1539917-1.710022,0.2609863-2.5720215,0.3499756c-0.0490112-0.3599854-0.0880127-0.6679688-0.1359863-1.0269775   c0.1370239-0.0159912,0.2750244-0.0300293,0.4160156-0.0440063c-0.1050415-0.7770386-0.2200317-1.6359863-0.3240356-2.4140015   c-0.1380005,0.0169678-0.2709961,0.0299683-0.4159546,0.0419922c-0.0480347-0.3590088-0.092041-0.684021-0.1400146-1.0430298   C48.8161621,76.6185913,49.6452026,76.496582,50.5012207,76.3445435"/>
	<path fill="#FFFFFF" d="M66.9105835,68.0143433c0.3059692,0.3720093,0.6029663,0.7330322,0.9089966,1.1060181   c-0.2860107,0.2739868-0.5750122,0.5460205-0.8710327,0.8070068c-0.0769653-0.09198-0.1629639-0.1939697-0.2390137-0.2869873   c-0.25,0.2180176-0.5100098,0.4509888-0.7749634,0.6679688c0.1459961,0.1780396,0.3330078,0.4000244,0.4790039,0.5790405   c0.230957-0.1890259,0.4580078-0.382019,0.6820068-0.5770264c0.1949463,0.2360229,0.3889771,0.473999,0.5839844,0.710022   c-0.2250366,0.1959839-0.4520264,0.3889771-0.6820068,0.5769653c0.1560059,0.19104,0.3070068,0.3619995,0.4630127,0.552002   c0.2649536-0.21698,0.5180054-0.4419556,0.7739868-0.6679688c-0.0759888-0.0930176-0.1409912-0.1719971-0.21698-0.2640381   c0.2969971-0.2619629,0.5910034-0.5319824,0.8759766-0.8069458c0.3059692,0.3729858,0.5900269,0.71698,0.8959961,1.0899658   c-1.0510254,0.9899902-2.1560059,1.9210205-3.3099976,2.7750244c-0.2299805-0.2789917-0.4500122-0.5469971-0.6799927-0.8259888   c0.0949707-0.0700073,0.184021-0.1390381,0.2799683-0.210022c-0.4979858-0.6060181-1.0310059-1.2509766-1.5279541-1.8569946   c-0.0960083,0.0689697-0.1900024,0.1389771-0.2870483,0.2059937c-0.2299805-0.2800293-0.43396-0.53302-0.6640015-0.8120117   C64.7945557,69.9234009,65.8575439,68.9993896,66.9105835,68.0143433"/>
	<path fill="#FFFFFF" d="M61.6165771,76.6925049l-0.2330322-0.4309692c-0.065979,0.0339966-0.1409912,0.0739746-0.2069702,0.1079712   L61.121521,76.397522l-0.4019775-0.7449951l0.0570068-0.0289917c0.3079834-0.1599731,0.617981-0.3259888,0.9199829-0.4949951   l0.059021-0.03302l0.3989868,0.7390137c0,0-0.15802,0.0889893-0.2579956,0.1430054l0.5020142,0.9299927   c0.6790161-0.3729858,1.3510132-0.7719727,2.0029907-1.190979c-0.1719971-0.3190308-0.3359985-0.6190186-0.507019-0.9390259   c-0.0979614,0.0629883-0.1900024,0.1220093-0.2879639,0.184021c-0.3720093-0.6890259-0.7910156-1.4650269-1.1640015-2.1560059   c0.1069946-0.065979,0.1889648-0.1229858,0.2860107-0.1900024c-0.1720581-0.3190308-0.3280029-0.6049805-0.5-0.9230347   c-0.651001,0.4190063-1.3120117,0.8370361-1.9900513,1.2110596c0,0,0.4210205,0.7809448,0.4980469,0.9229736l0.2589722-0.1400146   l0.3859863,0.7150269l-0.0559692,0.0310059c-0.3030396,0.1690063-0.6140137,0.3359985-0.9240112,0.4959717l-0.0570068,0.0300293   l-0.3829956-0.7090454c0,0,0.1849976-0.0949707,0.2630005-0.1369629c-0.0759888-0.1409912-0.5020142-0.9299927-0.5020142-0.9299927   c-0.6849976,0.3599854-1.3900146,0.7009888-2.098999,1.0130005c0.1710205,0.3189697,0.3330078,0.6119995,0.5040283,0.9309692   c0.105957-0.0460205,0.2089844-0.09198,0.3150024-0.1389771c0.3709717,0.690979,0.7879639,1.4580078,1.1589966,2.1489868   c-0.1050415,0.0469971-0.2090454,0.0930176-0.3150024,0.1389771c0.1709595,0.3190308,0.3300171,0.6130371,0.5020142,0.9310303   c0.7089844-0.3120117,1.4089966-0.6610107,2.0929565-1.0209961L61.6165771,76.6925049z"/>
	<path fill="#FFFFFF" d="M22.185791,18.786499c0.0079956-0.006958,0.2659912-0.2389526,0.3909912-0.3459473   c-0.3829956-0.3430176-0.7360229-0.6610107-1.1190186-1.0050049c-0.9960327,0.8619995-1.9570313,1.8109741-2.8670044,2.7680054   c0.4039917,0.8139648,0.7789917,1.5650024,1.1900024,2.3859863c0.0120239,0.0239868,0.0239868,0.0479736,0.0360107,0.0709839   c-0.0250244-0.0089722-0.0499878-0.0189819-0.0750122-0.0280151c-0.8540039-0.3269653-1.6350098-0.6239624-2.4819946-0.9439697   c-0.8590088,1.0150146-1.690979,2.0750122-2.4559937,3.1740112c0.3829956,0.3439941,0.7319946,0.6549683,1.1149902,0.9979858   c0.1010132-0.1400146,0.2969971-0.4180298,0.3029785-0.4260254c0.007019,0.0060425,2.6539917,2.3779907,2.6620483,2.3860474   c-0.007019,0.0079956-0.2040405,0.2969971-0.2950439,0.43396c0.3829956,0.3430176,0.7540283,0.677002,1.1370239,1.0200195   c0.4729614-0.7070313,0.9729614-1.3989868,1.4949951-2.0690308c-0.3850098-0.3459473-0.75-0.6739502-1.1340332-1.0180054   c-0.1009521,0.1290283-0.315979,0.4130249-0.3219604,0.4210205c-0.0079956-0.007019-1.7789917-1.5969849-2.6489868-2.3770142   c0.0319824-0.0429688,0.0650024-0.0859985,0.0979614-0.1289673c1.6430054,0.6300049,3.2990112,1.2709961,4.967041,1.9219971   c0.2089844-0.2449951,0.4199829-0.4869995,0.6349487-0.7260132c-0.8369751-1.6029663-1.6569824-3.1900024-2.4689941-4.7689819   c0.0380249-0.0390015,0.0760498-0.0770264,0.1149902-0.1149902c0.8700562,0.7799683,2.6410522,2.3619995,2.6490479,2.3689575   c-0.0079956,0.007019-0.2550049,0.2540283-0.3699951,0.3710327c0.3839722,0.3439941,0.7489624,0.6740112,1.131958,1.0169678   c0.7980347-0.8129883,1.6350098-1.5879517,2.5090332-2.3219604c-0.3829956-0.3439941-0.75-0.6740112-1.1329956-1.0180054   c-0.1270142,0.1049805-0.3920288,0.3330078-0.4000244,0.3410034C24.8407593,21.1645508,22.1937866,18.7935181,22.185791,18.786499"/>
	<path fill="#FFFFFF" d="M33.1953125,12.3799438c0.0099487-0.0029907,0.3339844-0.1279907,0.4899902-0.1809692   c-0.2340088-0.4589844-0.447998-0.882019-0.6820068-1.3410034c-1.2399902,0.4450073-2.4790039,0.9830322-3.6719971,1.5479736   c0.0839844,0.9050293,0.1619873,1.7410278,0.25,2.6550293c0.0029907,0.026001,0.0050049,0.0529785,0.0079956,0.0800171   c-0.0200195-0.019043-0.0400391-0.0360107-0.0599976-0.0540161c-0.6790161-0.6129761-1.3060303-1.1790161-1.9800415-1.78302   c-1.1689453,0.6310425-2.3219604,1.3240356-3.4299927,2.0820313c0.2340088,0.4589844,0.4470215,0.875,0.6799927,1.3339844   c0.1450195-0.0949707,0.4280396-0.28302,0.4360352-0.2890015c0.0050049,0.0090332,1.617981,3.1760254,1.6229858,3.1849976   c-0.0089722,0.0059814-0.2969971,0.2030029-0.4309692,0.2980347c0.2329712,0.4589844,0.4589844,0.9029541,0.6919556,1.3619995   c0.6970215-0.4890137,1.4130249-0.9540405,2.1409912-1.3910522c-0.2349854-0.4609985-0.4569702-0.8999634-0.690979-1.3579712   c-0.1409912,0.0839844-0.4439697,0.2709961-0.4519653,0.276001c-0.0050049-0.0090332-1.0840454-2.1300049-1.6140137-3.1710205   c0.0459595-0.0289917,0.09198-0.0570068,0.1380005-0.0849609c1.3049927,1.1789551,2.6189575,2.3739624,3.940979,3.5829468   c0.2819824-0.1539917,0.5670166-0.3029785,0.8540039-0.4489746c-0.2030029-1.7960205-0.3969727-3.5720215-0.585022-5.3380127   c0.0500488-0.0230103,0.098999-0.0440063,0.1490479-0.065979c0.5310059,1.0410156,1.6119995,3.1560059,1.6170044,3.164978   c-0.0100098,0.0040283-0.3300171,0.1459961-0.4790039,0.2130127c0.2339478,0.4589844,0.4559937,0.8980103,0.6900024,1.3560181   c1.0369873-0.4700317,2.0969849-0.8920288,3.177002-1.2609863c-0.2340088-0.4590454-0.4570313-0.9000244-0.6900024-1.3580322   c-0.1560059,0.0529785-0.4860229,0.1690063-0.4960327,0.1730347C34.81427,15.5559692,33.2002563,12.3899536,33.1953125,12.3799438"/>
	<path fill="#FFFFFF" d="M42.3308716,10.4337158c-0.0860596-0.5099487-0.1630249-0.9729614-0.2460327-1.4819946   c-1.0410156,0.0880127-1.6799927,0.1730347-2.5120239,0.2950439c0.0859985,0.5100098,0.1630249,0.9689941,0.2490234,1.4790039   c0.125-0.0180054,0.3530273-0.0500488,0.4219971-0.0599976c-0.007019,0.0149536-0.6209717,1.5179443-0.6220093,1.5199585   c-0.0109863-0.0149536-1-1.2479858-1.0100098-1.2609863c0.1680298-0.0299683,0.2650146-0.0460205,0.3970337-0.0689697   c-0.0870361-0.5100098-0.1589966-0.9680176-0.2449951-1.4780273c-1.1390381,0.190979-2.257019,0.4299927-3.3829956,0.7210083   c0.0869751,0.5100098,0.1599731,0.973999,0.2470093,1.4840088c0.1439819-0.0360107,0.4189453-0.1069946,0.4239502-0.1090088   c0.0040283,0.0039673,2.0700073,1.9799805,2.0720215,1.9829712c0.0009766,0.0029907,0.1929932,1.1290283,0.1950073,1.1390381   c-0.0100098,0.0029907-0.3519897,0.072998-0.5239868,0.1129761c0.0869751,0.5100098,0.1669922,0.9830322,0.2539673,1.492981   c1.1719971-0.2659912,2.3649902-0.4699707,3.56604-0.6119995c-0.0790405-0.5099487-0.1600342-0.9799805-0.2470093-1.4899902   c-0.1669922,0.019043-0.53302,0.0670166-0.5430298,0.0690308c-0.0020142-0.0109863-0.1879883-1.1340332-0.1889648-1.1370239   c0.0019531-0.0039673,1.2940063-2.5579834,1.2959595-2.5629883C42.1208496,10.4537354,42.1978149,10.4447632,42.3308716,10.4337158   "/>
	<path fill="#FFFFFF" d="M74.8690186,27.387207c0.4239502-0.3219604,0.7889404-0.6049805,1.1949463-0.9189453   c-0.4660034-0.7410278-0.9499512-1.493042-1.4709473-2.2010498c-0.4060059,0.3150024-0.7810059,0.6060181-1.1870117,0.9210205   c0.1049805,0.1430054,0.3169556,0.4500122,0.322998,0.4589844c-0.0079956,0.0060425-1.5390015,1.1929932-1.5469971,1.2000122   c-0.007019-0.0089722-0.0360107-0.0509644-0.0400391-0.0549927c0.0020142-0.0050049,0.8779907-2.7349854,1.2900391-4.0770264   c-0.6380005-0.8119507-1.3070068-1.6019897-2.026001-2.3759766C71,20.6542358,70.6159668,20.9482422,70.2099609,21.2632446   c0.125,0.1369629,0.3930054,0.4309692,0.4000244,0.4389648c-0.0079956,0.0060425-2.8070068,2.1740112-2.815979,2.1810303   c-0.007019-0.0079956-0.2680054-0.2919922-0.401001-0.434021c-0.4060059,0.3150024-0.7880249,0.6110229-1.1950073,0.9260254   c0.6209717,0.6519775,1.2080078,1.3250122,1.7739868,2.0189819c0.4060059-0.3150024,0.7819824-0.6069946,1.1879883-0.9219971   c-0.1199951-0.1480103-0.3739624-0.4539795-0.3809814-0.4619751c0.0079956-0.0060425,1.8829956-1.4609985,1.8909912-1.467041   c0.007019,0.0079956,0.039978,0.0469971,0.0430298,0.0510254c-0.0020142,0.0050049-0.9120483,2.9509888-1.4250488,4.5280151   c0.4260254,0.598999,0.8650513,1.2509766,1.2550049,1.8829956c1.3569946-1.0530396,4.0110474-3.1019897,4.019043-3.1080322   C74.5679932,26.9052124,74.7709961,27.2262573,74.8690186,27.387207"/>
	<path fill="#FFFFFF" d="M14.3344727,28.5901489c0.0189819-0.0379639,0.1989746-0.3699951,0.3049927-0.5459595   c-0.4590454-0.2319946-0.8740234-0.4390259-1.3330078-0.6690063c-0.6170044,1.0999756-1.1650391,2.2059937-1.6870117,3.3659668   c0.4589844,0.2300415,0.8740234,0.44104,1.3330078,0.6710205c0.0739746-0.1820068,0.2509766-0.5620117,0.2550049-0.5709839   c0.0100098,0.0039673,3.1669922,1.5899658,3.177002,1.5949707c-0.0050049,0.0090332-0.1799927,0.3890381-0.2540283,0.5710449   c0.4580078,0.2299805,0.9020386,0.4539795,1.3610229,0.6829834c0.5050049-1.1619873,1.0620117-2.2720337,1.6829834-3.3690186   c-0.4589844-0.2310181-0.8989868-0.4519653-1.3569946-0.6820068c-0.1019897,0.1680298-0.2999878,0.53302-0.3049927,0.5419922   C17.503418,30.1771851,14.3434448,28.5951538,14.3344727,28.5901489"/>
	<path fill="#FFFFFF" d="M65.9122925,22.1032104c-0.0080566-0.006958-0.03302-0.0279541-0.0410156-0.0349731   c0.0059814-0.0079956,2.157959-2.9489746,2.1640015-2.9580078c0.0079956,0.007019,0.2630005,0.2340088,0.3839722,0.3400269   c0.2990112-0.4089966,0.585022-0.7999878,0.8909912-1.2189941c-0.8349609-0.7449951-1.6999512-1.4550171-2.6009521-2.1300049   c-0.151001,0.2069702-0.2969971,0.4049683-0.4420166,0.6029663c-0.1279907,0.1730347-0.2559814,0.3470459-0.3870239,0.526001   c0.0889893,0.06604,0.1970215,0.1489868,0.2399902,0.1820068l0.019043,0.0140381l0.0789795,0.05896L66.1602783,17.56427   l-0.3060303,0.4199829l-0.3070068,0.4199829l-0.0599976,0.0809937l-0.0799561-0.0599976   c-0.0150146-0.0109863-0.8040161-0.5880127-1.144043-0.8369751l-0.1519775-0.1110229l-0.0809937-0.0579834l0.05896-0.0809937   c0.0050049-0.0090332,0.6100464-0.8320313,0.6160278-0.8410034l0.0579834-0.0780029l0.0790405,0.0559692   c0.006958,0.0050049,0.1519775,0.1080322,0.2659912,0.1890259l0.3850098-0.5269775l0.440979-0.6040039   c-0.9119873-0.6530151-1.8499756-1.2709961-2.815979-1.8460083c-0.3030396,0.4140015-0.5880127,0.8039551-0.8910522,1.2189941   c0.1360474,0.0839844,0.4280396,0.2589722,0.4370117,0.2639771c-0.0059814,0.0090332-2.1560059,2.947998-2.1629639,2.9559937   c-0.0079956-0.0050049-0.2900391-0.1719971-0.4429932-0.2589722c-0.3040161,0.4140015-0.5320435,0.7279663-0.835022,1.1430054   c1.0510254,0.6079712,1.9309692,1.1679688,2.8389893,1.8170166l0.0020142-0.0030518l0.4160156-0.572998l0.4060059-0.5489502   c-0.0900269-0.0640259-0.2010498-0.1430054-0.2440186-0.1730347l-0.0189819-0.0130005l-0.0820313-0.0579834l0.7290039-1.0029907   l1.4589844,1.0669556l-0.7340088,1c0,0-0.2489624-0.1949463-0.3329468-0.2559814l-0.8260498,1.1290283   c0.8970337,0.6739502,1.757019,1.4119873,2.5800171,2.1589966c0.3029785-0.4150391,0.5339966-0.7290039,0.8369751-1.1450195   C66.1262817,22.2962646,66.0452881,22.2192383,65.9122925,22.1032104"/>
	<path fill="#FFFFFF" d="M52.3762207,9.6112061c0,0-1.03302-0.2029419-1.6110229-0.3009644   c-0.6740112-0.1140137-1.7059937-0.2379761-1.7059937-0.2379761l-0.2180176,1.4849854l0.8239746,0.1239624l-0.5899658,3.8810425   c-0.1240234,0.8269653-0.4130249,0.9759521-0.7399902,0.9790039c-0.28302,0.0029907-0.6600342-0.184021-0.6600342-0.184021   l-0.2149658,1.4140015c0,0,0.7489624,0.4470215,1.473999,0.5559692c0.8309937,0.1260376,1.2229614,0.0100098,1.7000122-0.3429565   c0.5959473-0.4390259,0.8049927-1.1710205,0.9229736-1.9520264L52.3762207,9.6112061z"/>
	<path fill="#FFFFFF" d="M10.6494141,33.2618408c0,0-0.3590088,1.1410522-0.4690552,1.5180054   c-0.1259766,0.4280396-0.4759521,1.7060547-0.4759521,1.7060547l1.3969727,0.4029541l0.2340088-0.7990112l3.7669678,1.1090088   c0.8010254,0.2350464,0.9100342,0.5400391,0.8690186,0.8649902c-0.0349731,0.2810059-0.2709961,0.6300049-0.2709961,0.6300049   l1.3710327,0.4030151c0,0,0.5439453-0.6809692,0.7509766-1.3850098c0.2360229-0.8070068,0.1740112-1.2099609-0.1099854-1.730957   c-0.3550415-0.6490479-1.052002-0.9560547-1.809021-1.1780396L10.6494141,33.2618408z"/>
	<path fill="#EA0029" d="M40.3820801,60.9052124c2.2259521-2.2259521,2.6459961-5.4389648,2.6459961-8.7959595V28.8202515   H28.7380371v7.4599609H32.28302v14.6120605c0,3.5519409-1.1189575,4.3649902-2.492981,4.5859985   c-0.1779785,0.0289917-0.3670044,0.0419922-0.5609741,0.0419922c-1.1000366,0-2.3330078-0.3950195-2.3330078-0.3950195v6.8930054   c0,0,3.4329834,1.4069824,6.5549927,1.4069824C37.0250244,63.4252319,38.5980225,62.68927,40.3820801,60.9052124"/>
	<path fill="#EA0029" d="M60.4580078,60.9052124c2.2259521-2.2259521,2.6459961-5.4389648,2.6459961-8.7959595V28.8202515   H48.8139648v7.4599609h3.5449829v14.6120605c0,3.5519409-1.1189575,4.3649902-2.492981,4.5859985   c-0.1779785,0.0289917-0.3670044,0.0419922-0.5609741,0.0419922c-1.1000366,0-2.3330078-0.3950195-2.3330078-0.3950195v6.8930054   c0,0,3.4329834,1.4069824,6.5559692,1.4069824C57.1009521,63.4252319,58.6749878,62.68927,60.4580078,60.9052124"/>
	<path fill="#FFFFFF" d="M18.5064697,50.394043l-0.4640503-1.3909912h-2.973999   c-0.117981,0-0.2219849-0.0749512-0.2589722-0.1879883l-0.9180298-2.8269653h-1.4710083l-0.9029541,2.7799683   c-0.0460205,0.1409912-0.177002,0.2349854-0.3240356,0.2349854h-2.940979l-0.4609985,1.3810425l2.3900146,1.7359619   c0.1189575,0.0870361,0.1690063,0.2399902,0.1229858,0.3810425l-0.90802,2.7939453l1.177002,0.8630371l2.382019-1.7310181   c0.1199951-0.0869751,0.2810059-0.0869751,0.401001,0l2.3969727,1.7420044l1.1669922-0.8560181l-0.9129639-2.8119507   c-0.0449829-0.1410522,0.0039673-0.2940063,0.1240234-0.3810425L18.5064697,50.394043z"/>
	<path fill="#EA0029" d="M16.2098999,55.083313l-0.8800049-2.7079468c-0.06604-0.2030029,0.0059814-0.4260254,0.1789551-0.552002   l2.28302-1.65802l-0.1859741-0.5570068h-2.81604c-0.2139893,0-0.4030151-0.1370239-0.4699707-0.3410034l-0.8690186-2.6740112   h-0.5900269l-0.8689575,2.6740112c-0.06604,0.2039795-0.2560425,0.3410034-0.4700317,0.3410034H8.6888428l-0.1829834,0.5469971   l2.2969971,1.6680298c0.1730347,0.1259766,0.2449951,0.348999,0.1790161,0.552002l-0.8740234,2.690979l0.467041,0.34198   l2.2909546-1.6640015c0.1730347-0.1259766,0.4070435-0.1259766,0.5800171,0l2.3060303,1.6750488L16.2098999,55.083313z"/>
	<path fill="#FFFFFF" d="M82.1077881,50.394043l-0.4640503-1.3909912h-2.973999   c-0.117981,0-0.2219849-0.0749512-0.2589722-0.1879883l-0.9180298-2.8269653h-1.4710083l-0.9029541,2.7799683   c-0.0460205,0.1409912-0.177002,0.2349854-0.3240356,0.2349854h-2.940979l-0.4609985,1.3810425l2.3900146,1.7359619   c0.1189575,0.0870361,0.1690063,0.2399902,0.1229858,0.3810425l-0.90802,2.7939453l1.177002,0.8630371l2.382019-1.7310181   c0.1199951-0.0869751,0.2810059-0.0869751,0.401001,0l2.3969727,1.7420044l1.1669922-0.8560181l-0.9129639-2.8119507   c-0.0449829-0.1410522,0.0039673-0.2940063,0.1240234-0.3810425L82.1077881,50.394043z"/>
	<path fill="#EA0029" d="M79.8112183,55.083313l-0.8800049-2.7079468c-0.06604-0.2030029,0.0059814-0.4260254,0.1789551-0.552002   l2.28302-1.65802l-0.1859741-0.5570068h-2.81604c-0.2139893,0-0.4030151-0.1370239-0.4699707-0.3410034l-0.8690186-2.6740112   h-0.5900269l-0.8689575,2.6740112c-0.06604,0.2039795-0.2560425,0.3410034-0.4700317,0.3410034h-2.8330078l-0.1829834,0.5469971   l2.2969971,1.6680298c0.1730347,0.1259766,0.2449951,0.348999,0.1790161,0.552002l-0.8740234,2.690979l0.467041,0.34198   l2.2909546-1.6640015c0.1730347-0.1259766,0.4070435-0.1259766,0.5800171,0l2.3060303,1.6750488L79.8112183,55.083313z"/>
</g>
<g>
</g>
<g>
</g>
<g>
</g>
<g>
</g>
<g>
</g>
<g>
</g>
</svg>