<?xml version="1.0" encoding="UTF-8"?>
<!DOCTYPE svg PUBLIC "-//W3C//DTD SVG 1.1//EN" "http://www.w3.org/Graphics/SVG/1.1/DTD/svg11.dtd">
<svg xmlns="http://www.w3.org/2000/svg" version="1.1" width="800px" height="262px" style="shape-rendering:geometricPrecision; text-rendering:geometricPrecision; image-rendering:optimizeQuality; fill-rule:evenodd; clip-rule:evenodd" xmlns:xlink="http://www.w3.org/1999/xlink">
<g><path style="opacity:0.98" fill="#fdfcfc" d="M 129.5,-0.5 C 137.5,-0.5 145.5,-0.5 153.5,-0.5C 166.019,1.1734 177.852,5.1734 189,11.5C 201.695,5.54063 214.861,1.54063 228.5,-0.5C 236.833,-0.5 245.167,-0.5 253.5,-0.5C 269.025,1.13875 283.358,6.30541 296.5,15C 307.69,24.5176 315.19,36.3509 319,50.5C 332.921,42.9883 347.754,40.4883 363.5,43C 367.583,43.53 371.583,44.3633 375.5,45.5C 375.5,31.1667 375.5,16.8333 375.5,2.5C 409.5,2.5 443.5,2.5 477.5,2.5C 477.238,3.97782 477.571,5.31116 478.5,6.5C 485.752,3.52791 493.085,1.19457 500.5,-0.5C 512.5,-0.5 524.5,-0.5 536.5,-0.5C 546.62,1.71637 556.286,5.38304 565.5,10.5C 576.552,5.5926 587.886,1.92594 599.5,-0.5C 612.167,-0.5 624.833,-0.5 637.5,-0.5C 659.153,2.9115 676.319,13.5782 689,31.5C 692.442,24.2831 695.609,16.9498 698.5,9.5C 717.491,8.33364 736.491,8.16697 755.5,9C 770.764,15.0223 777.098,26.189 774.5,42.5C 781.5,42.5 788.5,42.5 795.5,42.5C 795.5,63.1667 795.5,83.8333 795.5,104.5C 793.712,104.215 792.045,104.548 790.5,105.5C 794.601,111.035 797.601,117.035 799.5,123.5C 799.5,131.167 799.5,138.833 799.5,146.5C 790.603,170.825 772.936,183.159 746.5,183.5C 739.885,183.194 733.385,182.194 727,180.5C 717.321,182.417 707.487,183.084 697.5,182.5C 696.044,193.27 700.711,198.27 711.5,197.5C 711.126,218.833 710.793,240.166 710.5,261.5C 599.167,261.5 487.833,261.5 376.5,261.5C 376.5,246.833 376.5,232.167 376.5,217.5C 362.735,221.473 348.735,222.473 334.5,220.5C 334.5,234.167 334.5,247.833 334.5,261.5C 222.833,261.5 111.167,261.5 -0.5,261.5C -0.5,240.5 -0.5,219.5 -0.5,198.5C 4.41163,198.937 9.07829,198.104 13.5,196C 15.9212,191.858 16.9212,187.358 16.5,182.5C 15.7211,147.174 15.2211,111.84 15,76.5C 13.7727,74.2739 11.9393,72.7739 9.5,72C 6.18323,71.5017 2.8499,71.335 -0.5,71.5C -0.5,48.8333 -0.5,26.1667 -0.5,3.5C 33.1705,3.47974 66.8372,3.1464 100.5,2.5C 100.215,4.28801 100.548,5.95467 101.5,7.5C 110.602,3.5621 119.935,0.895432 129.5,-0.5 Z"/></g>
<g><path style="opacity:1" fill="#592512" d="M 678.5,47.5 C 678.41,50.1522 679.076,52.4855 680.5,54.5C 681.324,102.459 681.824,150.459 682,198.5C 682.757,204.736 685.924,209.069 691.5,211.5C 692.568,212.434 693.901,212.768 695.5,212.5C 695.5,223.833 695.5,235.167 695.5,246.5C 670.833,246.5 646.167,246.5 621.5,246.5C 621.667,189.832 621.5,133.166 621,76.5C 616.347,66.077 608.18,61.077 596.5,61.5C 587.435,61.1244 580.602,64.791 576,72.5C 575.333,115.167 575.333,157.833 576,200.5C 577.418,208.094 581.918,211.761 589.5,211.5C 589.5,223.167 589.5,234.833 589.5,246.5C 564.5,246.5 539.5,246.5 514.5,246.5C 514.667,189.166 514.5,131.832 514,74.5C 509.1,65.4087 501.433,61.4087 491,62.5C 481.651,61.0539 474.651,64.3872 470,72.5C 469.333,115.833 469.333,159.167 470,202.5C 472.3,208.892 476.8,212.225 483.5,212.5C 483.5,223.833 483.5,235.167 483.5,246.5C 453.167,246.5 422.833,246.5 392.5,246.5C 392.5,235.167 392.5,223.833 392.5,212.5C 411.5,212.5 430.5,212.5 449.5,212.5C 449.5,180.833 449.5,149.167 449.5,117.5C 433.5,116.833 417.5,116.167 401.5,115.5C 413.351,93.1193 410.185,73.1193 392,55.5C 391.5,42.8377 391.333,30.1711 391.5,17.5C 415.833,17.5 440.167,17.5 464.5,17.5C 464.177,21.226 464.511,24.8927 465.5,28.5C 494.11,11.3955 523.777,9.22885 554.5,22C 557.646,24.3116 560.646,26.8116 563.5,29.5C 596.286,9.65814 629.619,8.49148 663.5,26C 666.667,29.1667 669.833,32.3333 673,35.5C 675.656,39.1438 677.489,43.1438 678.5,47.5 Z"/></g>
<g><path style="opacity:1" fill="#592411" d="M 318.5,214.5 C 318.5,225.167 318.5,235.833 318.5,246.5C 293.833,246.5 269.167,246.5 244.5,246.5C 244.832,200.664 244.499,154.997 243.5,109.5C 243.667,97.8286 243.5,86.1619 243,74.5C 240.152,68.1596 235.318,64.3263 228.5,63C 219.578,61.3381 211.245,62.6714 203.5,67C 201.641,68.5578 200.141,70.3911 199,72.5C 198.333,115.5 198.333,158.5 199,201.5C 200.359,209.026 204.859,212.693 212.5,212.5C 212.5,223.833 212.5,235.167 212.5,246.5C 187.833,246.5 163.167,246.5 138.5,246.5C 138.832,206.33 138.499,166.33 137.5,126.5C 137.667,109.497 137.5,92.4967 137,75.5C 133.876,68.206 128.376,64.206 120.5,63.5C 118.359,62.8367 116.025,62.5034 113.5,62.5C 109.859,62.3148 106.526,62.9814 103.5,64.5C 98.5049,65.7487 95.0049,68.7487 93,73.5C 92.3333,116.833 92.3333,160.167 93,203.5C 94.7435,208.079 97.9102,211.079 102.5,212.5C 103.209,213.404 104.209,213.737 105.5,213.5C 105.5,224.833 105.5,236.167 105.5,247.5C 75.5,247.5 45.5,247.5 15.5,247.5C 15.5,236.167 15.5,224.833 15.5,213.5C 17.099,213.768 18.4324,213.434 19.5,212.5C 25.4408,211.06 29.2741,207.393 31,201.5C 31.6667,156.833 31.6667,112.167 31,67.5C 28.3202,59.7336 22.8202,55.7336 14.5,55.5C 14.5,43.1667 14.5,30.8333 14.5,18.5C 38.8333,18.5 63.1667,18.5 87.5,18.5C 87.3347,22.1817 87.5014,25.8484 88,29.5C 114.366,13.5611 142.2,10.3945 171.5,20C 177.2,22.5151 182.2,26.0151 186.5,30.5C 211.724,14.9456 238.724,10.7789 267.5,18C 290.542,24.6849 302.708,39.8515 304,63.5C 293.17,78.4193 290.504,94.7527 296,112.5C 297.579,115.994 299.413,119.327 301.5,122.5C 278.94,145.024 276.44,169.691 294,196.5C 300.539,204.839 308.705,210.839 318.5,214.5 Z"/></g>
<g><path style="opacity:1" fill="#a78c82" d="M 709.5,21.5 C 716.344,20.1812 723.344,20.1812 730.5,21.5C 730.376,22.1067 730.043,22.44 729.5,22.5C 723.021,21.5093 716.354,21.176 709.5,21.5 Z"/></g>
<g><path style="opacity:1" fill="#63301e" d="M 743.5,20.5 C 757.727,19.2247 763.894,25.558 762,39.5C 757.523,46.8865 751.023,49.3865 742.5,47C 734.185,41.5534 732.352,34.3867 737,25.5C 738.965,23.4497 741.132,21.783 743.5,20.5 Z"/></g>
<g><path style="opacity:1" fill="#5b2714" d="M 709.5,21.5 C 716.354,21.176 723.021,21.5093 729.5,22.5C 724.071,32.3665 718.404,42.0332 712.5,51.5C 707.056,52.1083 702.056,51.4417 697.5,49.5C 700.988,39.8664 704.988,30.5331 709.5,21.5 Z"/></g>
<g><path style="opacity:1" fill="#ece6e3" d="M 743.5,43.5 C 744.5,42.8333 745.5,42.1667 746.5,41.5C 746.418,34.0131 747.752,33.6798 750.5,40.5C 751.833,41.8333 753.167,41.8333 754.5,40.5C 753.248,38.9991 752.248,37.3325 751.5,35.5C 755.021,33.0558 755.355,30.2224 752.5,27C 749.518,26.502 746.518,26.3354 743.5,26.5C 743.167,26.5 742.833,26.5 742.5,26.5C 742.953,25.5416 743.619,24.7083 744.5,24C 752.831,22.4804 757.498,25.8137 758.5,34C 757.569,43.485 752.569,46.6517 743.5,43.5 Z"/></g>
<g><path style="opacity:1" fill="#f1eceb" d="M 742.5,26.5 C 742.821,31.6946 742.487,36.6946 741.5,41.5C 737.22,36.1433 737.554,31.1433 742.5,26.5 Z"/></g>
<g><path style="opacity:1" fill="#c1ada6" d="M 742.5,26.5 C 742.833,26.5 743.167,26.5 743.5,26.5C 743.5,31.5 743.5,36.5 743.5,41.5C 744.5,41.5 745.5,41.5 746.5,41.5C 745.5,42.1667 744.5,42.8333 743.5,43.5C 742.5,43.1667 741.833,42.5 741.5,41.5C 742.487,36.6946 742.821,31.6946 742.5,26.5 Z"/></g>
<g><path style="opacity:1" fill="#643220" d="M 743.5,26.5 C 746.518,26.3354 749.518,26.502 752.5,27C 755.355,30.2224 755.021,33.0558 751.5,35.5C 752.248,37.3325 753.248,38.9991 754.5,40.5C 753.167,41.8333 751.833,41.8333 750.5,40.5C 747.752,33.6798 746.418,34.0131 746.5,41.5C 745.5,41.5 744.5,41.5 743.5,41.5C 743.5,36.5 743.5,31.5 743.5,26.5 Z"/></g>
<g><path style="opacity:1" fill="#f1edec" d="M 746.5,29.5 C 748.167,29.5 749.833,29.5 751.5,29.5C 751.5,30.5 751.5,31.5 751.5,32.5C 749.833,32.5 748.167,32.5 746.5,32.5C 746.5,31.5 746.5,30.5 746.5,29.5 Z"/></g>
<g><path style="opacity:1" fill="#8c685b" d="M 697.5,49.5 C 702.056,51.4417 707.056,52.1083 712.5,51.5C 707.36,52.4881 702.026,52.8214 696.5,52.5C 696.263,51.209 696.596,50.209 697.5,49.5 Z"/></g>
<g><path style="opacity:1" fill="#886152" d="M 678.5,47.5 C 679.924,49.5145 680.59,51.8478 680.5,54.5C 679.076,52.4855 678.41,50.1522 678.5,47.5 Z"/></g>
<g><path style="opacity:1" fill="#5a2613" d="M 731.5,56.5 C 742.008,55.4431 752.008,57.1098 761.5,61.5C 761.56,62.0431 761.893,62.3764 762.5,62.5C 763.452,60.9547 763.785,59.288 763.5,57.5C 769.5,57.5 775.5,57.5 781.5,57.5C 781.5,68.1667 781.5,78.8333 781.5,89.5C 775.824,89.6661 770.157,89.4994 764.5,89C 761.273,82.1093 755.94,77.776 748.5,76C 744.167,75.3333 739.833,75.3333 735.5,76C 730.931,78.5414 729.431,82.3747 731,87.5C 731.785,89.286 732.951,90.786 734.5,92C 745.682,96.3943 757.016,100.394 768.5,104C 784.954,114.357 790.121,128.857 784,147.5C 778.811,158.347 770.311,165.18 758.5,168C 751.215,169.414 743.882,169.747 736.5,169C 730.175,167.505 724.175,165.338 718.5,162.5C 718.5,163.833 718.5,165.167 718.5,166.5C 712.833,166.5 707.167,166.5 701.5,166.5C 701.5,154.5 701.5,142.5 701.5,130.5C 706.833,130.5 712.167,130.5 717.5,130.5C 720.603,140.753 727.603,146.586 738.5,148C 748.705,150.07 755.372,146.237 758.5,136.5C 758.257,132.849 756.59,130.016 753.5,128C 741.265,124.276 729.265,119.943 717.5,115C 700.887,103.379 697.387,88.5458 707,70.5C 711.45,64.3676 717.283,60.3676 724.5,58.5C 727.152,58.5905 729.485,57.9238 731.5,56.5 Z"/></g>
<g><path style="opacity:1" fill="#af958c" d="M 781.5,57.5 C 775.5,57.5 769.5,57.5 763.5,57.5C 763.785,59.288 763.452,60.9547 762.5,62.5C 761.893,62.3764 761.56,62.0431 761.5,61.5C 762.451,60.0813 762.784,58.4147 762.5,56.5C 769.022,56.1765 775.355,56.5098 781.5,57.5 Z"/></g>
<g><path style="opacity:1" fill="#5a2512" d="M 403.5,132.5 C 413.833,132.5 424.167,132.5 434.5,132.5C 434.5,139.5 434.5,146.5 434.5,153.5C 430.958,153.187 427.625,153.521 424.5,154.5C 421.56,159.528 418.226,164.361 414.5,169C 419.537,175.55 426.204,178.05 434.5,176.5C 434.5,183.5 434.5,190.5 434.5,197.5C 422.833,197.5 411.167,197.5 399.5,197.5C 397.152,195.32 394.652,193.32 392,191.5C 374.553,203.29 355.386,207.624 334.5,204.5C 332.485,203.076 330.152,202.41 327.5,202.5C 305.999,194.864 295.999,179.53 297.5,156.5C 298.924,154.485 299.59,152.152 299.5,149.5C 300.462,146.243 301.962,143.243 304,140.5C 309.41,134.585 315.243,129.252 321.5,124.5C 307.833,111.391 304.333,96.0579 311,78.5C 317.828,67.3364 327.661,60.5031 340.5,58C 358.199,54.597 373.699,58.7636 387,70.5C 397.153,85.0286 396.819,99.3619 386,113.5C 381.474,118.506 376.307,122.673 370.5,126C 378.681,134.348 387.014,142.514 395.5,150.5C 400.26,145.504 402.927,139.504 403.5,132.5 Z"/></g>
<g><path style="opacity:1" fill="#855d4e" d="M 731.5,56.5 C 729.485,57.9238 727.152,58.5905 724.5,58.5C 726.515,57.0762 728.848,56.4095 731.5,56.5 Z"/></g>
<g><path style="opacity:1" fill="#c0aba4" d="M 120.5,63.5 C 114.797,63.3748 109.13,63.7081 103.5,64.5C 106.526,62.9814 109.859,62.3148 113.5,62.5C 116.025,62.5034 118.359,62.8367 120.5,63.5 Z"/></g>
<g><path style="opacity:1" fill="#faf8f8" d="M 346.5,78.5 C 354.653,77.1606 361.153,79.8273 366,86.5C 366.777,97.4068 362.11,105.073 352,109.5C 346.301,105.468 341.635,100.468 338,94.5C 336.907,87.0163 339.741,81.6829 346.5,78.5 Z"/></g>
<g><path style="opacity:1" fill="#774c3c" d="M 401.5,115.5 C 417.5,116.167 433.5,116.833 449.5,117.5C 432.83,117.667 416.163,117.5 399.5,117C 400.044,116.283 400.711,115.783 401.5,115.5 Z"/></g>
<g><path style="opacity:1" fill="#a4877d" d="M 403.5,132.5 C 413.987,131.506 424.654,131.172 435.5,131.5C 435.5,139.167 435.5,146.833 435.5,154.5C 431.833,154.5 428.167,154.5 424.5,154.5C 427.625,153.521 430.958,153.187 434.5,153.5C 434.5,146.5 434.5,139.5 434.5,132.5C 424.167,132.5 413.833,132.5 403.5,132.5 Z"/></g>
<g><path style="opacity:1" fill="#faf9f8" d="M 338.5,142.5 C 339.552,142.351 340.552,142.517 341.5,143C 351.641,153.23 361.974,163.23 372.5,173C 360.486,181.717 348.152,182.384 335.5,175C 329.836,168.941 328.002,161.774 330,153.5C 332.284,149.386 335.117,145.72 338.5,142.5 Z"/></g>
<g><path style="opacity:1" fill="#a78a80" d="M 717.5,130.5 C 712.167,130.5 706.833,130.5 701.5,130.5C 701.5,142.5 701.5,154.5 701.5,166.5C 707.167,166.5 712.833,166.5 718.5,166.5C 712.69,167.49 706.69,167.823 700.5,167.5C 700.5,154.833 700.5,142.167 700.5,129.5C 706.358,129.178 712.025,129.511 717.5,130.5 Z"/></g>
<g><path style="opacity:1" fill="#896152" d="M 299.5,149.5 C 299.59,152.152 298.924,154.485 297.5,156.5C 297.41,153.848 298.076,151.515 299.5,149.5 Z"/></g>
<g><path style="opacity:1" fill="#6f4131" d="M 434.5,176.5 C 435.492,183.648 435.825,190.981 435.5,198.5C 423.322,198.828 411.322,198.495 399.5,197.5C 411.167,197.5 422.833,197.5 434.5,197.5C 434.5,190.5 434.5,183.5 434.5,176.5 Z"/></g>
<g><path style="opacity:1" fill="#8b6456" d="M 327.5,202.5 C 330.152,202.41 332.485,203.076 334.5,204.5C 331.848,204.59 329.515,203.924 327.5,202.5 Z"/></g>
<g><path style="opacity:1" fill="#957266" d="M 691.5,211.5 C 693.167,211.5 694.833,211.5 696.5,211.5C 696.828,223.345 696.495,235.012 695.5,246.5C 695.5,235.167 695.5,223.833 695.5,212.5C 693.901,212.768 692.568,212.434 691.5,211.5 Z"/></g>
<g><path style="opacity:1" fill="#b59d95" d="M 19.5,212.5 C 18.4324,213.434 17.099,213.768 15.5,213.5C 15.5,224.833 15.5,236.167 15.5,247.5C 45.5,247.5 75.5,247.5 105.5,247.5C 105.833,247.5 106.167,247.5 106.5,247.5C 76.0045,248.498 45.3379,248.831 14.5,248.5C 14.5,236.5 14.5,224.5 14.5,212.5C 16.1667,212.5 17.8333,212.5 19.5,212.5 Z"/></g>
<g><path style="opacity:1" fill="#825b4d" d="M 102.5,212.5 C 103.833,212.5 105.167,212.5 106.5,212.5C 106.5,224.167 106.5,235.833 106.5,247.5C 106.167,247.5 105.833,247.5 105.5,247.5C 105.5,236.167 105.5,224.833 105.5,213.5C 104.209,213.737 103.209,213.404 102.5,212.5 Z"/></g>
<g><path style="opacity:1" fill="#82594a" d="M 137.5,126.5 C 138.499,166.33 138.832,206.33 138.5,246.5C 163.167,246.5 187.833,246.5 212.5,246.5C 187.672,247.498 162.672,247.831 137.5,247.5C 137.5,207.167 137.5,166.833 137.5,126.5 Z"/></g>
<g><path style="opacity:1" fill="#937164" d="M 243.5,109.5 C 244.499,154.997 244.832,200.664 244.5,246.5C 269.167,246.5 293.833,246.5 318.5,246.5C 318.5,235.833 318.5,225.167 318.5,214.5C 319.495,225.321 319.828,236.321 319.5,247.5C 294.167,247.5 268.833,247.5 243.5,247.5C 243.5,201.5 243.5,155.5 243.5,109.5 Z"/></g>
<g><path style="opacity:1" fill="#9b7b6f" d="M 392.5,212.5 C 392.5,223.833 392.5,235.167 392.5,246.5C 422.833,246.5 453.167,246.5 483.5,246.5C 453.005,247.498 422.338,247.831 391.5,247.5C 391.172,235.655 391.505,223.988 392.5,212.5 Z"/></g>
</svg>