<svg xml:space="preserve" style="enable-background:new 0 0 2131.3 500.2;" viewBox="0 0 2131.3 500.2" y="0px" x="0px" xmlns:xlink="http://www.w3.org/1999/xlink" xmlns="http://www.w3.org/2000/svg" id="Capa_1" version="1.1">
<style type="text/css">
	.st0{fill:#FFFFFF;}
</style>
<title>Mesa de trabajo 1 copia</title>
<path d="M237.6,383.9c-65.2-1.2-116.7-25.8-156.5-74c-10.8-13.1-18.5-27.4-2.4-40.5c15.7-12.8,28-4.4,39.7,9.4
	c66.9,78,165.6,78.1,234.8,0.4c11.6-13,23.8-22,40-8.9c15,12.3,8.9,25.7-1.2,38.3C352.2,358.5,300,383.4,237.6,383.9z" class="st0"></path>
<path d="M395.1,170.6c-0.6,25.8-24.8,47.4-51.7,46.2c-25.5-1.1-47-23.6-46.4-48.4c0.6-25.8,21.9-45.8,48.6-45.7
	C373.1,122.8,395.7,144.7,395.1,170.6z" class="st0"></path>
<path d="M174.4,170.6c-0.6,25.3-23.3,46.5-49.1,46c-26-0.5-47.7-22.4-47.4-47.7c0.4-28.1,21.6-47.8,50.4-46.6
	C155.5,123.4,175,143.9,174.4,170.6z" class="st0"></path>
<path d="M462.4,359.6l55.3-201.7h63.9l14.1,115.2l56.8-115.2H706l5.5,151c0.8,20,6.1,33,15.9,39.1
	c-2.2,4.1-6.6,8.1-13.1,11.9s-14.1,5.8-22.8,5.8c-8.7,0-15.5-1.2-20.6-3.7c-4.8-2.2-8.9-5.5-11.9-9.8c-5.1-7.3-7.6-18-7.6-32.1
	v-94.4l-60.2,133.9h-37.9l-21.4-137.2l-34.2,137.2H462.4z" class="st0"></path>
<path d="M838.6,346.8c-9.8,12.7-26.8,19-51,19c-12.6,0-23.5-3.8-32.7-11.5c-9.2-7.6-13.8-17-13.8-28
	c-0.1-4.6,0.2-9.2,0.9-13.8l20.5-108.8l62-6.1l-22.3,118c-0.7,3.5-1.1,7.1-1.2,10.7c-0.1,11.8,3.5,17.7,10.7,17.7
	c7.9,0,14.8-5.4,20.5-16.2c1.9-3.7,3.3-7.8,4-11.9l21.7-112.2l60.2-6.1l-22.6,119.2c-0.6,3.1-0.9,6.3-0.9,9.5
	c0.1,3.6,1,7.1,2.8,10.2c1.8,3.6,5.7,5.8,11.6,6.6c-1.2,4.9-4.2,9.2-8.3,12.2c-9,6.9-18.3,10.4-28,10.4c-9.7,0-17.4-1.7-23.1-5.2
	C843.9,357.1,840.3,352.5,838.6,346.8z" class="st0"></path>
<path d="M1063.9,365.7c-24.7,0-37-9.6-37-28.7c0.4-7.2,1.4-14.3,2.8-21.4l5.5-28.1c5.5-26.5,8.3-42.7,8.3-48.6
	c0-11.8-3.5-17.7-10.4-17.7c-11.6,0-20.5,15.2-26.6,45.5l-18,92.9l-61.4,6.1l31.8-162.3l50.1-5.8l-4.9,30c9.6-20,29-30,58.4-30
	c14.3,0,24.4,3,30.4,9s9,15.7,9,29.2c0,12.7-3.3,33.8-9.8,63.3c-3.1,13.3-4.6,22.4-4.6,27.4s1.4,8.9,4.1,11.8
	c2.7,2.8,6.3,4.6,10.2,4.9c-2,6.9-6.6,12.4-13.6,16.5C1080.8,363.8,1072.4,365.9,1063.9,365.7z" class="st0"></path>
<path d="M1276.3,232.5c0,8.6-3.6,15.5-10.7,20.8c-7.1,5.3-16.5,7.9-28.1,7.9c-4.9,0-8.8-0.7-11.6-2.1
	c2.3-5.7,3.8-11.7,4.4-17.9c0.7-6.6,1.1-10.8,1.1-12.7c0-8.6-3-12.8-8.9-12.8c-4.1,0-8.4,2.5-13,7.6c-5.1,5.9-9.4,12.5-12.7,19.6
	c-8.6,18.3-12.8,36.8-12.8,55.3c0,10.2,1.9,17.6,5.8,22.2c3.9,4.6,10.1,6.9,18.7,6.9c11.8,0,22.4-4.9,31.8-14.7
	c2.6-2.9,4.6-6.2,6.1-9.8c7.8,4.1,11.6,11.7,11.6,22.9c0,11.4-6.3,20.9-19,28.4c-13,7.7-30,11.6-50.7,11.6c-41.4,0-62-21.9-62-65.7
	c0-32,9.1-57.2,27.2-75.5c17.5-17.9,42.4-26.9,74.6-26.9S1276.3,209.2,1276.3,232.5z" class="st0"></path>
<path d="M1438.3,325.7c0,9,4.6,14.8,13.8,17.4c-2.2,7.5-7.8,13.3-16.5,17.4c-7.2,3.4-15.1,5.2-23.1,5.2
	c-8.1,0-14.2-1.1-18.3-3.2c-3.9-1.9-7.2-4.8-9.6-8.4c-3.7-5.3-5.5-13-5.5-22.9c0-5.9,1.6-17,4.9-33.3l4.3-23.2
	c3.5-17.7,5.2-29.9,5.2-36.4c0-11.4-3.2-17.1-9.5-17.1c-8,0-14.5,5.8-19.6,17.4c-2.3,5.4-4.1,11-5.2,16.8l-20.8,104.2l-61.4,6.1
	l43.1-220.1l61.4-6.1l-2.4,12.2c-5.7,31.4-11,52.4-15.9,63c11.4-11.4,27.6-17.1,48.6-17.1c22.2,0,35.4,7.3,39.4,22
	c1.4,4.3,2.1,8.7,2.1,13.1c0,4.1-0.2,7.7-0.5,10.9s-1,7.6-2,13.3l-4,22l-7,34.5C1438.9,317.5,1438.4,321.6,1438.3,325.7z" class="st0"></path>
<path d="M1596.3,155.8c49.9,0,74.9,17.6,74.9,52.9c0,19.3-6.2,34.8-18.6,46.5c-12.2,11.6-29,17.4-50.4,17.4
	c-9.6,0.1-18.9-2.9-26.6-8.6c-3.5-2.3-6.6-5.2-9.2-8.6c14.9,0,26.2-4.5,34.1-13.6c7.8-9.1,11.8-22.5,11.8-40.2
	c0-17.7-8.8-26.6-26.3-26.6h-7.3c-1.1,0-2.3,0.1-3.4,0.3l-35.2,184.3h-66.3l37.6-200.2c21.8-2,39-3.1,51.7-3.4
	C1575.6,155.8,1586.7,155.7,1596.3,155.8z" class="st0"></path>
<path d="M1686,350.5c-4.8-5.3-8.3-12.1-10.4-20.5c-2.1-8.4-3.2-19.4-3.2-33c-0.1-13.4,2.3-26.6,7-39.1
	c4.4-11.9,11.1-22.8,19.9-32.1c17.5-18.7,40.8-28.1,69.7-28.1c10.4,0,19.4,1.7,26.9,5.2l52.3-5.2l-22.6,119.2
	c-0.7,3.4-1,6.9-0.9,10.4c-0.2,4.1,1.3,8,4.1,11c2.7,2.8,6.3,4.6,10.2,4.9c-2,6.9-6.8,12.4-14.2,16.5c-7.2,4-15.4,6.1-23.7,6.1
	c-8.4,0-15.3-1.6-20.9-4.7c-5.6-3.2-9.2-7.4-10.9-12.7c-3.3,5.1-8.4,9.3-15.3,12.5s-15,4.9-24.3,4.9c-8.5,0.1-17.1-1.1-25.2-3.7
	C1697.4,359.9,1691,355.9,1686,350.5z M1750.5,226.4c-2.8,4.7-5,9.6-6.6,14.8c-2,6.2-4.7,17.6-8.1,34.2s-5,30.8-5,42.6
	c0,11.8,0.9,19.5,2.8,22.9c1.8,3.5,4.4,5.2,7.7,5.2c6.5,0,12.2-3.1,17-9.3c4.8-6.2,8.1-14.8,9.9-25.8l16.2-89.6
	c-3.8-3.5-8.8-5.4-13.9-5.5c-5,0-9,0.8-11.9,2.4C1755.2,220.4,1752.5,223.1,1750.5,226.4L1750.5,226.4z" class="st0"></path>
<path d="M1943.5,214.8c11-11.4,28.1-17.1,51.3-17.1c12.8,0,22.8,3.4,29.8,10.2c7,6.8,10.5,16.5,10.5,29
	c0,12.5-3.5,23.2-10.5,32.1c-7,8.9-17.1,15.1-30.1,18.8c1,4.1,2.2,8.3,3.7,12.5l4.3,12.2c3.9,10.4,7.3,17.4,10.4,21.1
	c2.8,3.5,6.5,6,10.7,7.3c-2.2,8.3-7.4,14.8-15.6,19.3c-6.5,3.7-14.3,5.5-23.2,5.5c-26.3,0-41.2-20.3-44.6-60.8
	c-0.6-5.7-0.9-11.4-0.9-17.1c10.2-2.9,18.9-9.1,26-18.6c7.1-9.6,10.7-20,10.7-31.2c0-11.2-4-16.8-11.9-16.8
	c-5.7,0-10.8,3.2-15.3,9.5c-4.5,6.3-7.7,14.9-9.8,25.7l-20.2,103.3l-61.8,6.1l42.8-220.1l61.4-6.1l-7,36.4
	C1951.2,193.1,1947.6,206,1943.5,214.8z" class="st0"></path>
</svg>
