<?xml version="1.0" encoding="UTF-8"?>
<svg id="Layer_1" xmlns="http://www.w3.org/2000/svg" version="1.1" viewBox="0 0 316.2 316.2">
  <!-- Generator: Adobe Illustrator 29.3.1, SVG Export Plug-In . SVG Version: 2.1.0 Build 151)  -->
  <defs>
    <style>
      .st0, .st1 {
        fill: #fff;
      }

      .st1 {
        stroke: #000;
        stroke-miterlimit: 10;
      }

      .st2 {
        fill: #1a1b21;
      }

      .st3 {
        fill: #231f20;
      }

      .st4 {
        fill: #c02827;
      }
    </style>
  </defs>
  <circle class="st1" cx="158.1" cy="158.1" r="158.1"/>
  <path class="st4" d="M156.6,0c-40.8.4-79.2,16.1-108.5,44.6C17.7,74,.7,113.5,0,155.7c-.6,42.2,15.2,82.2,44.6,112.5,29.4,30.3,68.9,47.4,111.1,48,42.2.6,82.2-15.2,112.5-44.6,30.3-29.4,47.4-68.9,48-111.1.6-42.2-15.2-82.2-44.6-112.5C242.2,17.7,202.7.7,160.5,0c-1.3,0-2.6,0-4,0ZM156.6,5.5c1.3,0,2.5,0,3.8,0,40.7.6,78.8,17.1,107.2,46.3,28.4,29.2,43.7,67.8,43,108.5-.6,40.8-17.1,78.8-46.3,107.2-29.3,28.4-67.8,43.7-108.6,43-40.8-.6-78.8-17.1-107.2-46.3C20.2,235.1,4.9,196.5,5.6,155.8c.6-40.8,17.1-78.8,46.3-107.2C80.2,21.1,117.3,5.9,156.6,5.5ZM158.1,53.9c-57.7,0-104.4,46.7-104.4,104.4s46.7,104.4,104.4,104.4,104.4-46.7,104.4-104.4-46.7-104.4-104.4-104.4h0ZM30.4,167.1c-2.4,0-4.4,2-4.4,4.4,0,2.4,2,4.4,4.4,4.4s4.4-2,4.4-4.4c0-2.4-2-4.4-4.4-4.4ZM286.4,167.1c-2.4,0-4.4,2-4.4,4.4,0,2.4,2,4.4,4.4,4.4,2.4,0,4.4-2,4.4-4.4,0-2.4-2-4.4-4.4-4.4Z"/>
  <path class="st2" d="M165.8,15.4l-17,.2c-.4,0-.7.2-1,.4-.3.3-.4.6-.4,1l.2,23.9c0,.8.6,1.4,1.4,1.4l17-.2c.8,0,1.4-.7,1.4-1.4v-2.8c0-.8-.7-1.4-1.5-1.4h-12.7c0,.1,0-4.9,0-4.9h11.3c.8-.1,1.4-.8,1.4-1.5,0,0,0,0,0,0v-2.8c0-.8-.7-1.4-1.4-1.4h-11.3c0,.1,0-4.7,0-4.7h12.7c.4-.1.7-.3,1-.5.3-.3.4-.6.4-1v-2.8c0-.8-.7-1.4-1.4-1.4h0ZM178.7,16.9c-.7,0-1.2.5-1.4,1.1,0,.3,0,.6,0,.9l6.2,12.5-11.5,8.9c-.2.2-.4.5-.5.8,0,.4,0,.8.2,1.1.2.3.5.5.8.6l3.1.7c.1,0,.3,0,.4,0,.6,0,1.1-.2,1.5-.5l8.4-6.6,4.7,9.6c.3.6.9,1.1,1.6,1.3l3.1.7h0s0,0,0,0c.7.1,1.5-.3,1.6-1.1,0-.3,0-.7-.1-1-2.1-4.3-4.2-8.7-6.3-13l4.7-3.7c3-2.3,6.1-4.8,6.2-4.8.3-.2.5-.5.5-.8.2-.8-.3-1.5-1.1-1.7l-3-.7c-.1,0-.3,0-.4,0-.6,0-1.1.2-1.5.5l-8,6.2-4.5-9.1c-.3-.6-.9-1.1-1.6-1.3l-3-.7c-.1,0-.2,0-.3,0h0ZM110.5,23.6c-.2,0-.4,0-.6.1l-2.1.8c-.7.3-1.1.9-1.2,1.6l-.4,4.4-2,22.3c0,.5.1.9.5,1.2.3.2.6.3.9.3.1,0,.3,0,.4,0l3-1.1c.7-.3,1.1-.9,1.2-1.6l.4-4.6,11.7-4.3,3.3,3.2c.4.4.9.5,1.4.5.2,0,.4,0,.6-.1l3-1.1c.4-.2.8-.6.9-1,0-.5,0-.9-.4-1.3-.2-.2-18-17.6-19.1-18.7h0c-.4-.4-.9-.5-1.4-.5h0ZM210.6,25.3c0,0-.2,0-.3,0-.4.1-.7.5-1.1,1.3-.1.3-.2.6-.3.9-.3,1.5.6,2.9,1.4,3.6l-8.6,17.9c0,.1,0,.2-.1.3-.1.6.2,1.2.8,1.5l2.7,1.3c.3.2.7.2,1.1,0,.3-.1.6-.4.8-.7l3.1-6.4,4.6,2.2c2.5,1.2,5.2,1.6,7.5,1.2,2.7-.6,4.8-2.3,6-4.9h0c.4-.8.6-1.6.8-2.5.8-4.1-1.7-8-6.4-10.3l-11.2-5.4c-.2-.1-.5-.2-.7-.2h0ZM111.7,31.8l6.2,6.3-6.8,2.5.6-8.8ZM215.4,33.7l4.6,2.2c2.3,1.1,3.5,2.6,3.2,4.3,0,.3-.2.6-.3.9h0c-.4,1-1.3,1.6-2.2,1.8-1.1.2-2.3,0-3.6-.6l-4.6-2.2,3-6.3h0ZM85,38.2c-2.9,0-5.8,1.1-8.4,2.9l-9.5,6.7c-.2.2-.5.4-.6.8,0,.4.1.9.6,1.5.9,1.3,2.4,1.5,3.1,1.5.5,0,.9,0,1.3-.2l11.5,16.2c.4.6,1.3.8,1.9.3,0,0,0,0,0,0l7.1-5c6.6-4.7,8.2-12.7,3.7-19h0c-2.6-3.7-6.5-5.7-10.8-5.6h0ZM240.3,41.6c-.4,0-.9.2-1.1.5l-15.2,18.5c-.5.6-.4,1.5.2,1.9l2.3,1.9c.2.2.5.3.8.3.4,0,.8-.2,1.1-.5l5.1-6.2,3.9,3.2-.4,10.8c0,.7.3,1.4.8,1.8l2.5,2c.2.2.6.3.9.3.4,0,.9-.2,1.1-.5.2-.2.3-.6.3-.9l.3-10.4c.8.2,1.5.3,2.3.4,1.8,0,4.4-.4,6.5-2.9h0c1.5-1.9,2.2-4.1,1.8-6.3-.4-2.5-2-4.9-4.5-7l-8-6.6c-.2-.2-.5-.3-.8-.3ZM84.9,43.9c2.5,0,4.8,1.1,6.3,3.2h0c2.6,3.7,1.7,8.3-2.3,11.1l-3.5,2.5-9-12.6,3.5-2.5c1.5-1.1,3.3-1.7,4.9-1.7h0ZM241,49.1l4.5,3.7c3.5,2.9,3,4.4,2.1,5.4h0c-.5.7-1.4,1.1-2.2,1.1-1,0-2.3-.6-3.5-1.6l-4.7-3.9,3.9-4.7ZM58.2,56.4c-.4,0-.7.2-1,.5l-1.9,2.2c-.2.3-.4.6-.3,1,0,.4.2.7.5.9l11.2,9.7-20-.3h-.1c-.6,0-1.3.3-1.7.8l-1.3,1.4c-.5.6-.4,1.4.1,2l18.1,15.7c.3.2.6.4,1,.3.4,0,.7-.2,1-.5l1.9-2.2c.5-.6.4-1.5-.1-2,0,0,0,0,0,0l-11.3-9.8,20.3.3h.1c.5,0,1.1-.2,1.5-.7l1.3-1.5c.5-.6.4-1.5-.1-2l-18.1-15.7c-.3-.2-.6-.4-1-.3h0ZM265.9,65.2c-.3,0-.7,0-.9.3l-18.8,14.7c-.6.5-.7,1.4-.3,2,0,0,0,0,0,0l10.5,13.4c.5.6,1.4.7,2,.2l2.2-1.7c.6-.5.7-1.4.3-2,0,0,0,0,0,0l-7.8-10,3.9-3.1,6.9,8.9c.5.6,1.4.7,2,.2l2.2-1.7c.6-.5.7-1.4.2-2l-6.9-8.9,3.8-3,7.8,10c.3.3.6.5,1.1.5.3,0,.7,0,.9-.3l2.2-1.7c.3-.2.5-.6.5-1,0-.4,0-.8-.3-1.1l-10.5-13.4c-.2-.3-.6-.5-1-.5,0,0,0,0,0,0ZM279.3,92.2c-.9,0-1.8.3-2.6.6h0c-3.8,1.8-4.8,5.4-3.5,12.2,1,5.2.3,5.6-.4,5.9-.3.1-.6.2-.9.2-1.1,0-2.3-1.1-3.1-2.8-1.2-2.5-1.2-3.8-.8-6.9,0-.3,0-.6-.1-.8-.2-.4-.6-.7-1.1-.8l-2.7-.4c-.8-.1-1.5.4-1.7,1.1,0,.2-1.3,4.8,1.2,10.2,1.7,3.6,4.7,5.9,7.9,6.2,1.3,0,2.6-.2,3.7-.7h0c3.7-1.8,4.8-5.5,3.4-12-1.1-5.4-.3-5.8.4-6.1.2,0,.5-.1.7-.1.9,0,2.2.8,3,2.6.7,1.6,1,3.3.9,5.1h0s0,0,0,0c0,.3,0,.5.1.8.2.4.6.7,1,.8l2.7.6c.4,0,.8,0,1.1-.2.3-.2.5-.5.6-.9,0-.1.9-3.7-1.4-8.5-1.6-3.5-4.6-5.8-7.9-6-.3,0-.6,0-.9,0h0ZM31.9,93.3c-.5,0-1,.2-1.4.6-.1.1-.3.3-.3.5l-1,2c-.3.7-.2,1.4.2,2l2.7,3.4,13.9,17.5c.3.4.7.6,1.2.5.3,0,.6-.2.8-.4.1-.1.2-.2.3-.4l1.4-2.9c.3-.7.2-1.4-.2-2l-2.9-3.6,5.5-11.2h4.6c.5,0,1-.2,1.4-.5.1-.1.2-.3.3-.5l1.4-2.9c.2-.4.2-.9,0-1.3-.2-.4-.7-.6-1.2-.6-.3,0-25.1-.4-26.8-.4h0ZM37.1,99.1l8.8.3-3.2,6.5-5.6-6.8ZM28.4,115.4c-.2,0-.4,0-.6,0-4.2.2-7.4,3.5-8.5,8.7l-2.6,12.1c0,.3-.1.7.1,1,.2.4.7.6,1.5.7.3,0,.6,0,.9,0,1.6,0,2.7-1.3,3.2-2.2l19.4,4.1c.7.2,1.5-.3,1.6-1.1,0,0,0,0,0,0l.6-2.9c.2-.7-.3-1.5-1.1-1.6,0,0,0,0,0,0l-6.9-1.5,1.1-5c.6-2.8.4-5.4-.6-7.6-1.2-2.5-3.3-4.1-6.2-4.7h0c-.6-.1-1.3-.2-1.9-.2h0ZM289.6,118.5c-.6,0-1.2,0-1.7.1h0c-4.2.9-5.9,4.1-6.2,11.1-.2,5.3-1,5.5-1.7,5.6-.2,0-.3,0-.5,0-1.3,0-2.4-1.4-2.8-3.5-.6-2.7-.3-4,.8-6.9.3-.7,0-1.6-.8-1.9l-2.5-1c-.2,0-.3,0-.5-.1-.6,0-1.1.3-1.4.8,0,.2-2.4,4.4-1.1,10.2,1,4.8,4.2,7.9,8.1,8.1.6,0,1.3,0,1.9-.2h0c4-.9,5.9-4.2,6.1-10.9.2-5.5,1.1-5.7,1.8-5.9,0,0,.2,0,.3,0,1,0,2.3,1.1,2.8,3.3.3,1.7.3,3.5-.3,5.1h0c0,.3,0,.6,0,.8,0,.5.4.9.8,1.1l2.5,1.2c.2,0,.4.1.5.1.6,0,1.1-.3,1.3-.8.2-.3,1.7-3.6.6-8.6-1-4.5-4.3-7.8-8.1-7.9h0ZM28.3,121.2c.3,0,.6,0,1,0h0c1,.2,1.8.8,2.2,1.8.5,1,.5,2.3.2,3.7l-1.1,5-6.9-1.5,1.1-5c.5-2.5,1.7-4,3.4-4.1h0Z"/>
  <path class="st2" d="M41,200.4c-1.5,0-3,.3-4.5.9-5.6,2.4-7.9,8.4-5.6,13.9,0,.2.2.4.3.6v.2c.2.1.2.3.3.4v.2c.1,0,.3.2.3.2h0c0,0,.1.3.1.3,0,.1.1.2.2.3v.2c.2,0,.3.2.3.3v.2c.1,0,.4.2.4.2l.2.2.2.2h.1c0,.2.2.3.3.4h.1c.3.4.6.6.8.8h.1c0,0,.3.3.3.3h.1c0,0,.3.3.3.3h.2c0,0,.1.1.1.1h.2c0,0,.2.2.2.2h.2c0,.1,0,.1,0,.1h.3c.2.2.4.3.6.3.6,0,1.2-.4,1.4-1l.5-1.3c.3-.8,0-1.7-.8-2-.2-.1-.4-.2-.6-.3h-.1c-.1-.2-.3-.3-.4-.3h-.1c0,0,0-.1,0-.1-.1,0-.2-.2-.3-.2l-.2-.2c0,0-.2-.2-.3-.3-.2-.1-.3-.3-.4-.5h0c0,0,0-.1,0-.1h0c0-.2-.2-.3-.2-.4h0c0,0,0-.2,0-.2-.1-.2-.2-.4-.3-.7-.6-1.4-.6-3,0-4.4.6-1.4,1.8-2.6,3.4-3.2.9-.4,1.8-.6,2.7-.6,2.3,0,4.3,1.2,5.2,3.3,0,.2.2.4.2.6h0c0,.1,0,.2,0,.2,0,.2,0,.4.1.6h0c0,0,0,.5,0,.5v.2c0,.1,0,.3,0,.4h0c0,0,0,.2,0,.2,0,.1,0,.3,0,.4v.2c0,.2,0,.3-.1.5h0c0,.3,0,.5-.2.7-.2.8.2,1.7,1,1.9l1.5.5c.8.2,1.7-.2,2-1,0-.2.1-.5.2-.8h0c0-.4.1-.6.1-.9h0c0-.4,0-.7,0-.9h0c0-.4,0-.6,0-.9h0c0-.4,0-.7,0-.9h0c0-.4-.1-.7-.2-1v-.2c-.1-.3-.2-.6-.3-.9h0c-.1-.5-.3-.8-.4-1.2-1.7-4-5.4-6.4-9.6-6.4h0ZM270.9,200.5c-.6,0-1.2.3-1.4.9l-.7,1.5c-.2.4-.2.8,0,1.2.1.4.4.7.8.9l9.5,4.4-13.7,3.1c-.7.2-1.3.7-1.7,1.3l-.6,1.3c-.2.4-.2.8,0,1.2.1.4.4.7.8.9l15.9,7.4c.8.4,1.7,0,2.1-.7,0,0,0,0,0,0l.7-1.5c.2-.4.2-.8,0-1.2-.1-.4-.4-.7-.8-.9l-9.8-4.6,14.1-3.2c.7-.2,1.3-.7,1.7-1.4l.5-1c.2-.4.2-.8,0-1.2-.1-.4-.4-.7-.8-.9l-16-7.4c-.2,0-.4-.1-.6-.1h0ZM55.3,218.8c-.3,0-.6,0-.9.3l-14.5,9.9c-.7.5-.9,1.5-.4,2.2l1,1.4c.3.4.8.7,1.3.7.3,0,.6,0,.9-.3l5.4-3.7,4.4,6.5-5.4,3.7c-.7.5-.9,1.4-.4,2.2l.9,1.4c.5.7,1.4.9,2.1.4,0,0,0,0,0,0l14.5-9.9c.3-.2.6-.6.6-1,0-.4,0-.8-.2-1.2l-1-1.4c-.3-.4-.8-.7-1.3-.7-.3,0-.6,0-.9.3l-5.3,3.7-4.4-6.4,5.3-3.7c.7-.5.9-1.5.4-2.2l-1-1.4c-.3-.4-.8-.7-1.3-.7h0ZM260.2,221.4c-.5,0-1,.2-1.3.6l-7.3,10.2c-.5.7-.3,1.7.4,2.2l14.3,10.3c.3.2.6.3.9.3.5,0,1-.2,1.3-.6l7.4-10.3c.2-.3.3-.8.3-1.2,0-.4-.3-.8-.6-1l-1.1-.8c-.3-.2-.6-.3-.9-.3-.5,0-1,.2-1.3.6l-5.5,7.7-3.1-2.2,4.7-6.6c.5-.7.3-1.7-.4-2.2l-1.1-.8c-.3-.2-.6-.3-.9-.3-.5,0-1,.2-1.3.6l-4.7,6.6-2.5-1.8v-.3h-.4l5.4-7.6c.5-.7.3-1.7-.4-2.2l-1.1-.8c-.3-.2-.6-.3-.9-.3h0ZM69.7,237.8c-.4,0-.8.1-1,.4l-12.9,11.9c-.6.6-.7,1.6,0,2.2l1.1,1.2c.6.6,1.6.7,2.2,0l12.9-11.9c.6-.6.7-1.6,0-2.2,0,0,0,0,0,0l-1.1-1.2c-.3-.3-.7-.5-1.1-.5h0ZM246.8,238.6c-.4,0-.8.2-1.1.4l-1.2,1.2c-.3.3-.5.7-.5,1.1,0,.4.2.8.4,1.1l4.5,4.6-5.6,5.5-4.5-4.6c-.3-.3-.7-.5-1.1-.5-.4,0-.8.2-1.1.4l-1.2,1.2c-.6.6-.6,1.6,0,2.2l12.3,12.6c.3.3.7.5,1.1.5.4,0,.8-.2,1.1-.4l1.2-1.2c.3-.3.5-.7.5-1.1,0-.4-.2-.8-.4-1.1l-4.6-4.7,5.6-5.5,4.6,4.7c.6.6,1.6.6,2.2,0,0,0,0,0,0,0l1.2-1.2c.6-.6.6-1.6,0-2.2,0,0,0,0,0,0l-12.3-12.6c-.3-.3-.7-.5-1.1-.5h0ZM77.5,245.9c-.5,0-.9.2-1.2.6l-11,13.7c-.5.7-.4,1.6.2,2.2l1.3,1c.3.2.6.3,1,.3.5,0,.9-.2,1.2-.6l6.8-8.5-.2,14.5c0,.7.3,1.5.9,1.9l.9.7c.3.2.6.3,1,.3.5,0,.9-.2,1.2-.6l11-13.7c.3-.3.4-.7.3-1.1,0-.4-.2-.8-.6-1l-1.3-1c-.3-.2-.6-.3-1-.3-.5,0-.9.2-1.2.6l-6.6,8.2.2-14c0-.7-.4-1.5-.9-1.9l-1.1-.9c-.3-.2-.6-.3-1-.3h0ZM230.1,254.9h-.6s-.2,0-.2,0h-.2s-.2,0-.2,0c-.2,0-.3,0-.5,0-.2,0-.3,0-.5,0h-.2s-.2,0-.2,0h-.2s-.2.1-.2.1h0c0,0-.2,0-.2,0,0,0,0,0-.1,0h0c-.1,0-.2.1-.3.2h-.2c0,0,0,0,0,0-.1,0-.2,0-.3.1h-.2c0,.1-.2.2-.2.2h0s-.2.1-.2.1l-.3.2h0s-.2.1-.2.1c-.2.1-.4.2-.6.4-2.5,1.6-4.2,4-4.7,6.8-.5,2.7,0,5.5,1.6,8,2,3.1,5.3,5,8.9,5s4-.6,5.7-1.7c.2-.1.4-.2.5-.4h.2c0-.1.3-.4.3-.4l.2-.2h.1c0-.1.2-.2.2-.2l.2-.2c0,0,.2-.2.3-.2,0,0,.1-.1.2-.2h0c0,0,.1-.2.1-.2l.2-.2c0,0,.1-.1.2-.2l.2-.2h.1c0-.1.1-.3.1-.3h0c0-.2.1-.3.2-.4h0c0-.1,0-.2,0-.2,0,0,0,0,0-.1h0c0,0,.2-.3.2-.3,0-.2.2-.3.2-.5h0c0-.1,0-.2,0-.2v-.3c.1,0,.2-.2.2-.2v-.3c.1,0,.2-.2.2-.2h0c0-.1,0-.3,0-.3v-.2c0-.1.1-.2.1-.3v-.4c.3-.8-.3-1.7-1.1-1.8l-1.4-.3c-.8-.2-1.6.3-1.9,1.1,0,.2-.1.4-.2.6v.2c-.1.2-.2.3-.3.4v.2c-.1,0-.1,0-.1,0,0,.1,0,.2-.2.3v.2c-.2.1-.3.2-.3.4l-.2.2c0,.1-.2.2-.3.3,0,0,0,0-.1.1-.1.1-.2.2-.3.3h0c0,0,0,.1,0,.1-.2.2-.4.3-.6.4-.9.6-1.9.9-3,.9-2,0-4-1.1-5.2-3-.9-1.4-1.3-3-1-4.6.3-1.5,1.1-2.8,2.4-3.7.2-.1.4-.2.6-.3h0s0,0,0,0h0s0,0,0,0c.1,0,.3-.1.4-.2h0s.1,0,.1,0h0c.1,0,.2-.1.4-.1h.1s.1,0,.1,0c.1,0,.2,0,.4,0h0s.2,0,.2,0c.1,0,.3,0,.4,0h.1s.1,0,.1,0c.2,0,.4,0,.5,0h.1c.2,0,.4,0,.6,0,.8.1,1.6-.5,1.7-1.3l.2-1.6c.1-.8-.5-1.6-1.3-1.8h-.3c0,0-.2,0-.3,0h-.7c-.1,0-.2,0-.3,0h0ZM97,260.2c-.6,0-1.1.3-1.4.8l-8.3,15.5c-.2.4-.2.8-.1,1.2.1.4.4.7.8.9l11.2,6c.7.4,1.7.1,2.1-.6,0,0,0,0,0,0l.6-1.2c.4-.8.1-1.7-.6-2.1l-8.4-4.5,1.8-3.4,7.2,3.8c.2.1.5.2.7.2.6,0,1.1-.3,1.4-.8l.6-1.2c.2-.4.2-.8.1-1.2-.1-.4-.4-.7-.8-.9l-7.2-3.8,1.7-3.2,8.3,4.4c.8.4,1.7.1,2.1-.6l.6-1.2c.4-.8.1-1.7-.6-2.1,0,0,0,0,0,0l-11.1-5.9c-.2-.1-.5-.2-.7-.2h0ZM212.2,264.6c-.2,0-.4,0-.6.1l-12.8,5.5c-.4.2-.7.5-.8.8-.2.4-.1.8,0,1.2l.6,1.3c.3.6.8.9,1.4.9.2,0,.4,0,.6-.1l3.9-1.7h.1s.2,0,.2,0l5.7,13.3c.2.6.8.9,1.4.9.2,0,.4,0,.6-.1l1.6-.7c.8-.3,1.2-1.2.8-2,0,0,0,0,0,0l-5.7-13.4,4.2-1.8c.8-.3,1.1-1.2.8-2l-.6-1.3c-.3-.6-.8-.9-1.4-.9h0ZM118.7,270.3c-2.9,0-5.2,1.6-6.1,4.2-1.2,3.8.8,6,4.6,8.3,3.1,1.9,3.2,2.6,2.9,3.4-.3.9-1.1,1.1-1.7,1.1s-.9,0-1.4-.2c-.2,0-.5-.2-.7-.3,0,0,0,0-.1,0h0c-.1-.1-.3-.2-.4-.3,0,0-.2,0-.2-.1-.1,0-.2-.2-.4-.2,0,0-.1,0-.2-.1h0c-.1-.1-.2-.2-.3-.3,0,0-.1-.1-.2-.2-.1-.1-.2-.2-.4-.4,0,0-.1-.1-.2-.2-.1-.1-.2-.2-.3-.4h0c-.2-.3-.3-.5-.5-.7v-.2c-.4-.4-.9-.7-1.4-.7-.3,0-.6,0-.8.2l-1.2.8c-.7.4-.9,1.3-.6,2h0c0,.1,0,.3,0,.3l.2.2h0c0,0,0,.2,0,.2.2.3.4.5.6.8h.1c.2.4.5.7.8.9.2.1.3.3.5.4l.4.3c.2.1.3.3.5.4h0s0,0,0,0c.3.2.6.4.9.5h0c0,0,.3.2.3.2.2.1.4.2.7.3h.1c0,0,.1.1.1.1h0c.4.2.7.3,1,.4,1.1.4,2.1.5,3.1.5,3,0,5.2-1.6,6.1-4.3,1-3.1-.3-5.6-4.4-8.1-3.4-2.1-3.4-2.7-3.1-3.5.2-.6.8-1,1.6-1s.8,0,1.2.2c.2,0,.4.1.5.2,0,0,0,0,0,0h0c.1,0,.2.2.3.2h.2c.1.2.2.2.3.3h0c0,0,.1.1.1.1,0,0,.2.1.3.2,0,0,.1,0,.2.1.1,0,.2.2.3.3l.2.2c.1.1.2.2.3.4h.1c.1.3.3.4.4.6.3.4.8.6,1.2.6.3,0,.7-.1.9-.3l1.1-.9c.7-.5.8-1.4.4-2.1h0c0-.1,0-.2-.1-.2h0c-.1-.2-.3-.4-.4-.6,0,0-.1-.1-.2-.2h0c-.1-.2-.3-.3-.4-.5l-.2-.2h0c-.1-.2-.3-.3-.4-.4h0c0,0-.2-.2-.2-.2h0c-.1-.1-.3-.2-.4-.3-.3-.2-.5-.4-.8-.5h0c-.3-.2-.6-.3-.9-.5h0s0,0,0,0h-.1c-.3-.2-.6-.3-1-.4-.9-.3-1.9-.5-2.8-.5h0ZM191.9,272.3c-.1,0-.3,0-.4,0l-1.6.5c-.4.1-.7.4-.9.7-.2.4-.3.8-.1,1.2l4.8,16.9c.2.8,1.1,1.3,1.9,1.1l1.6-.5c.8-.2,1.3-1.1,1.1-1.9l-4.8-16.9c-.2-.7-.8-1.1-1.5-1.1h0ZM135.3,274.9c-.8,0-1.4.6-1.5,1.3l-2.5,17.4c0,.4,0,.8.3,1.1.2.3.6.5,1,.6l12.6,1.8c.8.1,1.6-.5,1.8-1.3l.2-1.3c0-.4,0-.8-.3-1.1-.2-.3-.6-.6-1-.6l-9.4-1.4.5-3.8,8,1.2c.8.1,1.6-.5,1.8-1.3l.2-1.3c.1-.8-.5-1.6-1.3-1.8,0,0,0,0,0,0l-8-1.2.5-3.6,9.3,1.3c.8.1,1.6-.5,1.8-1.3l.2-1.3c.1-.8-.4-1.6-1.3-1.7,0,0,0,0,0,0l-12.5-1.8c0,0-.1,0-.2,0h0ZM181.7,275h0s0,0,0,0l-1.5.2c-.7.1-1.4.5-1.8,1.1l-6.3,8.7-.9-7c-.1-.8-.8-1.3-1.5-1.3,0,0-.1,0-.2,0l-1.7.2c-.4,0-.8.3-1,.6-.3.3-.4.7-.3,1.1l2.3,17.4c.1.8.9,1.4,1.7,1.3,0,0,0,0,0,0l1.7-.2c.4,0,.8-.3,1-.6.3-.3.4-.7.3-1.1l-.6-4.4,1.9-2.6,6.5,6.6c.5.5,1.3.8,2,.7l1.7-.2c0,0,.2,0,.3,0,.6-.2,1-.7,1-1.4,0-.4-.1-.7-.4-1l-8.3-8.3,5.4-7.3s0,0,0-.2c.1-.2.2-.5.2-.7,0-.8-.7-1.5-1.5-1.5h0Z"/>
  <path class="st0" d="M149.7,86.7c-.9,0-1.9,0-2.8,0-5.9.3-11.8,1.6-17.3,3.8,0,0-.1,0-.1,0-7,2.9-13.4,7.2-18.6,12.8h0c-3.1,3.3-5.8,7-7.9,11,0,.1-.1.3-.2.4,0,0,0,0,0,.1-1,2.1-6.1,13-6.1,27.3,0,0-.4,9.4,5.8,20.2,1,1.9,2.2,3.7,3.5,5.3.2.3.5.6.7.9.2.3.5.6.7.9,0,0,0,0,0,0l.7.8v.2c.4.2.6.5.8.7,4.3,4.7,9.9,7.5,15.7,13,.7.6,1.3,1.3,2,1.9,1.4,1.1,2.1,1.7,3.7,2.6,0,0,0,0,0,0h0c0,0,.2.1.3.2.9.5,1.7.8,2.6,1.2,3.4,1.3,7,1.9,10.6,1.8,8.9,0,16.3-4.3,23.6-8.4,2.5-1.4,5-2.7,7.6-3.9,1.8-.9,3.7-1.8,4.9-2.5l3.2-1.9c21.3-12.9,19.3-37,19.3-37-.5-28.6-23.9-51.6-52.6-51.6h-.1ZM207.1,107.4c-1.1,2.6-2.7,5.2-5,7.9,5.3,6,9.5,12.4,12.7,20.2,4.6,11.5,6.7,24.9,6.8,37.3,0,0,0,2.3,4.4,2.4,2,0,3.7-1.1,4.4-1.5,3.5-2.4,6.7-7.5,6.7-15.9h0c0-.5,0-.9,0-1.2-.3-11.6-4.7-20.9-7.2-25.2-.5-1-1.1-1.9-1.8-2.8-5.9-8.1-12.9-15.2-20.9-21.2h0Z"/>
  <path class="st2" d="M113,79.1c-14,.2-29.8,16.7-10.4,36h0c0,0,0-.1,0-.2,0-.1.1-.3.2-.4,2.2-4,4.8-7.7,7.9-11h0c5.2-5.6,11.5-9.9,18.6-12.8,0,0,.1,0,.2,0h0c-2.2-5-6.8-10.3-13.8-11.4-.9-.1-1.8-.2-2.8-.2h0ZM188.8,80c-.8,0-1.6,0-2.4.1-5.5.6-11.5,5.4-15.4,11.1,18.2,8,31,26.1,31.4,47.2,0,0,1.9,24-19.3,37-.2.1-.4.3-.6.4,0,0-.2,0-.2.1l-.7.4h0c-.3.2-.5.4-.8.5h0s-.7.4-.7.4c0,0,0,0-.1,0h0s0,0,0,0c0,0,0,0,0,0h0s0,0,0,0c0,0,0,0,0,0h0s0,0,0,0h0s-.3.1-.3.1c0,0,0,0,0,0,0,0,0,0,0,0h0s0,0,0,0h0s0,0,0,0c0,0,0,0,0,0h-.1c0,0,0,0,0,0h-.3c0,.1,0,.2,0,.2h-.1c0,0,0,0,0,0,0,0,0,0-.1,0h0s-.1,0-.1,0h0s0,0-.1,0h0s-.3.2-.3.2h0s0,0-.1,0c0,0,0,0,0,0,0,0,0,0-.1,0h0s-.1,0-.1,0h0s-.1,0-.1,0h0s-.3.2-.3.2h0s0,0-.1,0h0s0,0-.1,0c0,0,0,0,0,0h-.1c0,0,0,0,0,0,0,0,0,0-.1,0,0,0,0,0,0,0,0,0-.1,0-.2,0h-.2c0,0,0,0,0,0,0,0,0,0,0,0h0c-2.6,1.3-5.1,2.6-7.6,4-7.4,4.1-14.7,8.4-23.6,8.4h-1c-3.3,0-6.5-.7-9.5-1.8-.9-.3-1.8-.7-2.6-1.2,0,0-.2,0-.3-.1h0s0,0,0,0c0,0,0,0,0,0-1.6-.9-2.3-1.4-3.7-2.6-.6-.6-1.3-1.2-2-1.9-5.8-5.5-11.4-8.4-15.7-13-.2-.2-.4-.5-.7-.7v-.2c-.1,0-.8-.8-.8-.8,0,0,0,0,0,0-.2-.3-.5-.6-.7-.9,0,0,0,0,0,0-.3-.3-.5-.6-.7-.9,0,0-.1-.2-.2-.3,0,0,0,0,0,0,0,0,0-.1-.2-.2,0,0,0,0,0,0,0,0-.1-.2-.2-.2h0s-.2-.3-.2-.3h0c0,0-.2-.3-.2-.3h0c0,0-.2-.3-.2-.3,0,0,0,0,0,0l-.2-.3s0,0,0,0l-.2-.3h0c0,0-.2-.3-.2-.3,0,0,0,0,0,0-.1-.2-.3-.4-.4-.6h0c0,0-.2-.3-.2-.3h0c-.1-.3-.3-.5-.4-.7,0,0,0,0,0,0l-.2-.3h0c0-.2-.1-.3-.2-.4-.6-1-1.1-2-1.6-3-2.1,3.4-3.3,6.2-4.8,10.8-3.1,9.6-4.7,21-2.7,31.1,2.4,12.2,7.1,23.5,16.3,31.7,5.9,5.3,12.8,8.6,20.9,9.7,7.2,1,13.9-3.2,13.9-11s-4.6-10.9-5.1-16.4c-.7-8,4.2-15.1,12.4-14.3,4,.4,8.7,3.2,9.4,9.1.5,4.8-.2,7.5-2.8,12.2-2.9,5.3-6.2,9.6-6.1,14.5h0s0,.2,0,.4v.2c0,.1,0,.3,0,.5,0,.1,0,.3,0,.4,0,.1,0,.3.1.4,0,.1,0,.3.1.5,0,.1,0,.3,0,.4.8,2.9,3.2,7.4,9.8,8.8,1.8.4,4.9.5,7.4.4,9.1-.7,28.4-4.9,42.6-31.7,0,0,29.7,2.3,29.7-46.8h0s0,0,0,0h0c0-1.1,0-2.2-.1-3.3,0-1.8-.3-3.6-.5-5.4h0c0-.7-.2-1.3-.3-1.9-.2-1-.3-2-.5-3-.6-2.9-1.4-5.7-2.3-8.4-2.3-6.7-5.5-12.7-9-17.9-.4-.5-.7-1.1-1.1-1.6l.2.3c.3.4.7,1.1,1.3,2.1,2.5,4.3,6.9,13.6,7.2,25.2,0,.4,0,.7,0,1.1h0c0,8.5-3.2,13.6-6.7,16-.7.4-2.4,1.5-4.4,1.5-4.5,0-4.4-2.4-4.4-2.4,0-12.4-2.2-25.7-6.8-37.3-3.1-7.8-7.4-14.2-12.7-20.2,2.3-2.7,4-5.3,5-7.9,6.4-15.1-6.4-27.1-18.3-27.4h0ZM124.8,133.3c-4.9,0-10.1,4.1-12.2,12.5-2.6,10.4,5.2,17.6,8.2,17.5,2.6,0,3.8-2,3.8-2,.5-.7.9-1.5,1.2-2.5.8-2.5,2.2-4.8,5.1-9.3,4.9-7.5,1.7-13.6-2.2-15.5-1.2-.6-2.6-.9-3.9-.8h0ZM160.9,134.9c-1.2,0-2.4.2-3.5.6-4.2,1.7-8,7.9-3.4,16,2.7,4.8,4,7.3,4.7,10,.3,1.1.7,2.1,1.3,2.9h0c.3.4.5.7.9,1,.6.5,1.6,1.1,2.7,1.1h.1c3.3,0,11.5-6.9,9.6-17.7-1.6-9.2-7.2-13.8-12.4-13.9h0ZM121.7,145.1c1.6,0,3,1.3,3,2.9,0,0,0,.2,0,.2-.1,1.6-1.5,2.8-3.1,2.7-1.6-.1-2.8-1.5-2.7-3.1.1-1.5,1.3-2.7,2.8-2.7h0ZM162.6,147.5c1.6,0,3,1.3,3,2.9,0,0,0,.2,0,.3-.1,1.6-1.5,2.8-3.1,2.7-1.6-.1-2.8-1.5-2.7-3.1.1-1.5,1.3-2.7,2.8-2.7h0ZM133.4,173.7c-.9,0-1.7.8-1.7,1.7,0,.4.1.8.4,1.1,2.5,2.9,6.4,2.2,7.2,5.7,0,.2,0,.3.2.5,0,0,0,0,0,0,0,.1.1.2.2.3.3.4.8.6,1.3.6.7,0,1.3-.4,1.6-1,0,0,0-.2,0-.3.9-3.3,5.4-2.5,8.1-4.9.2-.2.4-.3.5-.6.1-.2.2-.5.2-.8,0-.9-.7-1.6-1.6-1.7-1.9,0-2.3.5-8.2.2-5.9-.3-6.1-.9-8-1h-.1Z"/>
  <path class="st3" d="M270.2,280.7c-4.5,0-8.1,3.6-8.1,8.1s3.6,8.1,8.1,8.1,8.1-3.6,8.1-8.1-3.6-8.1-8.1-8.1ZM270.2,282.2c3.7,0,6.7,3,6.7,6.7s-3,6.7-6.7,6.7h0c-3.7,0-6.7-3-6.7-6.7s3-6.7,6.7-6.7h0ZM267.3,284.9c0,0-.1,0-.1.1h0v7.8c0,0,0,.1.1.1h1.2c0,0,.1,0,.1-.1,0,0,0,0,0,0v-2.6c0,0,0-.1.1-.1h1.5c0,0,.1,0,.2,0l1.8,2.6c0,0,.1,0,.2,0h1.4c0,0,0,0,0,0l-2-2.8s0-.1,0-.1c1.1-.3,1.8-1.1,1.8-2.4s-1.1-2.5-3-2.5h-3.4ZM268.7,286.2h1.9c1,0,1.7.5,1.7,1.3s-.6,1.3-1.6,1.3h-1.9c0,0-.1,0-.1-.1h0v-2.5c0,0,0-.1.1-.1h0Z"/>
</svg>