<svg xmlns="http://www.w3.org/2000/svg" width="96.132" height="96.131" viewBox="0 0 25.435 25.435"><path d="M83.288 198.592h25.435v-25.434H83.288Z" style="fill:#606b21;fill-opacity:1;fill-rule:nonzero;stroke:none;stroke-width:.35277778" transform="translate(-83.288 -173.158)"/><path d="m99.981 180.516-.012-.006-.04-.041-.058-.023a.3.3 0 0 0 .042-.132.2.2 0 0 0-.052-.135c-.016-.017-.04-.016-.06-.026l.036-.013c.022-.013.042-.03.042-.03l.013-.01.036-.047.03-.077-.008-.063-.013-.05-.019-.027-.055-.06c-.02-.014-.051-.03-.051-.03l-.023-.012-.046-.008-.046-.003-.075.02-.044.035-.041.002-.088.01c-.005 0-.14.05-.14.05l-.03.012-.104.028h-.112c-.02-.075-.044-.156-.044-.156-.245-.573-.902-.745-2.422-.633-1.11.082-1.895.446-2.33 1.084-.265.387.086 1.042.128 1.115l.006.011.018.033c-.02.032-.193.097-.32.144-.378.142-.95.355-1.262.947-.42.79-.293 1.547.354 2.133.749.68 1.959.798 2.613.807.579.008 1.298.018 2.265-.631.785-.529 1.179-1.304 1.179-1.87a1 1 0 0 0-.048-.315l-.013-.027.08-.123.034-.073.023-.135c0-.009-.07-.225-.07-.225l-.02-.03a.62.62 0 0 0-.293-.202l.02-.005.099-.042c.013-.007.128-.085.128-.085.01-.01.317-.249.317-.249.003-.002.12-.154.12-.154l.036-.054.06-.054.177-.172.091-.129c.005-.01.027-.163.027-.163 0-.01-.026-.086-.026-.086zm-5.14.044a.86.86 0 0 1 .372-.602 3 3 0 0 1 .363-.203c.094-.047.193-.056.284-.097.074-.034.13-.04.206-.047.384-.036.778.053 1.152.153.162.044.32.05.475.105.026.01.044.025.07.036.102.04.205.04.308.087.084.04.185.061.279.07.267.023.553.005.823.01.1.002.186-.047.273-.083.068-.027.148-.013.223-.026.016-.003.024-.021.041-.042.015-.018.078.033.024.055-.069.025-.123.032-.189.067-.168.088-.425.18-.602.268-.067.033-.14.017-.22.038-.18.047-.368.085-.556.06-.126-.016-.24-.024-.353-.068a8 8 0 0 0-.476-.163c-.146-.048-.268-.134-.414-.176-.021-.006-.145-.048-.173-.052a7 7 0 0 0-.634-.078c-.16-.01-.61.158-.715.205-.027.012-.063.015-.085.027-.049.024-.08.061-.133.093-.026.015-.17.15-.182.16-.037.034-.093.086-.1.135-.005.036.007.058.007.093-.002.025-.037.045-.057.032s-.008-.038-.012-.056m4.856-.204c-.083.032-.125.118-.211.141-.026.008-.036.008-.058.023a2.6 2.6 0 0 0-.385.288c-.117.113-.366.137-.516.194-.093.036-.182.04-.29.062a1.3 1.3 0 0 1-.99-.216c-.263-.182-.555-.342-.873-.387a.73.73 0 0 0-.397.032.4.4 0 0 0-.196.222c-.003.007-.043.01-.048.009-.025-.007-.026-.025-.022-.045a.43.43 0 0 1 .135-.21c.142-.125.51-.256.725-.219q.123.021.234.03c.062.006.203.072.27.094.094.03.175.096.269.141.104.05.206.076.325.108.21.056.485.076.705.055.075-.007.13-.05.205-.048.054.001.108.005.162-.005.137-.024.288-.034.413-.082.149-.058.302-.138.456-.185.032-.01.07-.022.09-.05.011-.007.021.003.015.01-.025.003.006.028-.018.037m-4.397 1.59c.036.035.012.088-.026.085-.067-.007-.142-.038-.165-.096-.017-.044.06-.021.055-.054-.004-.031-.056-.043-.073-.07-.004-.032-.057-.077-.015-.105.052-.032.098.046.147.064.073.027.155 0 .196.056.007.01-.002.012.004.023.012.024.057.012.08.037.009.008.007.012.003.022-.013.05-.065.055-.116.062-.039.005-.05-.034-.082-.049-.01-.005-.018.017-.008.025m-.116-1.043c.02-.038.042-.016.074-.01l.011-.013c.052.017.112-.003.163.003.066.026.144.04.19.103.018.033.011.069.017.115a.2.2 0 0 1-.127.074c-.035-.057-.135-.064-.122-.148-.07-.028-.156-.039-.203-.102 0-.012 0-.012-.003-.023m.09.78c-.018-.034-.036-.066-.002-.093.04.017.077.013.114.009.04.018.077.013.117.032.027-.073.003-.152.06-.206.003-.013-.002-.028.004-.046.06-.074.073-.171.14-.24a.7.7 0 0 1 .228-.238c.004 0 .048-.017.085-.022.02.057-.011.095-.057.124a2.6 2.6 0 0 0-.324.61l-.096.117c-.095.035-.182-.035-.27-.048m.682-.562c.1-.001.21-.015.315.019.069.037.103.102.076.176-.09.047-.203-.022-.203-.022q-.004-.021-.007-.045c-.056-.04-.128-.018-.184-.058-.015-.022.007-.048.003-.07m2.042 2.847c-.085.074-.156.16-.253.23-.037.026-.07.084-.11.106a1.968 1.968 0 0 1-.425.263 4 4 0 0 1-.854.247c-.155.015-.3.078-.461.093a2.4 2.4 0 0 1-.45.01q-.177-.013-.368-.035c-.055-.007-.107-.026-.17-.038-.161-.03-.304-.091-.457-.14a1.9 1.9 0 0 1-.7-.422c-.089-.082-.18-.16-.25-.26-.06-.082-.128-.175-.177-.268-.008-.015.012-.025.007-.036-.05-.099-.103-.207-.11-.323-.002-.042-.015-.081-.005-.116.015-.05.005-.107.016-.153.012-.05.012-.087.03-.132.039-.092.086-.163.113-.258.06-.205.167-.375.325-.518.052-.046.127-.073.183-.116.074-.01.143-.052.23-.063.103-.013.199-.039.386-.014.082.048.169.048.264.094.094.047.167.12.26.153.234.063.47-.034.652-.163.263-.16.455-.392.635-.626.051-.088.1-.175.161-.265l.025-.003c.048.078-.022.203-.074.266-.01.095-.063.17-.113.246-.13.144-.232.283-.38.409-.077.065-.225.128-.24.146-.142.064-.291.071-.434.124-.039.012-.089.027-.123.015-.068-.022-.129-.03-.196-.056-.08-.037-.146-.105-.221-.146a.3.3 0 0 0-.226-.007c-.07.028-.145.041-.216.073-.049.007-.05.019-.072.022a.9.9 0 0 0-.244.122c-.13.134-.265.288-.307.47a1.2 1.2 0 0 0-.034.375c.017.162.027.316.106.465.15.282.302.424.6.598.033.02.074.024.107.044.068.04.119.087.193.116.311.12.639.223.966.273.341.052.69-.006 1.015-.08.234-.054.46-.148.676-.26.17-.088.298-.198.457-.302.04-.025.269-.244.272-.278.008-.062-.015-.123.012-.176.025-.052.136-.074.16-.02.035.08-.118.26-.181.314m.476-.525c-.071.113-.245.217-.359.115.009-.025-.018-.034-.02-.045.033-.04.1-.037.142-.064a.6.6 0 0 0 .212-.26c.008-.035.002-.07.024-.095-.003-.012-.005-.035-.008-.046.037-.016.05-.006.068.027.028.112-.014.245-.063.344zm.652-1.198-.049.1c-.159.264-.328.374-.558.557-.254.206-.48.451-.743.652-.12.092-.241.165-.365.244-.325.205-.647.32-1.017.407-.326.076-.673.071-1 .021a1.4 1.4 0 0 1-.248-.074 1.4 1.4 0 0 1-.424-.248c-.198-.179-.34-.467-.244-.725.004-.01-.009-.024-.005-.035.033-.087.068-.187.14-.25.051-.046.13-.061.184-.104.037-.028.096-.01.132-.04.027.02.107-.04.17-.033.094.011.174-.036.26-.021.07.013.138.022.185.07.07.067.104.164.088.256a.48.48 0 0 1-.196.292c-.019.014-.028.024-.045.03-.072.017-.159.077-.232.04-.017-.009.07-.032.071-.032.033-.021.073-.035.103-.06.01-.008.017.005.025-.003a.46.46 0 0 0 .159-.287c.004-.07-.043-.125-.063-.179-.02-.047-.077-.063-.137-.076a.2.2 0 0 0-.135.017c-.025.013-.029.047-.055.054-.085.02-.137.085-.19.152-.012.013-.026.004-.036.016-.065.078-.066.165-.088.255-.013.054-.015.09-.03.143-.022.08-.015.153.032.217.028.038.026.084.055.121.112.138.274.232.436.328.195.115.61.122.819.12.24-.006.492-.07.685-.204.108-.075.287-.093.413-.168.532-.314.851-.624 1.276-1.033.147-.14.443-.278.374-.524-.047-.177-.623-.043-.715-.014-.466.142-.962.248-1.397.466a2.4 2.4 0 0 0-.5.343c-.038.032-.075.043-.116.072-.04.03-.068.075-.11.107-.22.166-.395.356-.582.55-.034.035-.071.074-.11.106-.03.025-.076-.007-.057-.039.055-.084.102-.176.179-.243.012-.012.025-.003.035-.016.35-.44.788-.784 1.27-1.079a2 2 0 0 1 .363-.173c.263-.096.523-.2.782-.296.115-.042.461-.156.569-.14.077.01.162-.017.237-.008.066.008.13.015.194.045.136.061.235.184.211.323m-1.369.753c.177-.162.371-.291.58-.399l.004.023c-.173.185-.404.319-.578.503-.061.008-.142.052-.177-.012a.46.46 0 0 1 .146-.38c.127-.155.288-.282.47-.383.097-.014.177-.07.275-.082.003.023.037-.004.04.018l.003.023-.024.003c-.044.04-.076.079-.137.087-.013.001-.009.007-.023.014-.275.093-.465.326-.594.564.002.01.003.022.015.02m-.005-.463c-.007.009-.044-.005-.049.006-.008.022-.015.012-.034.027-.028.023-.086.021-.12.038-.143.076-.263.18-.398.271-.036.025-.082.051-.087.093-.002.016.002.022-.006.036-.11.186-.227.374-.305.573-.005.01.007.029.015.02.093-.087.133-.22.246-.286.024-.014.028.034.02.056-.035.113-.147.192-.232.284-.026.027-.149.112-.168.056-.093-.255.054-.523.194-.733.095-.117.219-.218.358-.289.025-.013.035-.008.06-.02.056-.025.094-.062.148-.088.09-.04.18-.06.278-.08.024-.006.052-.023.075.001.009.008.012.025.005.034m-1.085.462c-.054.03-.106.035-.15.089-.01.013-.02.007-.035.016-.044.028-.053.076-.096.105-.015.01-.023.005-.036.017-.088.079-.175.153-.237.261-.038.068-.06.144-.094.209-.006.011.004.046.017.034.065-.067.113-.136.184-.198.009-.008.017.01.015.022-.019.096-.101.177-.137.261-.006.015-.01.02-.007.036.003.025-.058.028-.055.053.002.016 0 .022-.008.036-.03.05-.112.098-.174.091-.045-.005-.05-.038-.061-.073-.037-.122 0-.26.033-.376.026-.092.093-.167.153-.24.191-.165.403-.33.673-.364.013-.001.026.015.015.022m3.15-2.296c-.07.122-.182.206-.292.308-.062.057-.084.146-.147.2-.099.085-.208.156-.307.241-.143.122-.339.139-.514.206a.35.35 0 0 1-.185.02c-.254-.042-.53.032-.829-.044a2 2 0 0 1-.84-.477c-.065-.06-.164-.112-.168-.205.018-.016.004-.05.045-.031.087.038.143.126.234.158.278.103.563.198.867.238.168.022.284.022.458.015.298-.013.577-.08.866-.15.108-.025.26-.086.347-.153.13-.1.261-.21.404-.316.022-.016.02-.059.048-.079.025-.018.02.055.013.069" style="fill:#ffd58e;fill-opacity:1;fill-rule:nonzero;stroke:none;stroke-width:.35277778" transform="translate(-83.288 -173.158)"/><path d="M95.51 181.176a.2.2 0 0 0 .128-.074c-.006-.046 0-.082-.016-.114-.048-.064-.124-.078-.19-.104-.052-.006-.112.013-.164-.004l-.011.013c-.031-.006-.054-.028-.074.01l.003.023c.047.064.134.074.203.102-.013.084.087.091.122.148M95.39 181.97c.05-.007.102-.011.115-.06.004-.012.006-.015-.003-.024-.023-.024-.069-.013-.08-.036-.006-.011.003-.014-.003-.024-.042-.055-.124-.03-.197-.056-.049-.018-.095-.096-.147-.064-.042.028.01.073.016.105.016.028.068.04.072.07.005.033-.072.011-.054.054.022.059.097.089.164.096.038.004.062-.05.026-.085-.01-.008-.003-.03.007-.025.032.015.044.054.083.05M95.638 181.613c.08-.22.19-.419.324-.61.045-.03.077-.067.057-.124-.037.005-.081.022-.085.022a.7.7 0 0 0-.228.238c-.067.068-.08.166-.14.24-.007.018-.001.033-.005.046-.056.054-.032.133-.06.206-.039-.019-.076-.014-.116-.033a.2.2 0 0 1-.114-.008c-.034.027-.016.06.001.093.088.012.175.083.27.047zM96.135 181.248l.007.045s.114.069.203.022c.027-.074-.008-.138-.076-.176-.105-.034-.215-.02-.315-.019.003.023-.018.049-.003.07.056.04.128.019.184.058M99.699 180.31c-.02.027-.058.04-.09.05-.154.046-.308.126-.455.184-.126.049-.277.058-.413.082-.055.01-.109.006-.163.005-.074 0-.13.04-.205.048-.22.02-.494.001-.705-.054-.12-.033-.22-.058-.325-.109-.094-.045-.176-.111-.268-.14-.068-.022-.209-.089-.27-.094a3 3 0 0 1-.234-.03c-.217-.038-.584.094-.726.218a.43.43 0 0 0-.135.21c-.004.02-.003.037.022.044.006.001.045 0 .048-.008.041-.096.1-.179.196-.221a.74.74 0 0 1 .397-.033c.317.045.61.206.873.388.281.195.648.285.99.216.108-.022.197-.026.29-.062.151-.057.4-.082.516-.194a2.6 2.6 0 0 1 .385-.289c.022-.014.031-.014.058-.022.086-.023.128-.11.211-.142.024-.009-.007-.034.018-.038.006-.006-.004-.015-.015-.009" style="fill:#3c1605;fill-opacity:1;fill-rule:nonzero;stroke:none;stroke-width:.35277778" transform="translate(-83.288 -173.158)"/><path d="M94.909 180.584c0-.034-.012-.056-.006-.092.006-.05.062-.1.1-.134.011-.011.155-.145.181-.162.053-.031.084-.068.133-.092.021-.012.058-.015.085-.026.105-.049.556-.216.715-.206.213.014.429.045.634.078.028.004.152.046.173.052.145.042.268.128.414.176.164.052.312.1.476.163.112.044.226.052.354.068.187.025.376-.013.555-.06.08-.021.153-.005.22-.038.176-.087.434-.18.602-.268.067-.035.12-.041.189-.067.054-.022-.01-.073-.024-.055-.017.02-.025.04-.041.042-.075.013-.154-.001-.223.026-.087.036-.174.085-.274.083-.27-.005-.555.013-.822-.01a.9.9 0 0 1-.28-.07c-.102-.048-.205-.047-.307-.087-.026-.011-.044-.026-.07-.036-.155-.054-.312-.061-.475-.105-.374-.1-.768-.189-1.153-.153a.6.6 0 0 0-.206.047c-.09.042-.19.05-.284.097-.124.061-.246.124-.363.203a.86.86 0 0 0-.372.603c.004.018-.008.044.012.056s.055-.008.057-.032M95.977 183.338c-.06.073-.127.148-.153.24-.033.116-.07.253-.033.376.011.035.016.069.06.073.063.006.145-.041.176-.091.008-.014.009-.02.007-.037-.003-.024.058-.027.055-.052-.003-.016.001-.021.007-.036.036-.084.118-.165.137-.26.002-.013-.006-.03-.016-.023-.07.062-.118.131-.183.198-.013.011-.023-.023-.017-.034.034-.065.056-.14.094-.209.063-.108.15-.182.238-.262.012-.011.02-.007.035-.016.043-.029.052-.078.096-.105.015-.01.025-.003.036-.016.044-.054.095-.06.15-.089.01-.006-.003-.023-.016-.021-.27.034-.482.199-.673.364M97.67 182.497c-.098.02-.187.04-.277.08-.055.027-.093.064-.15.09-.024.011-.035.006-.059.02-.14.07-.263.171-.358.288-.14.21-.287.477-.194.734.02.055.142-.03.168-.057.085-.093.197-.171.232-.285.008-.022.004-.07-.02-.055-.113.066-.154.199-.246.286-.008.008-.02-.01-.015-.021.077-.198.195-.386.305-.573.008-.014.004-.02.007-.035.004-.042.05-.068.086-.093.135-.09.255-.195.399-.271.033-.017.092-.015.119-.038.02-.016.026-.005.034-.027.004-.012.042.002.049-.006.007-.01.003-.027-.005-.035-.023-.024-.05-.007-.075-.002M99.802 180.631c-.027.02-.026.063-.048.079-.143.106-.274.215-.404.316a1 1 0 0 1-.347.153c-.289.07-.568.137-.866.15-.173.007-.29.007-.457-.015a4 4 0 0 1-.868-.238c-.09-.032-.147-.12-.234-.158-.041-.018-.027.015-.045.031.004.093.102.145.168.205.238.218.514.393.84.477.299.076.575.003.83.044q.091.015.184-.02c.175-.067.371-.084.514-.206.099-.085.208-.157.307-.24.064-.055.085-.144.147-.202.11-.101.222-.185.292-.307.008-.014.013-.087-.013-.069M98.334 182.413c.014-.007.01-.012.023-.014.06-.009.093-.047.137-.088.013 0 .013 0 .025-.003l-.003-.022c-.004-.022-.038.005-.041-.019-.098.013-.178.07-.276.082a1.6 1.6 0 0 0-.47.384.46.46 0 0 0-.145.38c.035.064.116.02.177.011.174-.183.405-.317.578-.502l-.004-.023c-.21.107-.403.236-.58.398-.012.002-.014-.01-.015-.02.128-.237.319-.472.594-.564" style="fill:#3c1605;fill-opacity:1;fill-rule:nonzero;stroke:none;stroke-width:.35277778" transform="translate(-83.288 -173.158)"/><path d="M98.017 183.674c-.027.053-.005.114-.011.175-.005.034-.234.254-.273.28-.159.103-.287.212-.457.3a2.9 2.9 0 0 1-.676.26c-.326.075-.674.133-1.016.081a4.8 4.8 0 0 1-.965-.273c-.074-.029-.125-.076-.193-.116-.033-.02-.074-.025-.107-.045-.298-.174-.45-.315-.6-.597-.079-.149-.089-.303-.106-.465a1.2 1.2 0 0 1 .034-.375c.041-.182.177-.336.307-.47a.8.8 0 0 1 .244-.122c.021-.003.023-.015.072-.022.07-.032.146-.045.216-.073a.29.29 0 0 1 .226.007c.075.04.14.11.222.146.066.026.127.034.195.056.035.012.084-.003.123-.015.143-.053.292-.06.433-.125.016-.018.164-.08.242-.146.147-.125.25-.264.379-.408.05-.076.102-.152.113-.247.052-.063.122-.187.074-.265l-.025.003c-.06.09-.11.176-.161.265-.18.233-.372.466-.635.626-.183.129-.418.226-.652.163-.093-.034-.167-.106-.26-.153-.095-.046-.183-.046-.265-.094-.186-.025-.282 0-.385.013-.087.012-.156.055-.23.064-.057.042-.13.07-.183.116a1.1 1.1 0 0 0-.324.518c-.028.095-.075.166-.114.258-.018.045-.018.082-.03.132-.012.047-.001.103-.016.153-.01.035.003.074.005.115.007.116.061.225.11.324.005.01-.015.021-.008.036.05.092.118.185.177.269.07.1.162.176.25.258.203.185.433.339.701.423.153.049.296.11.458.14.062.012.114.03.17.037.125.017.25.025.367.036.15.014.3.003.45-.011.16-.014.306-.078.461-.092.191-.019.69-.166.854-.247.103-.052.29-.148.369-.222a.3.3 0 0 1 .055-.04c.041-.024.073-.082.11-.108.098-.07.17-.156.254-.23.062-.053.216-.232.181-.312-.024-.054-.135-.033-.16.02" style="fill:#3c1605;fill-opacity:1;fill-rule:nonzero;stroke:none;stroke-width:.35277778" transform="translate(-83.288 -173.158)"/><path d="M98.53 183.075c-.017-.033-.03-.044-.067-.027.003.011.005.034.008.046-.022.025-.016.06-.023.096a.6.6 0 0 1-.213.26c-.043.025-.11.024-.142.063.002.011.028.02.02.045.114.101.288-.002.36-.115-.004-.012-.004-.012-.005-.024.048-.1.091-.232.062-.344M98.719 181.877c-.075-.01-.16.017-.238.007-.107-.015-.454.098-.567.14-.26.097-.52.2-.784.297a2 2 0 0 0-.362.173c-.482.295-.92.639-1.27 1.078-.01.014-.023.005-.035.017-.077.067-.124.158-.178.242-.02.033.027.064.056.04.04-.032.076-.072.11-.107.187-.193.363-.384.583-.55.041-.031.068-.077.11-.106.04-.03.077-.04.114-.072.154-.134.316-.25.501-.343.435-.218.932-.324 1.397-.466.093-.029.668-.163.715.014.07.245-.227.384-.373.524-.426.408-.745.718-1.277 1.033-.126.074-.305.092-.413.168a1.27 1.27 0 0 1-.685.202c-.209.004-.624-.004-.819-.118-.162-.096-.324-.19-.436-.328-.029-.038-.027-.083-.054-.121-.048-.064-.055-.136-.032-.218.014-.054.015-.089.029-.143.022-.09.023-.176.088-.254.01-.014.024-.003.035-.017.054-.066.106-.132.19-.152.027-.006.031-.04.055-.053a.2.2 0 0 1 .136-.017c.06.012.116.028.137.076.02.053.067.109.063.178a.45.45 0 0 1-.16.287c-.007.008-.014-.005-.024.003-.03.025-.07.038-.103.06-.001 0-.088.024-.071.032.073.037.16-.023.232-.04.017-.006.026-.016.045-.03a.48.48 0 0 0 .196-.292.3.3 0 0 0-.088-.257c-.047-.047-.115-.057-.185-.069-.086-.015-.166.032-.26.022-.063-.008-.143.051-.17.032-.036.03-.095.012-.132.04-.055.043-.133.058-.185.105-.07.062-.106.162-.14.25-.003.01.01.023.005.034-.095.258.047.546.244.725.12.107.27.188.425.248.066.026.18.063.249.074.326.05.673.055.999-.02a3.2 3.2 0 0 0 1.016-.408c.125-.08.246-.152.366-.244.263-.201.488-.446.743-.652.23-.183.399-.293.558-.558l.049-.099c.024-.138-.075-.26-.211-.322-.065-.03-.128-.037-.194-.045" style="fill:#3c1605;fill-opacity:1;fill-rule:nonzero;stroke:none;stroke-width:.35277778" transform="translate(-83.288 -173.158)"/><path d="M101.505 191.595a.376.376 0 1 1 0 .752.377.377 0 1 1 0-.752m0 .06a.306.306 0 0 0-.308.315c0 .183.134.315.308.315a.304.304 0 0 0 .308-.315.306.306 0 0 0-.308-.315m-.08.532h-.066v-.433h.166q.154-.001.154.123c0 .078-.049.112-.114.12l.124.19h-.073l-.116-.189h-.075zm0-.243h.079c.082 0 .108-.023.108-.07 0-.042-.02-.066-.096-.066h-.09zM99.392 191.691h.643c.424 0 .762.179.762.662 0 .454-.309.675-.75.675h-.655zm.526 1.113c.445 0 .618-.137.618-.45 0-.326-.18-.438-.618-.438h-.265v.888zM97.83 191.691h.298l.65 1.337h-.277l-.14-.307h-.77l-.141.307h-.278zm.43.805-.28-.594-.28.594zM95.444 191.691h1.198v.225h-.937v.31h.807v.224h-.807v.354h.96v.224h-1.22zM93.368 191.691h.804c.315 0 .544.072.544.4 0 .245-.177.382-.373.392l.409.545h-.322l-.387-.527h-.415v.527h-.26zm.765.594c.213 0 .322-.031.322-.189 0-.157-.109-.188-.322-.188h-.505v.377zM91.292 191.691h.805c.314 0 .524.089.524.342a.29.29 0 0 1-.155.278.36.36 0 0 1 .207.329c0 .253-.2.388-.527.388h-.854zm.822.528c.17 0 .247-.043.247-.154 0-.114-.077-.157-.247-.157h-.56v.311zm.007.592c.166 0 .29-.032.29-.19 0-.14-.114-.185-.29-.185h-.567v.375zM106.026 189.995c-.16-.16-.189-.417-.201-.544a2.1 2.1 0 0 1 .015-.513c.04-.268.15-.657-.106-.851a.8.8 0 0 0-.171-.094c-.048-.02-.1-.048-.154-.045-.108.005-.2.097-.268.173q-.105.122-.185.264-.118.2-.274.372c-.217.24-.476.438-.74.623a10 10 0 0 1-.404.274c-.135.086-.285.168-.446.185-.252.026-.082-.316-.023-.42.147-.26.344-.497.542-.706.397-.418.916-.766 1.512-.803.077-.095.173-.253.056-.355-.098-.088-.254-.1-.38-.107-.483-.024-.952.144-1.347.416-.237.165-.453.37-.613.611a2.2 2.2 0 0 0-.28.683c-.064.242-.125.551.02.777.152.237.432.293.692.227a2 2 0 0 0 .424-.178q.23-.117.45-.255c.287-.18.562-.379.832-.584.164.319.248.708.556.943.102.078.236.14.52.096.027-.004.152-.04.097-.086-.044-.036-.083-.062-.124-.103M102.885 187.72c.107.01.166-.073.15-.177-.02-.127-.152-.224-.27-.252-.574-.124-1.198.146-1.62.523-.004-.107-.08-.22-.137-.307a1 1 0 0 0-.239-.282c-.031-.024-.083-.048-.099.005-.017.054-.005.119-.005.173q0 .133-.009.265c-.022.302-.06.618-.144.909-.06.216-.137.425-.196.641-.06.217-.113.449-.086.675.025.208.14.367.34.438.185.065.341-.016.439-.177.103-.168.148-.37.188-.56.037-.177.05-.35.074-.528.036-.278.121-.552.297-.775.172-.218.383-.429.635-.554.112-.056.249-.12.377-.095.103.02.2.069.305.078M99.931 188.75c-.09.001-.182.042-.264.072-.298.111-.587.245-.885.355-.285.105-.606.22-.915.197a.46.46 0 0 1-.303-.127c-.09-.096-.114-.233-.113-.36.554.027 1.109-.025 1.628-.226.21-.08.401-.176.547-.352a.6.6 0 0 0 .15-.336.48.48 0 0 0-.143-.359c-.192-.235-.543-.226-.814-.177a2.97 2.97 0 0 0-1.614.898c-.2.215-.39.475-.466.765-.06.224-.052.474.048.686.11.226.318.372.56.425.315.067.647-.002.945-.107.247-.086.482-.2.712-.322.196-.106.39-.22.57-.353.162-.12.346-.272.412-.47.022-.068.05-.21-.055-.209m-2.12-.46c.148-.11.313-.206.484-.273.234-.09.516-.105.759-.052.065.015.38.108.249.224-.34.3-1.254.513-1.724.412-.048-.119.158-.258.231-.312M95.9 187.474c-.58.082-1.064.569-1.37 1.045-.026-.078.01-.241 0-.325-.014-.113-.02-.23-.069-.335a.56.56 0 0 0-.234-.244 2.3 2.3 0 0 0-.523-.218.7.7 0 0 0-.272-.037c-.038.004-.145.037-.111.094.043.071.146.115.216.153.075.04.152.076.22.128.095.071.095.158.084.27-.019.18-.075.354-.139.522-.113.307-.246.61-.281.939-.017.157-.01.32.04.471.036.113.085.208.21.233.214.039.394-.013.504-.198.118-.201.195-.53.293-.74.083-.174.175-.384.269-.553.107-.195.266-.338.403-.513.074-.093.322-.28.379-.297.056-.018.095-.013.065.072-.035.102-.403 1.035-.265 1.587.131.518.627.668.77.724.036.016.104.038.13-.007.04-.067-.005-.187-.035-.246-.155-.3-.221-.69-.077-1.328.031-.139.103-.395.144-.566s.057-.33-.002-.478c-.057-.147-.208-.173-.35-.153M92.664 189.558a.86.86 0 0 1-.023-.407c.023-.157.074-.306.11-.46.03-.132.039-.255-.025-.381-.11-.219-.38-.35-.612-.242a.53.53 0 0 0-.248.255c-.048.099-.081.206-.149.293-.067.089-.172.154-.255.226l-.3.266a4.7 4.7 0 0 1-.674.52c-.212.127-.458.231-.708.204.024-.14.105-.257.182-.373q.135-.203.297-.386c.219-.247.502-.43.766-.623.238-.172.483-.345.76-.447.174-.064.37-.155.301-.376-.069-.217-.355-.212-.538-.192-.209.024-.414.082-.612.15-.195.068-.383.15-.556.262a2.6 2.6 0 0 0-.655.62c-.172.23-.328.503-.395.785-.053.221-.044.474.085.667.129.19.351.261.572.233a1.6 1.6 0 0 0 .45-.141c.156-.068.308-.151.454-.24.292-.18.563-.388.834-.598-.03.28.213.557.401.732.183.171.47.388.74.348.144-.059-.043-.37-.081-.447-.041-.082-.089-.162-.121-.248M88.153 189.337c-.045-.121-.079-.246-.114-.37a3 3 0 0 1-.113-.55c-.003-.041-.006-.043.03-.057l.054-.02q.052-.024.108-.045c.747-.25 1.52-.609 1.941-.9.605-.42.654-.798.616-.943a.53.53 0 0 0-.241-.335c-.827-.445-2.718-.594-3.803-.458a3.3 3.3 0 0 0-.684.14c-.249.088-.406.27-.37.456a.85.85 0 0 0 .52.616c.113.043.23.067.336-.003.115-.075.215-.153.345-.204.16-.063.471-.12.506-.108.034.014-.102.657-.128.818-.03.176-.058.355-.095.53-.07.333-.169 1.656-.029 1.928.125.243.269.402.526.499a.8.8 0 0 0 .401.043c.11-.017.234-.053.305-.147.123-.164.054-.412-.002-.589q-.05-.152-.109-.301m-.378-2.213q-.02-.207-.037-.412c-.004-.047-.015-.212.037-.22.787-.118 2.047-.156 2.273.07.084.085-.095.378-.321.576-.299.262-.976.687-1.84.956-.057-.321-.085-.646-.112-.97" style="fill:#fff;fill-opacity:1;fill-rule:nonzero;stroke:none;stroke-width:.35277778" transform="translate(-83.288 -173.158)"/></svg>