<?xml version="1.0" encoding="utf-8"?>
<!-- Generator: Adobe Illustrator 19.0.0, SVG Export Plug-In . SVG Version: 6.00 Build 0)  -->
<svg version="1.1" id="layer" xmlns="http://www.w3.org/2000/svg" xmlns:xlink="http://www.w3.org/1999/xlink" x="0px" y="0px"
	 viewBox="-153 -46 652 652" style="enable-background:new -153 -46 652 652;" xml:space="preserve">
<style type="text/css">
	.st0{fill:#FDB913;}
	.st1{fill:none;stroke:#231F20;stroke-width:3.7172;stroke-miterlimit:10;}
	.st2{fill:#FFFFFF;}
	.st3{fill:#E42B26;}
	.st4{fill:#E7C13A;}
	.st5{fill:#F8962E;}
	.st6{fill:none;stroke:#110C0D;stroke-width:2.8698;stroke-miterlimit:7;}
	.st7{fill:#110C0D;}
	.st8{fill:#F5F4E1;}
	.st9{fill:none;stroke:#110C0D;stroke-width:3.4091;}
	.st10{fill:none;stroke:#110C0D;stroke-width:3.4861;}
	.st11{fill:#C2E2F3;}
	.st12{fill:#D23E2F;}
	.st13{fill:#A2242D;}
	.st14{fill:none;stroke:#110C0D;stroke-width:3.4861;stroke-miterlimit:8;}
	.st15{fill:none;stroke:#110C0D;stroke-width:2.8698;}
	.st16{fill:none;stroke:#110C0D;stroke-width:2.9853;stroke-miterlimit:11;}
	.st17{fill:none;stroke:#110C0D;stroke-width:2.5616;}
	.st18{fill:none;stroke:#110C0D;stroke-width:2.0031;stroke-miterlimit:7;}
	.st19{fill:#F5998B;}
	.st20{fill:#FECF8C;}
	.st21{fill:none;stroke:#010101;stroke-width:2.6386;stroke-miterlimit:10;}
	.st22{fill:#3B6E8F;}
</style>
<rect id="XMLID_250_" x="222.9" y="247.9" class="st0" width="73.8" height="172.1"/>
<rect id="XMLID_249_" x="222.9" y="247.9" class="st1" width="73.8" height="172.1"/>
<g id="XMLID_193_">
	<path id="XMLID_248_" class="st2" d="M276.1,371.4h-4.5c-0.1,0-0.3,0-0.4,0c-0.3,0-0.6-0.1-0.8-0.1c-0.3-0.1-0.5-0.1-0.7-0.2
		c-0.2-0.1-0.3-0.2-0.4-0.3c0,0-0.1-0.1-0.1-0.1l3,3c0,0,0.1,0.1,0.1,0.1c0.1,0.1,0.3,0.2,0.4,0.3c0.2,0.1,0.4,0.2,0.7,0.2
		c0.2,0.1,0.5,0.1,0.8,0.1c0.1,0,0.3,0,0.4,0h4.5L276.1,371.4z"/>
	<path id="XMLID_247_" class="st2" d="M262.8,374.4l-3-3c0,3.8,0.8,6.9,2.2,9.1c0.3,0.5,0.6,0.9,1,1.3l3,3c-0.4-0.4-0.7-0.8-1-1.2
		C263.6,381.3,262.9,378.2,262.8,374.4"/>
	<path id="XMLID_246_" class="st2" d="M261.3,359.6c0.3,0,0.6,0,0.8,0c0.3,0,0.6-0.1,0.9-0.1c0.2-0.1,0.4-0.1,0.6-0.2
		c0.2-0.1,0.3-0.2,0.5-0.3c0.5-0.4,0.8-1,0.8-1.8l0.2-68.1c0-0.8-0.2-1.3-0.6-1.7l-3-3c0.4,0.4,0.6,0.9,0.6,1.7l-0.2,68.1
		c0,0.8-0.3,1.4-0.8,1.8c-0.1,0.1-0.3,0.2-0.5,0.3c-0.2,0.1-0.4,0.2-0.6,0.2c-0.3,0.1-0.6,0.1-0.9,0.2c-0.3,0-0.5,0-0.8,0
		c-0.2,0-0.4,0-0.6,0c-0.4,0-0.8-0.1-1.1-0.1c-0.3-0.1-0.5-0.2-0.8-0.3c-0.2-0.1-0.3-0.2-0.4-0.3c-0.1-0.1-0.2-0.1-0.3-0.2l3,3
		c0.1,0.1,0.2,0.2,0.3,0.2c0.1,0.1,0.3,0.2,0.4,0.3c0.2,0.1,0.5,0.2,0.8,0.3c0.3,0.1,0.7,0.1,1.1,0.2
		C260.9,359.6,261.1,359.6,261.3,359.6"/>
	<path id="XMLID_245_" class="st2" d="M274.3,276.4l-3-3c-1.1-1.1-2.4-2-3.9-2.7c-1-0.5-2.1-0.9-3.4-1.1c-1.1-0.3-2.4-0.4-3.7-0.5
		c-0.6,0-1.2-0.1-1.9-0.1c-0.9,0-1.8,0-2.7,0.1c-1.3,0.1-2.5,0.3-3.6,0.6c-1.1,0.3-2.1,0.6-3,1c-2,0.9-3.6,2.1-4.9,3.7
		c-2.6,3.1-3.9,8-3.9,14.4l-0.2,64.2c0,5.8,1.5,10.3,4.7,13.4l3,3c-3.1-3.1-4.7-7.6-4.7-13.4l0.2-64.2c0-6.5,1.3-11.3,3.9-14.4
		c1.3-1.6,2.9-2.8,4.9-3.7c0.9-0.4,1.9-0.8,3-1c1.1-0.3,2.3-0.5,3.6-0.6c0.9-0.1,1.8-0.1,2.7-0.1c0.6,0,1.3,0,1.8,0.1
		c1.3,0.1,2.5,0.3,3.7,0.5c1.2,0.3,2.3,0.7,3.4,1.2C271.9,274.4,273.2,275.3,274.3,276.4"/>
	<path id="XMLID_242_" class="st3" d="M275.3,368.2c-0.8,1-2,2.2-3.8,3.4c0,1.1,0.3,1.8,0.7,2.2c0.5,0.4,1.3,0.6,2.3,0.6h4.5l0,12.6
		h-6.5c-3.5,0-6.1-1.2-7.6-3.6c-1.4-2.2-2.1-5.3-2.2-9.1h-1.5c-5.3,0-9.7-1.6-13-4.7c-3.3-3.1-5-7.7-5-13.7l0.2-64.2
		c0-6.5,1.3-11.3,3.9-14.4c2.9-3.6,7.7-5.4,14.2-5.4c6,0,10.5,1.7,13.4,5.1c2.9,3.4,4.4,8.3,4.4,14.5l-0.2,64.1
		C279.2,360.7,277.9,364.9,275.3,368.2 M264.9,357.1l0.2-68.1c0-0.9-0.3-1.5-0.8-1.9c-0.6-0.4-1.5-0.6-2.8-0.6
		c-1.3,0-2.3,0.2-2.9,0.6c-0.6,0.4-0.8,1-0.8,1.9l-0.2,68.1c0,0.8,0.3,1.4,0.8,1.8c0.6,0.4,1.6,0.7,2.9,0.7c1.3,0,2.3-0.2,2.8-0.7
		C264.6,358.5,264.9,357.9,264.9,357.1"/>
	<rect id="XMLID_241_" x="37.3" y="248.4" class="st0" width="73.8" height="172.1"/>
	<rect id="XMLID_240_" x="37.3" y="248.4" class="st1" width="73.8" height="172.1"/>
	<path id="XMLID_239_" class="st2" d="M75.2,285.4c1,0.8,1.5,2.1,1.5,3.8l-0.1,25.1c0,2.4-0.9,3.9-2.8,4.6l0,0
		c-0.1,0-0.2,0.1-0.3,0.1c-0.4,0.1-1,0.2-1.8,0.2c-0.9,0.1-2.2,0.1-3.6,0.1l3.8,3.2c1.4,0,2.7-0.1,3.6-0.1c0.8-0.1,1.4-0.1,1.7-0.2
		c0.1,0,0.2,0,0.3-0.1l0,0c1.9-0.7,2.8-2.2,2.8-4.6l0.1-25.1c0-1.7-0.5-3-1.5-3.8L75.2,285.4z"/>
	<path id="XMLID_238_" class="st2" d="M86.4,273.5c-0.7-0.7-1.5-1.3-2.4-1.8c-0.2-0.1-0.3-0.2-0.5-0.3c-0.8-0.3-1.7-0.7-2.7-0.9
		c-1.5-0.3-3.4-0.6-5.6-0.8c-1.5-0.1-3.1-0.1-4.9-0.1H54.8l-0.3,100.6l3,3l0.3-100.6h15.4c1.8,0,3.4,0.1,4.9,0.2
		c2.2,0.1,4,0.4,5.5,0.7c1.1,0.3,2,0.6,2.7,0.9c0.2,0.1,0.3,0.2,0.5,0.3c0.9,0.5,1.7,1.1,2.4,1.8L86.4,273.5z"/>
	<path id="XMLID_235_" class="st3" d="M87,274.7c-2.5-1.4-7-2.1-13.7-2.1H57.5v100.6h15.9l0.1-36.7c1.5,0,2.8,0.1,4,0.1
		c4.4,0,7-0.3,8-0.8c1.3-0.7,3-2.1,5-4.5c2.1-2.4,3.1-6.7,3.2-12.9l0.1-27.6C93.8,282.6,91.5,277.2,87,274.7 M79.4,316.7
		c0,2.3-0.7,3.8-2.2,4.4c-0.4,0.2-2,0.4-4.4,0.4l0.1-33.7c2,0,3.9,0.3,4.6,0.5c1.4,0.7,2.1,2.1,2.1,4.3L79.4,316.7z"/>
	<rect id="XMLID_234_" x="130.1" y="276.4" class="st0" width="73.8" height="172.1"/>
	<rect id="XMLID_233_" x="130.1" y="276.4" class="st1" width="73.8" height="172.1"/>
	<path id="XMLID_232_" class="st2" d="M167.7,311c0.8,0.8,1.2,1.9,1.2,3.5l-0.2,63.7c0,2.3-0.8,3.7-2.3,4.4c0,0,0,0,0,0
		c-0.1,0-0.2,0.1-0.3,0.1c-0.3,0.1-0.7,0.1-1.3,0.2c-0.7,0.1-1.5,0.1-2.7,0.1l3,3c1.2,0,2-0.1,2.7-0.1c0.6,0,1-0.1,1.3-0.2
		c0.1,0,0.2-0.1,0.3-0.1c0,0,0,0,0,0c1.5-0.7,2.3-2.1,2.3-4.4l0.2-63.7c0-1.6-0.4-2.7-1.2-3.5L167.7,311z"/>
	<path id="XMLID_231_" class="st2" d="M177.9,300.3c-1.2-1.2-2.5-2.1-4-2.8c-0.9-0.4-1.8-0.8-2.8-1c-0.8-0.2-1.7-0.3-2.6-0.4
		c-0.4,0-0.8,0-1.2,0h-19.7l-0.3,100.6l3,3l0.3-100.6h19.7c0.4,0,0.8,0,1.2,0c0.9,0.1,1.8,0.2,2.6,0.4c1,0.2,1.9,0.6,2.8,1
		c1.5,0.7,2.8,1.6,4,2.9L177.9,300.3z"/>
	<path id="XMLID_228_" class="st3" d="M182.5,305.2c-3-4-7.1-6.1-12.2-6.1h-20v100.6h19.8c5.1,0,9.2-2.1,12.3-6.2
		c2.7-3.7,4.1-8.4,4.1-13.9l0.2-60.3C186.7,313.6,185.3,308.9,182.5,305.2 M171.7,381.3c0,2.3-0.8,3.7-2.3,4.4
		c-0.4,0.2-1.5,0.4-4.3,0.4l0.2-73.3c2.1,0,3.5,0.2,4.3,0.5c1.5,0.7,2.3,2.1,2.3,4.3L171.7,381.3z"/>
	<polygon id="XMLID_227_" class="st4" points="238.6,112 223.2,115.4 224.9,124.8 242.5,123.4 	"/>
	<path id="XMLID_226_" class="st5" d="M159.9,223.6c0,0,8.4,10.5,10.6,32.8c0,0-7.9,4.8-12.7,11.2c0,0,11.4-0.7,14.1,0
		c0,0,15.6,11.6,24.7,20c0,0,0-5.1-3.2-11.5c0,0,4.6,3.9,11.2,10.3c0,0-0.7-8.1-2.4-12c0,0,6.2,5.5,8,7.9c0,0-0.7-26.7-30.5-27.6
		c0,0-1-18.9-11.4-33.5C160.6,210.1,159.9,223.6,159.9,223.6"/>
	<path id="XMLID_225_" class="st6" d="M157.8,223.1c0,0,10.5,8.2,12.7,33.2c0,0-7.9,4.8-12.7,11.2c0,0,11.4-0.7,14.1,0
		c0,0,15.6,11.6,24.7,20c0,0,0-5.2-3.2-11.5c0,0,4.6,3.9,11.2,10.3c0,0-0.7-8.1-2.4-12c0,0,6.2,5.5,8,7.9c0,0-0.7-26.7-30.5-27.6
		c0,0-1-18.3-11.4-33.5C160.8,210,157.8,223.1,157.8,223.1z"/>
	<path id="XMLID_224_" class="st7" d="M179.4,253.6c0,0-3.3,0.6-5.8,2.2c0,0,6.6,0,11.2,0.6L179.4,253.6z"/>
	<path id="XMLID_223_" class="st7" d="M184,265.6c0,0,9,9.8,11,19.1l2.1-5.3C197.1,279.4,192.5,270.3,184,265.6"/>
	<path id="XMLID_222_" class="st7" d="M202.5,280.5c0,0-2.7-9.3-9.9-15.7c0,0,8.3,4.3,11.7,11.4L202.5,280.5z"/>
	<path id="XMLID_221_" class="st5" d="M135.4,231.4c0,0,8.4,10.5,10.6,32.8c0,0-10.2,5.2-15,11.5l17,0c0,0,15.1,11.2,24.1,19.6
		c0,0,0-5.2-3.2-11.5c0,0,4.6,3.9,11.2,10.3c0,0-0.7-8.1-2.4-12c0,0,6.2,5.5,8,7.9c0,0-0.7-26.7-30.5-27.6c0,0-1-18.9-11.4-33.5
		C136.1,218,135.4,231.4,135.4,231.4"/>
	<path id="XMLID_220_" class="st6" d="M133.3,231c0,0,10.5,8.2,12.7,33.2c0,0-9,2.8-15,11.7l17.3,0c0,0,14.8,11,23.8,19.5
		c0,0,0-5.2-3.2-11.5c0,0,4.6,3.9,11.2,10.3c0,0-0.7-8.1-2.4-12c0,0,6.2,5.5,8,7.9c0,0-0.7-26.7-30.5-27.6c0,0-1-18.3-11.4-33.5
		C136.3,217.9,133.3,231,133.3,231z"/>
	<path id="XMLID_219_" class="st7" d="M154.9,261.5c0,0-3.3,0.6-5.8,2.2c0,0,6.6,0,11.2,0.6L154.9,261.5z"/>
	<path id="XMLID_218_" class="st7" d="M159.5,273.5c0,0,9,9.8,11,19.1l2.1-5.3C172.6,287.2,168,278.2,159.5,273.5"/>
	<path id="XMLID_217_" class="st7" d="M178,288.4c0,0-2.7-9.3-9.9-15.7c0,0,8.3,4.3,11.7,11.4L178,288.4z"/>
	<path id="XMLID_216_" class="st8" d="M121.1,119.5c0,0,13-11.2,16.2-19.2c3.2-8,5.4-27.1-8.1-41.6c-13.5-14.5-23.5-23.4-26.4-28.2
		c0,0-6.6,11.3-4.5,25.2c0,0-3.5-13.8-20.4-21.5c0,0-3.2,11.8,0,27.5c0,0-5.8-5.7-21-8.9c0,0,0.9,14.1,5.3,26.4
		c0,0-8.7-2.4-14.3-5.2c0,0,0.3,19.9,11.1,32.3c0,0-7.9-0.5-12.8-3.1c0,0,3.8,29.1,33.2,28.3c0,0-6.4,17.9,0,34.6
		c6.4,16.7,23.5,26.6,23.5,26.6s4.9,34.1,28.6,46.7l7.8-6.1l8.3,6.1l6.8-6.7l7.7,6.7l6.9-6.7l7.8,5.5c0,0,7.7-4.9,15-17.1
		C199.3,208.4,121.1,119.5,121.1,119.5"/>
	<path id="XMLID_215_" class="st4" d="M103.1,32.2l1.9,3.2c0,0-4.2,7.4-3.4,9.9c0.7,2,5.6-1.8,5.6-1.8s-5.8,7.4-4.5,9.3
		c1,1.3,8.9-4.2,8.9-4.2s-8.2,8.6-7.1,10.7c1,2.1,10.6-4.5,10.6-4.5s-9.8,10.1-7.4,11.7c2.4,1.6,12.7-4.4,12.7-4.4s-9.3,8.4-7.9,9.8
		c1.5,1.5,6.6-1.4,6.6-1.4s-3.7,5.8-1.2,8.7c0,0-14.4-5.4-18.2-19.1C95.9,46.2,100.5,34.4,103.1,32.2"/>
	<path id="XMLID_214_" class="st4" d="M78.7,34.5c0,0,3.7,1.8,3.9,3c0,0-4,4.8-3.2,7.1c0.5,1.3,5.5-1,5.5-1s-5.2,5.9-4.4,7.7
		C81,53,87,50.1,87,50.1s-6.5,5.8-5.5,7.8c1.1,2.1,8.5-1.5,8.5-1.5s-7.5,6.2-6.5,8.3c1.2,2.4,9.4-1.7,9.4-1.7s-8.1,6.8-6,8.2
		c2.1,1.4,9.5-3.4,9.5-3.4s-5.7,7-4.1,8.2c1.6,1.2,8.6-2.1,8.6-2.1s-5.3,4.6-3.2,5.2c2,0.7,8.6-2.3,8.6-2.3s-3.5,2.8-1.9,4.1
		c1.6,1.3,4.7,4.3,4.5,5.7c0,0-18.2-4.9-21.1-8.2C85,75.1,71,68.1,78.7,34.5"/>
	<path id="XMLID_213_" class="st4" d="M62.9,54.7c0,0-2.7,4.9-1.7,6.1c1.1,1.2,5.9-0.4,5.9-0.4s-4.7,4.8-3.7,6.1c1,1.3,7-1.5,7-1.5
		s-6.5,5.9-5.5,7.7c1.2,2.1,9.1-2.3,9.1-2.3s-8.3,6.9-6.6,8.7c1.7,1.8,10.1-3.5,10.1-3.5s-7.2,6.5-5.9,8.3c1.3,1.7,9.2-3.8,9.2-3.8
		s-6.1,7.2-4.2,8.2c1.9,1,10.3-4.4,10.3-4.4s-5.2,6.3-3.7,7.7c1.5,1.4,9.7-5,9.7-5s-4.3,5.7-2.3,6.7c2,1.1,8.4-4.6,8.4-4.6
		s-3.8,5.7,1.4,8.7c0,0-22.2,1.5-30.9-7.5C61,81,56.8,52.7,56.8,52.7L62.9,54.7z"/>
	<path id="XMLID_212_" class="st4" d="M53.5,76.3c0,0-2.9,4-1.4,5.7c0.9,1,4-0.8,4-0.8s-3.6,5.7-2.5,7c1.2,1.4,5.4-1.5,5.4-1.5
		s-4.5,5.4-3.1,7c1.5,1.6,6.5-2.9,6.5-2.9s-4.6,6.9-3,8.2c1.6,1.3,7.9-3.4,7.9-3.4s-5.6,6.2-3.7,7.6c1.9,1.4,8.6-3.7,8.6-3.7
		s-4.4,6.3-2.3,7.5c2,1.2,9-4.4,9-4.4s-4.4,6.5-2.5,7c1.9,0.4,11.4-6.3,11.4-6.3s-5.6,6.7-3,7.3c2.6,0.6,8.1-4.2,8.1-4.2
		s-3.1,4.7,1.3,7.6c0,0-22.6,3.2-32.8-5.8c-10.2-9-12.6-33.6-12.6-33.6L53.5,76.3z"/>
	<path id="XMLID_211_" class="st4" d="M51.7,105c0,0-1.4,5.5,0,7.2c0.9,1.2,4.4-1.7,4.4-1.7s-2.5,5.3-1.3,6.2
		c1.5,1.1,5.9-3.5,5.9-3.5s-3.2,6.6-2.1,7.5c1.2,1,6.6-3.3,6.6-3.3s-2.8,5.9-1.4,6.7c1.7,1,8.4-5.7,8.4-5.7s-3.4,6.8-1.3,7.6
		c2,0.9,8.3-6.5,8.3-6.5s-2.5,7.4-0.5,7.8c1.9,0.4,9.5-6.6,9.5-6.6s-2.5,5.9-1.8,7.7c0,0-7.2,8.1-26.2-2.2C47.6,119.5,46,103,46,103
		L51.7,105z"/>
	<polygon id="XMLID_210_" class="st4" points="96.2,186.9 110.4,177.1 101.4,190.9 	"/>
	<polygon id="XMLID_209_" class="st4" points="93.7,185.7 109,171.2 88.7,180.9 	"/>
	<polygon id="XMLID_208_" class="st4" points="87.5,179.5 102,166.9 83.3,173.7 	"/>
	<polygon id="XMLID_207_" class="st4" points="82.8,173 99.1,160.8 79.7,166.9 	"/>
	<polygon id="XMLID_206_" class="st4" points="79.3,165.9 94.3,154.3 77.4,159.4 	"/>
	<polygon id="XMLID_205_" class="st4" points="77.4,157.9 90.9,148.3 76.5,151.7 	"/>
	<polygon id="XMLID_204_" class="st4" points="76.5,149.4 93,140.1 77.4,142.9 	"/>
	<polygon id="XMLID_203_" class="st4" points="77.4,140.7 92.3,134.2 78.2,135 	"/>
	<polygon id="XMLID_202_" class="st4" points="127.6,236 138.8,226.2 147,233.3 153.9,226.2 161.9,233.4 168.5,226.9 176.7,233 
		185.4,223.7 188.6,225.8 176.4,238 169,232.8 162.2,238.6 153.9,233.4 147.1,239.2 138.8,233.9 131,239.2 	"/>
	<path id="XMLID_201_" class="st4" d="M140.4,167.7c0.3,0.1-25.3,23.6-25.3,23.6l33.7-16.3L140.4,167.7z"/>
	<polygon id="XMLID_200_" class="st4" points="146,178.7 121.1,199.2 155.2,183.6 	"/>
	<polygon id="XMLID_199_" class="st4" points="155.2,184.1 126.7,206 160.9,192.4 	"/>
	<polygon id="XMLID_198_" class="st4" points="160.6,194.2 132,214.4 164.4,203.1 	"/>
	<polygon id="XMLID_197_" class="st4" points="164,204.9 141.7,219.1 168.7,210.9 	"/>
	<polygon id="XMLID_196_" class="st4" points="168.8,212.7 151.4,223.3 174.7,218 	"/>
	<path id="XMLID_195_" class="st4" d="M110.4,177.1c-7.8,8.6,1.1,43.8,21,56.6l-2.4,4.1c0,0-24.4-15.5-26.2-46.9l-1.8-5.6
		L110.4,177.1z"/>
	<polygon id="XMLID_194_" class="st4" points="175.8,219.1 163.1,225.4 181.1,223.3 	"/>
</g>
<path id="XMLID_192_" class="st9" d="M121.1,119.5c0,0,13-11.2,16.2-19.2c3.2-8,5.4-27.1-8.1-41.6c-13.5-14.5-23.5-23.4-26.4-28.2
	c0,0-6.6,11.3-4.5,25.2c0,0-3.5-13.8-20.4-21.5c0,0-3.2,11.8,0,27.5c0,0-5.8-5.7-21-8.9c0,0,0.9,14.1,5.3,26.4c0,0-8.7-2.4-14.3-5.2
	c0,0,0.3,19.9,11.1,32.3c0,0-7.9-0.5-12.8-3.1c0,0,3.8,29.1,33.2,28.3c0,0-6.4,17.9,0,34.6c6.4,16.7,23.5,26.6,23.5,26.6
	s4.9,34.1,28.6,46.7l7.8-6.1l8.3,6.1l6.8-6.7l7.7,6.7l6.9-6.7l7.8,5.5c0,0,7.7-4.9,15-17.1C199.3,208.4,121.1,119.5,121.1,119.5z"/>
<g id="XMLID_32_">
	<path id="XMLID_191_" class="st8" d="M244.4,144.3c0,0,11.9-9.2,16.8-19.1c4.9-9.9,13.4-30.1,17.9-28.7c4.4,1.4,7.3,20.5-3.9,30.5
		c0,0,11.7,0,14.2,10.4c1.1,4.7-1.4,8.3-1.4,8.3s3.3,2.1,3.6,5.9c0.6,6-4,7.5-4,7.5s0.9,6.2-3.9,9.8c-5.1,3.8-14.3,3.4-18,2.2
		c0,0-6.3,4.2-14.2,4.8C243.6,176.5,244.4,144.3,244.4,144.3"/>
	<path id="XMLID_190_" class="st4" d="M253.7,135.7c0,0,8.1,15.3,9.2,37.1l-11.4,3.2c0,0-2.3-28.3-7.1-33.8L253.7,135.7z"/>
	<path id="XMLID_189_" class="st4" d="M263.5,136.6c0,0-2.2,12,20.9,10.7c0,0-17.4,6-24.3-1.8C255.6,140.4,263.5,136.6,263.5,136.6"
		/>
	<path id="XMLID_188_" class="st4" d="M265.5,148.9c0,0-4.4,10.8,19.9,10.8c0,0-25.4,4.8-26.7-5.5c-0.6-4.9,5.8-7.7,5.8-7.7
		L265.5,148.9z"/>
	<path id="XMLID_187_" class="st4" d="M265.1,159.2c0,0-3.7,10.8,16.8,10.2c0,0-19.1,6-21.8-4.3c-1.1-4.3,4.3-7.2,4.3-7.7
		C264.5,156.9,265.1,159.2,265.1,159.2"/>
	<path id="XMLID_186_" class="st4" d="M264.8,129.8c0,0-0.1,4,4.1,4.3l-5.4,2.5C263.5,136.6,261.9,132.7,264.8,129.8"/>
	<path id="XMLID_185_" class="st4" d="M278.8,97c0,0,1.3,6-1.5,15c-3.6,11.5-11.3,17-11.3,17s5.2,0.1,10-1.6c0,0,5.3-9.4,6.6-14.7
		C283.9,107.3,282.9,97.9,278.8,97"/>
	<path id="XMLID_184_" class="st10" d="M244.4,144.3c0,0,11.9-9.2,16.8-19.1c4.9-9.9,13.4-30.1,17.9-28.7c4.4,1.4,7.3,20.5-3.9,30.5
		c0,0,11.7,0,14.2,10.4c1.1,4.7-1.4,8.3-1.4,8.3s3.3,2.1,3.6,5.9c0.6,6-4,7.5-4,7.5s0.9,6.2-3.9,9.8c-5.1,3.8-14.3,3.4-18,2.2
		c0,0-6.3,4.2-14.2,4.8C243.6,176.5,244.4,144.3,244.4,144.3z"/>
	<path id="XMLID_183_" class="st7" d="M274.6,151c-0.7,0-1.4,0-2.1-0.1c-7.9-0.4-11.5-2.6-13.1-4.4c-1.2-1.3-1.8-2.9-1.7-4.4
		c0.2-3.5,4.3-10.2,18.4-8.6c0,0-15.5,1.3-16,8.7c0,0.5,0.1,1.5,1.1,2.6c1.3,1.5,4.4,3.4,11.4,3.7c10.4,0.5,17.2-3.7,14.9-12.7
		l2.3,9C289.7,145,287,151,274.6,151"/>
	<path id="XMLID_182_" class="st7" d="M267.3,162.1c-5.6-0.9-9.7-4.1-10.4-7.7c-0.3-1.6-0.2-4.8,4.2-7.9l1.4,2
		c-1.7,1.2-3.7,3.1-3.2,5.4c0.5,2.5,4.7,4.5,9.2,5.4c9,1.7,22.1,0.3,21.7-7.6l0.4,6.5C289.2,159.5,284.4,164.9,267.3,162.1"/>
	<path id="XMLID_181_" class="st7" d="M267,172.8c-0.3-0.1-6.5-1.2-8-6.8c-0.7-2.7,0.2-5.5,2.9-8.5l1.8,1.6
		c-2.1,2.3-2.9,4.4-2.3,6.3c0.8,2.9,4.9,4.7,6.4,5.1L267,172.8z"/>
	<path id="XMLID_180_" class="st7" d="M264.8,135.3c0,0-2.1-3.3,0-5.4c0,0-4.2,1.9-1.9,6.4L264.8,135.3z"/>
	<path id="XMLID_179_" class="st2" d="M148.2,175.8c0.4,4.8,9.6,19.7,17.1,31.1c52.7-24.1,61.8-82.3,61.8-82.3l-22.7-11.7
		C204.4,112.8,214.9,164,148.2,175.8"/>
	<path id="XMLID_178_" class="st11" d="M153,186.9c0,0,59-12.4,58.4-55.6l-62.6,43.6L153,186.9z"/>
	<path id="XMLID_177_" class="st7" d="M154.2,178c0,0,2.9,8.7,8.9,15.4c0,0-2.5-11.5-2.8-16.2L154.2,178z"/>
	<path id="XMLID_176_" class="st7" d="M161.9,175.7c0,0.3,4.8,10.4,8.6,14.5c0,0-2.6-13.2-2.3-16.5L161.9,175.7z"/>
	<path id="XMLID_175_" class="st7" d="M169.3,172.7c0,0,3.1,7.4,8.3,12.3c0,0-2.6-10.3-1.8-15.7L169.3,172.7z"/>
	<path id="XMLID_174_" class="st7" d="M176.7,169.8c0,0,2.9,7,6.4,10.3c0,0-1.1-10.1-1.3-14.2L176.7,169.8z"/>
	<path id="XMLID_173_" class="st10" d="M168.8,210.6c-12.7-12.1-21.4-35.7-21.4-35.7"/>
	<path id="XMLID_172_" class="st2" d="M252.9,125.3c0,0-20.3-11.6-35.9,5.6c0,0,0.8,48.9-56.8,74.9c0,0,11.3,27.8,50,30.2
		c0,0,34.4-16.2,42.7-51.6c8.3-35.3-9.4-50.4-9.4-50.4L252.9,125.3z"/>
	<path id="XMLID_171_" class="st11" d="M165.5,202.2c0,0,9.5,26.3,49.2,30.3l-4.3,1.8c0,0-35.9-0.9-49.1-30.2L165.5,202.2z"/>
	<path id="XMLID_170_" class="st12" d="M242.5,62.9c0,0,7.5-1.3,9.6-7.4c1.8-5.1,0.4-8.4-2.1-10.3c-2.2-1.8-8.4-2.8-11.3,2.5
		c0,0-2.7-14.9-12-16.9c-6.9-1.5-9,4.9-6.2,10.2c0,0-11.4-6.4-23.5-6.1c-10.2,0.2-11.3,8.9-5.3,12.5c0,0-10.7-1-17.1,4.1
		c-6.4,5.1-2.6,13.4,6.7,12.4c0,0-12.1,5.4-13,14.1c-0.8,8,8,9.9,13.4,2.9c6.4-8.2,11.9-14.4,24.3-13.1L242.5,62.9z"/>
	<path id="XMLID_169_" class="st13" d="M173.7,78.5c-4.3-1.2-2.1-7.6-2.1-7.6s-5.8,5.3-3.4,10.5c2.2,4.8,5.7,4.5,8.6,3
		c5-1.3,6.5-8.1,14.1-13.3c8.5-5.8,13-3.6,13-3.6l1.9-3.4C184,62.9,180.3,80.3,173.7,78.5"/>
	<path id="XMLID_168_" class="st13" d="M182.9,47.9c0,0-0.1,0-0.2,0.1C182.8,48,182.9,47.9,182.9,47.9"/>
	<path id="XMLID_167_" class="st13" d="M184.5,62.4c5.2-1.8,15.7-3.6,15.7-3.6c-8.1-3.7-20,3.2-23.1-2c-2.3-3.5,1.8-6.8,5.7-8.3
		c-1.4,0.4-11.9,1.3-11.1,10.7c0.1,1.1,0.5,1.9,1.1,2.5c1.9,2,5.9,3.5,9.9,1.5c0,0,0,0,0.1,0c1.7-0.3,2.9-0.6,2.9-0.6
		S185.2,62.5,184.5,62.4"/>
	<path id="XMLID_166_" class="st13" d="M210.3,50.9c-5.8-4.7-15.9-4.8-17.1-9.1c-1-3.4,2.7-6.2,9.7-6.2c0,0-4.3-3.3-10.8-0.2
		c-8.2,3.9-2.2,11.1-2.2,11.1l3,0.6c0.2,0.4,7.2,1.7,7.2,1.7L210.3,50.9z"/>
	<path id="XMLID_165_" class="st13" d="M226.4,30.6c0,0-6.7,2.5-0.6,14.6l-6.5-4.6C219.3,40.5,216.2,29.6,226.4,30.6"/>
	<path id="XMLID_164_" class="st13" d="M246.6,43.9c0,0-7.8,2.8-4.1,9.5c0,0-4,0.1-3.8-5.4C238.9,42.4,246.6,43.9,246.6,43.9"/>
</g>
<path id="XMLID_162_" class="st14" d="M242.5,62.9c0,0,7.5-1.3,9.6-7.4c1.8-5.1,0.4-8.4-2.1-10.3c-2.2-1.8-8.4-2.8-11.3,2.5
	c0,0-2.7-14.9-12-16.9c-6.9-1.5-9,4.9-6.2,10.2c0,0-11.4-6.4-23.5-6.1c-10.2,0.2-11.3,8.9-5.3,12.5c0,0-10.7-1-17.1,4.1
	c-6.4,5.1-2.6,13.4,6.7,12.4c0,0-12.1,5.4-13,14.1c-0.8,8,8,9.9,13.4,2.9c6.4-8.2,11.9-14.4,24.3-13.1L242.5,62.9z"/>
<g id="XMLID_17_">
	<path id="XMLID_161_" class="st4" d="M251.5,79.9c0,0-0.4-19.4-15.5-25.1c-15-5.7-28.9,5.6-32,12l-0.5,5.3c0,0-1.9,0.9-4.7,3.7
		c0,0,3.6,1.6,4.8,2.5c0,0-3.4,2.1-6.8,5.4c0,0,3.8,0.8,6.1,2.3c0,0-5.5,4.5-7.4,6.7l4.6,2l-5.1,4.4l7.6,7.7l18.1,9.1l25.2-12.9
		L246,90L251.5,79.9z"/>
	<path id="XMLID_160_" class="st8" d="M247.5,77.6c0,0-0.8-9-5.8-14.4c-3.6-4-9.8-7-18.4-5.8c-7.5,1-12.4,4.7-12.4,6.5
		c0,1.1,4.1,2,4.1,2s-7.4,1.1-8.3,3.4c-1,2.3,8.1,1.9,8.1,1.9s-10.4,1.6-10.5,3.6c-0.1,3,10.7,2.3,10.7,2.3s-10.9,2.9-12,5.3
		c-1.1,2.4,11.6,0.7,11.6,0.7s-9.9,4-12,7.2c-2,3.2,11-0.6,11-0.6s-10.3,4.5-9.9,7.1c0.4,2.6,9.7-2.5,9.7-2.5s-5.6,4-4.4,5.5
		c1.3,1.5,8.7-3,8.7-3s-4.5,4.6-2.7,5.7c1.8,1.1,6.5-2.1,6.5-2.1s-2.2,4.3-0.5,5.1c1.7,0.8,6.1-3.6,6.1-3.6s-2.3,5.3,1,7.2
		c3.3,1.9,14.9-12.3,14.9-12.3L246,90L247.5,77.6z"/>
	<path id="XMLID_159_" class="st4" d="M227.2,93.6c0,0-1.6-0.1-2.9-3c0,0,5,2.2,11,1.3L227.2,93.6z"/>
	<path id="XMLID_158_" class="st4" d="M236.1,68c0,0,0.9,0.9,1.4,0.5c1.5-0.9,1.2-2.3,1.1-3.2c0,0,0.6,0.2,1,1.6
		c0.8,2.5-0.7,6.1-3.5,5.5c-3.1-0.7-2.3-4.2-3.1-5.6c-1.8-2.7-6.4-1-8,0.9c-1.3,1.4-1.6,3.2-1.3,4c0,0-1-1.3-1-2.7
		c0.1-1.9,2.6-6.4,7.6-6.2c5,0.2,4.9,1.6,5,2C235.5,65.4,236.1,68,236.1,68"/>
	<path id="XMLID_157_" class="st4" d="M241.3,80.6c0,0,0.4-4.7-0.9-4.4c-1.3,0.3-0.5,5-3.7,7.7c-4,3.3-9.5,1-10.5,0.8
		c-1.4-0.3,0.6,2.8,4.1,3C241.9,88.5,241.3,80.6,241.3,80.6"/>
	<path id="XMLID_156_" class="st15" d="M251.5,79.9c0,0-0.4-19.4-15.5-25.1c-15-5.7-28.9,5.6-32,12l-0.4,4.7c0,0-1.9,1.5-4.8,4.3
		c0,0,3.6,1.6,4.8,2.5c0,0-3.4,2.1-6.8,5.4c0,0,3.8,0.8,6.1,2.3c0,0-5.5,4.5-7.4,6.7l4.6,2l-5.1,4.4l7.6,7.7l18.1,9.1l25.2-12.9
		L246,90L251.5,79.9z"/>
	<path id="XMLID_155_" class="st7" d="M244.8,75.9c0,0-3,1.9-3.8,4.6l0.6,2.2l-2.4,2.2c0,1.4,0.8,6.8,4.5,8l0.5-0.6
		c0,0-4.4-4.6-3.5-7.1C241.5,82.6,244.8,75.9,244.8,75.9"/>
	<path id="XMLID_154_" class="st7" d="M265.1,91.6c0,0-10.9-5.4-12.9-7.7l-9.7,2.1L265.1,91.6z"/>
	<polygon id="XMLID_153_" class="st2" points="191.8,98.2 196.7,98.2 225.5,111 227.1,124.6 197.2,112.4 191.7,108.1 	"/>
	<polygon id="XMLID_152_" class="st11" points="192.2,99.2 226.4,114.9 225.5,111 196.7,98.2 191.7,97.3 	"/>
	<polygon id="XMLID_151_" class="st10" points="191.8,98.2 196.7,98.2 225.5,111 227.1,124.6 197.2,112.4 191.7,108.1 	"/>
	<path id="XMLID_150_" class="st8" d="M156.9,108.6c-26.6,1.8-55.4,16.8-55.1,20.6c0.2,2.7,18,1.2,18,1.2S92.1,145.7,93,150.6
		c0.9,4.9,26-2.5,31.3-3.9c0,0-22.7,13.8-21.1,17.9c1.6,4.1,24.2-2.3,32.4-6c0,0-18.6,13.8-17.2,17.8c1.4,4,22.4-4.2,28.3-7.1
		c0,0-11,10-10.6,10.7c0.4,0.8,23.3,7.7,52-15.5C188.1,164.5,175,115.4,156.9,108.6"/>
	<path id="XMLID_149_" class="st4" d="M101.4,128.9c0,0,15.7-1,34-4.4l-9.9,4.1l-8.6,2.6C116.9,131.2,102.5,132,101.4,128.9"/>
	<path id="XMLID_148_" class="st4" d="M92.3,150.7c0,0,21.9-5.6,49.5-13l-9,5.2l-14.6,6.2C118.2,149.2,94.5,154.5,92.3,150.7"/>
	<path id="XMLID_147_" class="st4" d="M102.7,164.5c0,0,15.8-2.7,47.9-16.5l-4.5,4.4l-16.2,9.4C129.8,161.8,106.4,168.8,102.7,164.5
		"/>
	<path id="XMLID_146_" class="st4" d="M118,176.3c0,0,14.1-3.8,42.3-18.1l-5.7,5.5l-9.9,7.1C144.7,170.9,119.8,179.8,118,176.3"/>
	<path id="XMLID_145_" class="st4" d="M135.8,179.5c0,0,30.3-0.9,51.2-18.5l1.1,3.6c0,0-16.2,12.3-28.6,15.2
		C147.1,182.5,134.8,181.7,135.8,179.5"/>
	<path id="XMLID_144_" class="st16" d="M156.9,108.6c-26.6,1.8-55.4,16.8-55.1,20.6c0.2,2.7,18,1.2,18,1.2S92.1,145.7,93,150.6
		c0.9,4.9,26-2.5,31.3-3.9c0,0-22.7,13.8-21.1,17.9c1.6,4.1,24.2-2.3,32.4-6c0,0-18.6,13.8-17.2,17.8c1.4,4,22.4-4.2,28.3-7.1
		c0,0-11,10-10.6,10.7c0.4,0.8,23.3,7.7,52-15.5C188.1,164.5,175,115.4,156.9,108.6z"/>
	<path id="XMLID_143_" class="st4" d="M156.6,109.7l-17.3,7.8l23.2-3.2l-20.3,10l23.8-3.6l-18.5,12.1l24.8-5.6l-21.9,12.7l26-5.1
		L154.3,148l26.1-5.5l-22.5,12.2l23.8-3.8l-17.4,11.5l21.4-3.9C185.7,158.6,174.4,120.1,156.6,109.7"/>
	<path id="XMLID_142_" class="st2" d="M152.4,107.1c0,0,12.5,11.4,19.8,25.1c7.3,13.7,13.4,37,13.4,37s38.2-24.5,19.2-54.5
		C191.6,93.7,152.4,107.1,152.4,107.1"/>
	<path id="XMLID_141_" class="st11" d="M196.3,159.4l-7.4-29.9l12.9,25.9l-7.7-29.8l12.5,23.6l-7.3-27.1l10.2,19.1
		C209.7,141.2,205.8,150.3,196.3,159.4"/>
	<path id="XMLID_140_" class="st11" d="M190.7,164.5c-5-34.5-29.5-58.5-29.8-58.7l3-2c1,1,24.9,24.9,30.4,59l-3.4,0.6L190.7,164.5z"
		/>
	<path id="XMLID_139_" class="st9" d="M152.4,107.1c0,0,10.9,8.6,19.8,25.1c10.7,19.8,13.4,37,13.4,37s38.2-24.8,19.2-54.5
		C191.8,94.2,152.4,107.1,152.4,107.1z"/>
	<path id="XMLID_138_" class="st17" d="M164.5,104.2c0,0,24.4,24.1,29.9,58.1"/>
	<path id="XMLID_137_" class="st7" d="M101,130.1c0,0,1.2,2.4,10.9,4.9l6-4.1L101,130.1z"/>
	<path id="XMLID_136_" class="st7" d="M93.3,152.8c0,0,6.2,3.3,18.8,2l9-7.2C121.1,147.5,101.4,153.4,93.3,152.8"/>
	<path id="XMLID_135_" class="st7" d="M105.7,167.1c0,0,6.4,1.7,19.7-0.1l6-6C131.3,161,114.3,166.4,105.7,167.1"/>
	<path id="XMLID_134_" class="st7" d="M241,76.5c0,0,0.6,6.1-3.7,9.1c-4,2.8-10.6,0.7-10.6,0.7s6.2,4.7,11.9,1
		C243.7,84,241,76.5,241,76.5"/>
	<path id="XMLID_133_" class="st7" d="M229.2,93.2c0,0-1.9,0.1-4.1-0.9c0,0,0.8,1.5,2.4,2L229.2,93.2z"/>
	<path id="XMLID_132_" class="st5" d="M245,76.8c0,0-4.4,3.5-4.1,8.8c0.3,5.8,4.9,7.9,4.9,7.9l15.7-1.9l-16.1-6l17.9-6.2L245,76.8z"
		/>
	<path id="XMLID_131_" class="st18" d="M245,76.8c0,0-4.1,3.5-4.1,8.8c0,5.3,5,8,4.9,7.9c5,0.7,15.7-1.9,15.7-1.9
		c-10-2.5-17.3-6.5-17.3-6.5s8.5-0.8,19-6.3C251.5,76.5,245,76.8,245,76.8z"/>
	<path id="XMLID_130_" class="st7" d="M223,66.2c1.2-2.1,3-3.5,5.7-4.2c5.1-1.3,7.9,1.3,7.9,4.2c0,2.3,1.7,2.3,2.1,0.6
		c0.2,1.2-0.3,2.8-1.9,2.6c-0.9-0.1-1.5-0.7-1.7-1.9c-0.1-0.6-0.1-1.1-0.3-1.9c-0.6-2.2-3.1-2.7-6.2-1.9c-2.3,0.6-4.2,2.3-4.9,3.3
		c-1.4,2.1-0.6,4.2-0.6,4.2S221.4,68.9,223,66.2"/>
	<path id="XMLID_129_" class="st7" d="M232.5,74.8c0,2.4-1.9,4.3-4.3,4.3c-2.4,0-4.3-1.9-4.3-4.3c0-2.4,1.9-4.3,4.3-4.3
		C230.6,70.4,232.5,72.4,232.5,74.8"/>
	<path id="XMLID_128_" class="st2" d="M230.2,73.8c0,0.7-0.5,1.2-1.2,1.2c-0.7,0-1.2-0.5-1.2-1.2c0-0.7,0.5-1.2,1.2-1.2
		C229.7,72.6,230.2,73.2,230.2,73.8"/>
	<path id="XMLID_127_" class="st7" d="M227.8,70.4c0,0,2.2-0.4,4.1,1.1c1.1,0.9,1.4,1.3,2.5,2.3c0,0-1.3,0.4-2.5-0.2
		C230.3,72.9,227.8,70.4,227.8,70.4"/>
	<path id="XMLID_126_" class="st7" d="M237.9,48.1c0,0-0.6,6.6,4.4,6.6c3.3,0,3.6-3.3,2.7-4.3c-1.1-1.2-2.5-0.2-2.5-0.2
		s2.2,0.3,1.3,2c-0.8,1.5-4.5,0.9-4-5.1L237.9,48.1z"/>
	<path id="XMLID_125_" class="st7" d="M217.1,40.4c0.2,0.1,10,5.4,13.5,9.6c0,0-2.7-6.1-11.5-10.6L217.1,40.4z"/>
	<path id="XMLID_124_" class="st7" d="M188.8,48.4c0,0,16.3,0.6,24.9,4.3c0,0-5.5-5.3-24.6-6.5L188.8,48.4z"/>
	<path id="XMLID_123_" class="st7" d="M180.4,65.3c0,0,10.2-5.2,20.8-6.3c0,0-6.3-2.4-22.5,4.9l1.4,1.4"/>
	<path id="XMLID_122_" class="st19" d="M200.1,52.7c0,0-2.1-1-6-1.1c-3.6,0-8.9,1.6-9.6,0.3C183.3,49.8,194.4,48.8,200.1,52.7"/>
	<path id="XMLID_121_" class="st19" d="M220.9,46.2c0,0-2.1-1.9-6.6-3.4c-4.1-1.3-10.7-1.1-11.1-2.9C202.5,37,215.5,39.6,220.9,46.2
		"/>
	<path id="XMLID_120_" class="st19" d="M235.2,45.7c0,0-0.7-2-3.1-4.6c-2.2-2.4-6.7-4.8-6.3-6C226.5,32.8,234.2,39.4,235.2,45.7"/>
	<path id="XMLID_119_" class="st19" d="M187.3,65c0,0-2.3,0.6-5.3,3.1c-2.8,2.3-5.7,7-7.1,6.5C172.6,73.6,180.4,65.7,187.3,65"/>
	<path id="XMLID_118_" class="st19" d="M246,47.9c-0.3,1.1,1.2,1.2,1.9,2.1c0.7,0.9,1.3,3.2-1.3,5.7c0,0,3.6-1.5,3.4-4.8
		C249.9,47.4,246.4,46.4,246,47.9"/>
	<path id="XMLID_117_" class="st9" d="M252.9,124.6c0,0-20.3-11.6-35.9,5.6c0,0,0.8,48.9-56.8,74.9c0,0,11.3,27.8,50,30.2
		c0,0,34.4-16.2,42.7-51.6c8.3-35.3-9.4-50.4-9.4-50.4L252.9,124.6z"/>
	<path id="XMLID_116_" class="st11" d="M217.1,130.1c0,0,8.7-4.5,17.4,0c0,0,0.5-5.7,5.1-9.4C239.6,120.7,225.6,118.7,217.1,130.1"
		/>
	<path id="XMLID_115_" class="st10" d="M217.1,130.1c0,0,8.7-4.5,17.4,0c0,0,0.5-5.7,5.1-9.4C239.6,120.7,225.6,118.7,217.1,130.1z"
		/>
	<path id="XMLID_114_" class="st12" d="M247.6,95.4c5.5,4.2,7.6,10.1,7.5,16.5c0,5.1-2.4,8.1-5.1,7.8c-2.2-0.3-3.4-4.3-3.4-4.3
		s-2.9,10.9-8,9.2C234,122.9,238,112,238,112s-7.9,8.5-11.5,4.4c-3.6-4.1,7.1-15.4,7.1-15.4s-7.8,0.6-8-4
		C225.3,92.3,239.7,89.3,247.6,95.4"/>
	<path id="XMLID_113_" class="st13" d="M231.9,93.2c0,0-5,3.2-0.5,7.1c0,0-5.2,0.1-5.2-3.4C226.1,93.4,230.4,93.3,231.9,93.2"/>
	<path id="XMLID_112_" class="st13" d="M235.3,100.3c0,0-9.6,12-3.9,16.3c0,0-4.2,2.6-5.4-1.7C224.7,110.7,235.3,100.3,235.3,100.3"
		/>
	<path id="XMLID_111_" class="st13" d="M239.6,109.9c0,0-2.2,13.7,4.1,12.9c0,0-6.6,5.7-6.6-1.8C237,113.5,239.6,109.9,239.6,109.9"
		/>
	<path id="XMLID_110_" class="st13" d="M248.3,108.8c0,0,0.8,9.8,6.8,7.2c0,0-3.8,7-7.2,1.1L248.3,108.8z"/>
	<path id="XMLID_109_" class="st6" d="M248.2,95.4c5.5,4.2,7.6,10.1,7.5,16.5c0,5.1-2.4,8.1-5.1,7.8c-2.2-0.3-3.4-4.3-3.4-4.3
		s-2.9,10.9-8,9.2c-4.7-1.6-0.7-12.6-0.7-12.6s-7.9,8.5-11.5,4.4c-3.6-4.1,7.1-15.4,7.1-15.4s-7.8,0.6-8-4
		C225.9,92.3,240.3,89.3,248.2,95.4z"/>
	<path id="XMLID_108_" class="st7" d="M245.9,117.1c0,0,1.3-5,2-12.9c0,0,1.2,6.5-0.2,12.4L245.9,117.1z"/>
	<path id="XMLID_107_" class="st7" d="M236.6,112.8c0,0,3.9-5.2,5.9-8.9c0,0-2.7,6.8-4.3,12.2L236.6,112.8z"/>
	<path id="XMLID_106_" class="st7" d="M231.4,100.3c0,0,3.6,0.1,7.2-2.1c0,0-4.8,4-6.4,6C232.2,104.2,234.2,100.9,231.4,100.3"/>
	<path id="XMLID_105_" class="st19" d="M241.7,94.8c0,0,1.4,0.6,3.4,2.5c1.8,1.8,3.3,5.6,4.5,5C251.4,101.6,247.3,96.2,241.7,94.8"
		/>
	<path id="XMLID_104_" class="st19" d="M235,110.2c2.4-2.3,5.4-5.5,5.4-5.5c-0.3,1.9-5.4,9.8-8.4,9.4
		C231.2,114.1,232.7,112.4,235,110.2"/>
	<path id="XMLID_103_" class="st19" d="M243.7,114.2c1.2-2.9,2.2-6.2,2.2-6.2c0.4,1.8-0.5,10.1-3.9,11.6
		C241.3,119.8,242.6,116.8,243.7,114.2"/>
	<path id="XMLID_102_" class="st19" d="M252.7,109.7c-0.1-2.6-0.6-4.9-0.6-4.9c1,1.1,2.9,6.3,0.8,9.4
		C252.6,114.7,252.8,111.6,252.7,109.7"/>
	<path id="XMLID_101_" class="st11" d="M212,178.7c0,2.3-1.9,4.2-4.2,4.2s-4.2-1.9-4.2-4.2c0-2.3,1.9-4.2,4.2-4.2
		S212,176.4,212,178.7"/>
	<path id="XMLID_100_" class="st2" d="M212.1,177.9c0,1.6-1.3,2.9-2.9,2.9c-1.6,0-3-1.3-3-2.9c0-1.6,1.3-2.9,3-2.9
		C210.8,174.9,212.1,176.3,212.1,177.9"/>
	<path id="XMLID_99_" class="st17" d="M212.1,177.9c0,1.6-1.3,2.9-2.9,2.9c-1.6,0-3-1.3-3-2.9c0-1.6,1.3-2.9,3-2.9
		C210.8,174.9,212.1,176.3,212.1,177.9z"/>
	<path id="XMLID_98_" class="st11" d="M198.4,193.3c0,2.3-1.9,4.2-4.2,4.2s-4.2-1.9-4.2-4.2c0-2.3,1.9-4.2,4.2-4.2
		S198.4,191,198.4,193.3"/>
	<path id="XMLID_97_" class="st2" d="M198.6,192.5c0,1.6-1.3,2.9-2.9,2.9c-1.6,0-2.9-1.3-2.9-2.9c0-1.6,1.3-2.9,2.9-2.9
		C197.3,189.6,198.6,190.9,198.6,192.5"/>
	<path id="XMLID_96_" class="st17" d="M198.6,192.5c0,1.6-1.3,2.9-2.9,2.9c-1.6,0-2.9-1.3-2.9-2.9c0-1.6,1.3-2.9,2.9-2.9
		C197.3,189.6,198.6,190.9,198.6,192.5z"/>
	<path id="XMLID_95_" class="st11" d="M184,206.4c0,2.3-1.9,4.2-4.2,4.2c-2.3,0-4.2-1.9-4.2-4.2c0-2.3,1.9-4.2,4.2-4.2
		C182.2,202.2,184,204.1,184,206.4"/>
	<path id="XMLID_94_" class="st2" d="M184.2,205.6c0,1.6-1.3,2.9-2.9,2.9c-1.6,0-2.9-1.3-2.9-2.9c0-1.6,1.3-2.9,2.9-2.9
		C182.9,202.7,184.2,204,184.2,205.6"/>
	<path id="XMLID_93_" class="st17" d="M184.2,205.6c0,1.6-1.3,2.9-2.9,2.9c-1.6,0-2.9-1.3-2.9-2.9c0-1.6,1.3-2.9,2.9-2.9
		C182.9,202.7,184.2,204,184.2,205.6z"/>
	<path id="XMLID_92_" class="st11" d="M243.7,195c0,2.3-1.9,4.2-4.2,4.2c-2.3,0-4.2-1.9-4.2-4.2c0-2.3,1.9-4.2,4.2-4.2
		C241.8,190.9,243.7,192.7,243.7,195"/>
	<path id="XMLID_91_" class="st2" d="M243.8,194.2c0,1.6-1.3,2.9-2.9,2.9c-1.6,0-3-1.3-3-2.9c0-1.6,1.3-2.9,3-2.9
		C242.5,191.3,243.8,192.6,243.8,194.2"/>
	<path id="XMLID_90_" class="st17" d="M243.8,194.2c0,1.6-1.3,2.9-2.9,2.9c-1.6,0-3-1.3-3-2.9c0-1.6,1.3-2.9,3-2.9
		C242.5,191.3,243.8,192.6,243.8,194.2z"/>
	<path id="XMLID_89_" class="st11" d="M231.8,210.6c0,2.3-1.9,4.2-4.2,4.2c-2.3,0-4.2-1.9-4.2-4.2c0-2.3,1.9-4.2,4.2-4.2
		C229.9,206.4,231.8,208.3,231.8,210.6"/>
	<path id="XMLID_88_" class="st2" d="M232,209.8c0,1.6-1.3,2.9-2.9,2.9c-1.6,0-3-1.3-3-2.9c0-1.6,1.3-2.9,3-2.9
		C230.6,206.8,232,208.2,232,209.8"/>
	<path id="XMLID_87_" class="st17" d="M232,209.8c0,1.6-1.3,2.9-2.9,2.9c-1.6,0-3-1.3-3-2.9c0-1.6,1.3-2.9,3-2.9
		C230.6,206.8,232,208.2,232,209.8z"/>
	<path id="XMLID_86_" class="st11" d="M216.9,224.7c0,2.3-1.9,4.2-4.2,4.2c-2.3,0-4.2-1.9-4.2-4.2c0-2.3,1.9-4.2,4.2-4.2
		C215,220.5,216.9,222.4,216.9,224.7"/>
	<path id="XMLID_85_" class="st2" d="M217.1,223.9c0,1.6-1.3,2.9-2.9,2.9c-1.6,0-2.9-1.3-2.9-2.9c0-1.6,1.3-2.9,2.9-2.9
		C215.7,221,217.1,222.3,217.1,223.9"/>
	<path id="XMLID_84_" class="st17" d="M217.1,223.9c0,1.6-1.3,2.9-2.9,2.9c-1.6,0-2.9-1.3-2.9-2.9c0-1.6,1.3-2.9,2.9-2.9
		C215.7,221,217.1,222.3,217.1,223.9z"/>
	<path id="XMLID_83_" class="st7" d="M105.7,197.5c0,0-2.8-9.6-1.2-15.5c0,0-4,5.7-3.1,13.5L105.7,197.5z"/>
	<path id="XMLID_26_" class="st7" d="M74.7,130.1c0,0,10.7,0.8,21.7-8.1c0,0-7.7,11.7-21.7,10.6V130.1z M55.2,104.8
		c0,0,9.8,16.3,44.5,9.4c0,0-0.6-1.1-6.7-1.3c-15.5-0.6-28.3-2.1-34.1-9.7L55.2,104.8z M60.1,78.5C64.4,92,75.9,98.1,85.6,98.2
		c9.7,0.1,18.9,1.2,18.9,1.2C99.7,93.9,92.2,98,79,93.6c-13.3-4.3-16.9-19.8-16.9-19.8L60.1,78.5z M75.6,60
		c2.6,12.4,8.6,20.5,17.7,23.2c9.1,2.6,17.3,5.6,17.3,5.6c-3.8-6.1-8.2-3.9-19.1-9.7c-10.9-5.8-12.2-18.7-12.2-18.7L75.6,60z
		 M96.2,50.9C95.8,62.5,103.5,71,108.7,75c5.3,4,11.7,6.9,11.7,6.9c-2.8-4.6-6.1-4.1-13.2-11.6c-7.1-7.5-7.5-17.7-7.5-17.7
		L96.2,50.9z"/>
	<path id="XMLID_22_" class="st20" d="M246.5,78.3c4.9,0.2,10.2,0.9,10.2,0.9c-4.2,0.7-11.6,1.3-11.6,1.3
		C245.5,79.4,246.5,78.3,246.5,78.3 M151.8,265.6c12.1,1.5,18.2,5.7,18.3,5.4C170.7,268.1,161.5,264.1,151.8,265.6 M176.3,258.2
		c12.1,1.5,18.2,5.7,18.3,5.4C195.2,260.7,186,256.7,176.3,258.2"/>
	<path id="XMLID_18_" class="st3" d="M246.6,162.9c-0.2,0.2-0.4,0.5-0.8,0.7c0,0.3,0.1,0.4,0.2,0.5c0.1,0.1,0.3,0.1,0.5,0.1h1v2.7
		H246c-0.8,0-1.3-0.3-1.6-0.8c-0.3-0.5-0.5-1.1-0.5-2h-0.3c-1.1,0-2.1-0.3-2.8-1c-0.7-0.7-1.1-1.7-1.1-2.9l0-13.8
		c0-1.4,0.3-2.4,0.8-3.1c0.6-0.8,1.7-1.2,3-1.2c1.3,0,2.3,0.4,2.9,1.1c0.6,0.7,0.9,1.8,0.9,3.1l0,13.8
		C247.4,161.3,247.1,162.2,246.6,162.9 M244.3,160.5l0-14.6c0-0.2-0.1-0.3-0.2-0.4c-0.1-0.1-0.3-0.1-0.6-0.1c-0.3,0-0.5,0-0.6,0.1
		c-0.1,0.1-0.2,0.2-0.2,0.4l0,14.6c0,0.2,0.1,0.3,0.2,0.4c0.1,0.1,0.3,0.2,0.6,0.2c0.3,0,0.5-0.1,0.6-0.2S244.3,160.7,244.3,160.5
		 M236.9,147.6c0.6,0.8,0.9,1.8,0.9,3l0,12.9c0,1.2-0.3,2.2-0.9,3c-0.6,0.9-1.5,1.3-2.6,1.3h-4.3l0.1-21.6h4.2
		C235.3,146.3,236.2,146.8,236.9,147.6 M234.5,163.9l0-13.7c0-0.5-0.2-0.8-0.5-0.9c-0.2-0.1-0.5-0.1-0.9-0.1l0,15.7
		c0.6,0,0.8,0,0.9-0.1C234.4,164.7,234.5,164.4,234.5,163.9 M226.3,142.7c1,0.5,1.5,1.7,1.4,3.4l0,5.9c0,1.3-0.2,2.2-0.7,2.8
		c-0.4,0.5-0.8,0.8-1.1,1c-0.2,0.1-0.8,0.2-1.7,0.2c-0.3,0-0.6,0-0.9,0l0,7.9H220l0.1-21.6h3.3C224.8,142.3,225.8,142.4,226.3,142.7
		 M224.7,151.7l0-5.2c0-0.5-0.2-0.8-0.4-0.9c-0.1-0.1-0.6-0.1-1-0.1l0,7.2c0.5,0,0.9-0.1,0.9-0.1
		C224.6,152.5,224.7,152.2,224.7,151.7"/>
	<line id="XMLID_65_" class="st0" x1="111" y1="409.5" x2="37.3" y2="405.4"/>
	<line id="XMLID_64_" class="st21" x1="111" y1="409.5" x2="37.3" y2="405.4"/>
</g>
<g id="XMLID_58_">
	<path id="XMLID_62_" class="st0" d="M113.8,405.2C78.4,403,43,400.9,7.6,398.8c0,0-16.5-1.4-13.4,12.2
		c3.3,14.8,23.3,106.3,23.3,106.3s2.5,14,17.2,13.3c14.7-0.8,106.1-5.5,106.1-5.5l176.8-9.2c0,0,10.6-0.5,13.6-13l22.2-73.8
		c0,0,3.1-10.8-10.1-11.6l-113.7-6.3c-7.4-0.4-24.6-1.3-31.8-1.6c-28.9-1.5-42.7-2.2-65.8-3.4C124.2,405.7,117.8,405.4,113.8,405.2"
		/>
	<path id="XMLID_61_" class="st1" d="M113.8,405.2C78.4,403,43,400.9,7.6,398.8c0,0-16.5-1.4-13.4,12.2
		c3.3,14.8,23.3,106.3,23.3,106.3s2.5,14,17.2,13.3c14.7-0.8,106.1-5.5,106.1-5.5l176.8-9.2c0,0,10.6-0.5,13.6-13l22.2-73.8
		c0,0,3.1-10.8-10.1-11.6l-113.7-6.3c-7.4-0.4-24.6-1.3-31.8-1.6c-28.9-1.5-42.7-2.2-65.8-3.4C124.2,405.7,117.8,405.4,113.8,405.2z
		"/>
	<path id="XMLID_60_" class="st22" d="M46.9,410.3l-30.6-1.5c0,0-15.6-1.2-12.7,10.4c3.2,12.7,22.1,90.9,22.1,90.9s2.4,12,16.3,11.3
		c13.9-0.7,100.6-4.7,100.6-4.7l167.7-7.9c0,0,10-0.4,12.9-11.1l21.1-63.1c0,0,3-9.2-9.6-9.9L227,419.3L46.9,410.3z"/>
	<path id="XMLID_59_" class="st1" d="M46.9,410.3l-30.6-1.5c0,0-15.6-1.2-12.7,10.4c3.2,12.7,22.1,90.9,22.1,90.9s2.4,12,16.3,11.3
		c13.9-0.7,100.6-4.7,100.6-4.7l167.7-7.9c0,0,10-0.4,12.9-11.1l21.1-63.1c0,0,3-9.2-9.6-9.9L227,419.3L46.9,410.3z"/>
</g>
<path id="XMLID_57_" class="st0" d="M201.9,411.8c-23.2-0.4-46.5-0.8-69.8-1.2v-6.4H202C202,406.7,202,409.3,201.9,411.8"/>
<path id="XMLID_56_" class="st0" d="M295,417.7c-23.3-0.6-46.7-1.2-70-1.7v-8.9h69.9C294.9,410.6,294.9,414.2,295,417.7"/>
<path id="XMLID_1_" class="st2" d="M47.2,478.6c-4.4,0-6.8-2.6-6.8-6.9v-5.9h3.7v5.9c0,2.3,1,3.4,3,3.4c2,0,2.9-1.2,2.9-3.4v-24.4
	h3.9v24.1C53.8,475.6,51.7,478.6,47.2,478.6 M64.9,478.6c4.2,0,7.2-2.6,7.2-7.1v-24.3h-3.8v24.4c0,2.3-1.1,3.5-3.4,3.5
	c-2.3,0-3.4-1.2-3.4-3.5v-24.4h-3.8v24.3C57.8,475.9,60.8,478.6,64.9,478.6 M82.5,478.6c3.8,0,7.2-2.5,7.2-7.5
	c0-3.8-1.8-6.7-5.4-9.9c-3.6-3.3-4.8-5-4.8-8.1c0-1.9,1.1-3.2,3.1-3.2c2.3,0,3.3,1.6,3.3,4v2.4h3.7v-2.9c0-4.1-2.7-6.9-6.9-6.9
	c-4.6,0-7,3.1-7,7.3c0,4,3.1,7.6,5.9,10.1c3.1,2.8,4.3,4.9,4.3,7.8c0,2.1-1.1,3.6-3.4,3.6c-2.2,0-3.4-1.5-3.4-4.1v-2.4h-3.8v2.8
	C75.3,475.7,78.1,478.6,82.5,478.6 M105.6,450.8v-3.6H91.4v3.6h5.2V478h3.8v-27.3H105.6z M134.4,478v-30.8H129l-3.4,19.1l-1,5.6
	l-1-5.6l-3.5-19.2h-5.5V478h3.4v-23.7l1,5.6l3.5,18h3.7l3.5-18l1-5.6V478H134.4z M152.5,478l-5.7-30.8h-4.1l-5.8,30.8h3.7l1.3-7.1
	h5.5l1.3,7.1H152.5z M146.7,467.5h-4.3l2.2-13.2L146.7,467.5z M162.3,478c4.9,0,6.9-3,6.9-7.5v-15.7c0-4.5-2.1-7.5-6.9-7.5h-7.4V478
	H162.3 M165.4,470.5c0,2.5-1,3.9-3.3,3.9h-3.3v-23.6h3.3c2.3,0,3.3,1.3,3.3,3.9V470.5z M185.2,478v-3.5h-8.2v-10.8h6v-3.4h-6v-9.6
	h8.2v-3.5h-12.1V478H185.2z M187.7,481.9c2.7,0,3.8-1.8,3.8-4.4v-4.4h-3.3v4.9h1.5c0,1.8-0.7,2.8-2,2.8V481.9 M209.7,478
	c3.9,0,6.1-1.9,6.1-6.2v-4.5c0-2.6-1-4.4-3.5-5c2.3-0.6,3.3-2.3,3.3-5v-3.8c0-4.3-2.2-6.2-6.1-6.2H202V478H209.7 M211.9,457.8
	c0,1.9-1,3-2.7,3h-3.2v-10.2h3.7c1.7,0,2.3,1,2.3,2.6V457.8z M212,472c0,1.6-0.7,2.5-2.3,2.5h-3.8v-10.6h3.4c1.8,0,2.7,1.1,2.7,3
	V472z M231.5,478v-3.5h-8.2v-10.8h6v-3.4h-6v-9.6h8.2v-3.5h-12.1V478H231.5z M247.5,450.8v-3.6h-14.2v3.6h5.2V478h3.8v-27.3H247.5z
	 M263.1,450.8v-3.6h-14.2v3.6h5.2V478h3.8v-27.3H263.1z M277.8,478v-3.5h-8.2v-10.8h6v-3.4h-6v-9.6h8.2v-3.5h-12.1V478H277.8z
	 M296,478.3v-2.7c-0.8,0-1.1-0.4-1.1-1.2v-6.6c0-2.2-1-4.3-3.4-4.8c2.4-0.6,3.3-2.3,3.3-4.9v-4.7c0-4.3-2.2-6.2-6.1-6.2H281V478h3.9
	v-13.5h3.5c1.8,0,2.6,1.2,2.6,3v7c0,2.9,1.1,3.7,3.9,3.7H296z M290.9,458.4c0,1.9-1,3-2.7,3h-3.2v-10.7h3.6c1.7,0,2.4,1,2.4,2.6
	V458.4z"/>
<path id="XMLID_34_" class="st0" d="M109.4,407.1c-23.3-0.6-46.7-1.2-70-1.7v-8.9h69.9C109.3,400,109.3,403.5,109.4,407.1"/>
</svg>
