<svg version="1.2" xmlns="http://www.w3.org/2000/svg" viewBox="0 0 1548 1727" width="1548" height="1727">
	<title>SHAK_BIG-svg</title>
	<style>
		.s0 { fill: #60ae2b } 
	</style>
	<path id="Layer" class="s0" d="m1384.8 671.3v-45.1-45c46-1 56.1-15 64.6-27.1 8.5-13 9-29.5 9-29.5v-0.5c0.5-112.1-69.1-219.2-192.8-300.8-123.1-81.6-297.4-133.2-489.6-133.2-192.7 0-367 51.6-489.6 133.2-123.7 81.6-193.8 188.7-193.3 300.8v0.5c0.5 0 0.5 16.5 9 29.5 9 12.1 18.6 26.1 64.6 27.1h1218.1v45 45.1h-1218.1c-69.6 1-119.1-33.1-140.2-69.6-21.5-36.5-22-69.6-22-77.1v-0.5c5.5-305.8 358-523.1 771.5-524.1 413 1 765.5 218.3 771 524.1v0.5c0 7.5-0.5 40.6-22 77.1-20.6 36-68.6 69.6-136.2 69.6q-2 0-4 0z"/>
	<path id="Layer" class="s0" d="m295.9 1727c-112.2-1-182.3-10-233.8-52.6-52.1-45-57.6-109.1-57.6-178.2 0-8 1-39 24-71.5 23.6-33.1 71.1-59.6 138.2-58.6h1218.1v44.5 45.1h-1218.1c-48 1-60.1 14-66.6 22.5-6 7-7 15-7 17.5v0.5c0 67.6 8.5 96.1 25.6 109.7 17.5 16.5 70.5 32 177.2 31h913.2c130.1 0.5 195.7-17.5 219.7-37.5 22.6-17.6 29.1-42.6 29.6-100.7q0-1 0-2.5c0 0 0-1.5-0.5-5-1.5-4-3-9-6-13-7-8.5-18.6-21.5-67.1-22.5v-45.1-44.5c67.6-1 115.1 25.5 138.2 58.6 20.5 28.5 23.5 56 24 68q0.5 0 0 1.5l0.5 2c0 62.1-7 129.7-64.6 174.2-56.6 42.1-137.7 55.6-273.8 56.6z"/>
	<path id="Layer" fill-rule="evenodd" class="s0" d="m140.7 1013.2h1270.6c73.1 0.5 135.7 57.5 135.7 133.1 0 75.1-62.6 132.7-135.7 132.7h-1270.6c-73.6 0-135.7-57.6-136.2-132.7 0.5-75.6 62.6-132.6 136.2-133.1zm1270.6 175.7c27.6 0 47.1-21 47.1-42.6 0-22-19.5-43-47.1-43h-1270.6c-28.1 0-47.6 21-47.6 43 0 21.6 19.5 42.6 47.6 42.6z"/>
	<path id="Layer" class="s0" d="m645.8 863.5c-12.5-15-13-28.5-55.5-31-28.6 0-44.6 16-51.1 24-2 2-2 2-2.5 3.5-3 5-42.1 66.1-128.2 67.1-82.1 2.5-124.6-60.1-126.1-63.6-12.6-15-13.1-28.5-56.1-31-28 0-44.1 16-51.1 24-1.5 2-1.5 2-2 3.5-3 5-42 66.1-128.1 67.1-24.6 0-44.6-20-44.6-45.1 0-25 20-45 44.6-45 29.5 0 45-15.5 51.5-23.1 1.5-2 1.5-2 1-1 2.5-4.5 41.1-69.5 128.7-70.5 82.6-3 124.7 62 126.2 65.5 9.5 11.1 13 26.6 56 29.1 29.6 0 45.1-15.5 51.6-23.1q0.7-1.5 1.5-1.5c4-7.5 43.1-69 128.7-70 82.1-3 124.1 62 125.6 65.5 9.5 11.1 13 26.6 56.1 29.1 29 0 45.1-15.5 51.6-23.1q1-1 1-1.5c4.5-7 43-69 129.1-70 82.1-3 124.2 62 125.7 65.5 9.5 11.1 13 26.6 55.6 29.1 25 0 44.5 20 44.5 45 0 25.1-19.5 45.1-44.5 45.1-81.6 2.5-124.2-60.1-125.2-63.6-13-15-13.5-28.5-56.1-31-28.5 0-44.5 16-51 24-2 2-2 2.5-2.5 3.5-3 4.5-42.1 66.1-128.2 67.1q-2.5 0-5 0c-78.6 0-119.7-60.6-121.2-63.6z"/>
	<path id="Layer" class="s0" d="m1373.3 863.5c-13-15-13.5-28.5-56.1-31-28.5 0-44.6 16-51.1 24-2 2-2 2-2.5 3.5-3 4.5-42 66.1-128.6 67.1-24.1 0-44.1-20-44.1-45.1 0-25 20-45 44.1-45 30 0 45.5-15.5 52-23.1 1.5-2 1.5-2 1-1 2.5-4.5 41.6-69.5 129.2-70.5 82.1-3 124.2 62 125.7 66 9.5 10.6 13 26.1 56 28.6 24.6 0 44.1 20 44.1 45 0 25.1-19.5 45.1-44.1 45.1q-2.2 0-4.5 0c-79.1 0-120.1-60.1-121.1-63.6z"/>
</svg>