<?xml version="1.0" encoding="UTF-8"?>
<svg id="Layer_1" xmlns="http://www.w3.org/2000/svg" version="1.1" xmlns:a="http://ns.adobe.com/AdobeSVGViewerExtensions/3.0/" xmlns:xlink="http://www.w3.org/1999/xlink" viewBox="0 0 640 280">
  <!-- Generator: Adobe Illustrator 29.3.1, SVG Export Plug-In . SVG Version: 2.1.0 Build 151)  -->
  <defs>
    <style>
      .st0 {
        fill: #fff;
      }
    </style>
  </defs>
  <path class="st0" d="M639.7,279.4H0V.5h639.6v278.9ZM9.1,270.5h621.6V9.5H9.1v261Z"/>
  <path class="st0" d="M91.3,184.4h-1.9c-12.6,0-29-7.2-34.6-17.6-1.5-2.4,3-4,4.3-1.6,4.9,9,19.4,15.5,30.3,15.5h1.9c16,0,29.7-6.5,29.7-20.3s-15.8-19.4-31.4-21.9c-12.2-2-31.4-6.5-31.4-20.1v-1.6c0-14.7,16.3-21,31-21h1.3c13,0,22,4.8,28.6,9.7,2.4,1.8-.6,4.7-3,2.9-6.4-4.7-14.5-8.9-25.6-8.9h-1.3c-12.2,0-26.7,4.9-26.7,17.3v1.6c0,9.5,14.7,14.4,27.7,16.7,17.7,3.1,35.2,6.6,35.2,25.4,0,17.1-17.3,24.1-34.1,24.1Z"/>
  <path class="st0" d="M91.3,186.2h-1.9c-12.6,0-30.1-7.1-36.2-18.6-.7-1-.7-2.2-.1-3.3.7-1.2,2.2-2.1,3.9-2.1s3,.8,3.7,2c4.7,8.6,18.9,14.5,28.7,14.5h1.9c13.4,0,27.9-4.9,27.9-18.5s-14.8-17.7-29.9-20.2c-8.1-1.3-32.9-5.4-32.9-21.9v-1.6c0-15.7,17-22.8,32.7-22.8h1.3c14.3,0,23.8,5.8,29.6,10.1,1.4,1,1.9,2.6,1.4,4-.8,2.4-4.3,3.4-6.6,1.7-4.9-3.6-12.9-8.4-24.5-8.4h-1.3c-9.2,0-24.9,3.3-24.9,15.5v1.6c0,8.9,16.5,13.2,26.3,15,16.3,2.8,36.7,6.3,36.7,27.1,0,19.1-19.4,25.9-35.9,25.9ZM56.9,165.8c-.4,0-.7.2-.7.3,5.5,9.8,21.5,16.5,33.2,16.5h1.9c14.9,0,32.3-5.8,32.3-22.3s-6.6-16.4-16.7-19.8c8.5,3.1,15.8,8.8,15.8,19.8s-12.4,22.1-31.4,22.1h-1.9c-11.1,0-26.5-6.6-31.9-16.4,0-.2-.2-.2-.5-.2ZM89.1,97.3c-14.5,0-29.2,6-29.2,19.2v1.6c0,8.2,8,13.9,24.3,17.3-15.5-3.6-23.6-9.6-23.6-17.3v-1.6c0-13.2,14.3-19.1,28.5-19.1h1.3c12.7,0,21.3,5.2,26.7,9.2.5.4,1,0,1,0-5.6-4-14.5-9.4-27.7-9.4h-1.3Z"/>
  <path class="st0" d="M181.9,184.4h-2.4c-17.7,0-32-12-32-26.9v-34.9c0-14.9,14.3-27,32-27h2.4c17.5,0,32,12,32,27v34.9c0,14.9-14.3,26.9-32,26.9ZM209.4,122.5c0-12.8-12.4-23.2-27.5-23.2h-2.4c-15.1,0-27.5,10.4-27.5,23.2v34.9c0,12.8,12.4,23.2,27.5,23.2h2.4c15.1,0,27.5-10.4,27.5-23.2v-34.9h0Z"/>
  <path class="st0" d="M181.9,186.2h-2.4c-18.6,0-33.8-12.9-33.8-28.8v-34.9c0-15.8,15.2-28.8,33.8-28.8h2.4c18.6,0,33.8,12.9,33.8,28.8v34.9c0,15.8-15.2,28.8-33.8,28.8ZM179.5,97.3c-16.7,0-30.2,11.3-30.2,25.2v34.9c0,13.9,13.6,25.2,30.2,25.2h2.4c16.6,0,30.2-11.3,30.2-25.2v-34.9c0-13.9-13.6-25.2-30.2-25.2h-2.4ZM181.9,182.4h-2.4c-16.2,0-29.3-11.2-29.3-25v-34.9c0-13.8,13.1-25,29.3-25h2.4c16.1,0,29.3,11.2,29.3,25v34.9c0,13.8-13.2,25-29.3,25ZM179.5,101.1c-14.2,0-25.8,9.6-25.8,21.4v34.9c0,11.8,11.6,21.4,25.8,21.4h2.4c14.2,0,25.7-9.6,25.7-21.4v-34.9c0-11.8-11.5-21.4-25.7-21.4h-2.4Z"/>
  <path class="st0" d="M298.5,95.5c-1.1,0-2.1.7-2.1,2v63.8c-1.5,10.8-13.4,19.3-27.6,19.3h-2.4c-15.1,0-27.5-10.4-27.5-23.4v-59.7c0-1.2-1.1-2-2.4-2s-2.1.7-2.1,2v59.7c0,15.1,14.3,27.2,32,27.2h2.4c11.6,0,23.4-5.2,27.6-12.8v23.6c0,12.8-12.4,23.2-27.5,23.2h-2.4c-13.4,0-26.3-6.1-29.7-15.4-.4-1.1-1.3-1.4-2.2-1.4s-2.3.7-2.3,1.8,0,.5.2.7c4,11.5,19.4,18.2,33.9,18.2h2.4c17.7,0,32-12.1,32-27v-97.7c0-1.2-1.3-2-2.3-2Z"/>
  <path class="st0" d="M268.8,223.9h-2.4c-14.2,0-30.9-6.5-35.5-19-.4-.6-.4-1.2-.4-1.6,0-2.2,2.2-3.6,4.1-3.6s3.2,1,3.8,2.6c3,8.3,14.8,14.3,28,14.3h2.4c14.2,0,25.8-9.6,25.8-21.4v-18.4c-5.8,5.7-15.7,9.4-25.8,9.4h-2.4c-18.7,0-33.8-13-33.8-29v-59.7c0-2.1,1.7-3.8,3.9-3.8s4.1,1.6,4.1,3.8v59.7c0,11.9,11.5,21.6,25.8,21.6h2.4c13.1,0,24.4-7.8,25.8-17.7v-2.5s0-61.1,0-61.1c0-2.1,1.7-3.8,3.9-3.8s4.1,1.4,4.1,3.8v97.7c0,15.9-15.2,28.8-33.8,28.8ZM234.2,203.4h0c3.9,11.2,19.2,17,32.2,17h2.4c16.7,0,30.2-11.3,30.2-25.2v-97.7s-.3-.2-.6-.2-.3,0-.3.2v63.8c-1.7,12.1-14.3,21.1-29.4,21.1h-2.4c-16.2,0-29.3-11.3-29.3-25.2v-59.7c0,0-.2-.2-.6-.2,0,0-.3,0-.3.2v59.7c0,14,13.6,25.4,30.2,25.4h2.4c11,0,22.2-5.1,26-11.9l3.4-6.1v30.6c0,13.8-13.2,25-29.3,25h-2.4c-14.9,0-27.8-6.8-31.4-16.7-.1-.3-.5-.3-.9-.1Z"/>
  <path class="st0" d="M354.4,184.4c-13.9,0-24.8-9.3-24.8-21V59.9c0-1.3,1.1-2,2.1-2s2.4.6,2.4,2v103.4c0,9.5,9,17.3,20.3,17.3s2.3.9,2.3,2c0,.9-.8,1.8-2.3,1.8Z"/>
  <path class="st0" d="M354.4,186.2c-14.9,0-26.6-10-26.6-22.8V59.9c0-2.1,1.7-3.8,3.9-3.8s4.1,1.5,4.1,3.8v103.4c0,8.5,8.3,15.4,18.5,15.4s4.1,1.6,4.1,3.8c0,1.8-1.4,3.6-4.1,3.6ZM331.8,59.7s-.3,0-.3.2v103.4c0,10.8,10.1,19.2,23,19.2s.6-.1.6-.1c0,0-.4,0-.6,0-12.2,0-22.1-8.6-22.1-19.1V59.9c0,0-.1-.2-.6-.2Z"/>
  <path class="st0" d="M434.5,141.6h-59.6v15.9c0,12.8,12.4,23.2,27.5,23.2h2.3c11.9,0,22.2-6.7,26-15.8.2-.9,1.1-1.3,2-1.3,1.3,0,2.5.7,2.5,1.8s-.1.6-.1.7c-4.3,10.6-16.3,18.3-30.4,18.3h-2.3c-17.7,0-32-12-32-26.9v-34.9c0-14.9,14.7-27,32.2-27h1.7c17.7,0,32.4,11.2,32.4,27v17.1c0,1.1-1,2-2.3,2ZM432.2,122.5c0-12.8-12.3-23.2-27.5-23.2h-2.1c-15.1,0-27.7,10.4-27.7,23.2v15.3h57.4v-15.3Z"/>
  <path class="st0" d="M404.7,186.2h-2.3c-18.6,0-33.8-12.9-33.8-28.8v-34.9c0-15.8,15.3-28.8,34-28.8h1.7c19.5,0,34.2,12.4,34.2,28.8v17.1c0,2.1-1.9,3.8-4.1,3.8h-57.8v14.1c0,11.8,11.5,21.4,25.7,21.4h2.3c10.9,0,20.8-5.9,24.4-14.7.2-1.4,1.7-2.4,3.6-2.4s4.3,1.6,4.3,3.6-.1.8-.2,1v.4c-4.8,11.7-17.6,19.5-32.1,19.5ZM402.6,97.3c-16.8,0-30.4,11.3-30.4,25.2v34.9c0,13.9,13.6,25.2,30.2,25.2h2.3c12.9,0,24.4-6.8,28.6-17,0,0,0-.1,0-.2-.2,0-.4,0-.6,0-4.5,10.3-15.6,17.1-28,17.1h-2.3c-16.2,0-29.3-11.2-29.3-25v-17.6h61.4c.3,0,.5-.2.6-.2v-17.1c0-14.3-13.2-25.2-30.7-25.2h-1.7ZM434.1,139.6h-61v-17.1c0-13.8,13.2-25,29.5-25h2.1c16.2,0,29.4,11.2,29.4,25v17.1h0ZM376.7,136h53.8v-13.5c0-11.8-11.6-21.4-25.8-21.4h-2.1c-14.3,0-25.9,9.6-25.9,21.4v13.5Z"/>
  <path class="st0" d="M522.8,184.4c-1,0-2.1-.7-2.1-1.9v-59.7c0-13-12.6-23.4-27.8-23.4h-2.1c-15.2,0-27.8,9.7-27.8,21.6v61.5c0,1.2-1,1.9-2.4,1.9s-2.1-.7-2.1-1.9v-84.9c0-1.2,1.1-1.8,2.1-1.8s2.4.5,2.4,1.8v11.1c4.1-7.7,16.1-13.1,27.8-13.1h2.1c17.7,0,32.3,12,32.3,27.2v59.7c0,1.2-1.2,1.9-2.4,1.9Z"/>
  <path class="st0" d="M522.8,186.2c-2.2,0-3.9-1.7-3.9-3.8v-59.7c0-11.9-11.6-21.6-26-21.6h-2.1c-14.1,0-25.9,9-25.9,19.8v61.5c0,2.2-1.8,3.8-4.2,3.8s-3.9-1.7-3.9-3.8v-84.9c0-2.1,1.6-3.6,3.9-3.6s4.2,1.4,4.2,3.6v5.8c5.7-5.8,15.7-9.6,25.9-9.6h2.1c18.8,0,34.1,13,34.1,29v59.7c0,2.3-2.2,3.8-4.2,3.8ZM490.7,97.5h2.1c16.3,0,29.6,11.3,29.6,25.2v59.7c0,.2.3.2.3.2.3,0,.6-.1.6-.2v-59.7c0-14-13.6-25.4-30.5-25.4h-2.1c-11.3,0-22.5,5.2-26.2,12.2l-3.3,6.5v-18.4s-.3,0-.6,0-.3,0-.4,0v84.8c0,.2.4.2.4.2.4,0,.6-.1.6-.1v-61.6c0-12.9,13.2-23.4,29.5-23.4Z"/>
  <path class="st0" d="M558.4,163.3v-63.7h-11.5c-3.2,0-3.2-3.8,0-3.8h11.5v-36.2c0-2.5,4.5-2.5,4.5,0v36.2h19c3,0,3,3.8,0,3.8h-19v63.7c0,9.5,8.8,17.3,20.2,17.3s3,3.8,0,3.8c-14.1,0-24.7-9.3-24.7-21Z"/>
  <path class="st0" d="M583.1,186.2c-14.9,0-26.5-10-26.5-22.8v-61.9h-9.7c-2.7,0-4.2-1.9-4.2-3.7s1.5-3.7,4.2-3.7h9.7v-34.4c0-2.1,1.8-3.7,4.1-3.7s4,1.6,4,3.7v34.4h17.2c2.7,0,4.1,1.9,4.1,3.7s-1.4,3.7-4.1,3.7h-17.2v61.9c0,8.7,8.1,15.4,18.5,15.4s4.1,1.9,4.1,3.7c0,1.8-1.4,3.7-4.1,3.7ZM546.3,97.8c0,0,.2,0,.6,0h13.3v65.5c0,10.8,10.1,19.2,23,19.2s.5,0,.5-.1c0,0-.2,0-.5,0-12.3,0-22-8.4-22-19.1v-65.5h20.8c.4,0,.4,0,.4,0,0,0,0,0-.4,0h-20.8v-38s-.9,0-.9,0v37.9s-13.3,0-13.3,0c-.4,0-.5,0-.6.1h0Z"/>
</svg>