<?xml version="1.0" encoding="UTF-8" standalone="no"?>
<svg xmlns:rdf="http://www.w3.org/1999/02/22-rdf-syntax-ns#" xmlns="http://www.w3.org/2000/svg" xml:space="preserve" height="112.19" viewBox="0 0 153.58388 112.1875" width="153.58" version="1.1" xmlns:cc="http://creativecommons.org/ns#" xmlns:dc="http://purl.org/dc/elements/1.1/"><g transform="matrix(1.25 0 0 -1.25 -581.1 137.12)"><g transform="translate(.81591 .81591)"><path d="m75.854 1.3418c-14.15 0.005-27.89 5.6128-37.754 15.414-5.9088 5.7038-10.332 12.748-13.029 20.643h-23.439l-0.22656 1.6387c-0.015 0.0875-0.06 0.44555-0.0625 1.0293 0.005 1.3425 0.25391 3.7944 2.0039 5.8281 1.0112 1.145 2.5544 1.9512 4.0781 2.4199 0.095 1.3925 0.51523 3.3898 1.9902 5.1035 0.9425 1.09 2.1725 1.8655 3.625 2.3242 0.06875 1.3987 0.44774 3.5108 1.9902 5.3008 1.055 1.2238 2.4746 2.0517 4.1621 2.4805 0.09 1.3925 0.49781 3.4102 1.9766 5.1289 0.8525 0.98625 1.937 1.7045 3.207 2.1758 0.505 1.685 1.0958 3.3335 1.7695 4.9473 5.5338 14.062 18.701 26.218 33.076 30.504 5.3338 1.7025 10.872 2.5664 16.443 2.5664h0.002c15.654 0 30.49-6.8487 40.725-18.795 4.775-5.4175 8.3236-11.924 10.465-19.104 1.4212-0.46375 2.6273-1.2187 3.5586-2.2949 1.4812-1.7188 1.8867-3.7364 1.9805-5.1289 1.6862-0.42875 3.1085-1.2581 4.166-2.4844 1.54-1.79 1.9163-3.8981 1.9863-5.2969 1.4512-0.45875 2.683-1.2342 3.623-2.3242 1.4775-1.7138 1.8959-3.711 1.9922-5.1035 1.5225-0.46875 3.0692-1.2749 4.0742-2.4199 1.7538-2.0338 2.0009-4.4906 2.0059-5.8281 0.002-0.56625-0.0541-0.98445-0.0566-1.002v-0.01367l-0.23047-1.6523h-23.658c-0.35251-1.015-0.73485-2.0249-1.1524-3.0137-5.15-13.048-17.17-24.764-30.257-29.486-6.022-2.3584-12.436-3.5602-19.039-3.5602z" transform="matrix(.8 0 0 -.8 464.88 108.1)" fill="#fff"/><path d="m585.03 76.844v0.012l-0.184 1.322h-18.927c-0.282 0.812-0.588 1.619-0.922 2.41-4.115 10.436-13.731 19.809-24.201 23.586-4.817 1.887-9.948 2.848-15.231 2.848-11.32-0.004-22.312-4.489-30.203-12.33-4.727-4.563-8.266-10.198-10.424-16.514h-18.752l-0.181-1.311c-0.012-0.07-0.047-0.357-0.049-0.824 0.004-1.074 0.203-3.035 1.603-4.662 0.809-0.916 2.043-1.562 3.262-1.937 0.076-1.114 0.412-2.711 1.592-4.082 0.754-0.872 1.738-1.493 2.9-1.86 0.055-1.119 0.358-2.808 1.592-4.24 0.844-0.979 1.98-1.641 3.33-1.984 0.072-1.114 0.399-2.729 1.582-4.104 0.682-0.789 1.549-1.363 2.565-1.74 0.404-1.348 0.877-2.668 1.416-3.959 4.427-11.25 14.961-20.973 26.461-24.402 4.267-1.362 8.697-2.053 13.154-2.053h0.002c12.523 0 24.392 5.478 32.58 15.035 3.82 4.334 6.658 9.539 8.371 15.283 1.137 0.371 2.103 0.975 2.848 1.836 1.185 1.375 1.509 2.99 1.584 4.104 1.349 0.343 2.486 1.005 3.332 1.986 1.232 1.432 1.533 3.119 1.589 4.238 1.161 0.367 2.147 0.988 2.899 1.86 1.182 1.371 1.517 2.968 1.594 4.082 1.218 0.375 2.455 1.021 3.259 1.937 1.403 1.627 1.6 3.592 1.604 4.662 0.002 0.453-0.043 0.787-0.045 0.801z" stroke="#fff" stroke-width="2.148" fill="none"/><path d="m75.854 1.3438c-14.15 0.005-27.89 5.6096-37.754 15.412-5.9075 5.7038-10.331 12.746-13.029 20.643h-23.439l-0.22656 1.6367c-0.015 0.08875-0.06 0.44875-0.0625 1.0312 0.005 1.3438 0.25461 3.7944 2.0059 5.8281 1.01 1.145 2.5537 1.9531 4.0762 2.4219 0.095 1.3912 0.51523 3.3878 1.9902 5.1016 0.9425 1.0888 2.1725 1.8655 3.625 2.3242 0.06875 1.4 0.44774 3.5108 1.9902 5.3008 1.055 1.2225 2.4759 2.0505 4.1621 2.4805 0.09125 1.3912 0.49781 3.4102 1.9766 5.1289 0.8525 0.98625 1.937 1.7045 3.207 2.1758 0.505 1.6838 1.0958 3.3355 1.7695 4.9492 5.535 14.062 18.701 26.214 33.076 30.502 5.3338 1.7012 10.872 2.5664 16.443 2.5664h0.002c15.654 0 30.491-6.8499 40.725-18.795 4.775-5.4175 8.3236-11.924 10.465-19.104 1.4212-0.465 2.6286-1.2187 3.5586-2.2949 1.4812-1.7188 1.888-3.7377 1.9805-5.1289 1.6862-0.43 3.1085-1.2574 4.166-2.4824 1.54-1.79 1.9151-3.8988 1.9863-5.2988 1.45-0.45875 2.683-1.2355 3.623-2.3242 1.4775-1.7138 1.8972-3.7103 1.9922-5.1016 1.5238-0.46875 3.068-1.2769 4.0742-2.4219 1.7525-2.0338 1.9989-4.4894 2.0039-5.8281 0.002-0.56625-0.0522-0.98375-0.0547-1v-0.01563l-0.23047-1.6523h-23.66c-0.35125-1.0162-0.73484-2.0249-1.1523-3.0137-5.15-13.048-17.17-24.764-30.257-29.486-6.02-2.3584-12.434-3.5582-19.039-3.5582zm0 1.6934c6.4 0 12.598 1.1592 18.441 3.4492 12.594 4.5137 24.355 15.976 29.281 28.535 0.33 0.78375 0.64024 1.5757 0.92774 2.377h-12.266c-4.1412-8.985-12.922-17.264-22.059-20.484-4.68-1.8675-9.6371-2.7637-14.568-2.7637-10.642 0-21.203 4.1545-28.801 11.752-3.4475 3.3038-6.1864 7.2286-8.1914 11.496h-11.764c2.63-7.4275 6.8479-14.045 12.432-19.438 9.5375-9.485 22.864-14.924 36.566-14.924zm-3.1543 2.1055c0.04875 0.37875 0.08898 1.2639 0.08398 1.8789l-0.022 2.8222c-0.0025 0.47375-0.0048 1.2522 0.61523 2.0234 0.56625 0.7075 1.6036 0.91102 2.6211 0.91602 0.70125 0.005 1.3279-0.1107 1.8379-0.4082 1.355-0.79125 1.4222-2.0975 1.4297-3.1562 0.0062-1.0475 0.06172-3.1038 0.23047-4.0312-0.16375 0.0325-0.41172 0.065-0.63672 0.0625-0.21625-0.0025-0.49891-0.027266-0.69141-0.072266 0.0775 0.78125 0.08898 1.0505 0.08398 1.9492l-0.0098 1.2969c-0.005 0.9625-0.02148 1.6209-0.17774 2.1484-0.29875 1.025-1.1426 1.2662-1.7051 1.2637-0.64875-0.0075-1.2398-0.3218-1.4961-0.81055-0.1925-0.37125-0.29656-0.94328-0.28906-2.1758 0.0088-0.93 0.05227-2.8291 0.16602-3.6953-0.29 0.05375-0.65914 0.061094-0.99414 0.058594-0.2925-0.0025-0.62688-0.026562-1.0469-0.070312zm10.711 0.58203c-1.2968-0.028335-2.1795 0.64625-2.3906 1.9336-0.1925 1.1725 0.37609 1.8356 1.2773 2.4219 1.2075 0.77875 1.5526 1.0106 1.4551 1.6094-0.09125 0.545-0.56008 1.0037-1.4551 0.85742-0.64-0.1075-1.4048-0.52688-1.416-1.5156l-0.26562-0.04297c-0.06125 0.37125-0.2693 1.0286-0.4668 1.4336 0.31 0.24625 0.87492 0.68242 1.9512 0.85742 1.8462 0.30375 3.0076-0.57539 3.2363-1.9629 0.06875-0.4175 0.06391-0.85406-0.12109-1.2578-0.2175-0.485-0.60367-0.81344-0.88867-0.99219-1.475-0.88875-1.9238-1.1576-1.8125-1.8301 0.14875-0.905 1.1449-0.76422 1.3574-0.73047 0.555 0.09125 1.1441 0.43039 1.2129 1.2754l0.23633 0.035156c0.065-0.26125 0.2968-0.86977 0.56055-1.1973-0.382-0.2922-0.878-0.6713-1.892-0.8376-0.201-0.0329-0.395-0.0525-0.58-0.0566zm-16.15 0.044922c-0.27556 0.011357-0.55648 0.044688-0.8418 0.097656-2.6775 0.49625-3.8374 2.415-3.4199 4.6563 0.46125 2.4975 2.4086 3.4537 4.7773 3.0137 2.1362-0.395 3.945-2.018 3.4375-4.748-0.4-2.1473-2.025-3.0993-3.954-3.0198zm-0.18164 0.81055c1.1203 0.054705 1.9207 1.0564 2.2051 2.5898 0.37625 2.0287-0.29648 3.3608-1.6465 3.6133-1.1062 0.205-2.3035-0.45266-2.6973-2.5664-0.31-1.6675 0.02492-3.3021 1.6387-3.5996 0.1725-0.032031 0.33995-0.044924 0.5-0.037109zm-7.377 1.0312c-0.19375 0.12875-0.335 0.20891-0.59375 0.31641-0.23875 0.1-0.48289 0.18758-0.74414 0.23633 0.03 0.34625 0.04656 0.56422 0.03906 1.2305-0.0025 1.4062-0.0507 2.8178-0.12695 4.2266-0.79625-0.7125-3.2791-3.196-3.8066-3.8535-0.1825 0.0975-0.42477 0.24844-0.63477 0.33594-0.2025 0.08-0.54141 0.18453-0.75391 0.23828 0.14875 0.39125 0.27164 0.79812 0.36914 1.2031l1.2031 4.8789c0.1075 0.43125 0.18406 0.84648 0.25781 1.2715 0.175-0.1075 0.3632-0.21906 0.5332-0.28906 0.17875-0.07375 0.3657-0.12836 0.56445-0.16211-0.24-0.58125-0.41219-1.1383-0.58594-1.6758-0.325-1.0112-0.60219-2.0548-0.86719-3.0898 0.89 0.825 1.774 1.6653 2.6465 2.5078 0.7025 0.67875 0.95641 0.98469 1.1914 1.2734 0.0825-0.05875 0.18812-0.11484 0.35938-0.18359 0.15875-0.06625 0.29484-0.09969 0.37109-0.11719-0.02-0.47125-0.02227-0.62242-0.0098-1.7012 0.02-1.8437 0.0175-2.0516 0.125-3.7441 0.175 0.3375 1.0527 1.9583 1.2539 2.332 0.625 1.145 0.86164 1.6658 1.0566 2.1133 0.27625-0.16125 0.49094-0.2868 0.92969-0.4668 0.33-0.1375 0.59875-0.22148 0.9375-0.30274-0.47125-0.7175-0.91953-1.4662-1.332-2.2188l-1.737-3.1058c-0.1875-0.345-0.45898-0.88516-0.64648-1.2539zm31.92 0.21094c-0.16375 0.58375-0.32898 1.1239-0.52148 1.6602l-1.4141 3.9258c-0.18 0.4975-0.37211 1.0047-0.63086 1.4609 0.3475 0.0925 0.70961 0.18914 1.0371 0.30664 0.34375 0.1275 0.65406 0.25891 0.85156 0.37891 0.0925-0.48125 0.31227-1.116 0.47852-1.5723l0.63867-1.7578c1.2812 0.46375 1.7314 0.63774 2.1914 0.89648 0.02625-0.14125 0.07102-0.35344 0.13477-0.52344 0.04625-0.135 0.14805-0.32617 0.2168-0.45117-0.8525-0.1825-1.4399-0.39586-2.2637-0.69336l0.35547-0.97656c0.11125-0.3125 0.31945-0.81664 0.43945-1.1191 0.47875 0.1725 1.3005 0.47508 2.2168 0.95508 0.02625-0.16 0.0682-0.34211 0.12695-0.50586 0.05875-0.16125 0.14203-0.32805 0.23828-0.49805-0.88375-0.26375-1.7345-0.53836-2.4258-0.78711-0.53875-0.195-1.1124-0.41797-1.6699-0.69922zm6.923 3.3657c-1.3002 0.02928-2.409 0.75312-3.1387 1.9766-1.3038 2.18-0.47359 4.183 1.5977 5.418 1.865 1.1138 4.2911 1.0901 5.7148-1.2949 1.2788-2.1438 0.32648-4.1726-1.666-5.3613-0.87703-0.52359-1.7277-0.75585-2.5078-0.73828zm1.0957 1.1035c0.3369 0.0014 0.68368 0.09601 1.0371 0.30664 1.2038 0.7175 1.258 2.1724 0.3418 3.7012-1.0562 1.7725-2.4462 2.3255-3.625 1.623-0.96375-0.57625-1.4301-1.8601-0.33008-3.7051 0.65438-1.0912 1.5655-1.93 2.5762-1.9258zm-51.906 1.1641c-0.12 0.1325-0.25789 0.25461-0.40039 0.34961-0.15125 0.105-0.32766 0.19742-0.50391 0.26367 0.58125 2.1825 1.5008 6.4677 1.7383 7.9902 0.16125-0.185 0.37609-0.33133 0.46484-0.39258 0.18-0.1225 0.34055-0.1925 0.5293-0.28125-0.29625-0.76375-0.51641-1.585-0.66016-2.125 0.335-0.25875 0.67976-0.49906 1.0098-0.72656 0.3225-0.2175 0.64062-0.40852 0.95312-0.60352 0.2775 0.2 0.87242 0.61875 1.7637 1.375 0.24125-0.24375 0.61711-0.49727 0.91211-0.69727 0.27625-0.18875 0.56945-0.37383 0.87695-0.51758-1.44-0.93125-4.1698-2.7348-6.6836-4.6348zm58.467 2.1152c-0.35375 0.53625-1.0186 1.2908-2.1211 2.5508-1.4312 1.6325-2.0928 2.4041-2.8203 3.0879 0.22375 0.15375 0.57125 0.41391 0.78125 0.59766 0.23375 0.2075 0.48414 0.45109 0.68164 0.68359 0.1725-0.26375 0.38734-0.50726 0.58984-0.75976 0.51375-0.615 0.8957-1.0683 1.5644-1.832 0.0225-0.0225 0.0433-0.05047 0.0508-0.04297 0.0175 0.0175 0.0215 0.03063 0.0215 0.04687l-0.39844 2.6836c-0.1 0.7175-0.24664 1.1656-0.27539 1.2656 0.33625 0.23875 0.54258 0.39227 0.89258 0.69727 0.285 0.24875 0.56398 0.50977 0.80273 0.79102l0.0664-0.0293c-0.0463-0.27125 0.0104-0.92664 0.0566-1.2441l0.48828-3.0938c0.51 0.34875 1.6818 0.67133 2.5293-0.29492 1.2675-1.4462-0.21336-2.7462-0.50586-3-0.50375-0.44375-1.06-0.84195-1.5625-1.2832-0.2025-0.17875-0.5118-0.47797-0.8418-0.82422zm-30.59 0.17188c4.8662 0 9.5683 0.89305 13.988 2.6543l0.0039 0.002 0.02539 0.0078c9.1938 3.23 18.322 12.133 21.895 21.377l0.002 0.0078 0.004 0.0078c2.0025 4.6775 2.9623 9.8376 2.9648 15.018-0.005 9.4488-3.1991 18.968-9.1953 25.738h-0.002l-0.0156 0.01953-0.0137 0.01563c-7.5025 8.8062-18.386 13.857-29.861 13.857h-0.0039c-4.14 0-8.2635-0.65211-12.26-1.9434l-0.01953-0.0059c-10.076-2.941-20.03-12.155-23.875-22.099l-0.0078-0.01172-0.0059-0.02148c-1.9825-4.6688-2.9922-9.8426-2.9922-15.08 0-2.6338 0.25453-5.2826 0.76953-7.8926 1.5525-7.8638 5.4181-15.083 10.922-20.363l0.0059-0.0039c7.1762-7.175 17.252-11.283 27.67-11.285zm-27.48 0.18555 2.0449 1.4746c-0.245 0.1775-0.48117 0.36766-0.73242 0.53516-0.2425 0.16375-0.48844 0.31859-0.74219 0.46484l-0.57031-2.4746zm-4.3516 0.48438c-0.645 0.65625-1.2883 1.2797-1.832 1.7734-0.425 0.385-0.88898 0.79164-1.3965 1.1504 0.43875 0.42 0.84156 0.81523 1.2266 1.2402l2.8066 3.084c0.35625 0.39 0.71359 0.79969 0.99609 1.2422 0.24375-0.26375 0.50156-0.54219 0.75781-0.77344 0.2725-0.2475 0.53617-0.45688 0.73242-0.57812-0.38125-0.3075-0.84047-0.79945-1.168-1.1582l-1.2578-1.3867c1.0112-0.91375 1.381-1.2306 1.8223-1.5156-0.1125-0.09125-0.27734-0.22953-0.40234-0.36328-0.095-0.105-0.21492-0.28875-0.29492-0.40625-0.56 0.67-1.027 1.0902-1.6758 1.6777l-0.69336-0.76953c-0.2275-0.24625-0.5732-0.66141-0.7832-0.91016 0.37875-0.34 1.0234-0.93117 1.8809-1.5137-0.13375-0.09875-0.27367-0.22211-0.38867-0.34961-0.11875-0.12875-0.22258-0.27711-0.33008-0.44336zm31.832 0.50977c-10.11 0-19.894 3.9915-26.83 10.928l-0.02734 0.0293-0.01953 0.01563c-5.2974 5.0809-9.0612 12.09-10.564 19.73-0.5025 2.5338-0.74805 5.1046-0.74805 7.6621 0 5.0962 0.98305 10.124 2.9043 14.643l0.0098 0.01953 0.0039 0.0078 0.01563 0.03906v0.002c3.6525 9.5262 13.442 18.586 23.076 21.365l0.04492 0.0098 0.02148 0.0059 0.01563 0.0059c3.8712 1.2525 7.8724 1.8867 11.889 1.8867 11.129 0 21.681-4.898 28.959-13.436l0.0176-0.01953 0.0195-0.02148c5.7862-6.5088 8.9191-15.781 8.9141-24.979 0-5.0338-0.93398-10.038-2.8652-14.547l-0.0195-0.05273-0.008-0.01953-0.004-0.0098c-3.39-8.846-12.378-17.612-21.158-20.661l-0.06055-0.02148-0.0293-0.0098-0.01953-0.0078c-4.265-1.705-8.8185-2.5664-13.541-2.5664zm31.498 0.46289c0.11874 0.075 0.21726 0.16391 0.32226 0.25391 0.46375 0.4075 1.0124 0.97734 0.20117 1.9023-0.94625 1.0825-1.7827 0.34773-2.084 0.08398-0.0975-0.08625-0.17758-0.15445-0.23633-0.2207l1.7969-2.0195zm-52.61 9.134c1.7238 0 2.8435 0.33312 4.7285 0.89062l0.01758 2.7832c-1.69-0.64125-5.0816-1.5752-6.8828-0.22266-0.69625 0.52125-0.8457 1.1402-0.8457 1.8652 0.005 0.605 0.22227 1.0212 0.63477 1.4824 0.4 0.4475 1.1174 0.97719 2.2012 1.6172l1.4102 0.82812c1.8612 1.1012 3.1574 2.1221 3.8574 3.0371 0.69375 0.90625 1.0466 2.0325 1.0566 3.3438 0.01 1.885-0.65336 3.3833-1.9746 4.457-1.3212 1.0725-3.173 1.6191-5.5117 1.6191 0 0-2.8481 0.075-5.2969-1l-0.12891-3.0781c2.1725 0.9625 4.1459 1.1289 5.4922 1.1289 1.0662 0 1.9026-0.16547 2.5176-0.66797 0.625-0.51625 0.89617-0.93156 0.88867-1.8203-0.0025-0.7025-0.21219-1.3059-0.61719-1.8047-0.3975-0.47875-1.1445-1.0477-2.2207-1.6914l-1.3164-0.76953c-1.7288-1.0225-2.9645-2.0134-3.6758-2.9434-0.7-0.92-1.0564-2.0132-1.0664-3.252-0.0075-1.6738 0.57742-3.0365 1.7324-4.0527 1.1562-1.015 3.085-1.75 5-1.75zm42.279 2.9707 0.05664 10.305 3.2656-4.3242h3.7109l-3.8359 4.9316 3.9062 7.125h-4.0215l-3.0137-5.8184 0.03516 5.8184h-3.8711l-0.10156-18.035 3.8691-0.002zm-34.637 3.207h3.6328l0.01758 2.7812 3.0234-0.002 0.01172 1.9844h-2.8711l0.0332 5.7715c0.01 1.7988 1.0202 2.4297 2.334 2.4297 0.31 0 0.61992-0.02188 0.88867-0.04687l0.01367 1.8457s-0.61766 0.07031-1.3164 0.07031c-2.1262 0-5.7312-0.65117-5.75-4.6699l-0.03516-5.3965h-1.2715l-0.01172-1.9863h1.3145l-0.01367-2.7812zm22.422 2.5547c2.94 0 5.1887 0.94758 5.2012 3.6113 0 0 0.0507 4.8973 0.0332 5.7461-0.015 0.7475 0.07391 1.4266 1.0352 1.2578 0.1925-0.03125 0.36195-0.10344 0.5332-0.11719l-0.02539 1.4609s-0.52274 0.34328-1.7402 0.42578c-0.8275 0.05875-1.762-0.000938-2.5195-0.58594-0.56625-0.44-0.83594-0.86719-0.83594-0.86719l-1.2676 1.416c-0.23125 0.04375-0.42242 0.04438-0.57617 0.04687-2.44 0-4.6535-1.6573-4.666-3.9473-0.01875-3.7375 4.5348-5.0919 6.1973-5.2344l-0.002-0.23438c-0.0025-0.70125-0.77109-1.166-1.7773-1.166-0.96375 0-1.7852 0.24383-2.7402 0.58008l-0.0078-1.8672s1.457-0.52539 3.1582-0.52539zm-10.346 0.0293c2.0488-0.09875 4.6623 0.7125 4.791 3.2812 0.16875 3.395-4.0848 4.9138-5.8848 5.2051 0.395 1.7625 2.1671 2.0271 3.3809 1.6309 1.3012-0.425 1.8948-1.0425 2.166-1.2812l0.14062 2c-0.27875 0.24125-0.85 0.80375-2.1562 1.1875-3.5988 1.0475-7.8655-1.0923-7.8242-6.0098 0.045-5.0075 3.8192-5.9412 5.3867-6.0137zm0.0625 1.8379c-0.74625 0.06125-1.5334 1.0367-1.6797 3.5117-0.0325 0.57875 0.11266 1.202 0.16016 1.3633 1.12-0.1025 2.7836-1.412 2.6836-3.3945-0.05375-1.045-0.47031-1.5342-1.1641-1.4805zm-71.33 1.6621h35.059c-0.1275 0.3-0.25695 0.60375-0.37695 0.90625h-33.869c-0.005 0.0925-0.00391 0.20297-0.00391 0.32422-0.005 0.91125 0.16453 2.5077 1.082 3.834 0.92 1.3225 2.5627 2.4562 5.7852 2.4824 2.7688 0.0125 7.7858 0.01758 13.238 0.01758 3.9138 0 8.0532-0.000859 11.752-0.0059-0.06875 0.3125-0.14188 0.62109-0.20313 0.93359h-25.645c-0.005 0.0925-0.00781 0.19976-0.00781 0.32226-0.0025 0.91 0.16469 2.509 1.0859 3.834 0.9225 1.3237 2.5621 2.4549 5.7871 2.4824 2.7688 0.01375 7.7845 0.01758 13.238 0.01758h4.8047c-0.01 0.3225-0.01969 0.64484-0.02344 0.96484h-19.271c-0.0037 0.0925-0.0078 0.20438-0.0078 0.32812 0 0.91125 0.16664 2.5058 1.0879 3.832 0.92 1.3212 2.5607 2.4542 5.7832 2.4805 2.7075 0.0125 7.5616 0.01703 12.869 0.01953 0.04875 0.3175 0.1 0.63562 0.15625 0.95312h-13.746c-0.005 0.095-0.0078 0.20297-0.0078 0.32422-0.0025 0.90875 0.16398 2.5052 1.084 3.834 0.9225 1.32 2.5646 2.4523 5.7871 2.4785 1.9675 0.01 5.0714 0.01508 8.6602 0.01758 0.1125 0.305 0.2282 0.60766 0.3457 0.91016-3.735-0.005-6.978-0.0076-9.0117-0.01758-3.4325-0.0075-5.4523-1.3-6.5273-2.875-1.0762-1.5675-1.2441-3.3364-1.2441-4.3477 0-0.2 0.0062-0.36625 0.01367-0.5-2.4688-0.34375-4.0184-1.453-4.9121-2.7617-1.0762-1.5675-1.2416-3.3364-1.2441-4.3477 0-0.25125 0.01094-0.45531 0.02344-0.60156-2.1712-0.42-3.5651-1.4595-4.3926-2.6758-1.0762-1.5675-1.2416-3.3396-1.2441-4.3496 0-0.1925 0.00617-0.35719 0.013672-0.49219-2.3911-0.363-3.8965-1.458-4.7752-2.742-1.0763-1.567-1.2436-3.338-1.2461-4.349 0-0.505 0.044375-0.82164 0.046875-0.83789l0.056641-0.39258zm109.88 0h35.803l0.0547 0.39258c0.002 0.01875 0.043 0.33289 0.043 0.83789-0.002 1.0112-0.16594 2.7821-1.2422 4.3496-0.87875 1.2862-2.3848 2.3784-4.7774 2.7422 0.01 0.135 0.0137 0.29969 0.0137 0.49219-0.004 1.01-0.1686 2.7809-1.2461 4.3496-0.8275 1.2163-2.2198 2.2558-4.3848 2.6758 0.009 0.14375 0.0215 0.35031 0.0215 0.60156-0.005 1.0112-0.1718 2.7802-1.248 4.3477-0.89375 1.3088-2.4434 2.418-4.9121 2.7617 0.01 0.13125 0.0176 0.3 0.0176 0.5-0.005 1.0112-0.16929 2.7802-1.248 4.3477-1.0738 1.575-3.0943 2.8675-6.5293 2.875-2.185 0.01125-5.7627 0.01258-9.8477 0.01758 0.115-0.305 0.22844-0.60375 0.33594-0.90625 3.9425-0.005 7.386-0.01148 9.5098-0.02148 3.2238-0.02625 4.8626-1.1585 5.7852-2.4785 0.91875-1.3288 1.0872-2.9227 1.0859-3.834 0-0.12125-0.005-0.22922-0.008-0.32422h-14.631c0.0563-0.3175 0.10554-0.63562 0.15429-0.95312h0.51758c5.4512 0 10.466-0.007 13.24-0.01953 3.2225-0.02625 4.8607-1.1592 5.7832-2.4805 0.91875-1.3263 1.0884-2.9208 1.0859-3.832 0-0.12375-0.005-0.23562-0.008-0.32812h-20.098c0-0.0025 0.002-0.0048 0.002-0.0098 0-0.32-0.0159-0.63758-0.0234-0.95508h5.6328c5.4512 0 10.463-0.0038 13.234-0.01758 3.225-0.0275 4.8614-1.1587 5.7852-2.4824 0.92-1.325 1.084-2.9215 1.084-3.834 0-0.12-0.003-0.22976-0.008-0.32226h-26.402c-0.0588-0.3125-0.11735-0.62359-0.1836-0.93359 3.8825 0.0025 8.3161 0.0059 12.496 0.0059 5.4512 0 10.462-0.0045 13.232-0.01953 3.2262-0.02375 4.8646-1.158 5.7871-2.4805 0.92125-1.3262 1.0891-2.9227 1.0879-3.834 0-0.12125-0.005-0.23172-0.008-0.32422h-34.625c-0.07-0.17125-0.13133-0.34758-0.20508-0.51758-0.0512-0.13-0.10696-0.25867-0.15821-0.38867zm-26.887 1.5742c-0.65875 0.04625-2.5496 1.0762-2.5371 3.3438 0.01 1.4475 0.74805 2.0312 1.4043 2.0312 0.58125 0 1.0025-0.39703 1.1562-0.67578l-0.02344-4.6992zm-17.064 8.0293 3.5898 0.06836-2.1699 5.3789-1.3926 0.0039-0.02734-5.4512zm8.3262 3.2578c3.2862 0 5.3469 1.3313 5.3594 4.2051l0.04297 7.9668-3.8281 0.002-0.04687-8.623c-0.0075-0.84-0.62883-1.5664-1.5176-1.5664-0.9275 0-1.5466 0.72641-1.5391 1.5664v8.6699h-3.8262l-0.02344-12.104h3.5215l0.002 0.63281 1.1934-0.72656c0.19875-0.0225 0.30961-0.02344 0.66211-0.02344zm-24.863 5.623c1.7188 0 2.8378 0.33492 4.7266 0.88867l0.01367 2.7852c-1.6875-0.6425-5.0773-1.5777-6.8848-0.22266-0.6925 0.52-0.84344 1.1391-0.83594 1.8691 0 0.60625 0.21836 1.0178 0.63086 1.4766 0.3975 0.44875 1.1174 0.98109 2.2012 1.6211l1.4082 0.82617c1.8625 1.1012 3.1612 2.1228 3.8574 3.0391 0.6925 0.9025 1.0447 2.0293 1.0547 3.3418 0.0087 1.885-0.64945 3.384-1.9707 4.459-1.32 1.0712-3.1755 1.6172-5.5117 1.6172 0 0-2.8476 0.0757-5.2988-0.99805l-0.126-3.078c2.1738 0.9625 4.1452 1.127 5.4902 1.127 1.0688 0 1.9063-0.16562 2.5176-0.67188 0.625-0.5125 0.89578-0.92766 0.89453-1.8164-0.005-0.7-0.21234-1.3083-0.62109-1.8008-0.4-0.48125-1.1464-1.0478-2.2227-1.6953l-1.314-0.768c-1.7275-1.025-2.9638-2.0134-3.6738-2.9434-0.69875-0.92125-1.0589-2.0159-1.0664-3.2559-0.0087-1.675 0.57492-3.0344 1.7324-4.0469 1.155-1.0188 3.0832-1.7539 5.002-1.7539zm37.146 2.959 0.05859 10.303 3.2617-4.3242h3.7129l-3.8398 4.9297 3.9082 7.123-4.0215 0.0039-3.0117-5.8164 0.03125 5.8164-3.8672 0.002-0.10352-18.033 3.8711-0.0039zm-29.678 0.11914h3.6738l0.03906 6.5195 1.0371-0.63281c0.19625-0.02125 0.31016-0.02148 0.66016-0.02148 3.2862 0 5.3444 1.3269 5.3594 4.2031l0.0039 4.5234c0.0875 1.3375 0.71742 1.8495 1.8262 1.9883l0.01172 1.6406c-1.97-0.0025-5.2752-0.19562-5.6152-3.7969l-0.05859-5.0059c-0.0037-0.8425-0.62758-1.5645-1.5176-1.5645-0.92875 0-1.5441 0.72195-1.5391 1.5645l0.04883 8.6191h-3.8301l-0.09961-18.037zm17.637 5.6543c2.94 0 5.1887 0.94688 5.2012 3.6094 0 0 0.05266 4.9 0.03516 5.75-0.01625 0.7475 0.06906 1.4246 1.0391 1.2559 0.19-0.03125 0.35734-0.10219 0.52734-0.11719l-0.02539 1.4629s-0.51953 0.34328-1.7383 0.42578c-0.83 0.05625-1.7633-0.0011-2.5195-0.58984-0.56625-0.43875-0.83594-0.86328-0.83594-0.86328l-1.2676 1.416c-0.2325 0.04375-0.42438 0.04297-0.57813 0.04297-2.4388 0-4.6555-1.6534-4.668-3.9434-0.02-3.7388 4.5387-5.0951 6.2012-5.2363v-0.23242c-0.005-0.70125-0.77305-1.166-1.7793-1.166-0.9675 0-1.7902 0.24312-2.7402 0.57812l-0.0078-1.8691s1.455-0.52344 3.1562-0.52344zm23.861 0.0293c2.0488-0.1 4.6635 0.71125 4.791 3.2812 0.16875 3.3938-4.088 4.9145-5.8867 5.207 0.395 1.76 2.1671 2.022 3.3809 1.627 1.3012-0.425 1.898-1.043 2.168-1.2793l0.14063 2c-0.27625 0.24-0.8475 0.81555-2.1562 1.1855-3.4962 0.99625-7.8674-1.091-7.8262-6.0098 0.04375-5.0025 3.8212-5.9355 5.3887-6.0117zm0.0606 1.8418c-0.745 0.05625-1.5301 1.0316-1.6738 3.5078-0.03625 0.57625 0.1075 1.2027 0.15625 1.3652 1.1188-0.1 2.7836-1.4134 2.6836-3.3984-0.0513-1.045-0.47226-1.5309-1.166-1.4746zm-22.541 3.2344c-0.65625 0.04875-2.5462 1.0755-2.5312 3.3418 0.005 1.4475 0.74414 2.0312 1.4004 2.0312 0.58125 0 1.007-0.39648 1.1582-0.67773l-0.02734-4.6953zm-52.525 0.22852c0.65625 0.1075 1.3459 0.16406 2.0684 0.16406 1.9575 0.01 5.1812 0.02094 9.6074 0.02344 4.1625 10.178 14.321 19.472 24.703 22.506 4.1825 1.355 8.4768 2.0176 12.717 2.0176h0.002c11.78 0 23.14-5.1042 31.074-14.418 2.6325-2.965 4.7299-6.4042 6.2949-10.105 4.855-0.0025 8.358-0.01094 10.436-0.02344 0.60375 0 1.1801-0.04875 1.7363-0.125-2.095 6.5975-5.4213 12.569-9.8301 17.566-9.9275 11.588-24.292 18.213-39.451 18.213-5.3975 0-10.759-0.83523-15.945-2.4902-13.832-4.0962-26.701-15.971-32.006-29.521-0.52-1.245-0.98875-2.5179-1.4062-3.8066zm15.082 10.797c-0.44758 0.04451-0.89062 0.24727-1.3125 0.61524-0.89375 0.78125-0.87734 1.6591-0.55859 2.6816 0.4375 1.37 0.55711 1.766 0.09961 2.166-0.41625 0.36125-1.071 0.41492-1.666-0.26758-0.425-0.48875-0.74695-1.2996-0.12695-2.0684l-0.175-0.203c-0.2825 0.24875-0.86148 0.6243-1.2715 0.81055 0.08 0.3875 0.24148 1.0798 0.95898 1.9023 1.2288 1.4062 2.6854 1.4674 3.7441 0.54492 0.315-0.27875 0.59453-0.61938 0.70703-1.0469 0.14125-0.5125 0.05031-1.007-0.05469-1.332-0.57375-1.6238-0.74742-2.115-0.23242-2.5625 0.69125-0.605 1.3641 0.13703 1.5078 0.30078 0.36875 0.425 0.61266 1.0596 0.12891 1.7559l0.15625 0.17774c0.2175-0.16125 0.78336-0.48406 1.1934-0.57031-0.105-0.46875-0.24562-1.0764-0.92188-1.8477-0.67188-0.76719-1.4279-1.1308-2.1738-1.0566zm67.691 0.22461c-0.45125 0.15875-1.0371 0.37156-1.7246 1.1328-1.0962 1.2062-1.1414 2.5105-0.0352 3.5117 0.87875 0.7975 1.7434 0.68023 2.7246 0.24023 1.3088-0.59125 1.6926-0.7532 2.1426-0.3457 0.405 0.36875 0.53828 1.0098-0.0742 1.6836-0.43375 0.47875-1.2041 0.89219-2.0391 0.36719l-0.17969 0.20117c0.28 0.25375 0.71672 0.78117 0.94922 1.1699 0.3775-0.1275 1.048-0.36633 1.7793-1.1738 1.255-1.385 1.1474-2.8402 0.10742-3.7852-0.3125-0.2825-0.68305-0.51688-1.123-0.57812-0.525-0.0825-1.005 0.06469-1.3125 0.21094-1.545 0.755-2.017 0.98359-2.5195 0.52734-0.68125-0.6175-0.0212-1.3764 0.125-1.5352 0.37625-0.415 0.97961-0.73008 1.7246-0.33008l0.16016-0.17578c-0.18375-0.1975-0.57008-0.72359-0.70508-1.1211zm-63.813 2.9023c-0.0775 0.13375-0.16844 0.26938-0.27344 0.39062-0.12125 0.14-0.25195 0.26891-0.4082 0.37891 0.66 0.46375 1.181 0.91406 1.5723 1.2578-0.85 0.97875-1.8058 2.0627-2.707 3.084-0.4025 0.45375-1.2934 1.4679-1.7109 1.7754 0.23875 0.17 0.53742 0.38648 0.76367 0.58398 0.225 0.20375 0.55281 0.51977 0.75781 0.75977 0.35375-0.48125 0.72945-0.94148 1.1582-1.4277 0.47125-0.53125 1.3763-1.5388 1.7988-2.0176 0.54-0.615 1.0274-1.1671 1.3574-1.5059 0.45375 0.3975 0.95781 0.87336 1.3828 1.3496 0.06625-0.1025 0.18383-0.28602 0.29883-0.41602 0.10625-0.1225 0.22906-0.23031 0.38281-0.35156-0.5688-0.41751-1.2404-0.97844-2.2442-1.8672-0.95625-0.8425-1.7577-1.5816-2.1289-1.9941zm59.271 1.8965c-0.76959 0.02299-1.4355 0.5668-1.623 0.7207-0.52 0.425-1.0034 0.90898-1.5234 1.334-0.20875 0.16875-0.55813 0.42461-0.95313 0.69336 0.47125 0.43875 1.1092 1.2155 2.168 2.5117 1.375 1.6788 2.0251 2.4578 2.5801 3.2891 0.1875-0.19625 0.50266-0.49312 0.72266-0.67188 0.23875-0.1975 0.51945-0.39984 0.7832-0.55859-0.2325-0.215-0.43844-0.46469-0.64844-0.71094-0.525-0.60375-0.91023-1.0575-1.5527-1.8438-0.0225-0.02375-0.0427-0.05164-0.0352-0.05664 0.0187-0.01625 0.0338-0.0098 0.0488-0.0098l2.5801 0.83398c0.69375 0.215 1.1101 0.43172 1.2051 0.48047 0.29-0.2925 0.47718-0.47703 0.83593-0.76953 0.29-0.23625 0.59391-0.4707 0.91016-0.6582l-0.0137-0.07422c-0.27875 0.005-0.91321-0.15781-1.2207-0.25781l-2.9707-0.98828c0.43-0.44625 0.94-1.5512 0.125-2.5449-0.45703-0.55875-0.95621-0.73254-1.418-0.71875zm-1.0137 1.4258c0.31969-0.04188 0.67703 0.08562 1.0664 0.5625 0.91125 1.1112 0.0477 1.8171-0.25977 2.0684-0.1 0.0825-0.18156 0.15102-0.25781 0.19727l-1.6934-2.1055c0.0975-0.105 0.19719-0.18594 0.30469-0.27344 0.23812-0.19562 0.52015-0.40734 0.83984-0.44922zm-53.311 0.91992c-0.2 0.4125-0.4475 0.83383-0.71875 1.2363l-2.2051 3.2305c-0.33125 0.49375-0.94992 1.3265-1.3262 1.709 0.525 0.3025 1.1299 0.66398 1.7012 1.0527 0.6175 0.4175 1.4384 0.9982 1.9746 1.4395 0.08125-0.18 0.16508-0.34289 0.26758-0.49414 0.085-0.1275 0.20008-0.25367 0.33008-0.38867-0.70125-0.295-1.6535-0.93047-2.1035-1.2305 0.07625-0.1325 0.15219-0.26469 0.24219-0.39844l1.203-1.779c0.825 0.55625 1.3353 0.90188 1.9453 1.4219 0.07375-0.14625 0.14469-0.30742 0.24219-0.45117 0.095-0.14125 0.21344-0.27273 0.33594-0.39648-0.755-0.36625-1.3362-0.76391-2.0625-1.2539l0.61914-0.91211c0.21875-0.3225 0.43828-0.63141 0.67578-0.94141 0.59 0.40375 1.4356 0.98734 1.9531 1.4961 0.06125-0.16625 0.15336-0.32781 0.25586-0.47656 0.0975-0.14375 0.20422-0.26976 0.32422-0.38477-0.66375-0.37125-1.1391-0.665-1.6328-1-0.55375-0.375-1.2704-0.91226-2.0254-1.4785zm49.367 0.96875c-0.615 0.445-1.0862 0.75359-1.5938 1.0586-0.57375 0.34625-1.3645 0.77445-2.1895 1.2207 0.2875 0.355 0.56711 0.75492 0.81836 1.1699l2.0098 3.3555c0.30625 0.5075 0.80414 1.4176 0.99414 1.9238 0.49625-0.3525 1.078-0.75062 1.668-1.1094 0.64-0.38375 1.5073-0.88305 2.1348-1.1855-0.12875-0.14875-0.24094-0.29688-0.33594-0.45312-0.0787-0.12875-0.14805-0.28719-0.2168-0.46094-0.55875 0.5125-1.5343 1.1151-1.998 1.3926-0.0875-0.12375-0.17157-0.24797-0.25782-0.38672l-1.1074-1.8418c0.85125-0.5125 1.3755-0.83117 2.1055-1.1699-0.1025-0.1275-0.22055-0.255-0.31055-0.40625-0.0875-0.1475-0.1575-0.3082-0.21875-0.4707-0.65125 0.52875-1.2532 0.8932-2.0019 1.3457l-0.56641-0.94531c-0.20375-0.335-0.38781-0.66086-0.57031-1.0059 0.61-0.36625 1.4931-0.89023 2.1719-1.1465-0.1275-0.12375-0.23117-0.27344-0.32617-0.42969-0.09-0.15-0.15274-0.29883-0.20898-0.45508zm-42.814 2.9316c-1.59 1.5962-4.8233 4.5555-6.0195 5.5293 0.2425 0.0425 0.47867 0.15312 0.57617 0.20312 0.19375 0.09 0.33906 0.1957 0.50781 0.31445 0.5125-0.64125 1.1082-1.2451 1.502-1.6426 0.3875 0.16375 0.77547 0.33586 1.1367 0.50586 0.34875 0.16875 0.67305 0.34617 0.99805 0.51367-0.0325 0.345-0.09047 1.0707-0.29297 2.2207 0.3325 0.085 0.74 0.27984 1.0625 0.43359 0.3 0.145 0.60602 0.3011 0.88477 0.4961 0.0775-1.7112 0.25961-4.9774 0.63086-8.1074-0.17625-0.0325-0.35156-0.09351-0.50781-0.16602-0.16375-0.08125-0.33227-0.18453-0.47852-0.30078zm37.564 0.36133c-0.70154 0.02654-1.4098 0.21234-2.0117 0.45703-2.965 1.2038-3.4099 3.5465-2.6699 5.3652 0.85375 2.095 2.9983 2.8898 5.2695 1.9649 0.98125-0.39876 1.8595-1.0516 2.7207-1.6816-0.315-0.57125-0.61461-1.3108-0.72461-1.582-0.1975-0.49-0.36164-1.0325-0.40039-1.25-0.3225 0.19125-0.54836 0.29477-0.84961 0.41602-0.32875 0.135-0.65359 0.25469-0.99609 0.33594 0.28875 0.5 0.54476 1.0149 0.75977 1.5449 0.1225 0.3 0.2293 0.59734 0.3418 0.90235-0.2725 0.215-0.57508 0.39539-0.89258 0.52539-1.4225 0.57875-2.729-0.25179-3.4277-1.9668-0.79125-1.94-0.08414-3.3612 1.2559-3.9062 1.2238-0.4975 2.0406 0.14039 2.2969 0.33789l0.14844-0.0957c-0.06875-0.31-0.1425-0.72289-0.125-1.3379-0.22781-0.03-0.46146-0.03814-0.69531-0.0293zm-33.383 1.5449c-0.0875 0.5375-0.3168 1.4498-0.4043 1.7598l-1.178 4.055c-0.13375 0.46625-0.31633 0.95563-0.48633 1.3906 0.32875 0.0613 0.64094 0.11524 0.96094 0.20899 0.315 0.0875 0.61672 0.20133 0.91797 0.33008 0.2675-1.0888 0.29781-1.1838 0.82031-3.0801l1.0117 3.0801c0.06625 0.20125 0.11008 0.40336 0.14258 0.56836 0.35125 0.0587 0.61891 0.11265 1.0039 0.22265 0.39375 0.1125 0.78305 0.23789 1.1543 0.40039l0.05078-0.17578c-0.14125-0.28875-0.53289-1.3455-0.65039-1.6855l-1.0859-3.2148c0.6125-0.37375 1.7535-1.0582 2.5098-1.502 0.50125-0.29625 0.93492-0.47344 1.1699-0.58594l-0.002-0.06641c-0.1825-0.03125-0.46414-0.06711-0.68164-0.13086-0.22875-0.06375-0.53875-0.19969-0.71875-0.27344-1.0088 0.80125-1.9526 1.3846-3.6738 2.4746 0.25-0.8625 0.53164-1.8395 1.0254-3.2383-0.3025-0.04125-0.61164-0.11016-0.90039-0.19141-0.34375-0.1-0.67023-0.21656-0.99023-0.35156zm-5.1309 0.1543-0.24023 2.5078c-0.27625-0.1225-0.55953-0.23203-0.83203-0.36328-0.26375-0.125-0.52234-0.26-0.77734-0.40625l1.8496-1.7383zm30.184 1.1621c-0.41519-0.01286-0.775 0.06578-0.91797 0.09766-0.65375 0.145-1.3052 0.35289-1.959 0.49414-0.26375 0.05875-0.69227 0.13125-1.166 0.1875 0.22 0.60625 0.43617 1.5864 0.79492 3.2227 0.46375 2.1212 0.6918 3.1123 0.81055 4.1035 0.25625-0.0913 0.66961-0.21468 0.94336-0.27344 0.305-0.0687 0.65062-0.11937 0.95313-0.14062-0.1075-0.29875-0.17586-0.61469-0.25586-0.92969-0.19375-0.775-0.32938-1.3564-0.54688-2.3476-0.0075-0.0325-0.01461-0.0639-0.0059-0.0664 0.0225-0.002 0.03758 0.006 0.04883 0.0137l1.9219 1.9141c0.52 0.505 0.78976 0.88766 0.85352 0.97266 0.39375-0.12875 0.64391-0.20719 1.0977-0.30469 0.36875-0.08 0.74008-0.15023 1.1113-0.17773l0.01563-0.0703c-0.24875-0.12-0.7418-0.55625-0.9668-0.78125l-2.1992-2.2285c0.58375-0.205 1.538-0.95789 1.2617-2.2129-0.25625-1.175-1.1029-1.4512-1.7949-1.4727zm-18.43 0.48242c-0.01 0.32625-0.01188 0.6843-0.07813 1.373-0.1 1.0325-0.23133 2.0728-0.36133 3.1016-0.12 0.93251-0.29055 2.09-0.4668 2.9688 0.36875 0.0162 0.73828 0.0285 1.082 0.0723 0.45 0.0588 1.2966 0.23328 1.5879 0.26953 1.555 0.1975 2.7634-0.47719 2.9297-1.7734 0.195-1.5425-1.1796-1.9573-1.5996-2.0898l0.0078-0.0547c0.47375-0.0463 1.6898-0.18617 1.8535-1.4512 0.14625-1.1575-0.81922-1.8877-2.1055-2.0527-0.69625-0.09125-1.4105-0.11484-1.9355-0.18359-0.33375-0.04375-0.67531-0.09469-0.91406-0.17969zm17.26 0.46094c0.48668-0.029 0.97594 0.1382 1.1719 1.041 0.30875 1.4038-0.77797 1.6416-1.168 1.7266-0.1275 0.03-0.23281 0.0511-0.32031 0.0586l-0.55273-2.6445c0.13125-0.04875 0.25828-0.07867 0.39453-0.10742 0.15031-0.03312 0.31238-0.06455 0.47461-0.07422zm-4.0371 0.04102c-0.15875 0.0425-0.40477 0.08375-0.63477 0.09375-0.2125 0.0088-0.49391-0.0016-0.69141-0.03906 0.11875 0.77125 0.13953 1.0438 0.17578 1.9375l0.05469 1.2949c0.03875 0.9625 0.05578 1.6218-0.07422 2.1543-0.24875 1.0375-1.0813 1.322-1.6426 1.3457-0.6475 0.0275-1.2545-0.26203-1.5332-0.73828-0.21-0.35875-0.33938-0.92625-0.39062-2.1562-0.03875-0.92875-0.08172-2.8285-0.01172-3.6973-0.29 0.0675-0.65469 0.09242-0.99219 0.10742-0.29 0.01125-0.62383 0.0023-1.0488-0.02148 0.07125 0.37375 0.15078 1.2561 0.17578 1.8711l0.11523 2.8184c0.01875 0.47625 0.05273 1.2522 0.70898 1.9922 0.60125 0.67875 1.6446 0.83281 2.6621 0.78906 0.70125-0.03 1.3214-0.17359 1.8164-0.49609 1.3162-0.855 1.3152-2.1632 1.2715-3.2207-0.04125-1.0475-0.08344-3.1002 0.03906-4.0352zm-11.406 0.44922c0.1075 0.0025 0.17398 0.0095 0.24023 0.01953 0.8225 0.105 1.172 0.52773 1.0645 1.3652-0.12 0.9425-0.79352 1.1965-1.416 1.1152-0.07375-0.007-0.13914-0.0171-0.21289-0.0371l0.19922-1.5781c0.02-0.13625 0.1075-0.75727 0.125-0.88476zm-0.41406 3.1699c0.99875 0.1275 1.5441 0.44727 1.4004 1.5723-0.1025 0.80374-0.54977 1.3991-1.416 1.2891-0.1175-0.0137-0.22391-0.0373-0.31641-0.0586 0.06625-0.70125 0.10953-1.0565 0.33203-2.8027z" transform="matrix(.8 0 0 -.8 464.88 108.1)"/></g></g></svg>