<?xml version="1.0" encoding="UTF-8"?>
<!DOCTYPE svg PUBLIC "-//W3C//DTD SVG 1.1//EN" "http://www.w3.org/Graphics/SVG/1.1/DTD/svg11.dtd">
<!-- Creator: CorelDRAW 2019 (64-Bit) -->
<svg xmlns="http://www.w3.org/2000/svg" xml:space="preserve" width="169.014mm" height="144.309mm" version="1.1" style="shape-rendering:geometricPrecision; text-rendering:geometricPrecision; image-rendering:optimizeQuality; fill-rule:evenodd; clip-rule:evenodd"
viewBox="0 0 168.8452 144.1641"
 xmlns:xlink="http://www.w3.org/1999/xlink"
 xmlns:xodm="http://www.corel.com/coreldraw/odm/2003">
 <defs>
  <style type="text/css">
   <![CDATA[
    .fil1 {fill:#F6A10B}
    .fil2 {fill:#393185}
    .fil0 {fill:white}
   ]]>
  </style>
 </defs>
 <g id="Layer_x0020_1">
  <metadata id="CorelCorpID_0Corel-Layer"/>
  <g id="_828567648">
   <polygon class="fil0" points="20.1338,73.1261 153.3829,74.0321 153.1382,110.1265 19.8884,109.2205 "/>
   <polygon class="fil0" points="102.9764,43.0707 102.5954,69.3348 21.6572,68.1526 22.0418,41.888 "/>
   <polygon class="fil0" points="71.2808,121.402 94.4428,133.7892 89.8939,142.2955 66.7318,129.9078 "/>
   <polygon class="fil0" points="29.6972,110.5379 55.7109,124.4505 51.1618,132.9562 25.1482,119.0437 "/>
   <polygon class="fil0" points="11.3793,89.0203 36.8742,82.6951 45.5868,117.8132 20.0918,124.1385 "/>
   <polygon class="fil0" points="106.1644,135.9697 80.9342,136.4894 78.3856,12.1675 103.6168,11.6535 "/>
   <polygon class="fil0" points="86.7893,3.5366 109.9517,15.9243 105.4033,24.4305 82.2409,12.0428 "/>
   <polygon class="fil0" points="109.0936,135.6381 99.5562,135.5438 100.7609,15.4479 110.2977,15.5455 "/>
   <polygon class="fil0" points="84.9411,110.6094 146.6644,92.3693 154.4179,118.609 92.6951,136.8491 "/>
   <polygon class="fil0" points="125.3787,129.5549 99.1292,128.5956 102.8177,28.0398 129.0674,29.0033 "/>
   <polygon class="fil0" points="119.7378,130.0815 104.0161,121.6744 147.7089,39.9873 163.4288,48.3986 "/>
   <polygon class="fil0" points="130.6022,32.9812 139.0779,37.5146 134.5297,46.0204 126.0529,41.487 "/>
   <polygon class="fil0" points="121.0775,25.422 137.9005,34.4193 133.351,42.9252 116.5288,33.9282 "/>
   <polygon class="fil0" points="152.4218,121.1245 126.1974,122.632 121.6315,43.0864 147.8548,41.5793 "/>
   <polygon class="fil0" points="23.8397,78.1038 22.1465,51.8913 124.6567,45.2821 126.3446,71.4951 "/>
   <polygon class="fil0" points="31.8678,126.7959 30.8625,100.548 125.6952,96.923 126.695,123.1713 "/>
   <polygon class="fil0" points="146.4244,122.3145 133.9968,119.1709 148.2476,62.7817 160.6753,65.9234 "/>
   <polygon class="fil0" points="119.9342,23.4366 128.6944,28.122 125.9634,33.2288 117.2037,28.5438 "/>
   <polygon class="fil0" points="144.2085,47.5169 167.3712,59.9046 162.8218,68.4104 139.6602,56.0226 "/>
   <path class="fil1" d="M81.9221 143.4199c-1.381,-0.4094 -5.5327,-1.6761 -9.2263,-2.8152 -3.6935,-1.1399 -9.964,-3.0695 -13.9346,-4.2889 -9.8241,-3.0163 -17.251,-5.2993 -26.022,-7.9981 -15.5993,-4.8004 -17.1913,-5.2861 -19.4744,-5.9443 -1.2923,-0.3726 -2.5208,-0.8524 -2.7301,-1.0655 -0.4019,-0.4095 -2.2911,-5.9017 -2.0889,-6.0716 0.065,-0.0547 1.7512,-0.5202 3.7466,-1.0338l3.6279 -0.9337 1.6737 1.7096c7.6848,7.8502 20.4516,9.6825 28.6932,4.1191l1.4312 -0.9667 0.9176 0.9579c0.5045,0.527 2.0674,1.5301 3.4734,2.2284 3.3567,1.6691 5.288,1.705 9.8006,0.181l3.2163 -1.0857 1.8203 1.0035c2.5366,1.3989 4.1098,1.3673 5.6678,-0.115 2.5351,-2.412 7.584,-2.2654 10.9883,0.3194 0.5875,0.4466 1.3809,0.8115 1.7622,0.8115 0.6814,0 0.6942,0.1392 0.6942,7.8928 0,4.3408 -0.1515,7.9398 -0.1759,7.893l-1.3495 5.9466 -2.5116 -0.7443zm3.3437 -138.7882l0 0c-0.1806,0.5446 0.6923,1.9654 0.6923,23.0167l-0.0478 22.3132 -1.4375 0.0703 -1.4362 0.0225 -0.1586 -3.6426c-0.1043,-3.7577 -0.1557,-4.0137 -0.9383,-4.6467 -0.9854,-0.7972 -1.1141,-0.7825 -7.9016,0.8876 -5.8356,1.4363 -6.3403,1.6408 -6.8581,2.7769 -0.3479,0.7631 -0.4393,0.7957 -0.9598,0.3409 -0.3166,-0.276 -1.1045,-0.6753 -1.7509,-0.8867 -0.6465,-0.2109 -1.9926,-0.8349 -2.9915,-1.3861 -2.5854,-1.4257 -3.9939,-1.3595 -5.4541,0.2576 -0.6249,0.6929 -1.3936,1.627 -1.7083,2.0764 -0.5288,0.7561 -0.6157,0.7768 -1.1684,0.2788 -0.3288,-0.2964 -1.4283,-0.8633 -2.4443,-1.2602 -1.0158,-0.397 -2.5081,-1.089 -3.3159,-1.5378 -2.384,-1.3242 -3.512,-1.129 -5.4219,0.9381l-1.621 1.7542 -0.2384 -0.9506c-0.307,-1.224 -1.4534,-1.6949 -5.4282,-2.2324 -5.6098,-0.7581 -8.7162,-0.0957 -11.2003,2.3905 -1.486,1.4858 -2.1862,3.869 -1.6629,5.659 0.4904,1.677 2.2517,3.3544 3.7795,3.5994l1.2699 0.2026 0 17.5619 -1.2139 0.6543c-2.7925,1.5047 -5.502,5.734 -5.502,8.5899 0,1.2965 0.6429,2.6091 1.3939,2.8485 0.6498,0.2062 0.8644,0.8234 0.2863,0.8234 -0.6049,0 -5.3259,4.7277 -6.4868,6.4971 -0.6255,0.9524 -1.4083,2.4529 -1.7396,3.3346 -0.3315,0.8813 -0.6561,1.5493 -0.7214,1.4841 -0.0965,-0.0965 -0.9374,-4.3923 -2.0179,-10.3078 -0.0845,-0.4617 -0.7135,-3.9137 -1.3977,-7.6705l-1.2437 -6.8297 -5.7009 -2.1246 -1.0384 -4.8715c-0.5716,-2.679 -1.1387,-5.4031 -1.2602,-6.0545l-0.2217 -1.1841 2.2674 -0.9671c1.2474,-0.5321 2.3984,-1.0816 2.5578,-1.2217 0.1599,-0.1406 0.0405,-1.7137 -0.2679,-3.5254 -0.3579,-2.1006 -0.4415,-3.3876 -0.2339,-3.5952 0.1782,-0.1787 4.0631,-2.4704 8.6331,-5.0945l8.3097 -4.7699 3.8896 1.45c2.1393,0.7971 3.9283,1.4504 3.9744,1.4509 0.046,0.0005 0.084,-1.785 0.084,-3.9683l0 -3.9683 4.7843 -2.9717c2.6313,-1.6347 7.1783,-4.4554 10.1048,-6.2691l5.3194 -3.2969 3.9568 3.017c2.176,1.6584 4.0574,3.0159 4.1795,3.0159 0.1223,0 0.2032,-2.5254 0.1788,-5.6118l-0.0455 -5.6116 4.8154 -2.8312c2.6492,-1.556 8.4568,-4.9964 12.9066,-7.6452 4.4497,-2.6487 8.4488,-4.7471 8.5857,-5.0059 0.0229,-0.0436 1.3135,4.4848 1.2657,4.6272zm13.6324 44.5685l0 0c-1.4556,-0.9019 -3.3757,-1.9029 -4.2678,-2.2232 -0.8909,-0.3208 -1.621,-0.7016 -1.621,-0.8463 0,-0.1444 0.5664,-0.5523 1.2588,-0.9057 0.6928,-0.3537 2.4402,-1.4904 3.8828,-2.527l2.625 -1.8833 1.5004 1.0335c0.8271,0.5683 2.7186,1.6833 4.2054,2.4782l2.7029 1.4445 -1.9774 1.2015c-1.0879,0.6606 -2.5737,1.677 -3.3029,2.2572 -2.2027,1.7528 -2.1302,1.7536 -5.0062,-0.0295z"/>
   <polygon class="fil0" points="20.9635,88.5732 26.566,114.2359 17.1422,116.2938 11.5392,90.6308 "/>
   <path class="fil2" d="M81.9221 143.4199c-1.381,-0.4094 -5.5327,-1.6761 -9.2263,-2.8152 -3.6935,-1.1399 -9.964,-3.0695 -13.9346,-4.2889 -9.8241,-3.0163 -17.251,-5.2993 -26.022,-7.9981 -15.5993,-4.8004 -17.1913,-5.2861 -19.4744,-5.9443 -1.2923,-0.3726 -2.5208,-0.8524 -2.7301,-1.0655 -0.4019,-0.4095 -2.2911,-5.9017 -2.0889,-6.0716 0.065,-0.0547 1.7512,-0.5202 3.7466,-1.0338l3.6279 -0.9337 1.6737 1.7096c5.2741,5.3876 12.7337,8.0189 20.2035,7.1271l3.1827 -0.3804 10.3674 4.3344c19.2805,8.0593 21.1036,8.7903 26.1364,10.4756 2.7632,0.9253 5.2676,1.6825 5.3177,1.6825l0.067 -17.1904 0.8924 0.702c0.4911,0.3869 1.2087,0.7026 1.5955,0.7026 0.6923,0 0.7025,0.108 0.7025,7.8928 0,4.3408 -0.0253,8.0281 0.0277,8.0281 0.6961,0 12.3265,-4.3313 16.9279,-6.254 22.1948,-9.2727 28.4251,-11.8668 30.1082,-12.5347l1.9019 -0.7549 1.9582 1.173c1.0775,0.6456 2.202,1.3894 2.5006,1.6539 0.8599,0.7636 2.5854,1.1391 3.5498,0.7715 0.4716,-0.1797 1.5573,-0.9434 2.4112,-1.6973 1.7291,-1.5249 3.9015,-2.7177 6.9243,-3.8019 1.5103,-0.5423 2.136,-0.9676 2.5182,-1.7134 0.2787,-0.5463 0.5377,-1.0479 0.5751,-1.116 0.1576,-0.2867 4.8001,1.0673 4.8001,1.3999 0,0.2 -0.4081,1.6211 -0.9092,3.1579l-0.9104 2.7939 -3.7073 1.1513c-2.0385,0.6327 -5.52,1.6973 -7.7358,2.3647 -2.2159,0.6671 -6.2209,1.8939 -8.8979,2.7274 -6.7737,2.1057 -34.4737,10.6193 -45.6645,14.0339 -1.5695,0.4792 -3.9909,1.2282 -5.3788,1.6637l-2.526 0.792 -2.5104 -0.7438zm-27.8974 -23.7942l0 0c1.0351,0.426 2.1626,0.7783 2.5063,0.7834 0.9698,0.0129 4.2077,-0.8923 6.4199,-1.7928l2.0061 -0.8178 2.645 1.3306c1.4549,0.7319 2.6891,1.2832 2.7429,1.225 0.889,-0.9602 3.8622,-5.2015 3.8622,-5.5098 0,-0.2303 -0.5295,-0.7449 -1.1754,-1.1446l-1.1751 -0.7263 0 -8.5179c0,-6.3588 -0.1039,-8.5811 -0.4113,-8.7714 -0.2266,-0.1402 -2.3037,-0.7457 -4.6171,-1.3462 -2.3133,-0.6001 -4.8852,-1.2952 -5.7166,-1.5443l-1.5104 -0.4511 -2.6866 2.056c-3.3135,2.5371 -5.8878,4.2252 -7.9747,5.2313 -2.446,1.1795 -1.9292,1.9633 1.3009,1.9734 1.812,0.0054 3.6616,-0.6685 5.8877,-2.1465l1.8061 -1.1997 2.5119 0.702c1.3816,0.3859 2.6212,0.8036 2.7549,0.9277 0.1331,0.1245 0.1541,0.7723 0.046,1.44l-0.1971 1.2138 -3.236 0.1627c-3.7097,0.1874 -5.8259,0.7736 -8.4278,2.3368 -2.5665,1.5425 -3.7735,3.5685 -4.0217,6.7516 -0.1827,2.3469 -0.2127,2.4117 -1.195,2.6217 -0.5541,0.1181 -2.4163,0.2319 -4.1382,0.2535 -2.5445,0.0322 -3.6128,-0.1217 -5.705,-0.8247 -8.6957,-2.9203 -12.8688,-9.7528 -10.6575,-17.448 1.7166,-5.9716 6.0568,-9.0297 12.8449,-9.0509 1.797,-0.0055 3.2427,0.1439 3.4559,0.3566 0.2012,0.2021 0.4181,1.4862 0.4815,2.855 0.0639,1.3687 0.3542,3.0374 0.6455,3.7074 0.6534,1.5037 2.144,3.3153 2.726,3.3153 0.239,0 1.1335,-1.2466 1.9889,-2.771 0.8556,-1.5235 2.386,-3.7036 3.4013,-4.8429l1.8461 -2.0722 -0.8706 -0.685c-2.4352,-1.9164 -9.1807,-3.4858 -14.9165,-3.4715 -9.3029,0.0229 -15.5832,2.8113 -19.585,8.6969 -1.3136,1.9335 -2.7255,5.0641 -2.8503,6.3221 -0.0186,0.1846 -0.1241,1.0907 -0.2358,2.0152 -0.2523,2.0923 0.5306,5.9242 1.7285,8.4556 1.154,2.4407 4.5385,5.9973 7.2221,7.5898 3.5515,2.1079 6.9097,3.0388 11.0345,3.0598 2.7164,0.0139 4.0676,-0.1506 5.8898,-0.7157 2.465,-0.7655 6.2325,-2.9658 6.7934,-3.9689 0.2857,-0.5108 0.4773,-0.4116 1.5952,0.8263 1.6411,1.8161 2.8404,2.6555 5.1601,3.6098zm8.3629 -5.3213l0 0c0.2701,-0.2702 0.403,-1.7694 0.403,-4.5345l0 -4.1309 -0.9237 0.0019c-1.6529,0.0032 -3.2918,0.6451 -4.2783,1.6746 -0.7911,0.8266 -0.9932,1.3743 -1.1123,3.0186 -0.1401,1.9316 -0.0997,2.0547 1.0366,3.1909 1.0297,1.0302 1.3922,1.1822 2.8266,1.1822 0.9051,-0.0004 1.8268,-0.1819 2.0481,-0.4029zm21.9424 5.1012l0 0c0.7884,0.5298 1.5911,0.8693 1.7831,0.7549 0.1916,-0.1153 1.1535,-0.7209 2.1378,-1.3467 2.0753,-1.3206 4.6943,-2.2982 7.7803,-2.9047 1.5594,-0.3069 2.1502,-0.5636 2.0704,-0.8996 -0.0626,-0.2586 -0.0948,-2.6878 -0.0736,-5.398 0.029,-3.6729 -0.0702,-4.9985 -0.3915,-5.2061 -0.236,-0.1535 -3.5272,-0.3543 -7.3124,-0.4467l-6.8845 -0.1681 0.0638 -2.6386c0.0684,-2.8275 0.1835,-3.1877 0.8513,-2.6635 1.7689,1.3907 6.5513,1.7014 9.2474,0.6028 1.4127,-0.5756 4.1079,-3.2276 4.1079,-4.0412 0,-0.2945 -0.9611,-0.4581 -3.2737,-0.5541 -2.934,-0.1222 -3.4912,-0.2532 -5.3718,-1.2612l-2.0992 -1.1252 -2.728 1.2473c-2.3053,1.0549 -4.4224,1.6485 -8.5198,2.3893 -0.6442,0.1166 -0.667,0.3432 -0.5632,5.5772 0.0588,3.0006 0.2531,5.7285 0.4315,6.0615 0.2575,0.4823 0.7443,0.6051 2.4097,0.606 1.1477,0.0005 4.2399,0.0992 6.8714,0.2196l4.7854 0.2188 0 2.2581c0,3.0324 -0.3377,3.2814 -2.8745,2.1195 -2.7842,-1.2745 -5.9985,-1.2892 -8.5561,-0.0377 -2.1001,1.0282 -3.8695,2.7112 -4.1811,3.9775l-0.2132 0.8641 2.8368 -0.1488c3.2285,-0.1691 5.3047,0.3564 7.6658,1.9434zm23.1178 0.1319l0 0c0.6454,0.4654 1.2295,0.8536 1.2965,0.8633 0.0678,0.0087 1.3993,-1.1932 2.9597,-2.6708 1.5607,-1.4776 2.9786,-2.6868 3.1513,-2.6868 0.5527,0 0.3355,-0.8839 -0.3752,-1.5272 -0.6681,-0.6057 -0.7201,-0.6057 -1.8342,-0.0061 -1.0779,0.5808 -1.1984,0.5845 -2.0038,0.0566l-0.8568 -0.562 0.09 -8.8049 0.0901 -8.8063 2.0137 -0.1677 2.0148 -0.1681 0.1025 -1.4105 0.1023 -1.411 -2.117 -0.1002 -2.1163 -0.1006 -0.0432 -1.8469c-0.023,-1.0164 0.0945,-2.2082 0.2609,-2.6497 0.1671,-0.442 0.2399,-0.8669 0.1603,-0.9456 -0.078,-0.0794 -2.1677,0.2752 -4.6423,0.7866l-4.499 0.93 0.1384 1.9246 0.1398 1.9243 -1.2975 0.1065c-1.2726,0.1039 -1.2984,0.1329 -1.2984,1.4496 0,1.3126 0.0298,1.3463 1.2689,1.4486l1.2691 0.1052 -0.0934 9.8033c-0.0515,5.3913 -0.2195,10.0597 -0.3749,10.3735 -0.2335,0.4745 0.1912,0.7972 2.5189,1.9086 1.539,0.7356 3.3272,1.7183 3.9747,2.1837zm13.4297 -0.4984l0 0c1.2537,0.8789 2.0077,1.207 2.3512,1.0241 0.2775,-0.149 1.8641,-1.6503 3.525,-3.3366l3.0229 -3.0645 -0.9597 -0.8357c-0.9129,-0.7944 -0.9999,-0.8083 -1.7914,-0.29 -0.4586,0.3005 -0.9009,0.4768 -0.9845,0.3932 -0.0835,-0.0839 -0.1435,-6.8397 -0.1328,-15.0139l0.021 -14.8614 -0.762 0.221c-0.4199,0.1222 -2.576,0.6066 -4.7918,1.0765 -2.216,0.4695 -4.0911,0.9175 -4.1673,0.9938 -0.0772,0.0762 0.0368,0.5247 0.2508,0.9956 0.5071,1.1124 0.5592,28.5585 0.0551,28.8696 -0.8123,0.5027 -0.2973,1.4354 1.0911,1.9766 0.7835,0.3055 2.2573,1.139 3.2724,1.8516zm18.8425 0.0068l0 0c2.2397,1.4161 2.4277,1.4147 3.9898,-0.0414 1.4701,-1.3709 4.3048,-3.0062 6.8065,-3.9284l2.4267 -0.8945 0.1023 -1.7564c0.0751,-1.2961 -0.026,-1.8051 -0.3859,-1.9435 -0.6974,-0.2673 -5.0811,1.3256 -6.6584,2.4194l-1.3337 0.9246 -2.8254 -1.4905c-2.2348,-1.1795 -2.8251,-1.645 -2.8288,-2.233 -0.0047,-0.8211 0.4083,-0.9731 5.2012,-1.9237 3.1863,-0.6313 3.3264,-0.6607 6.4856,-1.3399 1.3514,-0.2907 2.5218,-0.5279 2.6029,-0.5279 0.08,0 0.1448,-1.7193 0.1448,-3.8208l0 -3.8209 -2.9382 -1.4073c-1.6151,-0.7737 -4.032,-2.2448 -5.3718,-3.2685 -1.5419,-1.1789 -2.6288,-1.7872 -2.964,-1.6585 -0.2905,0.1112 -1.9147,1.0985 -3.6085,2.1943 -1.6937,1.0949 -4.0625,2.51 -5.2635,3.1436l-2.1817 1.1521 -0.0906 8.08 -0.0906 8.0794 1.769 0.5794c2.1912,0.7177 4.2872,1.7582 7.0124,3.4821zm2.9817 -14.5352l0 0c-2.5876,0.4921 -3.1709,0.5308 -3.4686,0.2321 -0.1234,-0.1236 -0.2235,-1.3246 -0.2235,-2.6684 0,-2.0988 0.0977,-2.5138 0.7023,-2.9359 0.648,-0.454 0.881,-0.3726 3.038,1.0585 2.2196,1.4734 2.3302,1.6094 2.236,2.7251 -0.0998,1.1622 -0.1234,1.1793 -2.2841,1.5886zm11.8208 -7.8147l0 0c-0.6092,-0.4141 -1.2832,-0.8106 -1.4972,-0.8831 -0.2858,-0.095 -0.1976,-1.2088 0.3317,-4.137 0.3987,-2.203 1.4913,-8.2274 2.43,-13.3852 0.9375,-5.1586 1.5831,-9.5018 1.4338,-9.651 -0.1493,-0.1498 -1.702,-0.851 -3.4497,-1.5585l-3.178 -1.286 -0.106 -1.28c-0.0999,-1.1936 -0.054,-1.2657 0.6704,-1.0723 7.5417,2.0124 12.0667,3.1058 12.1654,2.9388 0.0682,-0.1136 0.3835,-1.4832 0.6999,-3.0427 0.3163,-1.5592 0.6387,-3.003 0.7186,-3.2088 0.0801,-0.2085 -1.0221,-0.8549 -2.4911,-1.4615l-2.6323 -1.0875 0.6315 -3.5565c0.3964,-2.2408 0.5129,-3.6742 0.3117,-3.8745 -0.174,-0.1756 -3.1698,-1.9486 -6.6536,-3.9408l-6.3374 -3.6228 -0.0917 4.9928c-0.0504,2.7462 -0.1964,4.9924 -0.3211,4.9924 -0.1258,0 -2.6899,-1.0958 -5.6974,-2.4351l-5.4681 -2.4347 -0.0047 -6.2136 -0.0049 -6.2136 -0.9209 -0.5381c-0.5069,-0.2959 -4.1214,-2.5247 -8.031,-4.9538 -3.9121,-2.4291 -7.1972,-4.4162 -7.3042,-4.4162 -0.1059,0 -0.1917,3.4105 -0.1917,7.579 0,7.4101 -0.0143,7.5745 -0.6681,7.3678 -0.367,-0.1163 -3.0483,-1.2474 -5.9593,-2.5133l-5.293 -2.3004 -0.089 -8.9087 -0.0902 -8.9074 -1.925 -1.1479c-13.6268,-8.1193 -19.5574,-11.4514 -19.5574,-11.4103 -0.0115,6.5726 0.0045,1.4702 0.0045,22.5222l0 22.5048 -3.1145 0.0441c-0.0863,-9.3025 -0.2247,-18.6032 -0.243,-27.9069 0,-9.3919 -0.1422,-16.7761 -0.1412,-17.1031 0.0004,-0.1705 -13.4648,7.7911 -19.1651,11.2338l-2.0153 1.2162 -0.1675 8.9414 -0.1681 8.9414 -5.694 2.4801c-3.1321,1.364 -5.7768,2.4806 -5.8765,2.4806 -0.0997,0 -0.1383,-3.4005 -0.0853,-7.5571 0.0628,-4.9505 -0.0212,-7.5577 -0.2441,-7.5577 -0.3093,0 -10.4089,6.1526 -14.7097,8.9608l-1.7626 1.1514 0 6.9309 -2.6022 0.1525c-1.5703,0.0918 -3.1303,0.4043 -3.9343,0.7879 -1.7695,0.8431 -3.649,2.7659 -4.1058,4.1989 -0.3293,1.033 -0.3734,0.8197 -0.4034,-1.9466 -0.0192,-1.7092 -0.118,-3.1068 -0.2206,-3.1068 -0.1018,0 -3.2111,1.7569 -6.9087,3.9044 -5.8879,3.4197 -6.702,3.9931 -6.5516,4.6185 0.0944,0.3924 0.3357,1.6958 0.5374,2.8967 0.2009,1.2007 0.4356,2.5037 0.5217,2.8956 0.1331,0.6106 -0.2022,0.8682 -2.3579,1.8089 -1.6467,0.718 -2.512,1.2832 -2.5088,1.6388 0.0042,0.4668 0.2606,1.699 1.1854,5.6995 0.1462,0.63 0.3337,0.7472 0.923,0.5748 2.7289,-0.7968 14.8115,-3.8843 15.2019,-3.8843 0.3203,0 0.4796,0.3726 0.4796,1.1193 0,0.9653 -0.1497,1.1684 -1.0905,1.4767 -3.1799,1.043 -9.1795,3.2226 -9.3742,3.4064 -0.1232,0.1167 0.3692,3.461 1.094,7.4325 0.7246,3.9714 1.3984,7.6741 1.4967,8.2287 0.0989,0.5537 0.4512,2.4057 0.783,4.1145 0.5646,2.9083 0.5673,3.166 0.0441,4.0303 -0.3079,0.5078 -0.8338,1.645 -1.1697,2.5261 -0.3354,0.8817 -0.6638,1.5493 -0.7297,1.484 -0.0965,-0.0959 -0.9373,-4.3919 -2.0179,-10.3073 -0.0846,-0.4618 -0.7136,-3.9136 -1.3976,-7.6706l-1.2438 -6.8296 -2.8504 -1.0622 -2.8504 -1.0628 -1.0374 -4.8701c-0.5716,-2.679 -1.1387,-5.4031 -1.2602,-6.0545l-0.2217 -1.1841 2.2674 -0.9671c1.2474,-0.5321 2.3984,-1.0816 2.5578,-1.2217 0.1599,-0.1406 0.0405,-1.7137 -0.2679,-3.5254 -0.3579,-2.1006 -0.4415,-3.3876 -0.2339,-3.5952 0.1782,-0.1787 4.0631,-2.4704 8.6331,-5.0945l8.3097 -4.7699 3.8896 1.45c2.1393,0.7971 3.9283,1.4504 3.9744,1.4509 0.046,0.0005 0.084,-1.785 0.084,-3.9683l0 -3.9683 4.7843 -2.9717c2.6313,-1.6347 7.1783,-4.4554 10.1048,-6.2691l5.3194 -3.2969 3.9568 3.017c2.176,1.6584 4.0574,3.0159 4.1795,3.0159 0.1223,0 0.2032,-2.5254 0.1788,-5.6118l-0.0455 -5.6116 4.8154 -2.8312c2.6492,-1.556 8.4568,-4.9964 12.9066,-7.6452 4.4497,-2.6487 8.3128,-4.9 8.5857,-5.0059 0.2857,-0.1094 3.8838,1.8196 8.5288,4.5742 4.42,2.6206 10.3781,6.1444 13.2405,7.8334l5.2042 3.0698 0.1686 5.6353 0.1668 5.6348 3.9621 -3.026 3.9619 -3.0276 2.9218 1.7737c1.6066,0.9762 6.1316,3.772 10.0565,6.2141l7.1347 4.4397 0 4.0125c0,2.2076 0.0471,4.0138 0.1034,4.0138 0.0566,0 1.8926,-0.6621 4.0815,-1.4721l3.9778 -1.4721 1.7103 1.0214c0.9409,0.5618 4.8494,2.8307 8.6861,5.0415 5.3212,3.0659 6.9384,4.1488 6.8125,4.5647 -0.0905,0.2995 -0.2539,1.0737 -0.3632,1.7201 -0.1106,0.647 -0.3389,1.78 -0.5082,2.5192 -0.4482,1.9421 -0.4082,2.1676 0.4293,2.4908 0.4163,0.1593 1.6137,0.6715 2.6629,1.138l1.9067 0.8472 -0.4634 1.7929c-0.2541,0.9859 -0.8493,3.6701 -1.321,5.9654 -0.4727,2.2955 -0.8962,4.2068 -0.9397,4.2467 -0.046,0.0396 -1.2585,0.4884 -2.697,0.997 -2.7406,0.9681 -3.0487,1.2593 -3.3546,3.1779 -0.1047,0.647 -0.968,5.4826 -1.9219,10.748 -0.9527,5.2648 -1.7995,9.9503 -1.8808,10.4144 -0.081,0.4639 -0.2574,1.2285 -0.3916,1.6985l-0.2447 0.8555 -1.108 -0.7511zm-73.6006 -8.4067l0 0c0,-0.1217 0.3556,-0.6882 0.7897,-1.2598 2.463,-3.2414 2.7579,-5.0668 2.6363,-16.3208l-0.0996 -9.2364 -1.2138 -0.9235c-1.5067,-1.1473 -2.1194,-1.1568 -3.4295,-0.0537l-1.0333 0.8692 0 7.2029c0,6.1258 0.0832,7.3296 0.554,8.0475 0.6309,0.964 0.7389,0.8202 -2.341,3.1322l-2.2907 1.7193 -2.8212 -1.8773c-2.7685,-1.8424 -2.8107,-1.8915 -2.3092,-2.6579 0.4425,-0.6753 0.4977,-2.7976 0.4108,-15.7751l-0.1001 -14.9951 0.8396 -0.1843c0.4616,-0.101 2.5011,-0.5899 4.5329,-1.0861l3.6934 -0.9014 -0.1175 6.0193c-0.1339,6.8595 -0.3699,6.5081 2.8941,4.3023 3.5146,-2.3759 3.1011,-2.3906 5.9056,0.2104 1.365,1.2661 3.143,2.72 3.9512,3.2318l1.4685 0.9291 -0.102 10.2485c-0.0928,9.2724 -0.1667,10.4189 -0.7733,12.0429 -0.8064,2.1544 -3.2291,4.9524 -5.1299,5.9251 -2.1758,1.1128 -5.9152,1.9918 -5.9152,1.3912zm-58.2883 -7.5542l0 0c-0.1071,0.7663 -0.1043,1.3926 0.0072,1.3926 0.1113,0 1.0238,-0.4631 2.0276,-1.0301 2.6388,-1.4891 4.9214,-1.6586 7.3512,-0.5459l1.8793 0.8601 4.888 -2.5276 4.8876 -2.5288 0.9116 0.5977c0.5018,0.3285 2.0175,1.4757 3.3682,2.5499 1.3513,1.0733 2.5363,1.9523 2.6346,1.9523 0.0987,0 0.5797,-0.2835 1.0695,-0.63 2.5253,-1.7822 8.9873,-4.3226 12.5122,-4.9185 1.2898,-0.2178 1.3471,-0.2775 1.0825,-1.1197 -0.2977,-0.9451 -0.3591,-8.9022 -0.1565,-20.1864l0.1231 -6.8706 -2.1953 -0.8894c-1.2079,-0.4893 -2.7346,-1.2075 -3.3936,-1.5962l-1.1967 -0.7071 -1.5993 1.9789c-0.8796,1.0889 -1.8637,2.4278 -2.1866,2.9763l-0.5871 0.9974 1.1743 0.6934 1.1748 0.6932 0 11.0953c0,12.7561 0.1833,12.1933 -3.0604,9.3824l-1.9761 -1.7123 0 -10.5247c0,-6.1727 0.1384,-10.8886 0.3345,-11.4045 0.3037,-0.7994 0.2417,-0.9115 -0.6781,-1.2323 -0.5563,-0.1938 -2.2031,-0.9295 -3.6595,-1.6334l-2.6473 -1.2804 -0.656 0.7277c-1.5383,1.7069 -3.7735,4.6428 -3.7735,4.9566 0,0.1865 0.5287,0.5609 1.1747,0.8311l1.1754 0.4907 0 21.0566 -1.9307 1.0126c-1.0618,0.5568 -2.119,0.9433 -2.3501,0.8583 -0.3266,-0.12 -0.4195,-3.3357 -0.4195,-14.5305l0 -14.3763 -3.2975 -0.4199c-4.469,-0.5702 -6.7259,-0.3501 -8.4125,0.8193 -2.3805,1.6498 -3.0228,4.52 -1.2837,5.7384 1.1063,0.7751 1.5777,0.6217 1.5777,-0.5141 0,-1.1422 0.5752,-1.5144 1.8474,-1.1946l0.8391 0.2105 0 11.749c0,6.4617 -0.1274,11.7485 -0.284,11.7485 -0.1557,0 -1.2,0.5922 -2.3207,1.3173 -2.2863,1.4779 -3.6622,3.4467 -3.9756,5.6866zm76.9231 -0.6514l0 0c1.1089,0.7543 2.0688,1.3714 2.1346,1.3709 0.117,0.001 5.1228,-3.3003 5.3851,-3.5506 0.0712,-0.0698 -0.05,-0.3446 -0.2719,-0.612 -0.2941,-0.3541 -0.3951,-3.1054 -0.374,-10.2016 0.0267,-9.4849 -0.062,-10.8246 -0.7164,-10.8246 -0.1764,0 -1.7455,-0.6801 -3.4885,-1.5112 -1.7437,-0.8316 -3.2351,-1.5117 -3.3153,-1.5117 -0.2578,0 -3.8857,5.2943 -3.8857,5.6701 0,0.199 0.6037,0.6704 1.3425,1.0472l1.3436 0.6859 0 7.7499c0,6.7774 -0.0741,7.8759 -0.5882,8.7483 -0.5145,0.8748 -0.5256,1.0335 -0.084,1.2833 0.2771,0.1567 1.4101,0.9019 2.5184,1.6559zm17.4609 0.6578l0 0c0.5535,0.3662 1.0488,0.6767 1.1006,0.6906 0.2341,0.062 6.2973,-5.4748 6.3819,-5.8296 0.1366,-0.5678 -1.1607,-1.6577 -1.6783,-1.4096 -0.2376,0.1131 -0.6845,0.3882 -0.9939,0.6097 -0.4329,0.3116 -0.761,0.3138 -1.428,0.0096l-0.8645 -0.3936 0 -18.152 4.0674 0 -0.1036 -1.427 -0.1035 -1.4276 -1.8959 -0.0997c-1.8596,-0.0974 -1.9008,-0.1222 -2.1078,-1.2262 -0.1154,-0.6194 -0.0506,-1.8421 0.1458,-2.7159 0.1952,-0.8744 0.3129,-1.6284 0.26,-1.6752 -0.0529,-0.0474 -1.7079,0.2559 -3.6803,0.6736 -5.87,1.2437 -5.3128,0.9277 -5.3128,3.0126 0,1.8074 -0.0073,1.8204 -1.0911,1.9251 -1.0209,0.0983 -1.0976,0.1953 -1.1927,1.5116l-0.1028 1.4055 1.2777 0.1057 1.2772 0.1052 0 9.6392c0,7.2648 -0.1029,9.7435 -0.4191,10.0597 -0.2316,0.2301 -0.4208,0.5384 -0.4208,0.684 0,0.1466 1.3224,0.9392 2.9377,1.762 1.6172,0.8234 3.3922,1.7964 3.9467,2.1621zm17.7555 -0.2958l0 0c0.7597,0.5394 1.5055,0.9872 1.6572,0.9964 0.1505,0.0079 1.1232,-0.6766 2.1606,-1.5226 2.0432,-1.6645 4.3178,-2.9258 6.9665,-3.8607l1.6786 -0.5931 0.1998 -4.1056 -0.9397 0.2238c-1.6397,0.3896 -4.6731,1.7017 -5.9634,2.5783l-1.2455 0.8463 -2.7406 -1.4618c-2.209,-1.1781 -2.763,-1.6288 -2.8488,-2.3179 -0.0587,-0.4701 -0.0377,-0.8555 0.0471,-0.8555 0.0847,0 1.6433,-0.3124 3.4651,-0.6942 1.8207,-0.3813 3.612,-0.7572 3.9814,-0.8349 0.3693,-0.0767 1.5032,-0.3051 2.5183,-0.5068 1.0162,-0.2016 2.4136,-0.5118 3.1062,-0.6896l1.2585 -0.3235 0 -7.5749 -1.8794 -0.7797c-2.0207,-0.8376 -7.3936,-4.2425 -8.1498,-5.1642 -0.2542,-0.3087 -0.6011,-0.5619 -0.7728,-0.5619 -0.1706,0 -1.7773,0.9698 -3.5686,2.1544 -1.7913,1.1853 -4.3506,2.7116 -5.6905,3.3912l-2.4347 1.2368 0 16.2658 1.6173 0.4145c1.849,0.4727 5.5411,2.2958 7.5771,3.7396zm2.7816 -14.8094l0 0 2.1267 -0.3704 0 -1.2473c0,-1.1707 -0.1366,-1.3343 -2.2208,-2.6635 -3.1322,-1.9972 -3.4873,-1.812 -3.4873,1.819 0,3.2519 -0.1929,3.1197 3.5814,2.4623z"/>
   <path class="fil2" d="M159.1638 110.5571c0,0.3583 -0.0882,0.6924 -0.2682,1.0021 -0.1798,0.3101 -0.4233,0.5536 -0.7328,0.7324 -0.3092,0.1777 -0.6445,0.2678 -1.002,0.2678 -0.3575,0 -0.6893,-0.0901 -0.9998,-0.2678 -0.3093,-0.1787 -0.554,-0.4223 -0.734,-0.7324 -0.1776,-0.3097 -0.2682,-0.6438 -0.2682,-1.0021 0,-0.357 0.0906,-0.6901 0.2682,-1.0011 0.1799,-0.3102 0.4259,-0.555 0.734,-0.7338 0.3105,-0.1778 0.6423,-0.2669 0.9998,-0.2669 0.3575,0 0.6928,0.0891 1.002,0.2669 0.3107,0.1787 0.5529,0.4236 0.7328,0.7338 0.18,0.311 0.2682,0.6441 0.2682,1.0011zm-0.3869 0l0 0c0,-0.4466 -0.1587,-0.8275 -0.4741,-1.1427 -0.3152,-0.3157 -0.695,-0.4737 -1.142,-0.4737 -0.4471,0 -0.8281,0.158 -1.1434,0.4737 -0.314,0.3152 -0.4727,0.6961 -0.4727,1.1427 0,0.4462 0.1587,0.8271 0.4727,1.1427 0.3153,0.3157 0.6963,0.4737 1.1434,0.4737 0.447,0 0.8268,-0.158 1.142,-0.4737 0.3154,-0.3156 0.4741,-0.6965 0.4741,-1.1427zm-2.5241 -1.0705l0 0 0 2.1416 0.5317 0 0 -0.8418c0.0282,-0.006 0.0505,-0.0082 0.067,-0.0082 0.0693,0 0.1388,0.0394 0.2093,0.1194 0.0705,0.079 0.207,0.3225 0.4129,0.7296l0.628 0c-0.2269,-0.4052 -0.3422,-0.6115 -0.3457,-0.6188 -0.0588,-0.0966 -0.1166,-0.1682 -0.1694,-0.2179 -0.0401,-0.0344 -0.1,-0.0679 -0.1823,-0.0997 0.2,-0.0468 0.3458,-0.1227 0.4387,-0.2278 0.093,-0.1049 0.139,-0.2293 0.139,-0.3726 0,-0.1839 -0.0601,-0.33 -0.1824,-0.4397 -0.1223,-0.1094 -0.3177,-0.1641 -0.5892,-0.1641l-0.9574 0zm0.5328 0.9079l0 0 0.2305 0c0.1542,0 0.2624,-0.0258 0.3248,-0.0749 0.0634,-0.05 0.0951,-0.114 0.0951,-0.193 0,-0.078 -0.0293,-0.1428 -0.0904,-0.1924 -0.0601,-0.0497 -0.1623,-0.0744 -0.3083,-0.0744l-0.2516 0 0 0.5348z"/>
  </g>
 </g>
</svg>
